<svg width="53" height="52" viewBox="0 0 53 52" fill="none" xmlns="http://www.w3.org/2000/svg">
<path d="M9.48172 33.5642H2.94922C2.50234 33.5642 2.13672 33.1985 2.13672 32.7517V23.5867C2.13672 22.0592 3.37984 20.816 4.90734 20.816H10.1155C11.318 20.816 12.4311 21.466 13.0161 22.5223L14.6005 25.3579C14.7792 25.6829 15.1205 25.886 15.4942 25.886H19.3455C20.7348 25.886 21.8642 27.0154 21.8642 28.4048C21.8642 29.7942 20.7348 30.9235 19.3455 30.9235H12.618C11.6186 30.9235 10.7086 30.4198 10.1642 29.5829L8.66109 27.2348C8.41734 26.8529 8.53109 26.3573 8.90484 26.1135C9.28672 25.8698 9.78234 25.9835 10.0261 26.3573L11.5292 28.7054C11.7648 29.0792 12.1711 29.2985 12.6098 29.2985H19.3373C19.8248 29.2985 20.2311 28.9004 20.2311 28.4048C20.2311 27.9092 19.833 27.511 19.3373 27.511H15.4861C14.5273 27.511 13.6417 26.991 13.1705 26.1542L11.5861 23.3185C11.2855 22.7823 10.7167 22.4492 10.0992 22.4492H4.90734C4.27359 22.4492 3.76172 22.961 3.76172 23.5948V31.9392H9.48172C9.92859 31.9392 10.2942 32.3048 10.2942 32.7517C10.2942 33.1985 9.92859 33.5642 9.48172 33.5642Z" fill="#0E1628"/>
<path d="M7.28805 19.5568C4.80992 19.5568 2.79492 17.5418 2.79492 15.0636C2.79492 12.5855 4.80992 10.5624 7.28805 10.5624C9.76617 10.5624 11.7812 12.5774 11.7812 15.0555C11.7812 17.5336 9.7743 19.5568 7.28805 19.5568ZM7.28805 12.1874C5.70367 12.1874 4.41992 13.4793 4.41992 15.0555C4.41992 16.6318 5.7118 17.9236 7.28805 17.9236C8.8643 17.9236 10.1562 16.6318 10.1562 15.0555C10.1562 13.4793 8.87242 12.1874 7.28805 12.1874Z" fill="#0E1628"/>
<path d="M26.4145 12.1874C23.9364 12.1874 21.9214 10.1724 21.9214 7.69424C21.9214 5.21612 23.9364 3.19299 26.4145 3.19299C28.8926 3.19299 30.9076 5.20799 30.9076 7.69424C30.9076 10.1724 28.8926 12.1874 26.4145 12.1874ZM26.4145 4.81799C24.8301 4.81799 23.5464 6.10987 23.5464 7.69424C23.5464 9.27862 24.8301 10.5624 26.4145 10.5624C27.9989 10.5624 29.2826 9.27049 29.2826 7.69424C29.2826 6.11799 27.9989 4.81799 26.4145 4.81799Z" fill="#0E1628"/>
<path d="M49.2779 33.5642H42.7454C42.2986 33.5642 41.9329 33.1986 41.9329 32.7517C41.9329 32.3049 42.2986 31.9392 42.7454 31.9392H48.4654V23.5867C48.4654 22.953 47.9536 22.4411 47.3198 22.4411H42.1117C41.4942 22.4411 40.9254 22.7742 40.6248 23.3105L39.0404 26.1461C38.5773 26.983 37.6836 27.503 36.7248 27.503H32.8736C32.3779 27.503 31.9798 27.9011 31.9798 28.3967C31.9798 28.8924 32.3779 29.2905 32.8736 29.2905H39.6011C40.0398 29.2905 40.4461 29.0711 40.6817 28.6974L42.1848 26.3492C42.4286 25.9755 42.9323 25.8617 43.3061 26.1055C43.6879 26.3492 43.7936 26.853 43.5498 27.2267L42.0467 29.5749C41.5104 30.4117 40.5923 30.9155 39.5929 30.9155H32.8654C31.4761 30.9155 30.3467 29.7861 30.3467 28.3967C30.3467 27.0074 31.4761 25.878 32.8654 25.878H36.7167C37.0904 25.878 37.4317 25.6749 37.6104 25.3499L39.1948 22.5142C39.7798 21.4661 40.8929 20.808 42.0954 20.808H47.3036C48.8311 20.808 50.0742 22.0511 50.0742 23.5786V32.7355C50.0904 33.1986 49.7329 33.5642 49.2779 33.5642Z" fill="#0E1628"/>
<path d="M44.9311 19.5568C42.453 19.5568 40.438 17.5418 40.438 15.0636C40.438 12.5855 42.453 10.5624 44.9311 10.5624C47.4092 10.5624 49.4324 12.5774 49.4324 15.0555C49.4324 17.5336 47.4174 19.5568 44.9311 19.5568ZM44.9311 12.1874C43.3467 12.1874 42.063 13.4793 42.063 15.0555C42.063 16.6318 43.3467 17.9236 44.9311 17.9236C46.5155 17.9236 47.8074 16.6318 47.8074 15.0555C47.8074 13.4793 46.5155 12.1874 44.9311 12.1874Z" fill="#0E1628"/>
<path d="M38.5775 26.1219C38.2931 26.1219 38.0169 25.9756 37.8706 25.7075L34.2062 19.1669H18.0212L14.3569 25.7075C14.1375 26.0975 13.6419 26.2356 13.2519 26.0162C12.8619 25.7969 12.7237 25.3012 12.9431 24.9112L16.8431 17.9562C16.9894 17.6962 17.2575 17.5419 17.55 17.5419H34.6856C34.9781 17.5419 35.2544 17.7044 35.3925 17.9562L39.2925 24.9112C39.5119 25.3012 39.3737 25.7969 38.9837 26.0162C38.8537 26.0894 38.7156 26.1219 38.5775 26.1219Z" fill="#0E1628"/>
<path d="M44.9392 37.4643H7.28799C7.00362 37.4643 6.73549 37.3099 6.58924 37.0661C6.44299 36.8143 6.44299 36.5055 6.58112 36.2618L10.538 29.2093C10.7574 28.8193 11.253 28.6811 11.643 28.9005C12.033 29.1199 12.1711 29.6155 11.9517 30.0055L8.67737 35.8474H43.5499L40.2755 30.0055C40.0561 29.6155 40.1942 29.1199 40.5842 28.9005C40.9824 28.6811 41.4699 28.8193 41.6892 29.2093L45.6461 36.2618C45.7842 36.5136 45.7842 36.8224 45.638 37.0661C45.4917 37.3099 45.2236 37.4643 44.9392 37.4643Z" fill="#0E1628"/>
<path d="M44.9312 41.4537H7.28809C6.84121 41.4537 6.47559 41.0881 6.47559 40.6412V36.6437C6.47559 36.1968 6.84121 35.8312 7.28809 35.8312C7.73496 35.8312 8.10059 36.1968 8.10059 36.6437V39.8206H44.1187V36.6437C44.1187 36.1968 44.4843 35.8312 44.9312 35.8312C45.3781 35.8312 45.7437 36.1968 45.7437 36.6437V40.6331C45.7437 41.0881 45.3862 41.4537 44.9312 41.4537Z" fill="#0E1628"/>
<path d="M31.7771 19.1668H21.0439C20.5971 19.1668 20.2314 18.8011 20.2314 18.3543V16.5586C20.2314 14.6574 21.7752 13.1136 23.6764 13.1136H29.1446C31.0458 13.1136 32.5896 14.6574 32.5896 16.5586V18.3543C32.5896 18.8011 32.2239 19.1668 31.7771 19.1668ZM21.8564 17.5418H30.9646V16.5586C30.9646 15.5511 30.1439 14.7386 29.1446 14.7386H23.6764C22.6689 14.7386 21.8564 15.5593 21.8564 16.5586V17.5418Z" fill="#0E1628"/>
<path d="M38.5774 48.8069H13.6499C13.203 48.8069 12.8374 48.4412 12.8374 47.9944V40.6412C12.8374 40.1944 13.203 39.8287 13.6499 39.8287H38.5855C39.0324 39.8287 39.398 40.1944 39.398 40.6412V47.9944C39.3899 48.4412 39.0324 48.8069 38.5774 48.8069ZM14.4624 47.1819H37.773V41.4537H14.4624V47.1819Z" fill="#0E1628"/>
<path d="M7.28841 40.0643C5.86653 40.0643 4.69653 39.5849 3.81903 38.6343C1.86903 36.5218 2.12091 32.8412 2.13716 32.6868C2.16966 32.2399 2.55153 31.9068 3.00653 31.9393C3.45341 31.9718 3.78653 32.3618 3.75403 32.8087C3.75403 32.8412 3.54278 35.9449 5.01341 37.5293C5.58216 38.1387 6.32966 38.4393 7.28841 38.4393C7.73528 38.4393 8.10091 38.8049 8.10091 39.2518C8.10091 39.6987 7.74341 40.0643 7.28841 40.0643Z" fill="#0E1628"/>
<path d="M44.9312 40.0643C44.4843 40.0643 44.1187 39.6987 44.1187 39.2518C44.1187 38.8049 44.4843 38.4393 44.9312 38.4393C45.898 38.4393 46.6374 38.1387 47.2062 37.5293C48.6768 35.9449 48.4655 32.8412 48.4655 32.8087C48.433 32.3618 48.7662 31.9718 49.213 31.9393C49.6518 31.9068 50.0499 32.2399 50.0824 32.6868C50.0905 32.8412 50.3505 36.5218 48.4005 38.6343C47.5312 39.5849 46.3612 40.0643 44.9312 40.0643Z" fill="#0E1628"/>
</svg>
