<svg width="53" height="53" viewBox="0 0 53 53" fill="none" xmlns="http://www.w3.org/2000/svg">
<path d="M8.26689 5.0498C6.48199 5.0498 5.01758 6.51414 5.01758 8.29907C5.01758 10.084 6.48199 11.5483 8.26689 11.5483C9.76995 11.5483 11.0334 10.5052 11.3988 9.11142H18.0148V12.9954C14.5625 15.6718 12.3285 19.8469 12.3285 24.5457C12.3285 25.6648 12.4656 26.7507 12.7046 27.7982H8.26531C8.23941 27.7969 8.21347 27.7969 8.18757 27.7982C7.98697 27.8182 7.801 27.9121 7.66581 28.0616C7.53063 28.2112 7.45589 28.4057 7.45615 28.6073V37.6587C6.0614 38.0235 5.01758 39.2885 5.01758 40.7922C5.01758 42.5772 6.48199 44.0415 8.26689 44.0415C10.0518 44.0415 11.5162 42.5772 11.5162 40.7922C11.5162 39.2897 10.4738 38.0262 9.0808 37.6603V29.4165H13.1805C15.1058 34.8453 20.1402 38.7958 26.1413 39.1263V42.5327C24.7458 42.897 23.7011 44.1619 23.7011 45.6662C23.7011 47.4511 25.1655 48.9156 26.9504 48.9156C28.7354 48.9156 30.1998 47.4511 30.1998 45.6662C30.1998 44.1619 29.1551 42.897 27.7596 42.5327V39.1263C33.7597 38.7958 38.7943 34.847 40.7204 29.4197H44.8217V37.6603C43.4279 38.0257 42.3847 39.2892 42.3847 40.7922C42.3847 42.5772 43.8491 44.0415 45.634 44.0415C47.4189 44.0415 48.8833 42.5772 48.8833 40.7922C48.8833 39.2892 47.8401 38.0257 46.4463 37.6603V28.6073C46.4447 28.1585 46.0828 27.7931 45.634 27.795H41.1963C41.4348 26.7484 41.5724 25.6637 41.5724 24.5457C41.5724 19.8469 39.3383 15.6718 35.8861 12.9954V9.11142H42.5021C42.8675 10.5052 44.1309 11.5483 45.634 11.5483C47.4189 11.5483 48.8833 10.084 48.8833 8.29907C48.8833 6.51414 47.4189 5.0498 45.634 5.0498C44.1309 5.0498 42.8675 6.09295 42.5021 7.48673H35.0737C34.6249 7.48486 34.2628 7.85024 34.2614 8.29907V11.9022C32.1079 10.6526 29.6158 9.92376 26.9504 9.92376C24.2851 9.92376 21.793 10.6526 19.6395 11.9022V8.29907C19.6379 7.85024 19.276 7.48486 18.8272 7.48673H11.3988C11.0334 6.09295 9.76995 5.0498 8.26689 5.0498ZM8.26689 6.67439C9.1738 6.67439 9.89155 7.39216 9.89155 8.29907C9.89155 9.20596 9.1738 9.92376 8.26689 9.92376C7.36001 9.92376 6.64224 9.20596 6.64224 8.29907C6.64224 7.39216 7.36001 6.67439 8.26689 6.67439ZM45.634 6.67439C46.5409 6.67439 47.2587 7.39216 47.2587 8.29907C47.2587 9.20596 46.5409 9.92376 45.634 9.92376C44.7271 9.92376 44.0093 9.20596 44.0093 8.29907C44.0093 7.39216 44.7271 6.67439 45.634 6.67439ZM26.9504 11.5483C34.1382 11.5483 39.9477 17.3579 39.9477 24.5457C39.9477 31.7335 34.1382 37.5429 26.9504 37.5429C19.7626 37.5429 13.9532 31.7335 13.9532 24.5457C13.9532 17.3579 19.7626 11.5483 26.9504 11.5483ZM8.26689 39.1676C9.1738 39.1676 9.89155 39.8854 9.89155 40.7922C9.89155 41.6991 9.1738 42.4169 8.26689 42.4169C7.36001 42.4169 6.64224 41.6991 6.64224 40.7922C6.64224 39.8854 7.36001 39.1676 8.26689 39.1676ZM45.634 39.1676C46.5409 39.1676 47.2587 39.8854 47.2587 40.7922C47.2587 41.6991 46.5409 42.4169 45.634 42.4169C44.7271 42.4169 44.0093 41.6991 44.0093 40.7922C44.0093 39.8854 44.7271 39.1676 45.634 39.1676ZM26.9504 44.0415C27.8573 44.0415 28.5751 44.7593 28.5751 45.6662C28.5751 46.5731 27.8573 47.2909 26.9504 47.2909C26.0436 47.2909 25.3258 46.5731 25.3258 45.6662C25.3258 44.7593 26.0436 44.0415 26.9504 44.0415Z" fill="#0E1628"/>
<path d="M26.9504 13.1733C26.7343 13.1733 26.5239 13.2624 26.3745 13.4128L19.0651 20.7222C18.8272 20.9614 18.8271 21.2966 18.8271 21.2966C18.8271 21.2966 18.8271 22.1089 19.6395 22.1089H20.4518V33.4815C20.4534 33.9303 20.8154 34.2955 21.2641 34.2938H32.6367C33.0855 34.2955 33.4475 33.9303 33.4491 33.4815C33.4491 29.6906 33.4491 25.8998 33.4491 22.1089H34.2614C35.0737 22.1089 35.0737 21.2966 35.0737 21.2966C35.0737 21.2966 35.0737 20.9615 34.8357 20.7222L27.5263 13.4128C27.371 13.2566 27.1713 13.1733 26.9504 13.1733ZM26.9504 15.1328L32.294 20.4827H21.6084L26.9504 15.1328ZM22.0765 22.109H23.7011V29.42H22.0765V22.109ZM25.3258 22.109H28.5751V29.42H25.3258V22.109ZM30.1997 22.109H31.8244V29.42L30.1997 29.4169V22.109ZM22.0765 31.0446H31.8244V32.6692H22.0765V31.0446Z" fill="#0E1628"/>
<path d="M26.9507 5.0498C27.0574 5.0498 27.163 5.07082 27.2616 5.11166C27.3602 5.15249 27.4498 5.21239 27.5252 5.28784C27.6007 5.36329 27.6605 5.45288 27.7013 5.55146C27.7422 5.65004 27.7632 5.75571 27.7632 5.86241C27.7632 5.96911 27.7422 6.07468 27.7013 6.17326C27.6605 6.27185 27.6007 6.36144 27.5252 6.43689C27.4498 6.51234 27.3602 6.57224 27.2616 6.61307C27.163 6.6539 27.0574 6.67493 26.9507 6.67492C26.844 6.67492 26.7383 6.6539 26.6397 6.61307C26.5412 6.57224 26.4516 6.51234 26.3761 6.43689C26.3007 6.36144 26.2409 6.27184 26.2 6.17326C26.1592 6.07469 26.1382 5.96911 26.1382 5.86241C26.1382 5.75571 26.1592 5.65004 26.2 5.55146C26.2409 5.45288 26.3007 5.36329 26.3761 5.28784C26.4516 5.21239 26.5412 5.15249 26.6397 5.11166C26.7383 5.07082 26.844 5.04981 26.9507 5.0498Z" fill="#0E1628"/>
<path d="M23.7012 5.0498C23.8079 5.0498 23.9135 5.07082 24.0121 5.11166C24.1107 5.15249 24.2003 5.21239 24.2757 5.28784C24.3512 5.36329 24.411 5.45288 24.4518 5.55146C24.4927 5.65004 24.5137 5.75571 24.5137 5.86241C24.5137 5.96911 24.4927 6.07468 24.4518 6.17326C24.411 6.27185 24.3512 6.36144 24.2757 6.43689C24.2003 6.51234 24.1107 6.57224 24.0121 6.61307C23.9135 6.6539 23.8079 6.67493 23.7012 6.67492C23.5945 6.67492 23.4888 6.6539 23.3902 6.61307C23.2917 6.57224 23.2021 6.51234 23.1266 6.43689C23.0512 6.36144 22.9913 6.27184 22.9505 6.17326C22.9097 6.07469 22.8887 5.96911 22.8887 5.86241C22.8887 5.75571 22.9097 5.65004 22.9505 5.55146C22.9913 5.45288 23.0512 5.36329 23.1266 5.28784C23.2021 5.21239 23.2917 5.15249 23.3902 5.11166C23.4888 5.07082 23.5945 5.04981 23.7012 5.0498Z" fill="#0E1628"/>
<path d="M30.1997 5.0498C30.3064 5.0498 30.4121 5.07082 30.5106 5.11166C30.6092 5.15249 30.6988 5.21239 30.7742 5.28784C30.8497 5.36329 30.9095 5.45288 30.9504 5.55146C30.9912 5.65004 31.0122 5.75571 31.0122 5.86241C31.0122 5.96911 30.9912 6.07468 30.9504 6.17326C30.9095 6.27185 30.8497 6.36144 30.7742 6.43689C30.6988 6.51234 30.6092 6.57224 30.5106 6.61307C30.4121 6.6539 30.3064 6.67493 30.1997 6.67492C30.093 6.67492 29.9873 6.6539 29.8888 6.61307C29.7902 6.57224 29.7006 6.51234 29.6252 6.43689C29.5497 6.36144 29.4899 6.27184 29.449 6.17326C29.4082 6.07469 29.3872 5.96911 29.3872 5.86241C29.3872 5.75571 29.4082 5.65004 29.449 5.55146C29.4899 5.45288 29.5497 5.36329 29.6252 5.28784C29.7006 5.21239 29.7902 5.15249 29.8888 5.11166C29.9873 5.07082 30.093 5.04981 30.1997 5.0498Z" fill="#0E1628"/>
<path d="M44.8218 48.1035C44.8218 48.2102 44.8428 48.3159 44.8836 48.4145C44.9244 48.5131 44.9843 48.6026 45.0597 48.6781C45.1352 48.7535 45.2248 48.8134 45.3233 48.8543C45.4219 48.8951 45.5276 48.9161 45.6343 48.9161C45.741 48.9161 45.8466 48.8951 45.9452 48.8543C46.0438 48.8134 46.1334 48.7535 46.2088 48.6781C46.2843 48.6026 46.3441 48.5131 46.3849 48.4145C46.4258 48.3159 46.4468 48.2102 46.4468 48.1035C46.4468 47.9968 46.4258 47.8913 46.3849 47.7927C46.3441 47.6941 46.2843 47.6045 46.2088 47.5291C46.1334 47.4536 46.0438 47.3937 45.9452 47.3529C45.8466 47.312 45.741 47.291 45.6343 47.291C45.5276 47.291 45.4219 47.312 45.3233 47.3529C45.2248 47.3937 45.1352 47.4536 45.0597 47.5291C44.9843 47.6045 44.9244 47.6941 44.8836 47.7927C44.8428 47.8913 44.8218 47.9968 44.8218 48.1035Z" fill="#0E1628"/>
<path d="M43.1972 48.1037C43.1972 48.9164 42.3848 48.9165 42.3848 48.9165H34.2615C33.7199 48.9165 33.4492 48.5102 33.4492 48.1037C33.4492 47.6972 33.7197 47.291 34.2615 47.291H42.3848C42.3848 47.291 43.1972 47.291 43.1972 48.1037Z" fill="#0E1628"/>
<path d="M35.0742 44.8543C35.0742 44.961 35.0532 45.0666 35.0124 45.1652C34.9716 45.2638 34.9117 45.3534 34.8363 45.4288C34.7608 45.5043 34.6713 45.5641 34.5727 45.6049C34.4741 45.6458 34.3684 45.6668 34.2617 45.6668C34.155 45.6668 34.0494 45.6458 33.9508 45.6049C33.8522 45.5641 33.7626 45.5043 33.6872 45.4288C33.6117 45.3534 33.5519 45.2638 33.5111 45.1652C33.4702 45.0666 33.4492 44.961 33.4492 44.8543C33.4492 44.7476 33.4702 44.6419 33.5111 44.5433C33.5519 44.4447 33.6117 44.3551 33.6872 44.2797C33.7626 44.2042 33.8522 44.1444 33.9508 44.1036C34.0494 44.0628 34.155 44.0417 34.2617 44.0417C34.3684 44.0417 34.4741 44.0628 34.5727 44.1036C34.6713 44.1444 34.7608 44.2042 34.8363 44.2797C34.9117 44.3551 34.9716 44.4447 35.0124 44.5433C35.0532 44.6419 35.0742 44.7476 35.0742 44.8543Z" fill="#0E1628"/>
<path d="M36.6982 44.8544C36.6982 45.6671 37.5106 45.6671 37.5106 45.6671H40.7599C41.3016 45.6671 41.5722 45.2609 41.5722 44.8544C41.5722 44.448 41.3014 44.0417 40.7599 44.0417H37.5106C37.5106 44.0417 36.6982 44.0417 36.6982 44.8544Z" fill="#0E1628"/>
<path d="M7.45459 48.1035C7.45459 48.2102 7.4756 48.3159 7.51643 48.4145C7.55726 48.5131 7.61711 48.6026 7.69256 48.6781C7.768 48.7535 7.85757 48.8134 7.95615 48.8543C8.05473 48.8951 8.16038 48.9161 8.26708 48.9161C8.37378 48.9161 8.47944 48.8951 8.57802 48.8543C8.6766 48.8134 8.76617 48.7535 8.84162 48.6781C8.91707 48.6026 8.97692 48.5131 9.01776 48.4145C9.05859 48.3159 9.0796 48.2102 9.0796 48.1035C9.0796 47.9968 9.05859 47.8913 9.01776 47.7927C8.97692 47.6941 8.91707 47.6045 8.84162 47.5291C8.76617 47.4536 8.6766 47.3937 8.57802 47.3529C8.47944 47.312 8.37378 47.291 8.26708 47.291C8.16038 47.291 8.05473 47.312 7.95615 47.3529C7.85757 47.3937 7.768 47.4536 7.69256 47.5291C7.61711 47.6045 7.55726 47.6941 7.51643 47.7927C7.4756 47.8913 7.45459 47.9968 7.45459 48.1035Z" fill="#0E1628"/>
<path d="M20.452 48.1037C20.452 48.9164 19.6397 48.9165 19.6397 48.9165H11.5164C10.9747 48.9165 10.7041 48.5102 10.7041 48.1037C10.7041 47.6972 10.9746 47.291 11.5164 47.291H19.6397C19.6397 47.291 20.452 47.291 20.452 48.1037Z" fill="#0E1628"/>
<path d="M20.4522 44.8543C20.4522 44.961 20.4311 45.0666 20.3903 45.1652C20.3495 45.2638 20.2896 45.3534 20.2142 45.4288C20.1387 45.5043 20.0492 45.5641 19.9506 45.6049C19.852 45.6458 19.7464 45.6668 19.6397 45.6668C19.533 45.6668 19.4273 45.6458 19.3287 45.6049C19.2301 45.5641 19.1406 45.5043 19.0651 45.4288C18.9897 45.3534 18.9298 45.2638 18.889 45.1652C18.8482 45.0666 18.8271 44.961 18.8271 44.8543C18.8271 44.7476 18.8482 44.6419 18.889 44.5433C18.9298 44.4447 18.9897 44.3551 19.0651 44.2797C19.1406 44.2042 19.2301 44.1444 19.3287 44.1036C19.4273 44.0628 19.533 44.0417 19.6397 44.0417C19.7464 44.0417 19.852 44.0628 19.9506 44.1036C20.0492 44.1444 20.1387 44.2042 20.2142 44.2797C20.2896 44.3551 20.3495 44.4447 20.3903 44.5433C20.4311 44.6419 20.4522 44.7476 20.4522 44.8543Z" fill="#0E1628"/>
<path d="M12.3286 44.8544C12.3286 45.6671 13.141 45.6671 13.141 45.6671H16.3903C16.932 45.6671 17.2026 45.2609 17.2026 44.8544C17.2026 44.448 16.9318 44.0417 16.3903 44.0417H13.141C13.141 44.0417 12.3286 44.0417 12.3286 44.8544Z" fill="#0E1628"/>
<path d="M9.89159 20.4841C9.99829 20.4841 10.1039 20.5052 10.2025 20.546C10.3011 20.5868 10.3907 20.6466 10.4661 20.7221C10.5416 20.7975 10.6014 20.8871 10.6423 20.9857C10.6831 21.0843 10.7041 21.1899 10.7041 21.2966C10.7041 21.4033 10.6831 21.509 10.6423 21.6076C10.6014 21.7062 10.5416 21.7958 10.4661 21.8712C10.3907 21.9467 10.3011 22.0065 10.2025 22.0473C10.104 22.0881 9.99829 22.1092 9.89159 22.1092C9.78489 22.1092 9.67924 22.0881 9.58066 22.0473C9.48208 22.0065 9.39251 21.9466 9.31707 21.8711C9.24162 21.7957 9.18177 21.7062 9.14094 21.6076C9.10011 21.509 9.0791 21.4033 9.0791 21.2966C9.0791 21.0812 9.16471 20.8744 9.31708 20.7221C9.46945 20.5697 9.67611 20.4841 9.89159 20.4841Z" fill="#0E1628"/>
<path d="M6.64257 18.8596C6.74927 18.8596 6.85492 18.8805 6.9535 18.9214C7.05208 18.9622 7.14165 19.0221 7.2171 19.0976C7.29255 19.173 7.3524 19.2626 7.39324 19.3612C7.43407 19.4598 7.45509 19.5653 7.45509 19.672C7.45509 19.7787 7.43408 19.8844 7.39324 19.983C7.35241 20.0816 7.29256 20.1712 7.21711 20.2466C7.14166 20.3221 7.05209 20.382 6.95351 20.4228C6.85493 20.4636 6.74927 20.4846 6.64257 20.4846C6.53587 20.4845 6.43021 20.4635 6.33164 20.4227C6.23306 20.3819 6.14349 20.3221 6.06804 20.2466C5.9926 20.1712 5.93275 20.0816 5.89192 19.983C5.85109 19.8844 5.83008 19.7787 5.83008 19.672C5.83008 19.4566 5.91568 19.2499 6.06805 19.0976C6.22042 18.9452 6.42708 18.8596 6.64257 18.8596Z" fill="#0E1628"/>
<path d="M47.2588 22.1089C47.3655 22.1089 47.4711 22.1299 47.5697 22.1707C47.6683 22.2116 47.7579 22.2714 47.8333 22.3468C47.9088 22.4223 47.9686 22.5119 48.0094 22.6105C48.0503 22.709 48.0713 22.8147 48.0713 22.9214C48.0713 23.0281 48.0503 23.1338 48.0095 23.2323C47.9686 23.3309 47.9088 23.4204 47.8333 23.4959C47.7579 23.5713 47.6683 23.6312 47.5697 23.6721C47.4711 23.7129 47.3655 23.7339 47.2588 23.7339C47.1521 23.7339 47.0464 23.7129 46.9478 23.6721C46.8493 23.6312 46.7597 23.5713 46.6843 23.4959C46.6088 23.4204 46.549 23.3309 46.5081 23.2323C46.4673 23.1338 46.4463 23.0281 46.4463 22.9214C46.4463 22.7059 46.5319 22.4992 46.6843 22.3468C46.8366 22.1945 47.0433 22.1089 47.2588 22.1089Z" fill="#0E1628"/>
<path d="M44.0093 20.4841C44.116 20.4841 44.2216 20.5052 44.3202 20.546C44.4188 20.5868 44.5084 20.6466 44.5838 20.7221C44.6592 20.7975 44.7191 20.8871 44.7599 20.9857C44.8008 21.0843 44.8218 21.1899 44.8218 21.2966C44.8218 21.4033 44.8008 21.509 44.7599 21.6076C44.7191 21.7062 44.6593 21.7958 44.5838 21.8712C44.5084 21.9467 44.4188 22.0065 44.3202 22.0473C44.2216 22.0881 44.116 22.1092 44.0093 22.1092C43.9026 22.1092 43.7969 22.0881 43.6983 22.0473C43.5998 22.0065 43.5102 21.9466 43.4347 21.8711C43.3593 21.7957 43.2994 21.7062 43.2586 21.6076C43.2178 21.509 43.1968 21.4033 43.1968 21.2966C43.1968 21.0812 43.2824 20.8744 43.4348 20.7221C43.5871 20.5697 43.7938 20.4841 44.0093 20.4841Z" fill="#0E1628"/>
<path d="M6.64257 22.1089C6.74927 22.1089 6.85492 22.1299 6.9535 22.1707C7.05208 22.2116 7.14165 22.2714 7.2171 22.3468C7.29255 22.4223 7.3524 22.5119 7.39324 22.6105C7.43407 22.709 7.45509 22.8147 7.45509 22.9214C7.45509 23.0281 7.43408 23.1338 7.39324 23.2323C7.35241 23.3309 7.29256 23.4204 7.21711 23.4959C7.14166 23.5713 7.05209 23.6312 6.95351 23.6721C6.85493 23.7129 6.74927 23.7339 6.64257 23.7339C6.53587 23.7339 6.43021 23.7129 6.33164 23.6721C6.23306 23.6312 6.14349 23.5713 6.06804 23.4959C5.9926 23.4204 5.93275 23.3309 5.89192 23.2323C5.85109 23.1338 5.83008 23.0281 5.83008 22.9214C5.83008 22.7059 5.91568 22.4992 6.06805 22.3468C6.22042 22.1945 6.42708 22.1089 6.64257 22.1089Z" fill="#0E1628"/>
<path d="M47.2588 18.8596C47.3655 18.8596 47.4711 18.8805 47.5697 18.9214C47.6683 18.9622 47.7579 19.0221 47.8333 19.0976C47.9088 19.173 47.9686 19.2626 48.0094 19.3612C48.0503 19.4598 48.0713 19.5653 48.0713 19.672C48.0713 19.7787 48.0503 19.8844 48.0095 19.983C47.9686 20.0816 47.9088 20.1712 47.8333 20.2466C47.7579 20.3221 47.6683 20.382 47.5697 20.4228C47.4711 20.4636 47.3655 20.4846 47.2588 20.4846C47.1521 20.4845 47.0464 20.4635 46.9478 20.4227C46.8493 20.3819 46.7597 20.3221 46.6843 20.2466C46.6088 20.1712 46.549 20.0816 46.5081 19.983C46.4673 19.8844 46.4463 19.7787 46.4463 19.672C46.4463 19.4566 46.5319 19.2499 46.6843 19.0976C46.8366 18.9452 47.0433 18.8596 47.2588 18.8596Z" fill="#0E1628"/>
</svg>
