<svg width="53" height="53" viewBox="0 0 53 53" fill="none" xmlns="http://www.w3.org/2000/svg">
<g clip-path="url(#clip0_1341_9494)">
<path d="M21.5693 39.1692C21.5693 39.7302 21.1147 40.1848 20.5537 40.1848C19.9927 40.1848 19.5381 39.7302 19.5381 39.1692C19.5381 38.6082 19.9927 38.1536 20.5537 38.1536C21.1147 38.1536 21.5693 38.6082 21.5693 39.1692Z" fill="#0E1628"/>
<path d="M46.8525 39.7783H41.7754V34.7012C41.7754 34.1403 41.3209 33.6858 40.76 33.6858C40.1992 33.6858 39.7446 34.1403 39.7446 34.7012V40.7937C39.7446 41.3545 40.1992 41.8091 40.76 41.8091H46.8525C47.4134 41.8091 47.8679 41.3545 47.8679 40.7937C47.8679 40.2328 47.4134 39.7783 46.8525 39.7783Z" fill="#0E1628"/>
<path d="M8.06375 21.9079H14.4608C15.0217 21.9079 15.4762 21.4532 15.4762 20.8921C15.4762 20.331 15.0217 19.8762 14.4608 19.8762H8.06375C7.50289 19.8762 7.04834 20.331 7.04834 20.8921C7.04834 21.4532 7.50289 21.9079 8.06375 21.9079Z" fill="#0E1628"/>
<path d="M26.9506 19.8762H20.5535C19.9926 19.8762 19.5381 20.331 19.5381 20.8921C19.5381 21.4532 19.9926 21.9079 20.5535 21.9079H26.9506C27.5114 21.9079 27.966 21.4532 27.966 20.8921C27.966 20.331 27.5114 19.8762 26.9506 19.8762Z" fill="#0E1628"/>
<path d="M8.06375 28.0002H14.4608C15.0217 28.0002 15.4762 27.5454 15.4762 26.9843C15.4762 26.4233 15.0217 25.9685 14.4608 25.9685H8.06375C7.50289 25.9685 7.04834 26.4233 7.04834 26.9843C7.04834 27.5454 7.50289 28.0002 8.06375 28.0002Z" fill="#0E1628"/>
<path d="M16.4917 38.1536H8.06375C7.50289 38.1536 7.04834 38.6083 7.04834 39.1694C7.04834 39.7305 7.50289 40.1852 8.06375 40.1852H16.4917C17.0525 40.1852 17.5071 39.7305 17.5071 39.1694C17.5071 38.6083 17.0525 38.1536 16.4917 38.1536Z" fill="#0E1628"/>
<path d="M26.9506 25.9685H20.5535C19.9926 25.9685 19.5381 26.4233 19.5381 26.9843C19.5381 27.5454 19.9926 28.0002 20.5535 28.0002H26.9506C27.5114 28.0002 27.966 27.5454 27.966 26.9843C27.966 26.4233 27.5114 25.9685 26.9506 25.9685Z" fill="#0E1628"/>
<path d="M8.06375 34.0927H14.4608C15.0217 34.0927 15.4762 33.638 15.4762 33.0769C15.4762 32.5158 15.0217 32.061 14.4608 32.061H8.06375C7.50289 32.061 7.04834 32.5158 7.04834 33.0769C7.04834 33.638 7.50289 34.0927 8.06375 34.0927Z" fill="#0E1628"/>
<path d="M26.9506 32.061H20.5535C19.9926 32.061 19.5381 32.5158 19.5381 33.0769C19.5381 33.638 19.9926 34.0927 20.5535 34.0927H26.9506C27.5114 34.0927 27.966 33.638 27.966 33.0769C27.966 32.5158 27.5114 32.061 26.9506 32.061Z" fill="#0E1628"/>
<path d="M33.0432 21.9079H39.1357C39.6966 21.9079 40.1511 21.4532 40.1511 20.8921C40.1511 20.331 39.6966 19.8762 39.1357 19.8762H33.0432C32.4824 19.8762 32.0278 20.331 32.0278 20.8921C32.0278 21.4532 32.4824 21.9079 33.0432 21.9079Z" fill="#0E1628"/>
<path d="M46.2434 29.912V8.09737C46.2434 6.41758 44.8769 5.05114 43.1971 5.05114H40.1509V4.03573C40.1509 2.35277 38.7876 0.989502 37.1047 0.989502C35.4249 0.989502 34.0584 2.35594 34.0584 4.03573V5.05114H25.6305V4.03573C25.6305 2.35277 24.2673 0.989502 22.5843 0.989502C20.9045 0.989502 19.5381 2.35594 19.5381 4.03573V5.05114H11.1102V4.03573C11.1102 2.35277 9.74689 0.989502 8.06393 0.989502C6.38414 0.989502 5.0177 2.35594 5.0177 4.03573V5.05114H4.00229C2.3225 5.05114 0.956055 6.41758 0.956055 8.09737V41.1998C0.956055 42.8795 2.3225 44.246 4.00229 44.246H29.075C30.6072 49.4234 35.361 52.9785 40.7601 52.9785C47.4789 52.9785 52.9451 47.5124 52.9451 40.7936C52.9451 36.1735 50.3351 31.9746 46.2434 29.912ZM36.0893 4.03573C36.0893 3.47567 36.5446 3.02032 37.1047 3.02032C37.6651 3.02032 38.1201 3.47488 38.1201 4.03573V8.09737C38.1201 8.65744 37.6647 9.11279 37.1047 9.11279C36.5446 9.11279 36.0893 8.65744 36.0893 8.09737V4.03573ZM21.5689 4.03573C21.5689 3.47567 22.0242 3.02032 22.5843 3.02032C23.1448 3.02032 23.5997 3.47488 23.5997 4.03573V8.09737C23.5997 8.65744 23.1444 9.11279 22.5843 9.11279C22.0242 9.11279 21.5689 8.65744 21.5689 8.09737V4.03573ZM7.04852 4.03573C7.04852 3.47567 7.50386 3.02032 8.06393 3.02032C8.62439 3.02032 9.07934 3.47488 9.07934 4.03573V8.09737C9.07934 8.65744 8.62399 9.11279 8.06393 9.11279C7.50386 9.11279 7.04852 8.65744 7.04852 8.09737V4.03573ZM4.00229 7.08196H5.0177V8.09737C5.0177 9.77717 6.38414 11.1436 8.06393 11.1436C9.74372 11.1436 11.1102 9.77717 11.1102 8.09737V7.08196H19.5381V8.09737C19.5381 9.77717 20.9045 11.1436 22.5843 11.1436C24.2641 11.1436 25.6305 9.77717 25.6305 8.09737V7.08196H34.0584V8.09737C34.0584 9.77717 35.4249 11.1436 37.1047 11.1436C38.7845 11.1436 40.1509 9.77717 40.1509 8.09737V7.08196H43.1971C43.7572 7.08196 44.2125 7.53731 44.2125 8.09737V13.479H2.98688V8.09737C2.98688 7.53731 3.44222 7.08196 4.00229 7.08196ZM2.98688 41.1998V15.5099H44.2125V29.1053C43.0984 28.7757 41.9425 28.6087 40.7601 28.6087C34.0414 28.6087 28.5752 34.0748 28.5752 40.7936C28.5752 41.2688 28.6038 41.7439 28.6585 42.2152H4.00229C3.44222 42.2152 2.98688 41.7598 2.98688 41.1998ZM40.7601 50.9477C35.3174 50.9477 30.606 46.5128 30.606 40.7936C30.606 35.1946 35.1611 30.6395 40.7601 30.6395C46.3794 30.6395 50.9142 35.1985 50.9142 40.7936C50.9142 46.3926 46.3592 50.9477 40.7601 50.9477Z" fill="#0E1628"/>
</g>
<defs>
<clipPath id="clip0_1341_9494">
<rect width="51.989" height="51.989" fill="white" transform="translate(0.956055 0.989502)"/>
</clipPath>
</defs>
</svg>
