<svg width="53" height="52" viewBox="0 0 53 52" fill="none" xmlns="http://www.w3.org/2000/svg">
<path d="M50.5164 14.6189H45.6424C45.427 14.6189 45.2203 14.7045 45.068 14.8568C44.9157 15.0092 44.8301 15.2158 44.8301 15.4312V46.2997C44.8301 46.5151 44.9157 46.7218 45.068 46.8741C45.2203 47.0264 45.427 47.112 45.6424 47.112H50.5164C50.7318 47.112 50.9384 47.0264 51.0908 46.8741C51.2431 46.7218 51.3287 46.5151 51.3287 46.2997V15.4312C51.3287 15.2158 51.2431 15.0092 51.0908 14.8568C50.9384 14.7045 50.7318 14.6189 50.5164 14.6189ZM49.704 45.4874H46.4547V16.2436H49.704V45.4874Z" fill="#0E1628"/>
<path d="M42.3933 47.1122C42.6088 47.1122 42.8154 47.0266 42.9677 46.8743C43.1201 46.7219 43.2057 46.5153 43.2057 46.2999V21.93C43.2057 21.7146 43.1201 21.5079 42.9677 21.3556C42.8154 21.2033 42.6088 21.1177 42.3933 21.1177H37.5194C37.3039 21.1177 37.0973 21.2033 36.945 21.3556C36.7926 21.5079 36.707 21.7146 36.707 21.93V46.2999C36.707 46.5153 36.7926 46.7219 36.945 46.8743C37.0973 47.0266 37.3039 47.1122 37.5194 47.1122H42.3933ZM38.3317 22.7423H41.581V45.4875H38.3317V22.7423Z" fill="#0E1628"/>
<path d="M34.2698 47.1122C34.4852 47.1122 34.6919 47.0266 34.8442 46.8742C34.9965 46.7219 35.0821 46.5153 35.0821 46.2998V27.6163C35.0821 27.4008 34.9965 27.1942 34.8442 27.0419C34.6919 26.8895 34.4852 26.804 34.2698 26.804H29.3958C29.1804 26.804 28.9738 26.8895 28.8214 27.0419C28.6691 27.1942 28.5835 27.4008 28.5835 27.6163V46.2998C28.5835 46.5153 28.6691 46.7219 28.8214 46.8742C28.9738 47.0266 29.1804 47.1122 29.3958 47.1122H34.2698ZM30.2082 28.4286H33.4575V45.4875H30.2082V28.4286Z" fill="#0E1628"/>
<path d="M26.1467 47.1121C26.3622 47.1121 26.5688 47.0265 26.7212 46.8741C26.8735 46.7218 26.9591 46.5152 26.9591 46.2997V34.1148C26.9591 33.8994 26.8735 33.6928 26.7212 33.5404C26.5688 33.3881 26.3622 33.3025 26.1467 33.3025H21.2728C21.0573 33.3025 20.8507 33.3881 20.6984 33.5404C20.546 33.6928 20.4604 33.8994 20.4604 34.1148V46.2997C20.4604 46.5152 20.546 46.7218 20.6984 46.8741C20.8507 47.0265 21.0573 47.1121 21.2728 47.1121H26.1467ZM22.0851 34.9271H25.3344V45.4874H22.0851V34.9271Z" fill="#0E1628"/>
<path d="M18.0232 47.112C18.2387 47.112 18.4453 47.0264 18.5976 46.8741C18.75 46.7218 18.8355 46.5151 18.8355 46.2997V37.3641C18.8355 37.1486 18.75 36.942 18.5976 36.7897C18.4453 36.6373 18.2387 36.5518 18.0232 36.5518H13.1492C12.9338 36.5518 12.7272 36.6373 12.5748 36.7897C12.4225 36.942 12.3369 37.1486 12.3369 37.3641V46.2997C12.3369 46.5151 12.4225 46.7218 12.5748 46.8741C12.7272 47.0264 12.9338 47.112 13.1492 47.112H18.0232ZM13.9616 38.1764H17.2109V45.4874H13.9616V38.1764Z" fill="#0E1628"/>
<path d="M9.90017 47.1122C10.1156 47.1122 10.3222 47.0266 10.4746 46.8742C10.6269 46.7219 10.7125 46.5153 10.7125 46.2998V41.4259C10.7125 41.2104 10.6269 41.0038 10.4746 40.8515C10.3222 40.6991 10.1156 40.6135 9.90017 40.6135H5.0262C4.81075 40.6135 4.60413 40.6991 4.45179 40.8515C4.29945 41.0038 4.21387 41.2104 4.21387 41.4259V46.2998C4.21387 46.5153 4.29945 46.7219 4.45179 46.8742C4.60413 47.0266 4.81075 47.1122 5.0262 47.1122H9.90017ZM5.83852 42.2382H9.08784V45.4875H5.83852V42.2382Z" fill="#0E1628"/>
<path d="M22.8974 14.6189H24.5221C24.7375 14.6189 24.9442 14.5334 25.0965 14.381C25.2488 14.2287 25.3344 14.0221 25.3344 13.8066C25.3344 13.5912 25.2488 13.3846 25.0965 13.2322C24.9442 13.0799 24.7375 12.9943 24.5221 12.9943H23.7098V12.182C23.7098 11.9665 23.6242 11.7599 23.4718 11.6076C23.3195 11.4552 23.1129 11.3696 22.8974 11.3696C22.682 11.3696 22.4754 11.4552 22.323 11.6076C22.1707 11.7599 22.0851 11.9665 22.0851 12.182V13.134C21.5434 13.3258 21.0868 13.7029 20.7961 14.1987C20.5055 14.6944 20.3993 15.277 20.4965 15.8434C20.5937 16.4098 20.888 16.9237 21.3273 17.2942C21.7666 17.6647 22.3227 17.868 22.8974 17.8683C23.1129 17.8683 23.3195 17.9538 23.4718 18.1062C23.6242 18.2585 23.7098 18.4651 23.7098 18.6806C23.7098 18.896 23.6242 19.1026 23.4718 19.255C23.3195 19.4073 23.1129 19.4929 22.8974 19.4929H21.2728C21.0573 19.4929 20.8507 19.5785 20.6984 19.7308C20.546 19.8832 20.4604 20.0898 20.4604 20.3052C20.4604 20.5207 20.546 20.7273 20.6984 20.8796C20.8507 21.032 21.0573 21.1176 21.2728 21.1176H22.0851V21.9299C22.0851 22.1453 22.1707 22.352 22.323 22.5043C22.4754 22.6566 22.682 22.7422 22.8974 22.7422C23.1129 22.7422 23.3195 22.6566 23.4718 22.5043C23.6242 22.352 23.7098 22.1453 23.7098 21.9299V20.9778C24.2515 20.786 24.7081 20.409 24.9987 19.9132C25.2894 19.4174 25.3955 18.8349 25.2983 18.2685C25.2011 17.702 24.9069 17.1882 24.4676 16.8177C24.0283 16.4472 23.4721 16.2438 22.8974 16.2436C22.682 16.2436 22.4754 16.158 22.323 16.0057C22.1707 15.8533 22.0851 15.6467 22.0851 15.4313C22.0851 15.2158 22.1707 15.0092 22.323 14.8569C22.4754 14.7045 22.682 14.6189 22.8974 14.6189Z" fill="#0E1628"/>
<path d="M50.5163 4.87109H45.6423C45.4268 4.87109 45.2202 4.95668 45.0679 5.10902C44.9155 5.26136 44.83 5.46798 44.83 5.68342C44.83 5.89886 44.9155 6.10548 45.0679 6.25782C45.2202 6.41017 45.4268 6.49575 45.6423 6.49575H48.5551L37.1825 17.8683H32.6109C32.6332 17.6004 32.645 17.3296 32.645 17.056C32.645 15.2049 32.1178 13.392 31.1252 11.8295C30.1326 10.267 28.7157 9.01938 27.04 8.23264C25.3644 7.44589 23.4994 7.15252 21.6632 7.38685C19.8269 7.62118 18.0953 8.37351 16.671 9.55585C15.2466 10.7382 14.1884 12.3017 13.62 14.0634C13.0516 15.8251 12.9966 17.7122 13.4615 19.5041C13.9263 21.2959 14.8917 22.9183 16.2448 24.1816C17.5979 25.4449 19.2827 26.2968 21.1022 26.6376L17.6867 30.0533H11.5245C11.4178 30.0533 11.3122 30.0743 11.2136 30.1151C11.1151 30.1559 11.0255 30.2158 10.9501 30.2912L2.8268 38.4145C2.67445 38.5668 2.58887 38.7734 2.58887 38.9889C2.58887 39.2043 2.67445 39.411 2.8268 39.5633C2.97914 39.7156 3.18577 39.8012 3.40122 39.8012C3.61666 39.8012 3.82329 39.7156 3.97563 39.5633L11.8609 31.6779H18.0231C18.1298 31.6779 18.2354 31.6569 18.334 31.6161C18.4326 31.5753 18.5221 31.5154 18.5975 31.44L23.2403 26.7973C25.3406 26.7205 27.36 25.9682 28.9988 24.6524C30.6375 23.3365 31.8081 21.5271 32.3367 19.493H37.519C37.6257 19.493 37.7313 19.472 37.8299 19.4312C37.9284 19.3904 38.018 19.3305 38.0934 19.2551L49.7039 7.64459V10.5574C49.7039 10.7728 49.7895 10.9795 49.9419 11.1318C50.0942 11.2841 50.3008 11.3697 50.5163 11.3697C50.7317 11.3697 50.9383 11.2841 51.0907 11.1318C51.243 10.9795 51.3286 10.7728 51.3286 10.5574V5.68342C51.3286 5.46798 51.243 5.26136 51.0907 5.10902C50.9383 4.95668 50.7317 4.87109 50.5163 4.87109ZM22.8971 25.1793C21.2905 25.1793 19.7199 24.7029 18.384 23.8103C17.0482 22.9177 16.007 21.649 15.3922 20.1647C14.7773 18.6803 14.6165 17.047 14.9299 15.4712C15.2433 13.8955 16.017 12.4481 17.1531 11.312C18.2891 10.1759 19.7366 9.40226 21.3123 9.08882C22.8881 8.77538 24.5214 8.93625 26.0057 9.55108C27.4901 10.1659 28.7588 11.2071 29.6514 12.543C30.544 13.8788 31.0204 15.4494 31.0204 17.056C31.0179 19.2097 30.1613 21.2745 28.6384 22.7973C27.1155 24.3202 25.0508 25.1769 22.8971 25.1793Z" fill="#0E1628"/>
</svg>
