<svg width="53" height="52" viewBox="0 0 53 52" fill="none" xmlns="http://www.w3.org/2000/svg">
<g clip-path="url(#clip0_1341_9523)">
<path d="M52.9589 19.4764C52.9589 14.155 48.6296 9.82581 43.3083 9.82581C41.0921 9.82581 38.9274 10.5959 37.2129 11.9941C35.7544 13.1835 34.6737 14.7814 34.1085 16.5591C32.1814 15.5932 30.0083 15.0484 27.7101 15.0484C27.0421 15.0484 26.3758 15.0958 25.7175 15.1873C26.1286 14.1161 26.3547 12.9539 26.3547 11.7398C26.3547 10.5015 26.1236 9.29606 25.6674 8.15704C25.511 7.76643 25.0672 7.57631 24.6772 7.73292C24.2866 7.88932 24.0968 8.33264 24.2531 8.72315C24.6367 9.68139 24.8312 10.6964 24.8312 11.7398C24.8312 16.2211 21.185 19.8668 16.7032 19.8668C12.2219 19.8668 8.57617 16.2212 8.57617 11.7398C8.57617 7.25801 12.2218 3.61183 16.7032 3.61183C18.8796 3.61183 20.9246 4.4613 22.4614 6.00403C22.7585 6.30201 23.2407 6.30272 23.5387 6.00606C23.8367 5.70909 23.8375 5.22677 23.5407 4.92879C21.7158 3.09722 19.2875 2.0885 16.7032 2.0885C11.3819 2.0885 7.05273 6.4182 7.05273 11.7399C7.05273 16.7702 10.9217 20.9132 15.84 21.3513C14.2473 23.7087 13.3812 26.5135 13.3812 29.3772C13.3812 30.1018 13.4362 30.8262 13.544 31.5388L11.5369 31.9193C11.1236 31.9977 10.8521 32.3963 10.9304 32.8097C11.0088 33.2231 11.4071 33.4937 11.8208 33.4163L15.5678 32.7057C17.4323 32.3437 19.388 32.9878 20.6718 34.3877L21.311 35.0837C22.2474 36.1059 23.3284 36.9825 24.5235 37.6886C25.8544 38.4763 27.4982 39.449 28.849 40.2465C29.6197 40.7013 29.8739 41.7037 29.4191 42.4752C29.0115 43.2329 28.0417 43.5225 27.2888 43.1011L21.6887 39.9833C20.685 39.4241 19.5494 39.1918 18.4043 39.3112C17.986 39.3549 17.6822 39.7295 17.7259 40.1479C17.7696 40.5661 18.1434 40.8709 18.5626 40.8263C19.3937 40.7396 20.2186 40.9082 20.9474 41.3142L26.5473 44.4321C28.0539 45.2886 30.0696 44.661 30.8254 43.075L33.3412 42.5858C33.4536 42.5638 33.5596 42.5169 33.6515 42.4484C34.989 41.4503 38.9907 38.4611 40.262 37.5126C40.5141 37.3245 40.8132 37.225 41.1268 37.225C41.559 37.225 41.9652 37.4155 42.2414 37.7477C42.7832 38.3994 42.6994 39.377 42.0547 39.9269L40.577 41.1862C40.2567 41.4591 40.2184 41.9397 40.4912 42.2599C40.764 42.58 41.2448 42.6184 41.565 42.3456L43.043 41.0861C44.319 39.9978 44.485 38.0632 43.4128 36.7737C42.8464 36.0924 42.0132 35.7016 41.1268 35.7016C40.9265 35.7016 40.7299 35.7236 40.5376 35.7623C41.5659 33.6986 42.0911 31.3829 42.0344 29.0436C42.4557 29.0991 42.8817 29.1275 43.3082 29.1275C48.6296 29.1273 52.9589 24.798 52.9589 19.4764ZM37.3988 37.7492L32.8797 41.1232L31.1609 41.4574C31.0996 40.4468 30.556 39.4844 29.6232 38.9341C28.2724 38.1367 26.6299 37.1647 25.299 36.377C24.2329 35.7471 23.2692 34.9657 22.4338 34.0537L21.7943 33.3573C21.5472 33.088 21.2804 32.8409 20.9976 32.6164V26.6643H22.1625C22.5833 26.6643 22.9242 26.3234 22.9242 25.9026C22.9242 25.4818 22.5833 25.1409 22.1625 25.1409H18.3248C17.904 25.1409 17.5631 25.4818 17.5631 25.9026C17.5631 26.3234 17.904 26.6643 18.3248 26.6643H19.4742V31.695C18.1737 31.1176 16.7058 30.9323 15.2806 31.2094L15.0414 31.2548C14.9506 30.6357 14.9047 30.0065 14.9047 29.3771C14.9047 26.4547 15.9136 23.6013 17.7463 21.3337C20.7383 21.0107 23.3246 19.3152 24.861 16.8911C25.7904 16.68 26.748 16.5719 27.71 16.5719C34.7708 16.5719 40.5152 22.3163 40.5152 29.3771C40.5152 32.4553 39.4087 35.425 37.3988 37.7492ZM41.9134 27.4839C41.8518 27.019 41.7681 26.561 41.6628 26.1111C42.1962 26.243 42.7458 26.3119 43.3085 26.3119C47.0773 26.3119 50.1436 23.2457 50.1436 19.4767C50.1436 17.9791 49.6682 16.557 48.769 15.3644C47.8994 14.2112 46.6627 13.3474 45.2866 12.9321C44.8837 12.8105 44.4589 13.0386 44.3372 13.4413C44.2157 13.8441 44.4437 14.269 44.8464 14.3907C47.0684 15.0611 48.6202 17.1526 48.6202 19.4768C48.6202 22.4057 46.2373 24.7885 43.3085 24.7885C42.5399 24.7885 41.8024 24.6277 41.1137 24.3138C40.4146 22.4694 39.3455 20.8057 37.997 19.4138C38.0238 17.0958 39.5193 15.0859 41.7368 14.4004C42.1388 14.2762 42.3638 13.8496 42.2395 13.4477C42.1153 13.0458 41.689 12.8202 41.2869 12.945C38.8397 13.7015 37.0758 15.7109 36.6008 18.1487C36.2368 17.8599 35.8587 17.5883 35.4673 17.3353C35.9106 15.7126 36.8608 14.247 38.1756 13.1747C39.619 11.9976 41.4418 11.3493 43.3082 11.3493C47.7896 11.3493 51.4354 14.9951 51.4354 19.4765C51.4354 23.958 47.7896 27.6038 43.3082 27.6038C42.8397 27.6038 42.3721 27.5631 41.9134 27.4839Z" fill="#0E1628"/>
<path d="M44.052 15.9894C44.052 15.5686 43.711 15.2277 43.2902 15.2277C42.8693 15.2277 42.5283 15.5686 42.5283 15.9894V16.329C41.9837 16.5562 41.5777 17.022 41.4326 17.5937C41.2809 18.1917 41.4368 18.8043 41.8604 19.2744C42.2096 19.662 42.6209 19.8027 43.0186 19.9387C43.1817 19.9945 43.3503 20.0521 43.5353 20.1317C43.8968 20.2871 43.8998 20.5618 43.8694 20.7118C43.8541 20.7877 43.7536 21.1664 43.285 21.1695C42.8702 21.1722 42.6565 21.0903 42.3551 20.9171C41.99 20.7074 41.5244 20.833 41.3149 21.1978C41.1052 21.5626 41.2309 22.0282 41.5956 22.2378C41.8886 22.4062 42.1786 22.5398 42.5284 22.6177V22.8863C42.5284 23.3071 42.8694 23.648 43.2903 23.648C43.7111 23.648 44.0521 23.3071 44.0521 22.8863V22.5529C44.7143 22.3033 45.2162 21.7386 45.3629 21.0143C45.5585 20.0486 45.0661 19.1316 44.1376 18.7323C43.8987 18.6296 43.6932 18.5593 43.512 18.4974C43.2182 18.3969 43.0736 18.3446 42.9927 18.2548C42.9121 18.1654 42.8842 18.069 42.9098 17.9682C42.938 17.8571 43.0221 17.767 43.1349 17.727C43.4897 17.6014 43.8998 17.8457 43.8998 17.8457L43.9 17.8454C44.02 17.9245 44.1636 17.9708 44.3181 17.9708C44.7388 17.9708 45.08 17.6297 45.08 17.209C45.08 16.9428 44.9431 16.7088 44.7362 16.5727L44.7364 16.5723C44.6849 16.5385 44.4273 16.3775 44.0522 16.2687V15.9894H44.052Z" fill="#0E1628"/>
<path d="M27.6081 25.7724C27.4658 25.3946 27.0987 25.1407 26.695 25.1407C26.2924 25.1407 25.9259 25.3935 25.7831 25.7692L23.1888 32.5808C23.039 32.9739 23.2364 33.4139 23.6296 33.5637C24.0221 33.7135 24.4627 33.5162 24.6125 33.123L25.0848 31.8829H28.2859L28.7531 33.1208C28.8682 33.4258 29.158 33.6138 29.4659 33.6138C29.5552 33.6138 29.6461 33.598 29.7347 33.5645C30.1282 33.4161 30.3269 32.9766 30.1783 32.5829L27.6081 25.7724ZM25.6651 30.3595L26.6928 27.6613L27.7111 30.3595H25.6651Z" fill="#0E1628"/>
<path d="M36.1286 25.4637L34.4777 27.8071L32.8294 25.4641C32.5875 25.1203 32.1126 25.0371 31.7682 25.2794C31.4241 25.5214 31.3414 25.9966 31.5836 26.3406L33.5457 29.13L31.2329 32.4132C30.9905 32.7571 31.0729 33.2323 31.4169 33.4745C31.5502 33.5685 31.7033 33.6136 31.8548 33.6136C32.0942 33.6136 32.3299 33.5011 32.4782 33.2905L34.4769 30.4534L36.4724 33.2901C36.6207 33.5008 36.8564 33.6136 37.0961 33.6136C37.2474 33.6136 37.4003 33.5686 37.5337 33.4748C37.8778 33.2328 37.9605 32.7576 37.7183 32.4136L35.4088 29.1306L37.3739 26.341C37.6163 25.9972 37.5339 25.5219 37.1899 25.2797C36.8459 25.0371 36.3708 25.1199 36.1286 25.4637Z" fill="#0E1628"/>
<path d="M37.8704 43.4912L35.49 45.5194C35.0686 45.8783 34.56 46.1233 34.0185 46.228L23.4145 48.2908C22.2587 48.5156 21.0765 48.2872 20.0861 47.648L13.0194 43.0858C11.497 42.1032 9.62533 41.8261 7.88496 42.3254L1.51093 44.1535C1.10661 44.2695 0.872711 44.6912 0.988695 45.0956C1.10468 45.5 1.52657 45.7338 1.93078 45.6178L8.30482 43.7897C9.62279 43.4117 11.0401 43.6216 12.1931 44.3657L19.2599 48.928C20.2507 49.5673 21.3851 49.8988 22.541 49.8987C22.9281 49.8987 23.3177 49.8617 23.7052 49.7864L34.3084 47.7237C35.1066 47.5694 35.8568 47.2083 36.4778 46.6792L38.8584 44.651C39.1785 44.3781 39.217 43.8974 38.9442 43.5772C38.6714 43.2566 38.1907 43.2181 37.8704 43.4912Z" fill="#0E1628"/>
<path d="M1.72004 35.3181C1.76716 35.3181 1.8149 35.3137 1.86283 35.3046L8.3283 34.0786C8.74156 34.0003 9.01314 33.6016 8.93483 33.188C8.85643 32.7747 8.458 32.5042 8.04444 32.5814L1.57897 33.8074C1.16571 33.8857 0.894131 34.2844 0.972435 34.698C1.0418 35.0635 1.36132 35.3181 1.72004 35.3181Z" fill="#0E1628"/>
<path d="M16.7035 4.90369C12.9343 4.90369 9.86768 7.97016 9.86768 11.7396C9.86768 15.5089 12.9342 18.5755 16.7035 18.5755C20.4729 18.5755 23.5395 15.5089 23.5395 11.7396C23.5395 7.97016 20.4729 4.90369 16.7035 4.90369ZM16.7035 17.052C13.7743 17.052 11.3911 14.6688 11.3911 11.7395C11.3911 8.81019 13.7743 6.42702 16.7035 6.42702C19.6329 6.42702 22.0161 8.81019 22.0161 11.7395C22.0161 14.6689 19.6329 17.052 16.7035 17.052Z" fill="#0E1628"/>
<path d="M17.5327 10.9952C17.2939 10.8925 17.0884 10.8223 16.9072 10.7603C16.6134 10.66 16.4688 10.6077 16.3879 10.5178C16.3073 10.4283 16.2794 10.3319 16.305 10.2312C16.3332 10.1201 16.4173 10.03 16.5301 9.98995C16.8852 9.86401 17.2983 10.1109 17.3025 10.1135L17.3026 10.1132C17.4031 10.1786 17.5202 10.2213 17.6479 10.233C18.0669 10.2712 18.4376 9.96253 18.4758 9.54358C18.5024 9.2522 18.3609 8.98458 18.1315 8.83549L18.1316 8.83529C18.08 8.80147 17.8226 8.64029 17.4475 8.53141V8.25232C17.4475 7.83155 17.1065 7.4906 16.6857 7.4906C16.2648 7.4906 15.9238 7.83155 15.9238 8.25232V8.59194C15.3792 8.81914 14.9732 9.2849 14.8281 9.8566C14.6764 10.4546 14.8323 11.0672 15.2558 11.5373C15.605 11.9249 16.0163 12.0657 16.4142 12.2018C16.5772 12.2575 16.7458 12.3151 16.9308 12.3946C17.2923 12.55 17.2953 12.8248 17.2649 12.9748C17.2496 13.0506 17.1491 13.4294 16.6805 13.4324C16.2649 13.4391 16.052 13.3533 15.7506 13.18C15.3855 12.9703 14.9199 13.0959 14.7104 13.4607C14.5007 13.8256 14.6264 14.2911 14.9911 14.5007C15.2841 14.6691 15.5741 14.8027 15.9239 14.8806V15.1492C15.9239 15.57 16.2649 15.9109 16.6858 15.9109C17.1066 15.9109 17.4476 15.57 17.4476 15.1492V14.8158C18.1098 14.5663 18.6117 14.0016 18.7584 13.2772C18.9537 12.3116 18.4613 11.3945 17.5327 10.9952Z" fill="#0E1628"/>
</g>
<defs>
<clipPath id="clip0_1341_9523">
<rect width="52" height="52" fill="white" transform="translate(0.958984 -0.00646973)"/>
</clipPath>
</defs>
</svg>
