<svg width="53" height="52" viewBox="0 0 53 52" fill="none" xmlns="http://www.w3.org/2000/svg">
<g clip-path="url(#clip0_1341_9553)">
<path d="M46.7832 21.1075C46.7832 20.6706 47.0736 20.0979 47.3544 19.5439C47.7582 18.7476 48.2157 17.8451 48.032 16.9168C47.842 15.9567 47.0585 15.2857 46.3672 14.6937C45.9089 14.3013 45.435 13.8955 45.2787 13.5186C45.1161 13.1265 45.1639 12.4939 45.2101 11.8822C45.278 10.9847 45.3549 9.96734 44.8211 9.17008C44.2831 8.36672 43.3091 8.04883 42.4496 7.76841C41.8702 7.57951 41.2711 7.384 40.9763 7.08916C40.6814 6.79443 40.4859 6.19521 40.2969 5.6159C40.0165 4.75647 39.6986 3.78249 38.8952 3.24451C38.0979 2.7109 37.0807 2.78779 36.1832 2.85573C35.5718 2.90215 34.9392 2.94988 34.5471 2.78738C34.1703 2.63108 33.7645 2.15729 33.3722 1.69904C32.7803 1.0077 32.1094 0.224248 31.1493 0.0343263C30.2204 -0.149705 29.3185 0.308342 28.5223 0.711951C27.9685 0.992772 27.3956 1.28314 26.9588 1.28314C26.5219 1.28314 25.9492 0.992772 25.3952 0.711951C24.599 0.30824 23.6962 -0.149197 22.7681 0.0343263C21.8079 0.22435 21.137 1.0078 20.545 1.69914C20.1525 2.15749 19.7468 2.63138 19.3698 2.78769C18.9776 2.95029 18.3451 2.90245 17.7334 2.85624C16.836 2.78819 15.8185 2.71141 15.0213 3.24522C14.2178 3.7832 13.9 4.75729 13.6196 5.61671C13.4306 6.19612 13.2352 6.79524 12.9404 7.09008C12.6455 7.38491 12.0464 7.58042 11.4671 7.76943C10.6077 8.04984 9.63358 8.36773 9.09571 9.17119C8.562 9.96846 8.63898 10.9856 8.70693 11.8831C8.75324 12.4947 8.80108 13.1273 8.63858 13.5193C8.48227 13.8961 8.00848 14.3018 7.55023 14.6942C6.859 15.2861 6.07544 15.957 5.88552 16.9171C5.7019 17.8454 6.15944 18.7477 6.56305 19.544C6.84387 20.0979 7.13433 20.6706 7.13433 21.1075C7.13433 21.5445 6.84397 22.1172 6.56305 22.6712C6.15933 23.4674 5.7019 24.3699 5.88552 25.2982C6.07544 26.2584 6.859 26.9294 7.55033 27.5214C8.00858 27.9137 8.48247 28.3196 8.63878 28.6965C8.80138 29.0885 8.75355 29.7211 8.70733 30.3329C8.63949 31.2304 8.56261 32.2477 9.09642 33.045C9.6343 33.8483 10.6084 34.1661 11.4678 34.4465C12.0472 34.6356 12.6463 34.831 12.9413 35.1259C13.2361 35.4206 13.4316 36.0198 13.6206 36.5992C13.901 37.4586 14.2188 38.4327 15.0224 38.9705C15.3145 39.166 15.6362 39.2791 15.9707 39.3411L12.4073 48.6233C12.3126 48.8698 12.3524 49.1477 12.5123 49.3577C12.6722 49.5678 12.9294 49.6791 13.1922 49.6545L16.437 49.3385L18.6366 51.7446C18.7823 51.9039 18.9871 51.9923 19.1987 51.9923C19.2458 51.9923 19.2933 51.9879 19.3404 51.979C19.5998 51.9299 19.8153 51.75 19.9099 51.5035L23.479 42.2063C24.1544 42.1317 24.8041 41.8025 25.3952 41.5029C25.9491 41.2221 26.5218 40.9317 26.9587 40.9317C27.3956 40.9317 27.9684 41.2221 28.5224 41.5029C29.1134 41.8025 29.7629 42.1312 30.4383 42.2059L34.0076 51.5036C34.1022 51.75 34.3177 51.9298 34.577 51.979C34.6243 51.9879 34.6717 51.9923 34.7187 51.9923C34.9305 51.9923 35.1352 51.9039 35.2809 51.7446L37.4805 49.3385L40.7252 49.6545C40.9894 49.6803 41.2452 49.5678 41.4052 49.3577C41.565 49.1477 41.6048 48.8697 41.5102 48.6235L37.9466 39.3408C38.2814 39.2788 38.6037 39.1656 38.8961 38.9698C39.6994 38.4319 40.0172 37.4578 40.2976 36.5984C40.4866 36.019 40.682 35.4199 40.977 35.1249C41.2718 34.83 41.8709 34.6345 42.4504 34.4455C43.3097 34.1651 44.2838 33.8473 44.8216 33.0439C45.3553 32.2466 45.2784 31.2294 45.2104 30.3319C45.1641 29.7203 45.1162 29.0878 45.2788 28.6958C45.4351 28.319 45.9089 27.9132 46.3671 27.5209C47.0584 26.929 47.8419 26.2581 48.0318 25.298C48.2155 24.3696 47.7579 23.4672 47.3542 22.671C47.0736 22.1171 46.7832 21.5443 46.7832 21.1075ZM18.9296 49.807L17.3046 48.0294C17.1428 47.8524 16.9072 47.7618 16.6685 47.7853L14.2713 48.0187L17.5916 39.3701C17.6395 39.3665 17.6872 39.363 17.7344 39.3594C18.346 39.313 18.9786 39.2653 19.3706 39.4278C19.3861 39.4342 19.4019 39.442 19.4175 39.4495L17.1983 45.2301C17.0475 45.6229 17.2437 46.0636 17.6364 46.2143C17.7262 46.2487 17.8185 46.2651 17.9093 46.2651C18.2155 46.2651 18.5043 46.0791 18.6205 45.7762L20.6108 40.5921C21.0076 41.0548 21.4429 41.5461 21.9775 41.8675L18.9296 49.807ZM37.2492 47.7853C37.0113 47.7624 36.7749 47.8525 36.6132 48.0294L34.9881 49.8071L31.9401 41.8675C32.4748 41.5462 32.91 41.055 33.307 40.5923L35.297 45.7761C35.4134 46.0791 35.702 46.2651 36.0083 46.2651C36.0991 46.2651 36.1914 46.2487 36.2811 46.2143C36.6739 46.0636 36.8701 45.6229 36.7193 45.2302L34.5 39.4495C34.5159 39.4419 34.5318 39.434 34.5477 39.4274C34.9398 39.2649 35.5723 39.3127 36.1841 39.3588C36.231 39.3624 36.2783 39.3659 36.3258 39.3694L39.6463 48.0186L37.2492 47.7853ZM45.9957 23.3599C46.3022 23.9645 46.6192 24.5897 46.5375 25.0025C46.4501 25.4445 45.9043 25.9117 45.3765 26.3637C44.7821 26.8726 44.1677 27.3987 43.8718 28.1123C43.5699 28.8402 43.6318 29.6571 43.6917 30.447C43.7433 31.1302 43.7968 31.8367 43.556 32.1964C43.311 32.5625 42.6334 32.7835 41.9781 32.9973C41.2283 33.242 40.4527 33.495 39.9 34.0478C39.3473 34.6006 39.0942 35.3761 38.8496 36.1261C38.6359 36.7814 38.4148 37.459 38.0487 37.704C37.6889 37.9449 36.9825 37.8915 36.299 37.8398C35.5092 37.78 34.6922 37.7183 33.9642 38.0202C33.2507 38.3161 32.7244 38.9306 32.2155 39.5249C31.7634 40.0528 31.2961 40.5986 30.8538 40.6861C30.4418 40.7679 29.816 40.4508 29.2113 40.1443C28.4978 39.7825 27.7598 39.4085 26.9588 39.4085C26.1578 39.4085 25.42 39.7826 24.7064 40.1444C24.1018 40.4508 23.4763 40.7679 23.064 40.6862C22.622 40.5988 22.1547 40.0531 21.7028 39.5252C21.1938 38.9308 20.6676 38.3164 19.9542 38.0205C19.5247 37.8424 19.0642 37.7909 18.5966 37.7909C18.2717 37.7909 17.9433 37.8157 17.6194 37.8403C16.9361 37.8919 16.2299 37.9455 15.87 37.7046C15.504 37.4596 15.2829 36.782 15.0691 36.1266C14.8244 35.3768 14.5715 34.6013 14.0186 34.0486C13.4658 33.4959 12.6904 33.2428 11.9405 32.9982C11.2851 32.7845 10.6075 32.5634 10.3625 32.1973C10.1216 31.8375 10.175 31.1309 10.2267 30.4476C10.2864 29.6577 10.3482 28.8408 10.0462 28.1128C9.75038 27.3993 9.13583 26.873 8.54148 26.3641C8.01366 25.912 7.46776 25.4446 7.38032 25.0025C7.29866 24.5898 7.61564 23.9646 7.92215 23.36C8.28392 22.6464 8.65808 21.9085 8.65808 21.1074C8.65808 20.3064 8.28392 19.5687 7.92215 18.855C7.61554 18.2504 7.29866 17.6253 7.38032 17.2125C7.46776 16.7705 8.01356 16.3032 8.54138 15.8513C9.13572 15.3423 9.75018 14.8162 10.046 14.1028C10.3479 13.3748 10.286 12.5579 10.2262 11.7679C10.1745 11.0847 10.121 10.3783 10.3618 10.0184C10.6068 9.6525 11.2844 9.4314 11.9398 9.21751C12.6896 8.97284 13.465 8.71995 14.0177 8.16705C14.5704 7.61434 14.8234 6.83891 15.0681 6.08897C15.2819 5.43369 15.503 4.75597 15.8689 4.511C16.2287 4.26999 16.9353 4.32321 17.6187 4.37511C18.4087 4.43483 19.2256 4.49658 19.9536 4.19473C20.667 3.89888 21.1933 3.28422 21.7023 2.68998C22.1543 2.16216 22.6218 1.61626 23.0639 1.52872C23.4768 1.44737 24.1019 1.76404 24.7064 2.07055C25.42 2.43232 26.1579 2.80647 26.9589 2.80647C27.76 2.80647 28.4977 2.43232 29.2113 2.07055C29.8159 1.76404 30.4415 1.44787 30.8538 1.52872C31.2958 1.61616 31.7631 2.16196 32.2151 2.68978C32.724 3.28412 33.2501 3.89858 33.9637 4.19443C34.6916 4.49637 35.5085 4.43472 36.2984 4.3746C36.9814 4.3228 37.6881 4.26928 38.0478 4.51029C38.4139 4.75526 38.635 5.43288 38.8488 6.08826C39.0935 6.8381 39.3464 7.61353 39.8993 8.16623C40.452 8.71894 41.2274 8.97193 41.9774 9.21659C42.6327 9.43038 43.3104 9.65148 43.5554 10.0175C43.7963 10.3773 43.7429 11.0839 43.6912 11.7672C43.6315 12.5572 43.5698 13.3741 43.8716 14.1021C44.1675 14.8155 44.7821 15.3418 45.3764 15.8508C45.9042 16.3028 46.4501 16.7703 46.5376 17.2123C46.6193 17.625 46.3023 18.2503 45.9958 18.8549C45.634 19.5685 45.2599 20.3064 45.2599 21.1074C45.2599 21.9085 45.6338 22.6463 45.9957 23.3599Z" fill="#0E1628"/>
<path d="M27.3019 18.549C27.168 18.2233 26.8541 18.0129 26.502 18.0129C26.5019 18.0129 26.5016 18.0129 26.5014 18.0129C26.1491 18.0132 25.8352 18.2241 25.7017 18.5502C25.6994 18.556 25.6971 18.5618 25.6948 18.5677L23.9881 23.0489C23.8384 23.442 24.0356 23.882 24.4288 24.0318C24.8221 24.1818 25.262 23.9842 25.4117 23.5911L25.6498 22.9656H27.3405L27.5758 23.589C27.6908 23.894 27.9807 24.082 28.2885 24.082C28.3779 24.082 28.4688 24.0662 28.5574 24.0328C28.9509 23.8843 29.1496 23.4448 29.001 23.0511L27.3098 18.5697C27.3073 18.5626 27.3047 18.5558 27.3019 18.549ZM26.2302 21.4421L26.4992 20.7358L26.7657 21.4421H26.2302Z" fill="#0E1628"/>
<path d="M30.1401 18.056C29.8219 18.1552 29.605 18.4499 29.605 18.7832V23.32C29.605 23.7408 29.946 24.0817 30.3669 24.0817C30.7877 24.0817 31.1287 23.7408 31.1287 23.32V21.2267L32.8083 23.6583C33.0211 23.9658 33.3936 24.101 33.7348 23.9944C34.087 23.8845 34.3144 23.5597 34.3144 23.1595L34.2719 18.7673C34.2679 18.3492 33.9276 18.0129 33.5103 18.0129C33.5078 18.0129 33.5052 18.0129 33.5028 18.0129C33.0819 18.017 32.7441 18.3614 32.7482 18.782L32.7689 20.9204L30.9937 18.3503C30.8045 18.076 30.4589 17.9571 30.1401 18.056Z" fill="#0E1628"/>
<path d="M18.6834 22.0911C18.6834 21.5277 18.4463 21.0196 18.068 20.6579C18.1996 20.4073 18.2752 20.1227 18.2752 19.8205C18.2752 18.8239 17.4642 18.0129 16.4672 18.0129H15.1466C14.7259 18.0129 14.3848 18.3539 14.3848 18.7747V23.32C14.3848 23.5226 14.4655 23.7168 14.6091 23.8598C14.7519 24.0019 14.9452 24.0817 15.1466 24.0817H15.15C15.15 24.0817 16.3634 24.0763 16.6978 24.0763C17.7927 24.0763 18.6834 23.1858 18.6834 22.0911ZM16.4672 19.5364C16.624 19.5364 16.7515 19.6638 16.7515 19.8205C16.7515 19.9773 16.624 20.1047 16.4672 20.1047C16.3667 20.1047 15.9085 20.106 15.9085 20.106V19.5365L16.4672 19.5364ZM15.9085 21.6297C15.931 21.6296 16.6978 21.6295 16.6978 21.6295C16.9525 21.6295 17.1596 21.8366 17.1596 22.0912C17.1596 22.3458 16.9524 22.553 16.6978 22.553C16.5481 22.553 16.2229 22.5541 15.9085 22.5552V21.6297Z" fill="#0E1628"/>
<path d="M23.3699 19.956C23.3699 18.8845 22.4681 18.0129 21.3596 18.0129H20.1515C20.151 18.0129 20.1505 18.0129 20.1501 18.0129C19.7293 18.0129 19.3882 18.3539 19.3882 18.7747V23.32C19.3882 23.7408 19.7293 24.0817 20.1501 24.0817C20.5708 24.0817 20.9119 23.7408 20.9119 23.32V22.5463L22.0361 23.8232C22.1866 23.9944 22.3969 24.0817 22.6083 24.0817C22.7871 24.0817 22.9666 24.0191 23.1113 23.8918C23.4272 23.6139 23.4579 23.1325 23.1799 22.8167L22.2095 21.7144C22.8936 21.4041 23.3699 20.7336 23.3699 19.956ZM21.3595 19.5364C21.6187 19.5364 21.846 19.7325 21.846 19.956C21.846 20.1795 21.6187 20.3756 21.3595 20.3756C21.2515 20.3756 21.0887 20.3761 20.9175 20.3769C20.9168 20.2133 20.9159 19.7089 20.9155 19.5365L21.3595 19.5364Z" fill="#0E1628"/>
<path d="M12.2707 20.3797C12.4498 16.7295 13.9728 13.2946 16.5594 10.7081C19.146 8.12154 22.5807 6.59851 26.231 6.41946C29.8555 6.24193 33.3976 7.39659 36.2042 9.67139C36.5312 9.93637 37.0108 9.88609 37.2756 9.55926C37.5405 9.23243 37.4903 8.75276 37.1635 8.48788C34.0651 5.97654 30.1552 4.70224 26.1563 4.89775C22.1275 5.09539 18.3367 6.77625 15.4822 9.63076C12.6277 12.4853 10.9468 16.2762 10.7492 20.305C10.553 24.3047 11.828 28.2138 14.3391 31.3122C14.4896 31.4979 14.7095 31.5943 14.9313 31.5943C15.0998 31.5943 15.2694 31.5386 15.4105 31.4242C15.7373 31.1595 15.7875 30.6797 15.5226 30.3529C13.2478 27.5463 12.093 24.0044 12.2707 20.3797Z" fill="#0E1628"/>
<path d="M38.5072 10.7906C38.1804 11.0554 38.1302 11.5352 38.3951 11.862C40.6698 14.6686 41.8249 18.2106 41.647 21.8352C41.468 25.4855 39.945 28.9203 37.3584 31.5068C34.7719 34.0934 31.3371 35.6165 27.6868 35.7955C24.0631 35.974 20.5202 34.8185 17.7135 32.5436C17.3867 32.2786 16.9071 32.329 16.6422 32.6557C16.3773 32.9825 16.4275 33.4622 16.7543 33.7271C19.645 36.07 23.2413 37.3368 26.9586 37.3368C27.2256 37.3368 27.4934 37.3303 27.7615 37.3172C31.7903 37.1196 35.5811 35.4387 38.4357 32.5842C41.2902 29.7297 42.971 25.9388 43.1688 21.9099C43.365 17.9101 42.09 14.0011 39.5786 10.9027C39.3141 10.5761 38.8344 10.5255 38.5072 10.7906Z" fill="#0E1628"/>
<path d="M35.9211 18.0802C35.7188 18.0802 35.5248 18.1606 35.3817 18.3037C35.2389 18.4469 35.1588 18.641 35.1592 18.8432C35.1592 18.8433 35.1681 23.2554 35.1681 23.2554C35.1688 23.4574 35.2499 23.6509 35.3932 23.7933C35.536 23.935 35.729 24.0144 35.93 24.0144H35.9328C35.9706 24.0143 36.863 24.0108 37.2204 24.0045C38.6654 23.9793 39.7141 22.7356 39.7141 21.0472C39.7141 19.3002 38.6682 18.0801 37.1706 18.0801L35.9211 18.0802ZM38.1903 21.0473C38.1903 21.7525 37.8822 22.4694 37.1937 22.4814C37.0731 22.4835 36.8845 22.4854 36.6892 22.4868C36.6877 21.9891 36.6851 20.1231 36.6843 19.6036H37.1705C38.1169 19.6036 38.1903 20.7086 38.1903 21.0473Z" fill="#0E1628"/>
</g>
<defs>
<clipPath id="clip0_1341_9553">
<rect width="52" height="52" fill="white" transform="translate(0.958984 -0.00756836)"/>
</clipPath>
</defs>
</svg>
