<svg width="24" height="25" viewBox="0 0 24 25" fill="none" xmlns="http://www.w3.org/2000/svg">
<path d="M21.97 18.832C21.97 19.192 21.89 19.562 21.72 19.922C21.55 20.282 21.33 20.622 21.04 20.942C20.55 21.482 20.01 21.872 19.4 22.122C18.8 22.372 18.15 22.502 17.45 22.502C16.43 22.502 15.34 22.262 14.19 21.772C13.04 21.282 11.89 20.622 10.75 19.792C9.6 18.952 8.51 18.022 7.47 16.992C6.44 15.952 5.51 14.862 4.68 13.722C3.86 12.582 3.2 11.442 2.72 10.312C2.24 9.17205 2 8.08204 2 7.04204C2 6.36204 2.12 5.71204 2.36 5.11204C2.6 4.50204 2.98 3.94204 3.51 3.44204C4.15 2.81204 4.85 2.50204 5.59 2.50204C5.87 2.50204 6.15 2.56204 6.4 2.68204C6.66 2.80204 6.89 2.98204 7.07 3.24204L9.39 6.51204C9.57 6.76204 9.7 6.99204 9.79 7.21204C9.88 7.42204 9.93 7.63204 9.93 7.82204C9.93 8.06204 9.86 8.30204 9.72 8.53204C9.59 8.76204 9.4 9.00204 9.16 9.24204L8.4 10.032C8.29 10.142 8.24 10.272 8.24 10.432C8.24 10.512 8.25 10.582 8.27 10.662C8.3 10.742 8.33 10.802 8.35 10.862C8.53 11.192 8.84 11.622 9.28 12.142C9.73 12.662 10.21 13.192 10.73 13.722C11.27 14.252 11.79 14.742 12.32 15.192C12.84 15.632 13.27 15.932 13.61 16.112C13.66 16.132 13.72 16.162 13.79 16.192C13.87 16.222 13.95 16.232 14.04 16.232C14.21 16.232 14.34 16.172 14.45 16.062L15.21 15.312C15.46 15.062 15.7 14.872 15.93 14.752C16.16 14.612 16.39 14.542 16.64 14.542C16.83 14.542 17.03 14.582 17.25 14.672C17.47 14.762 17.7 14.892 17.95 15.062L21.26 17.412C21.52 17.592 21.7 17.802 21.81 18.052C21.91 18.302 21.97 18.552 21.97 18.832Z" fill="white"/>
</svg>
