<svg width="19" height="19" viewBox="0 0 19 19" fill="none" xmlns="http://www.w3.org/2000/svg">
<g clip-path="url(#clip0_1341_10080)">
<path d="M6.7226 16.1324C13.0909 16.1324 16.5734 10.8565 16.5734 6.28161C16.5734 6.13176 16.5703 5.98254 16.5636 5.83414C17.2395 5.34539 17.827 4.73549 18.2906 4.04128C17.6703 4.31712 17.0026 4.50257 16.3024 4.58647C17.0171 4.15768 17.5659 3.47967 17.8248 2.67142C17.1558 3.06801 16.415 3.35614 15.6263 3.51177C14.9946 2.83881 14.095 2.41797 13.099 2.41797C11.1872 2.41797 9.63661 3.96842 9.63661 5.87965C9.63661 6.15147 9.66705 6.41566 9.72639 6.66911C6.84891 6.52433 4.29723 5.14673 2.58982 3.05181C2.29261 3.56337 2.12109 4.15779 2.12109 4.79204C2.12109 5.99306 2.73234 7.05363 3.66174 7.67385C3.09374 7.65641 2.5602 7.50048 2.09375 7.24094C2.09323 7.25549 2.09323 7.26962 2.09323 7.2851C2.09323 8.96187 3.28661 10.3619 4.87102 10.6791C4.58 10.7582 4.27381 10.8009 3.95802 10.8009C3.73532 10.8009 3.51819 10.779 3.30725 10.7384C3.74801 12.1141 5.02623 13.1151 6.54159 13.1431C5.35656 14.0719 3.8638 14.6252 2.24142 14.6252C1.96237 14.6252 1.68653 14.6092 1.41553 14.5772C2.94781 15.5593 4.7673 16.1325 6.7227 16.1325" fill="white"/>
</g>
<defs>
<clipPath id="clip0_1341_10080">
<rect width="18" height="18" fill="white" transform="translate(0.858887 0.374512)"/>
</clipPath>
</defs>
</svg>
