<svg width="42" height="36" viewBox="0 0 42 36" fill="none" xmlns="http://www.w3.org/2000/svg">
<path d="M17.8287 33.0813C20.343 31.7946 22.8608 30.5087 25.4487 29.3715C26.1214 29.0755 26.7986 28.7914 27.4821 28.519C30.1072 27.491 32.8102 26.6756 35.5896 26.1866C36.3222 26.0583 37.0583 25.9504 37.7963 25.8635C38.412 25.7972 39.0292 25.7437 39.6472 25.7064C40.0012 25.6856 40.3269 25.5912 40.5879 25.3369C40.8118 25.1199 40.9866 24.7588 40.9806 24.4427C40.9739 24.1038 40.8683 23.7467 40.6118 23.508C40.3767 23.2885 40.0481 23.099 39.714 23.1197C38.054 23.2194 36.3949 23.4158 34.7579 23.7138C33.2143 23.995 31.6877 24.3706 30.1881 24.835C28.6072 25.3246 27.0564 25.9087 25.5277 26.5416C24.089 27.1372 22.672 27.7867 21.2701 28.4636C19.8593 29.1445 18.4624 29.8547 17.0663 30.5681C16.896 30.655 16.7241 30.7422 16.5542 30.8307C16.2693 30.9758 16.0327 31.2947 15.9437 31.595C15.852 31.9041 15.8838 32.3174 16.0569 32.5934C16.2308 32.8725 16.4939 33.1179 16.8235 33.1986C17.1718 33.2812 17.5071 33.2454 17.8287 33.0813Z" fill="#FF684C"/>
<path d="M12.4256 24.3882C12.5424 24.1929 12.6055 23.9814 12.6118 23.7544C12.6318 23.6688 12.6585 23.5832 12.6874 23.5002C12.7582 23.3658 12.8383 23.2356 12.9265 23.1116C13.4144 22.5391 14.0309 22.0843 14.6271 21.628C14.7881 21.5039 14.9515 21.3826 15.113 21.26C15.9381 20.6463 16.7752 20.0476 17.6236 19.4675C18.5048 18.8661 19.3987 18.2829 20.3059 17.7194C20.8162 17.403 21.3296 17.0923 21.8476 16.7871C22.1334 16.6188 22.3637 16.3409 22.4582 16.0228C22.5142 15.8559 22.5254 15.6885 22.4915 15.5193C22.4872 15.3427 22.438 15.1789 22.3449 15.0244C22.171 14.7453 21.908 14.4999 21.5783 14.4192C21.2417 14.3369 20.8804 14.3546 20.5744 14.5346C19.7776 15.0031 18.9913 15.487 18.2116 15.9842C17.4338 16.4825 16.6642 16.9936 15.9051 17.5201C15.057 18.1084 14.2238 18.7159 13.3979 19.3332C13.0298 19.6092 12.6624 19.8884 12.2994 20.1714C12.0182 20.3912 11.7417 20.6165 11.4838 20.8634C11.3555 20.9859 11.2318 21.1138 11.1167 21.2495C10.9372 21.4588 10.7599 21.6774 10.6092 21.9091C10.4584 22.1408 10.3516 22.3896 10.2425 22.6422C10.1752 22.7972 10.1247 22.9595 10.0932 23.1253C10.0585 23.3116 10.0251 23.5026 10.0095 23.6924C9.99823 23.8729 10.0318 24.0406 10.1124 24.1982C10.1619 24.3636 10.2504 24.506 10.3783 24.6272C10.494 24.753 10.6309 24.8439 10.7916 24.8976C10.941 24.9788 11.1028 25.0174 11.2761 25.0154C11.3922 25.0029 11.5078 24.9889 11.6223 24.9768C11.8498 24.9201 12.0474 24.8099 12.2167 24.6459C12.2866 24.5611 12.3561 24.4746 12.4256 24.3882Z" fill="#FF684C"/>
<path d="M4.1875 15.858C4.34929 15.5642 4.43449 15.209 4.33549 14.8783C4.31767 14.8334 4.29985 14.7885 4.28203 14.7435C4.34295 14.656 4.40658 14.5726 4.46983 14.4878C4.59046 14.3277 4.71341 14.1703 4.83638 14.013C5.34459 13.3828 5.88002 12.7755 6.44536 12.1952C7.04894 11.5758 7.68322 10.9866 8.34546 10.4299C8.67268 10.1558 9.00844 9.88944 9.34964 9.63161C9.81795 9.28615 10.2948 8.95501 10.786 8.64168C10.94 8.56216 11.0648 8.45207 11.1585 8.31023C11.2736 8.18775 11.3533 8.04283 11.3965 7.8774C11.4525 7.71042 11.4638 7.54308 11.4298 7.37384C11.4255 7.19722 11.3764 7.03342 11.2833 6.87895C11.1094 6.59981 10.8463 6.35444 10.5167 6.27373C10.1871 6.19303 9.80705 6.20222 9.51271 6.38914C8.17356 7.24459 6.89959 8.21543 5.72665 9.28612C4.55098 10.3591 3.4919 11.5413 2.51754 12.7977C2.3934 12.957 2.27276 13.1171 2.15251 13.2787C2.09317 13.3593 2.03189 13.4388 1.97877 13.5244C1.87838 13.686 1.80598 13.8669 1.73165 14.0401C1.6984 14.1192 1.66903 14.2005 1.65018 14.2842C1.6097 14.467 1.56687 14.6604 1.58089 14.8494C1.60323 15.1646 1.63972 15.404 1.798 15.687C1.94349 15.9452 2.15257 16.1465 2.40338 16.3028C2.54764 16.3968 2.70483 16.4498 2.87457 16.4601C3.04541 16.5014 3.21634 16.4966 3.38776 16.4473C3.56382 16.41 3.71698 16.334 3.84687 16.2177C3.98839 16.1281 4.10271 16.0091 4.1875 15.858Z" fill="#FF684C"/>
</svg>
