<svg width="17" height="17" viewBox="0 0 17 17" fill="none" xmlns="http://www.w3.org/2000/svg">
<g clip-path="url(#clip0_1341_10071)">
<path d="M16.8776 5.07856C16.8401 4.22841 16.7026 3.64395 16.5057 3.1375C16.3025 2.59992 15.99 2.11863 15.5805 1.71852C15.1804 1.31219 14.6959 0.996459 14.1646 0.796469C13.6552 0.599531 13.0738 0.462053 12.2236 0.42457C11.3671 0.383913 11.0952 0.374512 8.92294 0.374512C6.75064 0.374512 6.47874 0.383913 5.62542 0.421396C4.77528 0.458879 4.19082 0.596479 3.6845 0.793295C3.14679 0.996459 2.6655 1.30902 2.2654 1.71852C1.85907 2.11863 1.54346 2.6031 1.34334 3.13445C1.14641 3.64395 1.00893 4.22524 0.971445 5.07538C0.930788 5.93187 0.921387 6.20378 0.921387 8.37607C0.921387 10.5484 0.930788 10.8203 0.968271 11.6736C1.00575 12.5237 1.14335 13.1082 1.34029 13.6146C1.54346 14.1522 1.85907 14.6335 2.2654 15.0336C2.6655 15.44 3.14997 15.7557 3.68132 15.9557C4.19082 16.1526 4.77211 16.2901 5.62237 16.3276C6.47556 16.3652 6.74759 16.3745 8.91989 16.3745C11.0922 16.3745 11.3641 16.3652 12.2174 16.3276C13.0675 16.2901 13.652 16.1526 14.1583 15.9557C15.2336 15.5399 16.0838 14.6898 16.4995 13.6146C16.6963 13.1051 16.8339 12.5237 16.8714 11.6736C16.9089 10.8203 16.9183 10.5484 16.9183 8.37607C16.9183 6.20378 16.9151 5.93187 16.8776 5.07856ZM15.4368 11.6111C15.4023 12.3925 15.2711 12.8144 15.1617 13.0957C14.8928 13.7928 14.3396 14.346 13.6426 14.6148C13.3613 14.7242 12.9363 14.8555 12.1579 14.8898C11.314 14.9274 11.0609 14.9367 8.92611 14.9367C6.7913 14.9367 6.53502 14.9274 5.69416 14.8898C4.91276 14.8555 4.4908 14.7242 4.2095 14.6148C3.86263 14.4866 3.5469 14.2835 3.29062 14.0178C3.02494 13.7584 2.82178 13.4458 2.69358 13.0989C2.58419 12.8176 2.45293 12.3925 2.41863 11.6143C2.38102 10.7703 2.37174 10.5171 2.37174 8.3823C2.37174 6.24749 2.38102 5.99121 2.41863 5.15047C2.45293 4.36907 2.58419 3.94711 2.69358 3.6658C2.82178 3.31881 3.02494 3.0032 3.2938 2.7468C3.55312 2.48112 3.86568 2.27796 4.21267 2.14988C4.49398 2.04049 4.91911 1.90924 5.69734 1.8748C6.54125 1.83732 6.79447 1.82792 8.92917 1.82792C11.0672 1.82792 11.3203 1.83732 12.1611 1.8748C12.9425 1.90924 13.3645 2.04049 13.6458 2.14988C13.9926 2.27796 14.3084 2.48112 14.5647 2.7468C14.8303 3.00625 15.0335 3.31881 15.1617 3.6658C15.2711 3.94711 15.4023 4.37212 15.4368 5.15047C15.4743 5.99438 15.4837 6.24749 15.4837 8.3823C15.4837 10.5171 15.4743 10.7672 15.4368 11.6111Z" fill="white"/>
<path d="M8.92317 4.26562C6.65405 4.26562 4.81299 6.10656 4.81299 8.3758C4.81299 10.645 6.65405 12.486 8.92317 12.486C11.1924 12.486 13.0333 10.645 13.0333 8.3758C13.0333 6.10656 11.1924 4.26562 8.92317 4.26562ZM8.92317 11.042C7.45108 11.042 6.257 9.84801 6.257 8.3758C6.257 6.90359 7.45108 5.70963 8.92317 5.70963C10.3954 5.70963 11.5893 6.90359 11.5893 8.3758C11.5893 9.84801 10.3954 11.042 8.92317 11.042Z" fill="white"/>
<path d="M14.1555 4.10358C14.1555 4.63347 13.7259 5.06312 13.1959 5.06312C12.666 5.06312 12.2363 4.63347 12.2363 4.10358C12.2363 3.57357 12.666 3.14404 13.1959 3.14404C13.7259 3.14404 14.1555 3.57357 14.1555 4.10358Z" fill="white"/>
</g>
<defs>
<clipPath id="clip0_1341_10071">
<rect width="16" height="16" fill="white" transform="translate(0.894043 0.374512)"/>
</clipPath>
</defs>
</svg>
