<svg width="17" height="17" viewBox="0 0 17 17" fill="none" xmlns="http://www.w3.org/2000/svg">
<g clip-path="url(#clip0_1341_10083)">
<path fill-rule="evenodd" clip-rule="evenodd" d="M6.76794 16.1729C6.76794 16.2842 6.85825 16.3745 6.9695 16.3745H9.84231C9.95356 16.3745 10.0436 16.2842 10.0436 16.1729V8.31139H12.1264C12.2308 8.31139 12.3179 8.23107 12.327 8.12701L12.5273 5.75826C12.537 5.64076 12.4445 5.53982 12.3264 5.53982H10.0436V3.85951C10.0436 3.46545 10.3629 3.14607 10.7567 3.14607H12.3617C12.4733 3.14607 12.5633 3.05576 12.5633 2.94451V0.576074C12.5633 0.464824 12.4733 0.374512 12.3617 0.374512H9.64982C8.05825 0.374512 6.76794 1.66451 6.76794 3.25607V5.53982H5.33169C5.22044 5.53982 5.13013 5.63014 5.13013 5.74139V8.10982C5.13013 8.22139 5.22044 8.31139 5.33169 8.31139H6.76794V16.1729Z" fill="white"/>
</g>
<defs>
<clipPath id="clip0_1341_10083">
<rect width="16" height="16" fill="white" transform="translate(0.846924 0.374512)"/>
</clipPath>
</defs>
</svg>
