<svg width="17" height="17" viewBox="0 0 17 17" fill="none" xmlns="http://www.w3.org/2000/svg">
<g clip-path="url(#clip0_1341_10074)">
<path d="M3.19308 1.18701C2.09317 1.18701 1.37402 1.90927 1.37402 2.85858C1.37402 3.78693 2.07175 4.52978 3.15088 4.52978H3.17175C4.29318 4.52978 4.99109 3.78693 4.99109 2.85858C4.97012 1.90927 4.29318 1.18701 3.19308 1.18701Z" fill="white"/>
<path d="M1.56494 5.85059H4.78046V15.5246H1.56494V5.85059Z" fill="white"/>
<path d="M12.6725 5.62402C10.9379 5.62402 9.77469 7.25403 9.77469 7.25403V5.85107H6.55908V15.5251H9.77451V10.1228C9.77451 9.83353 9.79547 9.54478 9.88043 9.33796C10.1129 8.76044 10.6419 8.16214 11.5302 8.16214C12.6938 8.16214 13.1591 9.04929 13.1591 10.3498V15.5251H16.3744V9.97819C16.3744 7.00675 14.7879 5.62402 12.6725 5.62402Z" fill="white"/>
</g>
<defs>
<clipPath id="clip0_1341_10074">
<rect width="16" height="16" fill="white" transform="translate(0.882324 0.374512)"/>
</clipPath>
</defs>
</svg>
