<svg width="17" height="17" viewBox="0 0 17 17" fill="none" xmlns="http://www.w3.org/2000/svg">
<g clip-path="url(#clip0_1341_10077)">
<path d="M15.4191 6.37451H13.9611V7.82585H12.5098V9.28385H13.9611V10.7352H15.4191V9.28385H16.8704V7.82585H15.4191V6.37451Z" fill="white"/>
<path d="M5.87061 13.3745C8.75594 13.3745 10.6726 11.3492 10.6726 8.49051C10.6726 8.16318 10.6386 7.91051 10.5913 7.65851H5.87127V9.37718H8.70927C8.59327 10.1072 7.84994 11.5325 5.87127 11.5325C4.16661 11.5325 2.77461 10.1205 2.77461 8.37451C2.77461 6.62851 4.16594 5.21585 5.87127 5.21585C6.84661 5.21585 7.49461 5.63185 7.86327 5.98651L9.22061 4.68385C8.34661 3.86585 7.22127 3.37451 5.87061 3.37451C3.10794 3.37451 0.870605 5.61185 0.870605 8.37451C0.870605 11.1372 3.10794 13.3745 5.87061 13.3745Z" fill="white"/>
</g>
<defs>
<clipPath id="clip0_1341_10077">
<rect width="16" height="16" fill="white" transform="translate(0.870605 0.374512)"/>
</clipPath>
</defs>
</svg>
