<svg width="17" height="17" viewBox="0 0 17 17" fill="none" xmlns="http://www.w3.org/2000/svg">
<path fill-rule="evenodd" clip-rule="evenodd" d="M1.02324 7.67618C1.40984 7.67618 1.72324 7.98958 1.72324 8.37618V13.8762C1.72324 14.2628 1.40984 14.5762 1.02324 14.5762C0.636643 14.5762 0.323242 14.2628 0.323242 13.8762V8.37618C0.323242 7.98958 0.636643 7.67618 1.02324 7.67618Z" fill="#0E1628"/>
<path opacity="0.4" d="M8.0318 1.8684C6.43073 3.56924 4.66004 6.3143 3.97852 7.40628C3.78659 7.7138 3.68945 8.06766 3.68945 8.43015V12.8375C3.68945 13.4887 4.00644 14.0991 4.5391 14.4736L5.30518 15.0122C5.64202 15.2491 6.04376 15.3762 6.45553 15.3762H11.4909C12.2636 15.3762 12.9671 14.9311 13.2981 14.2329L16.0071 8.51871C16.4789 7.52351 15.753 6.37616 14.6517 6.37616H9.99442C9.58774 6.37616 9.35117 5.91647 9.58755 5.58554L10.1624 4.78075C10.8767 3.7807 10.5286 2.37903 9.42936 1.82942L9.14583 1.68766C8.77143 1.50046 8.31872 1.56361 8.0318 1.8684Z" fill="#5C8AFF"/>
<path fill-rule="evenodd" clip-rule="evenodd" d="M8.83356 2.31375C8.7129 2.25342 8.6004 2.28646 8.54228 2.3482C6.99467 3.99224 5.2568 6.68149 4.57313 7.7769C4.45348 7.96862 4.39023 8.19313 4.39023 8.43015V12.8375C4.39023 13.2608 4.59628 13.6575 4.9425 13.901L5.70859 14.4396C5.92753 14.5936 6.18866 14.6762 6.45632 14.6762H11.4917C11.9939 14.6762 12.4512 14.3869 12.6664 13.9331L15.3753 8.21885C15.6269 7.68808 15.2398 7.07615 14.6524 7.07615H9.9952C9.01916 7.07615 8.45141 5.97291 9.01872 5.17867L9.59357 4.37388C10.0579 3.72385 9.83158 2.81277 9.11709 2.45552L8.83356 2.31375ZM7.52289 1.3886C8.0386 0.840759 8.83153 0.74749 9.45966 1.06156L9.74319 1.20332C11.2271 1.94529 11.6971 3.83755 10.7328 5.18762L10.3838 5.67615H14.6524C16.2678 5.67615 17.3323 7.35894 16.6404 8.81857L13.9314 14.5328C13.4846 15.4753 12.5348 16.0762 11.4917 16.0762H6.45632C5.90042 16.0762 5.35808 15.9046 4.90334 15.5849L4.13726 15.0462C3.41817 14.5406 2.99023 13.7166 2.99023 12.8375V8.43015C2.99023 7.94218 3.12127 7.45897 3.38546 7.03566C4.06485 5.9471 5.86834 3.14624 7.52289 1.3886Z" fill="#0E1628"/>
</svg>
