<svg width="108" height="25" viewBox="0 0 108 25" fill="none" xmlns="http://www.w3.org/2000/svg">
<path d="M17.4922 4.03504C16.9699 3.40792 16.3641 2.85965 15.6677 2.39025C14.9712 1.92084 14.2276 1.53406 13.4404 1.22237C12.6533 0.910686 11.8408 0.681616 11.0101 0.531407C10.1758 0.381198 9.35963 0.302338 8.55798 0.302338C7.39359 0.302338 6.33439 0.41875 5.38039 0.647819C4.42639 0.876889 3.6066 1.20359 2.92465 1.62794C2.23907 2.05228 1.70948 2.5705 1.33223 3.17885C0.958606 3.7872 0.769982 4.4744 0.769982 5.23672C0.769982 5.65355 0.824393 6.03658 0.929587 6.37831C1.03841 6.72379 1.17988 7.02797 1.35399 7.29834C1.52811 7.56872 1.72761 7.80154 1.94526 8.00057C2.1629 8.1996 2.38054 8.36483 2.59818 8.49626C2.81583 8.6277 3.02259 8.72533 3.21847 8.78917C3.41435 8.85301 3.57758 8.88681 3.70816 8.88681C3.79885 8.88681 3.88228 8.85676 3.96208 8.79668C4.04188 8.7366 4.07816 8.64647 4.07816 8.53382C4.07816 8.44744 4.05277 8.36858 4.00561 8.29723C3.95845 8.22589 3.88953 8.18082 3.8061 8.16205C3.78797 8.15454 3.71542 8.132 3.59572 8.0907C3.47601 8.04939 3.33092 7.98555 3.16043 7.89542C2.98994 7.8053 2.80857 7.68513 2.61269 7.53492C2.41682 7.38847 2.23545 7.20446 2.07221 6.99417C1.90535 6.78012 1.77114 6.53227 1.66232 6.23937C1.5535 5.95021 1.50271 5.616 1.50271 5.23672C1.50271 4.5758 1.67683 3.98622 2.02869 3.468C2.38054 2.94978 2.87387 2.51042 3.50866 2.15367C4.14345 1.79692 4.90157 1.52654 5.78303 1.33878C6.66448 1.15478 7.64025 1.0609 8.7067 1.0609C9.5011 1.0609 10.2955 1.13976 11.0863 1.29748C11.877 1.4552 12.6315 1.68426 13.3534 1.98468C14.0716 2.2851 14.7427 2.65687 15.3666 3.09999C15.9905 3.54311 16.5237 4.05382 16.9771 4.62837C17.4306 5.20292 17.786 5.83756 18.0472 6.53227C18.3084 7.23075 18.439 7.98179 18.439 8.79293C18.439 9.58904 18.3048 10.3438 18.04 11.0573C17.7715 11.7708 17.387 12.398 16.8792 12.9312C16.3714 13.4644 15.7511 13.8925 15.0184 14.2117C14.2856 14.5272 13.4586 14.6886 12.5336 14.6886C11.6812 14.6886 10.807 14.5572 9.91462 14.2943C9.02228 14.0315 8.16259 13.6447 7.33555 13.1302C7.32104 13.1227 7.31379 13.119 7.31016 13.1152C7.30653 13.1114 7.29928 13.1077 7.28477 13.1002C7.54594 12.7509 7.76358 12.3679 7.94495 11.9511C8.12269 11.538 8.27141 11.1137 8.39112 10.6781C8.5072 10.2424 8.60513 9.80684 8.68494 9.36372C8.76474 8.9206 8.83366 8.50002 8.89895 8.09445C8.97876 7.60252 9.05856 7.12936 9.14199 6.67873C9.22542 6.2281 9.34149 5.80751 9.48296 5.41321C9.62443 5.02267 9.8058 4.66968 10.0234 4.35799C10.2411 4.04631 10.524 3.78344 10.8686 3.57315C10.992 3.49804 11.0536 3.3929 11.0536 3.2502C11.0536 3.13003 11.0137 3.03615 10.9303 2.96856C10.8505 2.90096 10.7634 2.86716 10.6727 2.86716C10.622 2.86716 10.5603 2.88218 10.4986 2.91598C10.0633 3.18636 9.70786 3.50931 9.43943 3.89234C9.16738 4.27162 8.94974 4.69221 8.7865 5.15035C8.61964 5.60849 8.48906 6.09667 8.39475 6.61489C8.30043 7.13311 8.20975 7.66636 8.12269 8.21086C8.03563 8.75537 7.93407 9.30364 7.82162 9.85566C7.70917 10.4077 7.54957 10.9409 7.34643 11.4591C7.16506 11.9248 6.92928 12.3416 6.64272 12.7134C5.09383 11.8497 3.75169 11.4178 2.61995 11.4178C2.23545 11.4178 1.88359 11.4667 1.56075 11.568C1.23792 11.6694 0.962234 11.8084 0.730081 11.9811C0.497928 12.1576 0.320186 12.3604 0.193228 12.5895C0.0662695 12.826 0.000976562 13.0701 0.000976562 13.333C0.000976562 13.6372 0.0735243 13.9113 0.222247 14.1629C0.367343 14.4108 0.570476 14.6248 0.82802 14.8013C1.08556 14.9778 1.39027 15.113 1.74212 15.2069C2.09398 15.3008 2.47123 15.3496 2.87387 15.3496C3.62111 15.3496 4.33208 15.2031 5.00677 14.9102C5.68146 14.6173 6.27635 14.208 6.78781 13.6822C7.2231 13.9864 7.68015 14.2455 8.15897 14.4671C8.63778 14.6849 9.12385 14.8689 9.61718 15.0191C10.1105 15.1693 10.6075 15.2782 11.1008 15.3496C11.5941 15.4209 12.0729 15.4547 12.5372 15.4547C13.513 15.4547 14.409 15.2857 15.2215 14.9478C16.034 14.6098 16.7341 14.1441 17.3217 13.5508C17.9094 12.9575 18.3628 12.2515 18.6893 11.4366C19.0157 10.6217 19.179 9.73549 19.179 8.77791C19.179 7.82032 19.0266 6.94911 18.7255 6.16051C18.4245 5.36815 18.0109 4.65841 17.4922 4.03504ZM4.62589 14.238C4.0709 14.4633 3.48327 14.576 2.87387 14.576C2.51475 14.576 2.2028 14.5384 1.938 14.4633C1.66957 14.3882 1.4483 14.2943 1.27056 14.1817C1.09282 14.069 0.958606 13.9338 0.871549 13.7874C0.784492 13.6409 0.740963 13.4907 0.740963 13.3443C0.740963 13.1903 0.788119 13.0401 0.886059 12.9012C0.983998 12.7585 1.11821 12.6345 1.28507 12.5256C1.45556 12.4167 1.65506 12.3304 1.88722 12.2665C2.11937 12.2027 2.36966 12.1689 2.64534 12.1689C3.12778 12.1689 3.65738 12.2628 4.23776 12.4505C4.81814 12.6383 5.44568 12.9199 6.124 13.2879C5.67783 13.6973 5.18088 14.0127 4.62589 14.238Z" fill="black"/>
<path d="M36.7106 8.1577C36.9573 8.1577 37.1676 8.06759 37.3417 7.89111C37.5158 7.71463 37.5993 7.49684 37.5993 7.23776C37.5993 7.11009 37.5775 6.98994 37.5303 6.87729C37.4832 6.76464 37.4215 6.66701 37.3381 6.58441C37.2583 6.5018 37.164 6.43421 37.0552 6.38915C36.9464 6.34034 36.8339 6.31781 36.707 6.31781C36.5837 6.31781 36.4676 6.34034 36.3588 6.38915C36.25 6.43797 36.1557 6.5018 36.0759 6.58441C35.9961 6.66701 35.9308 6.76464 35.8873 6.87729C35.8401 6.98994 35.8184 7.11009 35.8184 7.23776C35.8184 7.49309 35.9054 7.71087 36.0759 7.89111C36.2536 8.06759 36.464 8.1577 36.7106 8.1577ZM36.4785 6.98993C36.5438 6.91859 36.6199 6.8848 36.7142 6.8848C36.8049 6.8848 36.8847 6.91859 36.9536 6.98993C37.0226 7.06128 37.0552 7.14389 37.0552 7.23776C37.0552 7.33163 37.0226 7.41424 36.9536 7.48182C36.8847 7.54941 36.8049 7.58321 36.7142 7.58321C36.6236 7.58321 36.5438 7.54941 36.4785 7.48182C36.4132 7.41424 36.3806 7.33538 36.3806 7.23776C36.3806 7.14389 36.4132 7.06128 36.4785 6.98993Z" fill="black"/>
<path d="M50.5371 11.8198C50.4646 11.8198 50.3993 11.8385 50.3413 11.8761C50.2832 11.9136 50.2361 11.9662 50.2034 12.0338C50.12 12.2141 50.0003 12.4582 49.8479 12.7586C49.6956 13.059 49.5178 13.3519 49.3147 13.6448C49.1116 13.934 48.8903 14.1856 48.6509 14.3996C48.4115 14.6137 48.1576 14.7188 47.9 14.7188C47.5155 14.7188 47.1854 14.4747 46.9134 13.9865C46.6413 13.4984 46.4201 12.8262 46.2604 11.97C46.6268 11.2828 46.9678 10.5768 47.287 9.85202C47.6062 9.12726 47.8819 8.4025 48.1177 7.67399C48.3534 6.94547 48.5384 6.22447 48.6727 5.50722C48.8105 4.78997 48.8794 4.09525 48.8794 3.41931C48.8794 2.8748 48.8468 2.4129 48.7815 2.03362C48.7162 1.6581 48.6255 1.35017 48.5094 1.11359C48.3933 0.877012 48.2483 0.708026 48.0741 0.60288C47.9 0.497733 47.7078 0.44516 47.4938 0.44516C47.2217 0.44516 46.975 0.561572 46.761 0.790642C46.547 1.01971 46.3548 1.3314 46.1915 1.72194C46.0283 2.11248 45.8832 2.56687 45.7635 3.08509C45.6438 3.60331 45.5422 4.15158 45.4661 4.73364C45.3862 5.31194 45.3318 5.90527 45.2956 6.51362C45.2593 7.12197 45.2412 7.70779 45.2412 8.27107C45.2412 8.66162 45.252 9.10849 45.2738 9.61545C45.2956 10.1224 45.3391 10.6406 45.4044 11.1776C45.4334 11.4067 45.4697 11.6358 45.506 11.8611C45.4878 11.8686 45.4697 11.8761 45.4515 11.8836C45.3935 11.9212 45.3463 11.9775 45.3137 12.0488C45.1759 12.3643 45.0235 12.6835 44.853 12.9989C44.6825 13.3144 44.4903 13.6035 44.2763 13.8589C44.0623 14.1142 43.8228 14.3208 43.5617 14.4822C43.3005 14.6399 43.0103 14.7188 42.6911 14.7188C42.3792 14.7188 42.1143 14.6587 41.9003 14.5423C41.6863 14.4259 41.5086 14.2682 41.3744 14.0729C41.6283 13.9452 41.8641 13.795 42.089 13.6185C42.3102 13.442 42.4989 13.2505 42.6585 13.044C42.8181 12.8337 42.945 12.6084 43.0357 12.368C43.1264 12.1239 43.1735 11.8648 43.1735 11.5907C43.1735 11.3767 43.1373 11.1814 43.0647 11.0161C42.9922 10.8472 42.8979 10.7045 42.7818 10.5881C42.6657 10.4716 42.5315 10.3778 42.3864 10.3139C42.2413 10.2501 42.0926 10.2163 41.9439 10.2163C41.6899 10.2163 41.4578 10.2764 41.2438 10.3965C41.0334 10.5167 40.8484 10.6857 40.696 10.9035C40.5437 11.1175 40.424 11.3729 40.3442 11.662C40.3188 11.7522 40.3043 11.8461 40.2861 11.9437C40.2571 11.9737 40.2317 12.0075 40.21 12.0488C40.0068 12.4657 39.8037 12.8449 39.5933 13.1867C39.3866 13.5284 39.1798 13.8176 38.973 14.0616C38.7699 14.3057 38.5668 14.4935 38.3709 14.6287C38.175 14.7639 37.9864 14.8315 37.805 14.8315C37.6926 14.8315 37.5801 14.8127 37.4568 14.7714C37.3371 14.7301 37.221 14.6512 37.1158 14.5273C37.007 14.4071 36.9199 14.2344 36.851 14.0166C36.7821 13.7988 36.7494 13.5096 36.7494 13.1529C36.7494 12.89 36.7567 12.6009 36.7748 12.2892C36.7893 11.9775 36.8111 11.6808 36.8329 11.3992C36.8546 11.1213 36.8764 10.8772 36.8909 10.6782C36.9054 10.4754 36.9163 10.3552 36.9163 10.3139C36.9163 10.2125 36.8837 10.1224 36.8184 10.0473C36.7531 9.96844 36.6733 9.93088 36.5753 9.93088C36.4629 9.93088 36.3758 9.96468 36.3069 10.036C36.238 10.1074 36.1981 10.19 36.1836 10.2839C36.1147 10.8509 36.0675 11.418 36.0385 11.9888C36.0203 12.015 36.0022 12.0413 35.9877 12.0751C35.9151 12.2516 35.8063 12.4807 35.6612 12.7623C35.5161 13.044 35.342 13.3219 35.1425 13.596C34.943 13.8701 34.729 14.1067 34.4932 14.302C34.2574 14.501 34.018 14.5986 33.7714 14.5986C33.6335 14.5986 33.5247 14.5686 33.4376 14.501C33.3542 14.4372 33.2889 14.3508 33.2418 14.2381C33.1946 14.1255 33.1656 13.9978 33.1475 13.8476C33.1293 13.7011 33.1221 13.5434 33.1221 13.3819C33.1221 13.2543 33.1257 13.1191 33.1366 12.9726C33.1475 12.8262 33.1547 12.6835 33.1656 12.5445C33.1765 12.4056 33.1837 12.2704 33.1946 12.1465C33.2055 12.0226 33.2091 11.9174 33.2091 11.8273C33.2091 11.4518 33.1293 11.1326 32.9661 10.8772C32.8029 10.6218 32.5526 10.4942 32.2152 10.4942C32.0447 10.4942 31.867 10.5467 31.6747 10.6519C31.4825 10.757 31.2939 10.926 31.1016 11.1626C30.913 11.4067 30.7316 11.662 30.5611 11.9324C30.3906 12.2028 30.2238 12.4732 30.0678 12.7473C29.9118 13.0214 29.7667 13.2918 29.6289 13.5547C29.4911 13.8213 29.3713 14.0654 29.2662 14.287C29.2843 14.0917 29.3061 13.8476 29.3278 13.5584C29.3496 13.2693 29.375 12.9764 29.4004 12.6835C29.4258 12.3906 29.4475 12.1164 29.462 11.8611C29.4765 11.6057 29.4874 11.418 29.4874 11.294C29.4874 11.1326 29.4729 10.9748 29.4439 10.8171C29.4149 10.6632 29.3677 10.5205 29.3061 10.3928C29.2444 10.2651 29.161 10.1637 29.0558 10.0848C28.9506 10.006 28.8236 9.96844 28.6749 9.96844C28.421 9.96844 28.1671 10.1374 27.9095 10.4791C27.652 10.8209 27.3763 11.3504 27.0861 12.0714C27.0281 12.199 26.9555 12.3493 26.8721 12.5258C26.7886 12.7022 26.6907 12.8825 26.5783 13.0703C26.4658 13.258 26.3461 13.4458 26.2119 13.6298C26.0777 13.8138 25.9398 13.979 25.7911 14.1255C25.646 14.2719 25.4937 14.3883 25.3413 14.4747C25.189 14.5611 25.033 14.6062 24.877 14.6062C24.6376 14.6062 24.449 14.5235 24.3111 14.3546C24.1733 14.1856 24.0717 13.9865 24.0028 13.7575C23.9339 13.5284 23.8904 13.2956 23.8722 13.0665C23.8541 12.8337 23.8396 12.6534 23.8323 12.5258C23.8251 12.4319 23.7888 12.3455 23.7199 12.2742C23.651 12.199 23.5712 12.1615 23.4805 12.1615C23.3825 12.1615 23.2991 12.1953 23.2266 12.2591C23.154 12.323 23.1141 12.4018 23.0996 12.4957C23.0524 12.8449 22.9726 13.1491 22.8602 13.4045C22.7477 13.6598 22.6208 13.8739 22.4793 14.0429C22.3378 14.2119 22.1928 14.3358 22.0404 14.4184C21.8881 14.501 21.7538 14.5386 21.6341 14.5386C21.4709 14.5386 21.3331 14.5048 21.2242 14.4372C21.1118 14.3696 21.0247 14.2832 20.9594 14.1743C20.8941 14.0654 20.847 13.9452 20.8216 13.8138C20.7962 13.6824 20.7817 13.5509 20.7817 13.4233C20.7817 13.0139 20.847 12.6572 20.9703 12.3568C21.0973 12.0563 21.2569 11.8085 21.4455 11.6095C21.6341 11.4104 21.8409 11.264 22.0694 11.1701C22.2979 11.0762 22.512 11.0274 22.7151 11.0274C22.8529 11.0274 22.9726 11.0424 23.0815 11.0725C23.1903 11.1025 23.281 11.1363 23.3608 11.1776C23.4406 11.2189 23.5022 11.2565 23.5458 11.294C23.5929 11.3316 23.6219 11.3579 23.6328 11.3691C23.7054 11.4442 23.7924 11.4818 23.8976 11.4818C23.9956 11.4818 24.079 11.4442 24.1515 11.3654C24.2241 11.2865 24.2604 11.2002 24.2604 11.0988C24.2604 11.0049 24.2241 10.9148 24.1515 10.8246C24.1443 10.8171 24.108 10.7871 24.0427 10.727C23.9774 10.6707 23.8831 10.6068 23.7634 10.5392C23.6437 10.4716 23.4986 10.4078 23.3281 10.3515C23.1576 10.2951 22.9726 10.2651 22.7731 10.2651C22.4721 10.2651 22.1637 10.3327 21.8409 10.4679C21.5181 10.6031 21.2242 10.8059 20.9558 11.0762C20.6874 11.3466 20.4697 11.6808 20.2956 12.0826C20.1215 12.4844 20.0381 12.9463 20.0381 13.4721C20.0381 13.7349 20.0744 13.979 20.1505 14.2006C20.2267 14.4221 20.3319 14.6174 20.4697 14.7826C20.6076 14.9479 20.7708 15.0756 20.9667 15.1657C21.1626 15.2558 21.3802 15.3009 21.6196 15.3009C21.9243 15.3009 22.2327 15.1882 22.5374 14.9629C22.8421 14.7376 23.1069 14.4334 23.3281 14.0466C23.4442 14.4259 23.6328 14.7376 23.8904 14.9854C24.1479 15.2333 24.4635 15.361 24.8444 15.361C25.1128 15.361 25.3667 15.2971 25.6061 15.1657C25.8455 15.0343 26.0704 14.869 26.2808 14.6662C26.4876 14.4635 26.6762 14.2419 26.8467 13.9978C27.0172 13.7537 27.1659 13.5209 27.2929 13.2993C27.4198 13.0778 27.525 12.8787 27.6048 12.7098C27.6846 12.5408 27.739 12.4244 27.7644 12.3718C28.0002 11.786 28.1924 11.3766 28.3412 11.1438C28.4899 10.911 28.5951 10.7833 28.6531 10.7645C28.693 10.7983 28.7184 10.8922 28.7329 11.0462C28.7474 11.2002 28.7511 11.3616 28.7511 11.5306C28.7511 11.6583 28.7438 11.816 28.7329 12.0075C28.7184 12.1953 28.7039 12.4018 28.6858 12.6196C28.6676 12.8374 28.6459 13.059 28.6277 13.2806C28.6096 13.5021 28.5878 13.7087 28.5697 13.9039C28.5516 14.0992 28.5334 14.2607 28.5225 14.3996C28.508 14.5386 28.5044 14.6287 28.5044 14.6775C28.5044 14.8916 28.5624 15.0605 28.6749 15.1769C28.7873 15.2934 28.9397 15.3534 29.1283 15.3534C29.2662 15.3534 29.3967 15.3046 29.5273 15.207C29.6579 15.1094 29.7885 14.9178 29.9191 14.6362C29.9844 14.4897 30.0751 14.302 30.1875 14.0767C30.3 13.8513 30.4233 13.6148 30.5575 13.3632C30.6917 13.1153 30.8332 12.8637 30.9855 12.6084C31.1379 12.3568 31.2866 12.1277 31.4353 11.9249C31.5804 11.7221 31.7219 11.5607 31.8561 11.433C31.9903 11.3053 32.11 11.2452 32.2116 11.2452C32.2624 11.2452 32.324 11.2828 32.3857 11.3616C32.4474 11.4405 32.4836 11.5869 32.4836 11.801C32.4836 11.9287 32.48 12.0639 32.4691 12.2066C32.4583 12.3493 32.4474 12.4882 32.4292 12.6309C32.4111 12.7736 32.4002 12.9088 32.3893 13.0365C32.3784 13.1641 32.3748 13.2806 32.3748 13.3819C32.3748 13.6185 32.393 13.8513 32.4292 14.0842C32.4655 14.317 32.5344 14.531 32.6396 14.7226C32.7448 14.9141 32.8863 15.068 33.0677 15.1882C33.249 15.3046 33.4884 15.3647 33.7822 15.3647C34.0434 15.3647 34.2901 15.2971 34.5295 15.1619C34.7653 15.0267 34.9902 14.8578 35.1933 14.655C35.4001 14.4522 35.5851 14.2269 35.7555 13.9828C35.8535 13.8438 35.9405 13.7087 36.024 13.5772C36.0421 13.765 36.0675 13.9527 36.1147 14.1255C36.1908 14.4184 36.3033 14.6737 36.4556 14.8878C36.608 15.1018 36.7966 15.2746 37.0179 15.4023C37.2391 15.5299 37.4967 15.5938 37.7905 15.5938C38.019 15.5938 38.2439 15.5375 38.4652 15.421C38.6865 15.3046 38.8969 15.1582 39.1 14.9704C39.3031 14.7864 39.4917 14.5761 39.6695 14.3433C39.8472 14.1105 40.0141 13.8776 40.1628 13.6411C40.2136 13.5622 40.2608 13.4833 40.3079 13.4045C40.326 13.4833 40.3369 13.5622 40.3587 13.6411C40.4566 13.9865 40.6054 14.2945 40.8085 14.5648C41.0116 14.839 41.2692 15.0605 41.5811 15.2333C41.8931 15.406 42.2631 15.4924 42.6947 15.4924C43.3658 15.4774 43.9643 15.2107 44.4975 14.6925C44.9292 14.2682 45.3355 13.6749 45.7163 12.9163C45.8324 13.3669 45.9703 13.7762 46.1444 14.1367C46.3403 14.5423 46.576 14.869 46.859 15.1169C47.1383 15.3647 47.4756 15.4924 47.8638 15.4924C48.1177 15.4924 48.3571 15.4361 48.582 15.3272C48.8069 15.2145 49.0173 15.0718 49.2168 14.8916C49.4163 14.7113 49.5976 14.5123 49.7681 14.2832C49.9386 14.0579 50.091 13.8288 50.2288 13.5997C50.3666 13.3707 50.4864 13.1491 50.5952 12.9388C50.704 12.7248 50.7911 12.5445 50.8636 12.3868C50.889 12.3192 50.9035 12.2666 50.9035 12.2253C50.9035 12.1239 50.8709 12.0338 50.8019 11.9512C50.733 11.8686 50.6496 11.8198 50.5371 11.8198ZM41.0007 13.0214C40.979 12.8863 40.9681 12.7586 40.9681 12.6384C40.9681 12.4431 40.9862 12.2441 41.0225 12.0451C41.0588 11.8461 41.1168 11.6658 41.193 11.5043C41.2692 11.3429 41.3707 11.2114 41.4941 11.11C41.6174 11.0086 41.7661 10.9598 41.9439 10.9598C42.0744 10.9598 42.1869 11.0124 42.2848 11.1175C42.3828 11.2227 42.4299 11.3766 42.4299 11.5794C42.4299 11.7597 42.3973 11.9437 42.332 12.1202C42.2667 12.3004 42.176 12.4694 42.0599 12.6309C41.9439 12.7924 41.8024 12.9426 41.6355 13.0778C41.4687 13.213 41.2837 13.3256 41.0842 13.412C41.0515 13.2843 41.0261 13.1566 41.0007 13.0214ZM46.0863 10.697C46.0537 10.3327 46.0283 9.95342 46.0065 9.55536C45.9848 9.15731 45.9775 8.74423 45.9775 8.31238C45.9775 7.74534 45.9957 7.1783 46.0319 6.60375C46.0682 6.02919 46.1154 5.48093 46.177 4.9552C46.2387 4.42946 46.3149 3.93753 46.4055 3.47939C46.4962 3.02125 46.5978 2.6232 46.7066 2.28523C46.8154 1.94725 46.9351 1.68063 47.0621 1.48536C47.1891 1.29009 47.3196 1.19245 47.4575 1.19245C47.6642 1.19245 47.8311 1.36519 47.9544 1.70692C48.0778 2.0524 48.1394 2.61944 48.1394 3.41555C48.1394 3.98259 48.0814 4.57592 47.9689 5.19929C47.8565 5.82266 47.7041 6.44978 47.5155 7.08066C47.3269 7.71154 47.1093 8.33491 46.8626 8.95077C46.6196 9.57038 46.3584 10.1487 46.0863 10.697Z" fill="black"/>
<path d="M78.1997 6.38915C78.0909 6.34034 77.9785 6.31781 77.8515 6.31781C77.7282 6.31781 77.6121 6.34034 77.5033 6.38915C77.3945 6.43797 77.3002 6.5018 77.2204 6.58441C77.1406 6.66701 77.0753 6.76464 77.0318 6.87729C76.9847 6.98994 76.9629 7.11009 76.9629 7.23776C76.9629 7.49309 77.0499 7.71087 77.2204 7.89111C77.3945 8.07134 77.6013 8.1577 77.8515 8.1577C78.1018 8.1577 78.3085 8.06759 78.4826 7.89111C78.6567 7.71463 78.7402 7.49684 78.7402 7.23776C78.7402 7.11009 78.7184 6.98994 78.6713 6.87729C78.6241 6.76464 78.5624 6.66701 78.479 6.58441C78.4029 6.5018 78.3085 6.43421 78.1997 6.38915ZM78.0909 7.48182C78.022 7.54941 77.9422 7.58321 77.8515 7.58321C77.7609 7.58321 77.6811 7.54941 77.6158 7.48182C77.5505 7.41424 77.5178 7.33538 77.5178 7.23776C77.5178 7.14389 77.5505 7.06128 77.6158 6.98993C77.6811 6.91859 77.7572 6.8848 77.8515 6.8848C77.9422 6.8848 78.022 6.91859 78.0909 6.98993C78.1598 7.06128 78.1925 7.14389 78.1925 7.23776C78.1961 7.33163 78.1598 7.41424 78.0909 7.48182Z" fill="black"/>
<path d="M107.907 11.9432C107.839 11.8606 107.748 11.8155 107.639 11.8155C107.567 11.8155 107.501 11.8343 107.44 11.8756C107.378 11.9169 107.331 11.9732 107.298 12.0484C107.226 12.2248 107.117 12.4539 106.972 12.7356C106.827 13.0172 106.652 13.2951 106.453 13.5692C106.253 13.8434 106.039 14.0799 105.804 14.2752C105.568 14.4742 105.328 14.5719 105.082 14.5719C104.944 14.5719 104.835 14.5418 104.748 14.4742C104.665 14.4104 104.599 14.324 104.552 14.2114C104.505 14.0987 104.476 13.971 104.458 13.8208C104.44 13.6744 104.432 13.5166 104.432 13.3552C104.432 13.2275 104.436 13.0923 104.447 12.9459C104.458 12.7994 104.465 12.6567 104.476 12.5178C104.487 12.3788 104.494 12.2436 104.505 12.1197C104.516 11.9958 104.52 11.8906 104.52 11.8005C104.52 11.425 104.44 11.1058 104.276 10.8504C104.113 10.5951 103.863 10.4674 103.526 10.4674C103.355 10.4674 103.177 10.52 102.985 10.6251C102.793 10.7303 102.604 10.8992 102.412 11.1358C102.223 11.3799 102.042 11.6353 101.872 11.9057C101.701 12.176 101.534 12.4464 101.378 12.7205C101.222 12.9947 101.077 13.265 100.939 13.5279C100.801 13.7945 100.682 14.0386 100.577 14.2602C100.595 14.0649 100.616 13.8208 100.638 13.5317C100.66 13.2425 100.685 12.9496 100.711 12.6567C100.736 12.3638 100.758 12.0897 100.772 11.8343C100.787 11.5789 100.798 11.3912 100.798 11.2673C100.798 11.1058 100.783 10.9481 100.754 10.7903C100.725 10.6364 100.678 10.4937 100.616 10.366C100.555 10.2383 100.471 10.1369 100.366 10.0581C100.261 9.97922 100.134 9.94166 99.9853 9.94166C99.7314 9.94166 99.4774 10.1107 99.2199 10.4524C98.9624 10.7941 98.6867 11.3236 98.3965 12.0446C98.3929 12.0521 98.3965 12.0559 98.3929 12.0634C98.2586 12.3713 98.1099 12.6755 97.9467 12.9834C97.7762 13.2988 97.5839 13.588 97.3699 13.8434C97.1559 14.0987 96.9165 14.3052 96.6553 14.4667C96.3942 14.6244 96.104 14.7033 95.7848 14.7033C95.4728 14.7033 95.208 14.6432 94.994 14.5268C94.78 14.4104 94.6022 14.2527 94.468 14.0574C94.7219 13.9297 94.9577 13.7795 95.1826 13.603C95.4039 13.4265 95.5925 13.235 95.7521 13.0285C95.9117 12.8182 96.0387 12.5929 96.1294 12.3525C96.2201 12.1084 96.2672 11.8493 96.2672 11.5752C96.2672 11.3611 96.2309 11.1659 96.1584 11.0006C96.0858 10.8317 95.9915 10.689 95.8755 10.5725C95.7594 10.4561 95.6252 10.3623 95.4801 10.2984C95.335 10.2346 95.1862 10.2008 95.0375 10.2008C94.7836 10.2008 94.5515 10.2609 94.3374 10.381C94.1271 10.5012 93.9421 10.6702 93.7897 10.888C93.6374 11.102 93.5176 11.3574 93.4378 11.6465C93.4125 11.7329 93.3979 11.8305 93.3834 11.9207C93.3508 11.9545 93.3181 11.9958 93.2964 12.0484C93.2456 12.1648 93.1767 12.3075 93.0896 12.4764C93.0062 12.6492 92.9083 12.8257 92.7958 13.0134C92.6834 13.1975 92.56 13.3852 92.4258 13.5692C92.2916 13.7532 92.1465 13.9222 91.9978 14.0762C91.8491 14.2264 91.6967 14.3503 91.5371 14.4404C91.3811 14.5306 91.2251 14.5756 91.0692 14.5756C90.9313 14.5756 90.8225 14.5381 90.7354 14.4592C90.652 14.3804 90.5867 14.279 90.5432 14.155C90.4997 14.0311 90.4706 13.8884 90.4561 13.7307C90.4416 13.573 90.4307 13.4115 90.4307 13.25C90.4307 12.9684 90.4453 12.6943 90.4743 12.4351C90.5033 12.176 90.5178 11.9695 90.5178 11.8118C90.5178 11.624 90.496 11.4475 90.4525 11.286C90.409 11.1246 90.3473 10.9819 90.2675 10.8617C90.1877 10.7415 90.0825 10.6439 89.9556 10.5725C89.8286 10.5012 89.6799 10.4674 89.513 10.4674C89.3425 10.4674 89.1612 10.52 88.9725 10.6251C88.7839 10.7303 88.5917 10.8992 88.403 11.1358C88.2144 11.3799 88.033 11.639 87.8553 11.9132C87.6812 12.1911 87.5143 12.4689 87.3584 12.7468C87.2024 13.0247 87.0573 13.2988 86.9194 13.5655C86.7816 13.8321 86.6619 14.0799 86.5567 14.309L86.5458 13.8321C86.5458 13.7457 86.5458 13.6256 86.5458 13.4791C86.5458 13.3326 86.5458 13.1712 86.5458 13.0022C86.5458 12.8332 86.5458 12.6642 86.5458 12.4952C86.5458 12.3262 86.5458 12.1835 86.5458 12.0596C86.8904 11.4062 87.2205 10.734 87.5325 10.0431C87.8444 9.35209 88.1201 8.64235 88.3523 7.91384C88.588 7.18532 88.773 6.43803 88.9145 5.67572C89.056 4.90965 89.1249 4.13232 89.1249 3.33621C89.1249 2.94566 89.0995 2.57389 89.0451 2.21715C88.9943 1.86415 88.9072 1.55247 88.7912 1.28585C88.6751 1.01923 88.5227 0.808932 88.3305 0.654967C88.1419 0.501003 87.9097 0.422143 87.6377 0.422143C87.3185 0.422143 87.0537 0.576107 86.8433 0.887792C86.6329 1.19948 86.4588 1.63884 86.3209 2.20588C86.1831 2.77668 86.0815 3.46388 86.0126 4.2675C85.9437 5.07488 85.8965 5.97238 85.8675 6.96752C85.8385 7.96266 85.8203 9.03665 85.8203 10.1933C85.8203 10.7753 85.8167 11.3724 85.8167 11.9845C85.8058 12.0033 85.7949 12.0183 85.7877 12.0408C85.6571 12.345 85.483 12.6642 85.2654 12.9947C85.0477 13.3289 84.7829 13.6556 84.4746 13.9748C84.1663 14.294 83.8144 14.6019 83.419 14.8911C83.0236 15.1802 82.5883 15.4356 82.1059 15.6609C82.1059 15.4468 82.1059 15.1915 82.1095 14.8986C82.1132 14.6057 82.1132 14.2977 82.1132 13.9785C82.1132 13.6593 82.1132 13.3402 82.1132 13.0172C82.1132 12.698 82.1132 12.3976 82.1132 12.1235C82.4723 11.455 82.8096 10.7791 83.1252 10.0919C83.4408 9.40467 83.7165 8.69868 83.9486 7.97768C84.1808 7.25667 84.3694 6.51313 84.5036 5.74331C84.6414 4.97349 84.7067 4.18113 84.7067 3.35874C84.7067 2.96819 84.6813 2.59267 84.6269 2.23592C84.5761 1.87917 84.4891 1.56749 84.373 1.30087C84.2569 1.03425 84.101 0.823953 83.9123 0.662478C83.7237 0.504758 83.4916 0.425898 83.2195 0.425898C82.8749 0.425898 82.5883 0.591128 82.3634 0.917834C82.1385 1.24454 81.9608 1.72145 81.8302 2.34858C81.6996 2.9757 81.6053 3.74553 81.5473 4.65429C81.4892 5.56306 81.4493 6.5995 81.4312 7.75987C81.4167 8.36822 81.4094 9.00661 81.4022 9.68631C81.3949 10.3623 81.3877 11.0532 81.3841 11.7554C81.3841 11.8268 81.3841 11.8981 81.3841 11.9695C81.3695 11.9883 81.3587 12.007 81.3478 12.0258C81.1446 12.4427 80.9415 12.8219 80.7311 13.1637C80.5244 13.5054 80.3176 13.7945 80.1108 14.0386C79.9077 14.2827 79.7046 14.4705 79.5087 14.6057C79.3128 14.7409 79.1242 14.8084 78.9428 14.8084C78.8304 14.8084 78.7179 14.7897 78.5946 14.7484C78.4749 14.7071 78.3588 14.6282 78.2536 14.5043C78.1448 14.3841 78.0577 14.2114 77.9888 13.9936C77.9199 13.7758 77.8873 13.4866 77.8873 13.1299C77.8873 12.867 77.8945 12.5778 77.9126 12.2662C77.9271 11.9545 77.9489 11.6578 77.9707 11.3762C77.9924 11.0983 78.0142 10.8542 78.0287 10.6552C78.0432 10.4524 78.0541 10.3322 78.0541 10.2909C78.0541 10.1895 78.0215 10.0994 77.9562 10.0243C77.8909 9.94542 77.8111 9.90787 77.7131 9.90787C77.6007 9.90787 77.5136 9.94166 77.4447 10.013C77.3758 10.0844 77.3359 10.167 77.3214 10.2609C77.2525 10.8166 77.2089 11.3724 77.1799 11.9282C77.1473 11.9657 77.1182 12.007 77.0965 12.0596C77.0312 12.2286 76.926 12.4539 76.7773 12.7318C76.6322 13.0134 76.4617 13.2876 76.2694 13.5617C76.0772 13.8358 75.8704 14.0687 75.6455 14.2677C75.4206 14.4667 75.1957 14.5644 74.9672 14.5644C74.7713 14.5644 74.59 14.508 74.4195 14.3916C74.249 14.279 74.093 14.1212 73.9443 13.9222C73.7992 13.7232 73.665 13.4904 73.5489 13.2237C73.4328 12.9571 73.3313 12.668 73.2478 12.36C73.353 12.2248 73.4691 12.0221 73.5997 11.7479C73.7303 11.4738 73.8609 11.1546 73.9951 10.7828C74.1293 10.4111 74.2599 10.0093 74.3868 9.5699C74.5138 9.13053 74.6262 8.68366 74.7278 8.22177C74.8294 7.75987 74.9092 7.29798 74.9672 6.83233C75.0252 6.36668 75.0543 5.93107 75.0543 5.518V5.40534H80.0056C80.1108 5.40534 80.1979 5.3753 80.2704 5.3077C80.343 5.24387 80.3793 5.15749 80.3793 5.04859C80.3793 4.93969 80.343 4.85332 80.2704 4.78948C80.1979 4.72564 80.1108 4.69185 80.0056 4.69185H75.0144C74.989 4.44776 74.9527 4.2262 74.9019 4.02341C74.8511 3.82063 74.7858 3.64789 74.7024 3.49768C74.619 3.35123 74.5138 3.23481 74.3941 3.14844C74.2744 3.06583 74.1329 3.02077 73.9697 3.02077C73.7992 3.02077 73.6468 3.06207 73.5054 3.14844C73.3639 3.23106 73.2369 3.34747 73.1245 3.49768C73.012 3.64789 72.9105 3.82063 72.8234 4.02341C72.7364 4.2262 72.6602 4.44776 72.5949 4.69185H71.873C71.8984 4.65054 71.9202 4.60548 71.9311 4.54915C71.9782 4.3351 72 4.10603 72 3.8732C72 3.15971 71.7679 2.52132 71.3072 1.96179C71.1113 1.73272 70.8538 1.4999 70.5345 1.26332C70.2153 1.02674 69.8054 0.816442 69.3085 0.632436C68.8115 0.448429 68.213 0.294465 67.5129 0.178052C66.8128 0.0616402 65.9894 0.0015564 65.0463 0.0015564C64.2918 0.0015564 63.5228 0.0541297 62.7429 0.159276C61.963 0.264423 61.2049 0.422143 60.4758 0.628681C59.7467 0.838974 59.0611 1.09809 58.4191 1.41352C57.777 1.72521 57.2184 2.09698 56.7396 2.52132C56.2608 2.94566 55.8835 3.42258 55.6079 3.95206C55.3322 4.48155 55.1943 5.06361 55.1943 5.69449C55.1943 6.31411 55.3394 6.85862 55.6332 7.32051C55.9271 7.78616 56.366 8.18421 56.95 8.51843C57.5376 8.85265 58.2704 9.12678 59.1518 9.33707C60.0333 9.54737 61.0671 9.70508 62.2532 9.80648L63.7586 9.93791C64.0524 9.9642 64.3499 9.99048 64.6509 10.0205C64.952 10.0468 65.2531 10.0769 65.5541 10.1107C65.8552 10.1444 66.1454 10.1858 66.4283 10.2308C66.7113 10.2796 66.9761 10.336 67.2227 10.4036C67.4585 10.4636 67.6725 10.5387 67.872 10.6251C68.0715 10.7115 68.242 10.8204 68.3835 10.9443C68.525 11.0682 68.6374 11.2184 68.7208 11.3874C68.8007 11.5602 68.8442 11.763 68.8442 11.9995C68.8442 12.3976 68.7317 12.7656 68.5068 13.1073C68.2819 13.4491 67.9518 13.7457 67.5093 13.9973C67.0704 14.2489 66.5263 14.4479 65.8842 14.5869C65.2422 14.7258 64.4986 14.8009 63.657 14.8009C62.8118 14.8009 62.0682 14.7446 61.4298 14.6282C60.7914 14.5118 60.2545 14.3841 59.8229 14.2452C59.3912 14.1025 59.0648 13.9748 58.8471 13.8546C58.6295 13.7382 58.517 13.6781 58.5098 13.6781C58.4517 13.6368 58.3864 13.618 58.3139 13.618C58.2232 13.618 58.1398 13.6518 58.06 13.7232C57.9802 13.7945 57.9439 13.8884 57.9439 14.0011C57.9439 14.1513 58.0019 14.2564 58.118 14.324C58.1361 14.339 58.2667 14.4066 58.5098 14.5381C58.7528 14.6695 59.101 14.8047 59.5581 14.9587C60.0188 15.1089 60.5883 15.2478 61.2666 15.3717C61.9449 15.4957 62.7357 15.5595 63.6353 15.5595C64.4623 15.5595 65.2386 15.4806 65.9604 15.3267C66.6823 15.1727 67.3134 14.9436 67.8539 14.6395C68.3944 14.3353 68.8224 13.9635 69.1344 13.5166C69.4463 13.0735 69.6023 12.5553 69.6023 11.9695C69.6023 11.3611 69.4246 10.8767 69.0654 10.5125C68.7063 10.1482 68.155 9.87031 67.4041 9.67504C66.9543 9.55863 66.4356 9.46475 65.8407 9.3934C65.2494 9.3183 64.5784 9.24695 63.8275 9.17935L62.3221 9.04792C61.7998 8.9991 61.2847 8.94277 60.7696 8.87142C60.2545 8.80007 59.7612 8.70995 59.286 8.59729C58.8108 8.48463 58.3683 8.34945 57.962 8.18421C57.5558 8.01898 57.2003 7.81996 56.9028 7.58713C56.6018 7.35431 56.366 7.08018 56.1955 6.76849C56.0214 6.45681 55.938 6.09255 55.938 5.68323C55.938 5.14998 56.0613 4.6618 56.3079 4.21118C56.5546 3.7643 56.8956 3.35498 57.3272 2.98697C57.7589 2.61896 58.2704 2.29601 58.8544 2.01812C59.442 1.74023 60.0695 1.50741 60.7442 1.31964C61.4189 1.13564 62.1226 0.992938 62.8554 0.895302C63.5881 0.797666 64.3136 0.748848 65.0391 0.748848C65.9822 0.748848 66.8382 0.820198 67.6072 0.959141C68.3763 1.10184 69.0292 1.30462 69.566 1.57124C70.1029 1.83787 70.52 2.16457 70.8102 2.55887C71.104 2.94942 71.2491 3.39253 71.2491 3.88447C71.2491 3.97835 71.2383 4.07599 71.2201 4.17362C71.202 4.27126 71.1911 4.37265 71.1911 4.47029C71.1911 4.5529 71.2201 4.62425 71.2709 4.69185H68.9167C68.8115 4.69185 68.7245 4.72564 68.6519 4.78948C68.5794 4.85332 68.5431 4.93969 68.5431 5.04859C68.5431 5.15749 68.5794 5.24387 68.6519 5.3077C68.7245 5.37154 68.8115 5.40534 68.9167 5.40534H72.4244C72.3591 5.74331 72.3083 6.08879 72.2684 6.44178C72.2285 6.79478 72.1995 7.14026 72.1814 7.47447C72.1632 7.80869 72.1487 8.12413 72.1415 8.42455C72.1342 8.72497 72.1306 8.98408 72.1306 9.20939C72.1306 10.0994 72.1959 10.918 72.3265 11.6653C72.4571 12.4126 72.6457 13.0623 72.8996 13.6068C73.1499 14.1513 73.4546 14.5756 73.8137 14.8798C74.1728 15.184 74.5754 15.3342 75.0252 15.3342C75.2792 15.3342 75.5186 15.2666 75.7471 15.1314C75.9756 14.9962 76.1896 14.8272 76.3855 14.6244C76.585 14.4217 76.7628 14.1963 76.9224 13.9523C77.0094 13.8171 77.0892 13.6894 77.1654 13.5617C77.1835 13.7495 77.2089 13.9335 77.2561 14.1062C77.3323 14.3991 77.4447 14.6545 77.5971 14.8685C77.7494 15.0826 77.938 15.2553 78.1593 15.383C78.3806 15.5107 78.6381 15.5745 78.9319 15.5745C79.1605 15.5745 79.3854 15.5182 79.6066 15.4018C79.8279 15.2854 80.0383 15.1389 80.2414 14.9511C80.4446 14.7671 80.6332 14.5568 80.8109 14.324C80.9887 14.0912 81.1555 13.8584 81.3042 13.6218C81.326 13.5842 81.3478 13.5504 81.3695 13.5129C81.3695 13.6256 81.3659 13.7382 81.3659 13.8471C81.3623 14.5456 81.3587 15.2103 81.355 15.8486C81.3514 16.487 81.3514 17.0804 81.3514 17.6399C81.3514 18.1994 81.3514 18.6839 81.3514 19.1007C81.3514 19.9419 81.3587 20.7229 81.3768 21.4402C81.3913 22.1574 81.453 22.7808 81.5509 23.3103C81.6525 23.8398 81.8085 24.2529 82.0261 24.5533C82.2401 24.8537 82.5448 25.0039 82.9329 25.0039C83.2014 25.0039 83.4372 24.9251 83.6475 24.7673C83.8543 24.6096 84.032 24.3918 84.1808 24.1139C84.3295 23.836 84.4383 23.5131 84.5145 23.1376C84.5907 22.762 84.6269 22.364 84.6269 21.9396C84.6269 21.474 84.5834 20.9858 84.4963 20.4789C84.4093 19.9719 84.2787 19.4649 84.1046 18.9693C83.9305 18.4698 83.7165 17.9891 83.4553 17.5272C83.1941 17.0653 82.8894 16.6448 82.5376 16.2692C83.0853 16.0064 83.5677 15.7172 83.9921 15.398C84.4165 15.0788 84.7865 14.7521 85.1021 14.4104C85.3742 14.1137 85.6063 13.8133 85.8095 13.5091C85.8095 13.618 85.8095 13.7269 85.8095 13.8396V14.478C85.8095 14.7146 85.8639 14.9136 85.9691 15.0788C86.0779 15.2441 86.2302 15.3267 86.4334 15.3267C86.5458 15.3267 86.6692 15.2779 86.8106 15.1802C86.9521 15.0826 87.0899 14.8911 87.2241 14.6094C87.2967 14.463 87.3874 14.2752 87.4962 14.0499C87.6086 13.8246 87.732 13.588 87.8662 13.3364C88.004 13.0886 88.1455 12.837 88.2906 12.5816C88.4357 12.33 88.5844 12.1009 88.7295 11.8981C88.8746 11.6954 89.0161 11.5339 89.1503 11.4062C89.2845 11.2823 89.4042 11.2184 89.5058 11.2184C89.5783 11.2184 89.64 11.256 89.6944 11.3311C89.7488 11.4062 89.7778 11.5452 89.7778 11.7554C89.7778 11.8381 89.7742 11.9357 89.7633 12.0521C89.7524 12.1685 89.7415 12.2962 89.7307 12.4314C89.7161 12.5666 89.7053 12.7018 89.698 12.8407C89.6871 12.9796 89.6835 13.1073 89.6835 13.2313C89.6835 13.4678 89.7016 13.7082 89.7379 13.9598C89.7742 14.2114 89.8431 14.4367 89.9447 14.6357C90.0462 14.8347 90.1877 15.0037 90.3691 15.1352C90.5504 15.2666 90.7935 15.3304 91.0909 15.3304C91.3521 15.3304 91.5988 15.2666 91.8382 15.1352C92.0739 15.0037 92.2988 14.8347 92.502 14.6282C92.7087 14.4217 92.8937 14.2001 93.0642 13.956C93.1948 13.7682 93.3073 13.5918 93.4125 13.4153C93.427 13.4791 93.4342 13.5467 93.456 13.6105C93.5539 13.956 93.7026 14.2639 93.9058 14.5343C94.1089 14.8084 94.3665 15.03 94.6784 15.2027C94.9904 15.3755 95.3604 15.4619 95.792 15.4619C96.4631 15.4468 97.0616 15.1802 97.5948 14.662C98.1208 14.1475 98.6069 13.3815 99.053 12.3675C99.0603 12.3563 99.0675 12.3488 99.0712 12.3375C99.307 11.7517 99.4992 11.3424 99.6479 11.1095C99.7966 10.8767 99.9018 10.749 99.9599 10.7303C99.9998 10.7641 100.025 10.8579 100.04 11.0119C100.054 11.1659 100.058 11.3273 100.058 11.4963C100.058 11.624 100.051 11.7817 100.04 11.9732C100.025 12.161 100.011 12.3675 99.9925 12.5854C99.9744 12.8032 99.9526 13.0247 99.9345 13.2463C99.9164 13.4678 99.8946 13.6744 99.8765 13.8696C99.8583 14.0649 99.8402 14.2264 99.8293 14.3653C99.8148 14.5043 99.8112 14.5944 99.8112 14.6432C99.8112 14.8573 99.8692 15.0263 99.9817 15.1427C100.094 15.2591 100.246 15.3192 100.435 15.3192C100.573 15.3192 100.704 15.2703 100.834 15.1727C100.965 15.0751 101.095 14.8836 101.226 14.6019C101.291 14.4555 101.382 14.2677 101.494 14.0424C101.607 13.8171 101.73 13.5805 101.864 13.3289C101.998 13.081 102.14 12.8294 102.292 12.5741C102.445 12.3225 102.593 12.0934 102.742 11.8906C102.887 11.6878 103.029 11.5264 103.163 11.3987C103.297 11.271 103.417 11.2109 103.518 11.2109C103.569 11.2109 103.631 11.2485 103.692 11.3273C103.754 11.4062 103.79 11.5527 103.79 11.7667C103.79 11.8944 103.787 12.0296 103.776 12.1723C103.765 12.315 103.754 12.4539 103.736 12.5966C103.718 12.7393 103.707 12.8745 103.696 13.0022C103.685 13.1299 103.682 13.2463 103.682 13.3477C103.682 13.5842 103.7 13.8171 103.736 14.0499C103.772 14.2827 103.841 14.4968 103.946 14.6883C104.052 14.8798 104.193 15.0338 104.374 15.1539C104.556 15.2703 104.795 15.3304 105.089 15.3304C105.35 15.3304 105.597 15.2628 105.836 15.1276C106.072 14.9925 106.297 14.8235 106.5 14.6207C106.707 14.4179 106.892 14.1926 107.062 13.9485C107.233 13.7044 107.382 13.4716 107.505 13.25C107.632 13.0322 107.733 12.837 107.813 12.668C107.893 12.499 107.944 12.3901 107.969 12.3337C107.987 12.2849 107.998 12.2399 107.998 12.1911C108.009 12.1159 107.976 12.0296 107.907 11.9432ZM86.564 9.44222C86.564 9.00286 86.5676 8.53345 86.5748 8.03025C86.5821 7.52705 86.593 7.01258 86.6075 6.47934C86.622 5.94609 86.6474 5.42787 86.68 4.92091C86.7127 4.41396 86.7562 3.93704 86.807 3.48642C86.8578 3.03579 86.9231 2.63773 87.0029 2.29976C87.0827 1.95803 87.1734 1.69141 87.2749 1.49238C87.3801 1.29336 87.5034 1.19572 87.6449 1.19572C87.8263 1.19572 87.9678 1.28585 88.0693 1.46985C88.1709 1.6501 88.2434 1.86415 88.2942 2.10824C88.345 2.35233 88.374 2.58891 88.3813 2.82549C88.3885 3.06207 88.3958 3.23481 88.3958 3.33996C88.3958 3.99337 88.3486 4.6205 88.2579 5.22509C88.1673 5.82968 88.0403 6.42301 87.8807 7.00883C87.7211 7.59464 87.5288 8.18421 87.3039 8.77379C87.079 9.36336 86.8288 9.96795 86.5567 10.5876C86.564 10.2609 86.564 9.88158 86.564 9.44222ZM82.1458 9.76517C82.1494 9.5361 82.1531 9.32205 82.1603 9.11927C82.1676 8.91649 82.1712 8.70995 82.1748 8.50341C82.1784 8.29312 82.1821 8.05654 82.1893 7.78616C82.1893 7.65848 82.1893 7.46696 82.193 7.21161C82.1966 6.95625 82.2038 6.65959 82.2111 6.32537C82.222 5.99116 82.2365 5.63441 82.2546 5.25513C82.2728 4.87585 82.3018 4.49282 82.3344 4.11354C82.3671 3.73426 82.407 3.36625 82.4578 3.01701C82.5049 2.66777 82.5666 2.35609 82.6391 2.08571C82.7117 1.81534 82.7951 1.60129 82.893 1.43981C82.991 1.27834 83.1034 1.19572 83.234 1.19572C83.3573 1.19572 83.4662 1.24829 83.5605 1.35344C83.6548 1.45859 83.7346 1.60129 83.7963 1.78905C83.8579 1.97305 83.9051 2.19837 83.9341 2.46124C83.9631 2.7241 83.9776 3.01701 83.9776 3.33996C83.9776 3.98586 83.9305 4.63176 83.8398 5.27015C83.7491 5.9123 83.6221 6.53567 83.4589 7.15153C83.2957 7.76363 83.1034 8.36071 82.8785 8.93526C82.6536 9.50981 82.407 10.0581 82.1422 10.5801C82.1385 10.2646 82.1422 9.99424 82.1458 9.76517ZM73.694 3.98586C73.8064 3.85443 73.8899 3.79059 73.9479 3.79059C74.0277 3.79059 74.0966 3.8732 74.1583 4.03468C74.22 4.19615 74.2671 4.41771 74.2998 4.70311H73.3639C73.4727 4.35763 73.5815 4.11729 73.694 3.98586ZM72.9214 10.4486C72.896 10.1144 72.8815 9.70133 72.8815 9.20939C72.8815 8.32691 72.9105 7.57587 72.9649 6.96001C73.0193 6.34415 73.0918 5.82593 73.1862 5.4091H74.3397C74.3397 5.83344 74.307 6.29909 74.2454 6.80604C74.1837 7.313 74.0966 7.82747 73.9806 8.3532C73.8681 8.87893 73.7303 9.40091 73.5707 9.91538C73.4111 10.4298 73.2333 10.9105 73.0374 11.3574C72.9867 11.0833 72.9468 10.7828 72.9214 10.4486ZM82.8822 18.0267C83.1034 18.436 83.2921 18.8641 83.4444 19.3072C83.5968 19.7503 83.7128 20.1935 83.7854 20.6478C83.8616 21.0985 83.8978 21.5303 83.8978 21.9434C83.8978 22.1049 83.8833 22.3152 83.8579 22.5743C83.8325 22.8334 83.7854 23.0887 83.7165 23.3366C83.6475 23.5844 83.5532 23.8022 83.4299 23.9825C83.3066 24.1627 83.147 24.2566 82.9511 24.2566C82.7371 24.2566 82.5702 24.1064 82.4578 23.806C82.3453 23.5056 82.2582 23.1113 82.2038 22.6231C82.1494 22.1349 82.1168 21.5829 82.1095 20.9708C82.1023 20.3587 82.0986 19.7391 82.0986 19.1119C82.0986 18.8078 82.0986 18.4736 82.1023 18.1055C82.1059 17.7375 82.1059 17.3432 82.1059 16.9189C82.4033 17.2418 82.6609 17.6136 82.8822 18.0267ZM94.098 13.021C94.0763 12.8858 94.0654 12.7581 94.0654 12.6379C94.0654 12.4427 94.0835 12.2436 94.1198 12.0446C94.1561 11.8456 94.2141 11.6653 94.2903 11.5038C94.3665 11.3424 94.468 11.2109 94.5914 11.1095C94.7147 11.0082 94.8634 10.9593 95.0412 10.9593C95.1717 10.9593 95.2842 11.0119 95.3821 11.1171C95.4801 11.2222 95.5272 11.3762 95.5272 11.5789C95.5272 11.7592 95.4946 11.9432 95.4293 12.1197C95.364 12.3 95.2733 12.4689 95.1572 12.6304C95.0411 12.7919 94.8997 12.9421 94.7328 13.0773C94.566 13.2125 94.381 13.3251 94.1815 13.4115C94.1488 13.2838 94.1198 13.1561 94.098 13.021Z" fill="black"/>
</svg>
