<svg width="52" height="52" viewBox="0 0 52 52" fill="none" xmlns="http://www.w3.org/2000/svg">
<path d="M26.0002 39.4334C30.7866 39.4334 34.6668 35.5532 34.6668 30.7668C34.6668 25.9803 30.7866 22.1001 26.0002 22.1001C21.2137 22.1001 17.3335 25.9803 17.3335 30.7668C17.3335 35.5532 21.2137 39.4334 26.0002 39.4334Z" stroke="#0E1628" stroke-width="3" stroke-miterlimit="10" stroke-linecap="round" stroke-linejoin="round"/>
<path d="M22.6201 30.9832L24.0285 32.3915C24.4401 32.8032 25.1118 32.8032 25.5235 32.4132L29.3801 28.8599" stroke="#0E1628" stroke-width="3" stroke-linecap="round" stroke-linejoin="round"/>
<path d="M17.3331 47.6667H34.6665C43.3765 47.6667 44.9365 44.1783 45.3915 39.9317L47.0165 22.5983C47.6015 17.3117 46.0848 13 36.8331 13H15.1665C5.91479 13 4.39812 17.3117 4.98312 22.5983L6.60812 39.9317C7.06312 44.1783 8.62312 47.6667 17.3331 47.6667Z" stroke="#0E1628" stroke-width="3" stroke-miterlimit="10" stroke-linecap="round" stroke-linejoin="round"/>
<path d="M17.3335 13.0002V11.2668C17.3335 7.43183 17.3335 4.3335 24.2668 4.3335H27.7335C34.6668 4.3335 34.6668 7.43183 34.6668 11.2668V13.0002" stroke="#0E1628" stroke-width="3" stroke-miterlimit="10" stroke-linecap="round" stroke-linejoin="round"/>
<path d="M46.9085 23.8335C43.1601 26.5635 39.0001 28.4702 34.6885 29.5535" stroke="#0E1628" stroke-width="3" stroke-miterlimit="10" stroke-linecap="round" stroke-linejoin="round"/>
<path d="M5.67676 24.4185C9.29509 26.8885 13.2384 28.6435 17.3334 29.6401" stroke="#0E1628" stroke-width="3" stroke-miterlimit="10" stroke-linecap="round" stroke-linejoin="round"/>
</svg>
