<svg width="221" height="39" viewBox="0 0 221 39" fill="none" xmlns="http://www.w3.org/2000/svg">
<path fill-rule="evenodd" clip-rule="evenodd" d="M13.4878 0.0124512V8.94356H13.1091C12.1634 7.23322 10.2721 6.2829 8.19267 6.2829C5.35575 6.2829 3.46447 7.23321 1.76373 9.51327C0.81809 11.0333 0.25 13.3145 0.25 16.1643C0.25 18.6347 0.816913 20.9159 2.14128 22.8154C3.65383 25.0966 5.54512 26.0446 8.19267 26.0446C10.2733 26.0446 12.1634 25.0954 13.4878 23.3851V25.6663H20.4848V0.0124512H13.4878ZM13.4878 16.1655C13.4878 19.0165 12.5421 20.5365 10.2733 20.5365C8.38204 20.5365 7.4364 19.0165 7.4364 16.1655C7.4364 13.3146 8.38204 11.7945 10.2733 11.7945C12.5433 11.7945 13.4878 13.3157 13.4878 16.1655ZM23.5111 6.6635H30.8857V25.6687H23.5111V6.6635ZM23.5111 0.0124512H30.8857V4.76404H23.5111V0.0124512ZM53.5775 6.6635H46.5805V9.13385C45.6349 7.2344 44.1223 6.2829 41.4747 6.2829C39.0166 6.2829 37.1264 7.23322 35.6127 8.94356C34.2895 10.4648 33.7214 12.7448 33.7214 15.2152C33.7214 18.0661 34.2884 20.3462 35.6127 21.8651C36.7465 23.3863 38.6378 24.3378 41.4747 24.3378C43.7448 24.3378 45.2573 23.3863 46.5805 21.8651V23.3863C46.5805 26.2372 45.6349 27.9476 43.7436 27.9476L41.4736 26.2372L41.2854 25.6675H34.2883C34.6659 29.8482 38.0709 31.938 44.1211 31.938C50.3619 31.938 53.5764 29.0894 53.5764 23.1972L53.5775 6.6635ZM43.366 11.7945C45.6349 11.7945 46.5805 12.9351 46.5805 15.2164C46.5805 18.4467 45.6349 19.9668 43.7436 19.9668C41.4736 19.9668 40.5291 18.4467 40.5291 15.2164C40.5303 12.9351 41.4747 11.7945 43.366 11.7945ZM57.3601 6.6635H64.1678V25.6687H57.3601V6.6635ZM57.3601 0.0124512H64.1678V4.76404H57.3601V0.0124512ZM76.8375 0.962762V6.6635H80.6189V11.4151H76.8375V17.6867C76.8375 19.3971 77.4044 20.3474 79.1063 20.3474L80.6189 19.9668V25.6687H76.2694L71.7317 24.7172C70.5967 24.1475 69.8404 22.436 69.8404 20.3474V11.4151H66.8153V6.6635H69.8404V0.962762H76.8375ZM94.8023 12.3642C94.8023 13.3145 94.2354 13.694 92.911 13.8843L86.2927 15.2152C83.8345 16.1655 82.5113 17.6855 82.5113 20.3462C82.5113 24.1463 84.7801 26.0457 89.1296 26.0457C91.9665 26.0457 93.8578 25.2857 95.181 23.7645L95.3704 25.6663H102.746L101.8 21.2942V13.6928C101.8 11.4127 101.423 9.51209 100.855 8.56177C99.5317 7.04055 97.0735 6.28053 92.9122 6.28053C86.6726 6.28053 83.4569 8.18117 83.4569 12.3619H89.6977C90.0753 11.0321 91.0209 10.4624 92.5346 10.4624C94.2354 10.4648 94.8023 11.0345 94.8023 12.3642ZM91.9654 21.8662C90.4528 21.8662 89.6965 21.2965 89.6965 19.9668C89.6965 19.0165 90.4528 18.4467 91.9654 18.0673L94.8023 17.117V18.6382C94.8023 20.9171 93.8566 21.8662 91.9654 21.8662ZM104.826 0.0124512H111.823V25.6687H104.826V0.0124512Z" fill="#D0D0D0"/>
<path fill-rule="evenodd" clip-rule="evenodd" d="M128.274 25.6687H119.764L113.334 6.6635H120.899L124.114 18.0661L126.95 6.6635H134.136L128.274 25.6687ZM136.406 6.6635H143.591V25.6687H136.406V6.6635ZM136.406 0.0124512H143.591V4.76404H136.406V0.0124512ZM150.021 7.61382C151.532 6.6635 153.426 6.28408 155.883 6.28408C161.555 6.28408 164.392 8.18472 164.771 12.3654H158.529L157.585 10.8454L155.883 10.0854C154.369 10.0854 153.801 10.8454 153.801 11.7957C153.801 11.986 153.992 12.3654 154.748 12.746L160.61 14.2661C163.823 15.2164 165.338 16.7364 165.338 19.3971C165.338 23.7669 162.313 26.0481 155.883 26.0481L149.641 24.3401C147.374 23.1995 146.428 21.4892 146.428 19.3971H153.425L153.992 21.2965L155.882 21.488C157.584 21.488 158.528 21.2965 158.528 20.3474L157.772 19.0165L154.747 18.0661C149.264 17.1158 146.803 15.2152 146.803 12.3642C146.805 10.0842 147.751 8.56414 150.021 7.61382ZM168.175 6.6635H175.55V25.6687H168.175V6.6635ZM168.175 0.0124512H175.55V4.76404H168.175V0.0124512ZM180.277 23.1983C182.167 25.0978 184.625 26.0469 187.842 26.0469C191.245 26.0469 193.704 25.0978 195.595 23.1983C197.297 21.2965 198.242 19.0165 198.242 16.1655C198.242 13.3146 197.297 11.0345 195.595 9.13385C193.705 7.2344 191.245 6.2829 187.842 6.2829C184.626 6.2829 182.168 7.23322 180.277 9.13385C178.575 11.0345 177.63 13.3157 177.63 16.1655C177.63 19.0153 178.575 21.2965 180.277 23.1983ZM190.867 16.1655C190.867 19.0165 189.92 20.5365 187.842 20.5365C185.952 20.5365 185.005 19.0165 185.005 16.1655C185.005 13.3146 185.952 11.7945 187.842 11.7945C189.921 11.7945 190.867 13.3157 190.867 16.1655ZM208.264 15.5958V25.6687H201.079V6.6635H207.885V9.13385C209.587 7.2344 211.481 6.2829 213.938 6.2829C215.828 6.2829 217.34 7.04292 218.286 7.99324C219.609 8.94356 220.176 10.4636 220.176 12.7448V25.6687H213.37V15.7861C213.37 13.3157 212.611 11.986 211.1 11.986C209.211 11.9848 208.264 13.3157 208.264 15.5958Z" fill="#D0D0D0"/>
<path fill-rule="evenodd" clip-rule="evenodd" d="M62.2762 34.7905H65.8694L65.4907 36.1202H60.7637L62.2762 29.4692H63.6006L62.2762 34.7905ZM71.1634 33.839H67.7595L68.7052 35.1711C68.8945 35.1711 69.2721 35.1711 69.6508 34.7905H70.7846L68.3264 36.1202C66.8139 36.1202 66.0564 35.1711 66.4352 33.6499C66.8139 31.9396 67.7595 30.9904 69.6508 30.9904C71.1634 30.9904 71.5433 31.9396 71.1634 33.839ZM68.8957 31.9396L67.9501 33.2693H69.8413C70.2189 32.3202 69.8402 31.9396 68.8957 31.9396ZM74.5684 30.9904C75.8916 30.9904 76.4597 31.3687 76.2703 32.3202L75.8916 35.1711V36.1202H74.379V35.5505L72.6771 36.1202C71.7315 36.1202 71.1634 35.742 71.5433 34.7905C71.7326 33.839 72.1102 33.6499 73.0558 33.2693L74.379 32.8911L74.9459 32.7019L74.379 31.9396L73.4334 32.8911H72.1102C72.4877 31.7493 73.0558 30.9904 74.5684 30.9904ZM74.5684 34.2196V33.6499L74.0015 33.839C73.0558 34.2196 72.6783 34.6014 72.6783 34.7905L73.057 35.5505L74.5684 34.2196ZM79.6741 30.9904L80.6198 31.7504L81.1867 29.4692H82.5111L81.1867 36.1202H80.0517V35.5505L78.3509 36.1202C76.8372 36.1202 76.4597 35.1711 76.8372 33.6499C77.2159 31.9396 78.1616 30.9904 79.6741 30.9904ZM79.6741 31.9396C78.7285 31.9396 78.3509 32.7019 78.3509 33.6499C78.1616 34.6014 78.1616 35.1711 79.1072 35.1711C80.0529 35.1711 80.2422 34.7905 80.2422 33.839C80.6198 32.7008 80.241 31.9396 79.6741 31.9396ZM84.7799 30.9904L83.8342 36.1202H82.5111L83.4567 30.9904H84.7799ZM84.7799 30.4195H83.8342V29.468H84.9692L84.7799 30.4195ZM88.7506 30.9904C89.6963 30.9904 90.4525 31.7504 90.0738 32.7008L89.5069 36.1202H88.1837L88.7506 33.2693C89.1294 32.3202 88.7506 31.9396 88.1837 31.9396L86.8593 33.2693L86.2924 36.1202H84.9692L85.9149 30.9904H87.2392V31.9396L88.7506 30.9904ZM96.1264 30.9904L95.1807 35.742C94.802 37.45 93.8576 38.0209 92.3438 38.0209C90.6419 38.0209 90.0738 37.4512 90.4525 36.502H91.5864L92.532 37.0717C93.2883 37.0717 93.4777 36.6911 93.8552 36.1202V35.5505C93.4765 35.742 93.2883 36.1202 92.532 36.1202C91.0183 36.1202 90.6407 35.1711 91.0183 33.6499C91.397 31.9396 92.3426 30.9904 93.4765 30.9904C94.2328 30.9904 94.4221 31.3687 94.7997 31.9396L95.1784 30.9904H96.1264ZM93.4788 31.9396C92.9119 31.9396 92.5332 32.7019 92.345 33.6499C91.9663 34.6014 92.345 35.1711 92.9119 35.1711C93.8576 35.1711 94.2351 34.6014 94.2351 33.6499C94.4245 32.7008 94.2351 31.9396 93.4788 31.9396ZM100.097 29.8498H101.799L101.422 30.9904H101.988V31.9396H101.043L100.853 34.7905L101.043 35.1711H101.422L101.043 36.1202H100.097C99.5302 36.1202 99.1515 35.742 99.1515 35.1711L99.9078 31.9396H99.1515L99.529 30.9904H100.096L100.097 29.8498ZM107.094 32.7008L106.527 36.1202H105.204L105.771 33.2693C105.771 32.3202 105.582 31.9396 105.204 31.9396L103.881 33.2693L103.314 36.1202H101.991L103.314 29.4692H104.827L104.26 31.7504L105.772 30.9904C106.715 30.9904 107.473 31.7493 107.094 32.7008ZM107.661 33.6499C108.04 31.9396 108.984 30.9904 110.498 30.9904C112.2 30.9904 112.767 31.9396 112.388 33.839H108.985C108.607 34.7905 108.985 35.1711 109.931 35.1711L110.877 34.7905H112.2C111.824 35.742 110.877 36.1202 109.554 36.1202C108.04 36.1202 107.473 35.1711 107.661 33.6499ZM110.498 31.9396C109.931 31.9396 109.552 32.3202 109.363 33.2693H111.255C111.255 32.3202 110.876 31.9396 110.498 31.9396ZM121.843 31.3687L120.711 32.8899C120.899 33.2681 121.275 33.6499 120.899 34.6002V36.1191H119.385L119.764 34.7893C119.764 33.8378 119.385 33.6487 118.817 33.6487H117.494L116.927 36.1191H115.225L116.927 29.468H120.332C121.843 29.4692 122.222 30.0389 121.843 31.3687ZM119.764 30.4195H117.874L117.495 32.319H119.385C119.952 32.319 120.332 31.9384 120.711 31.3675L119.764 30.4195ZM124.492 36.1202C122.602 36.1202 121.843 35.1711 122.222 33.6499C122.601 31.9396 123.736 30.9904 125.435 30.9904C127.328 30.9904 127.896 31.9396 127.328 33.6499C126.95 35.1711 126.003 36.1202 124.492 36.1202ZM125.059 31.9396C124.492 31.9396 123.736 32.7019 123.545 33.6499C123.545 34.6014 123.736 35.1711 124.492 35.1711L126.003 33.6499C126.382 32.7008 126.003 31.9396 125.059 31.9396ZM133 30.9904L130.354 36.1202L129.219 37.6415L127.896 38.0197H127.329L127.517 37.0706H127.896L128.84 36.1202L128.273 30.9904H129.407L129.787 34.7905H130.164L131.677 30.9904H133ZM136.972 32.3202L136.784 35.1711V36.1202H135.082V35.5505C134.892 35.742 134.135 36.1202 133.569 36.1202C132.624 36.1202 132.245 35.742 132.245 34.7905C132.624 33.839 133.192 33.6499 134.135 33.2693L135.082 32.8911L136.027 32.7019C136.027 32.3213 135.839 31.9396 135.082 31.9396L134.135 32.8911H133C133.191 31.7504 134.135 30.9916 135.837 30.9916C136.784 30.9904 137.351 31.3687 136.972 32.3202ZM135.837 34.2196V33.6499L134.891 33.839L133.946 34.7905C133.882 34.8421 133.834 34.911 133.808 34.989C133.782 35.0671 133.779 35.1511 133.798 35.231C133.818 35.3109 133.86 35.3835 133.92 35.4401C133.979 35.4967 134.054 35.535 134.134 35.5505L135.837 34.2196ZM138.864 36.1202H137.729L138.864 29.4692H140.566L138.864 36.1202ZM140.754 30.9904H141.512L141.701 29.8498H143.024L142.647 30.9904H143.592L143.404 31.9396H142.457L142.078 34.7905L142.457 35.1711H142.647L142.457 36.1202H141.701C140.754 36.1202 140.566 35.742 140.566 35.1711L141.133 31.9396H140.566L140.754 30.9904ZM148.698 30.9904L144.914 37.6415L143.591 38.0197H143.024L143.403 37.0706H143.591L144.538 36.1202L143.969 30.9904H145.293L145.481 34.7905L147.374 30.9904H148.698ZM157.206 30.4195H153.802L153.425 31.9396H156.26L155.883 33.2693H153.046L152.479 36.1202H151.156L152.479 29.4692H157.586L157.206 30.4195ZM159.097 30.9904L158.721 31.9396H159.097L160.421 30.9904H160.611L160.421 32.3202H160.044C159.097 32.3202 158.721 32.7008 158.53 33.6499L157.774 36.1202H156.639L157.774 30.9904H159.097ZM163.448 30.9904C165.148 30.9904 165.338 31.9396 165.148 33.839H161.554C161.554 34.7905 161.933 35.1711 162.501 35.1711L163.448 34.7905H165.148C164.391 35.742 163.448 36.1202 162.313 36.1202C160.611 36.1202 160.043 35.1711 160.421 33.6499C160.987 31.9396 161.934 30.9904 163.448 30.9904ZM161.934 33.2693H163.824L163.257 31.9396C162.501 31.9396 162.313 32.3202 161.934 33.2693ZM168.553 30.9904C170.066 30.9904 170.443 31.9396 170.066 33.839H167.041C166.662 34.7905 167.041 35.1711 167.608 35.1711C168.175 35.1711 168.553 35.1711 168.931 34.7905H170.066C169.499 35.742 168.553 36.1202 167.608 36.1202C166.094 36.1202 165.338 35.1711 165.716 33.6499C166.094 31.9396 167.041 30.9904 168.553 30.9904ZM168.175 31.9396C167.984 31.9396 167.608 32.3202 167.228 33.2693H169.118L168.175 31.9396ZM178.575 32.8899L178.953 34.6002V36.1191H177.44V34.7893C177.63 33.8378 177.44 33.6487 176.683 33.6487H175.17L174.793 36.1191H173.28L174.793 29.468H178.007C179.33 29.468 179.897 30.0377 179.897 31.3675C179.522 31.9396 179.331 32.7008 178.575 32.8899ZM177.063 32.3202L178.387 31.3687L177.63 30.4195H175.738L175.55 32.319L177.063 32.3202ZM183.115 30.9904C184.626 30.9904 185.005 31.9396 184.626 33.839H181.223C181.223 34.7905 181.412 35.1711 182.168 35.1711L183.115 34.7905H184.626C184.059 35.742 183.115 36.1202 181.792 36.1202C180.278 36.1202 179.899 35.1711 180.278 33.6499C180.466 31.9396 181.412 30.9904 183.115 30.9904ZM182.735 31.9396C182.168 31.9396 181.79 32.3202 181.412 33.2693H183.682L182.735 31.9396ZM187.463 36.1202H186.14L185.572 30.9904H186.895L187.084 34.7905L188.977 30.9904H190.679L187.463 36.1202ZM191.811 36.1202C190.3 36.1202 189.921 35.1711 190.3 33.6499C190.679 31.9396 191.623 30.9904 193.137 30.9904C194.648 30.9904 195.407 31.9396 195.027 33.6499C194.648 35.1711 193.704 36.1202 191.811 36.1202ZM192.758 31.9396C191.811 31.9396 191.623 32.7019 191.244 33.6499C190.868 34.6014 191.244 35.1711 192.191 35.1711L193.705 33.6499C194.081 32.7008 193.704 31.9396 192.758 31.9396ZM196.918 36.1202H195.595L196.918 29.4692H198.241L196.918 36.1202ZM199.188 30.9904H200.323L199.756 34.2196C199.378 34.7893 199.756 35.1711 200.323 35.1711L201.646 33.839L202.213 30.9904H203.537L202.592 36.1202H201.267V35.5505L199.755 36.1202C198.808 36.1202 198.241 35.5505 198.432 34.2208L199.188 30.9904ZM206.373 30.9904H206.94V31.9396H205.994L205.427 34.7905L205.994 35.1711H206.372L205.994 36.1202H205.049C204.102 36.1202 203.914 35.742 204.102 35.1711L204.859 31.9396H204.102L204.481 30.9904H204.857L205.048 29.8498H206.75L206.373 30.9904ZM209.21 30.9904L208.264 36.1202H206.94L207.885 30.9904H209.21ZM209.21 30.4195H208.264V29.468H209.777L209.21 30.4195ZM211.669 36.1202C210.155 36.1202 209.587 35.1711 209.778 33.6499C210.155 31.9396 211.102 30.9904 212.613 30.9904C214.315 30.9904 214.883 31.9396 214.506 33.6499C214.315 35.1711 213.371 36.1202 211.669 36.1202ZM212.613 31.9396C211.669 31.9396 211.48 32.7019 211.102 33.6499C210.723 34.6014 211.102 35.1711 212.048 35.1711L213.56 33.6499C213.939 32.7008 213.559 31.9396 212.613 31.9396ZM220.177 32.7008L219.61 36.1202H218.287L219.043 33.2693C219.043 32.3202 218.667 31.9396 218.287 31.9396C217.34 31.9396 217.152 32.3202 217.152 33.2693L216.396 36.1202H215.261L216.207 30.9904H217.34L217.152 31.9396L219.042 30.9904C219.989 30.9904 220.557 31.7493 220.177 32.7008Z" fill="#D0D0D0"/>
</svg>
