<svg width="29" height="29" viewBox="0 0 29 29" fill="none" xmlns="http://www.w3.org/2000/svg">
<path d="M18.2212 26.4941C17.737 26.4941 17.3354 26.0932 17.3354 25.6098V3.79561C17.3354 3.31216 17.737 2.91125 18.2212 2.91125C18.7054 2.91125 19.1069 3.31216 19.1069 3.79561V25.6098C19.1069 26.0932 18.7054 26.4941 18.2212 26.4941Z" fill="#5C8AFF"/>
<path opacity="0.4" d="M7.59216 24.1357H14.6782V5.26941H7.59216C4.98215 5.26941 2.86816 7.38008 2.86816 9.98598V19.4191C2.86816 22.025 4.98215 24.1357 7.59216 24.1357Z" fill="#5C8AFF"/>
<path opacity="0.4" d="M21.7642 24.1357H18.2212V5.26941H21.7642C24.3742 5.26941 26.4882 7.38008 26.4882 9.98598V19.4191C26.4882 22.025 24.3742 24.1357 21.7642 24.1357Z" fill="#5C8AFF"/>
<path d="M8.77345 19.7139C8.28924 19.7139 7.8877 19.313 7.8877 18.8295V10.5755C7.8877 10.0921 8.28924 9.69116 8.77345 9.69116C9.25766 9.69116 9.6592 10.0921 9.6592 10.5755V18.8295C9.6592 19.313 9.25766 19.7139 8.77345 19.7139Z" fill="#5C8AFF"/>
</svg>
