<svg width="42" height="42" viewBox="0 0 42 42" fill="none" xmlns="http://www.w3.org/2000/svg">
<path d="M31.5001 12.53C31.3951 12.5125 31.2726 12.5125 31.1676 12.53C28.7526 12.4425 26.8276 10.465 26.8276 8.015C26.8276 5.5125 28.8401 3.5 31.3426 3.5C33.8451 3.5 35.8576 5.53 35.8576 8.015C35.8401 10.465 33.9151 12.4425 31.5001 12.53Z" stroke="#0E1628" stroke-width="3" stroke-linecap="round" stroke-linejoin="round"/>
<path d="M29.6975 25.2698C32.095 25.6723 34.7375 25.2523 36.5925 24.0098C39.06 22.3648 39.06 19.6698 36.5925 18.0248C34.72 16.7823 32.0425 16.3623 29.645 16.7823" stroke="#0E1628" stroke-width="3" stroke-linecap="round" stroke-linejoin="round"/>
<path d="M10.4473 12.53C10.5523 12.5125 10.6748 12.5125 10.7798 12.53C13.1948 12.4425 15.1198 10.465 15.1198 8.015C15.1198 5.5125 13.1073 3.5 10.6048 3.5C8.10235 3.5 6.08984 5.53 6.08984 8.015C6.10734 10.465 8.03235 12.4425 10.4473 12.53Z" stroke="#0E1628" stroke-width="3" stroke-linecap="round" stroke-linejoin="round"/>
<path d="M12.25 25.2698C9.85252 25.6723 7.21002 25.2523 5.35502 24.0098C2.88752 22.3648 2.88752 19.6698 5.35502 18.0248C7.22752 16.7823 9.90501 16.3623 12.3025 16.7823" stroke="#0E1628" stroke-width="3" stroke-linecap="round" stroke-linejoin="round"/>
<path d="M20.9996 25.6023C20.8946 25.5848 20.7721 25.5848 20.6671 25.6023C18.2521 25.5148 16.3271 23.5373 16.3271 21.0873C16.3271 18.5848 18.3396 16.5723 20.8421 16.5723C23.3446 16.5723 25.3571 18.6023 25.3571 21.0873C25.3396 23.5373 23.4146 25.5323 20.9996 25.6023Z" stroke="#0E1628" stroke-width="3" stroke-linecap="round" stroke-linejoin="round"/>
<path d="M15.9073 31.1149C13.4398 32.7599 13.4398 35.4549 15.9073 37.0999C18.7073 38.9724 23.2923 38.9724 26.0923 37.0999C28.5598 35.4549 28.5598 32.7599 26.0923 31.1149C23.3098 29.2599 18.7073 29.2599 15.9073 31.1149Z" stroke="#0E1628" stroke-width="3" stroke-linecap="round" stroke-linejoin="round"/>
</svg>
