<svg width="222" height="61" viewBox="0 0 222 61" fill="none" xmlns="http://www.w3.org/2000/svg">
<path fill-rule="evenodd" clip-rule="evenodd" d="M148.479 14.5682L143.654 13.8198V20.1425C143.654 21.2229 143.737 22.4718 143.822 22.8881C142.905 22.1385 141.909 21.8065 140.577 21.8065C135.917 21.8065 132.755 25.7168 132.755 31.4571C132.755 37.1144 135.668 40.7745 140.326 40.7745C141.992 40.7745 143.404 40.2764 144.569 39.1947C144.652 39.6928 144.652 40.0249 144.819 40.2751H149.145C148.812 39.6098 148.479 38.1106 148.479 33.6204V14.5682ZM143.737 26.7972V35.5322C143.32 36.1145 142.323 36.6969 141.408 36.6969C138.91 36.6969 138.08 35.4517 138.08 31.5401C138.08 27.4625 138.995 25.6325 141.158 25.6325C141.99 25.6338 142.905 26.0488 143.737 26.7972ZM154.802 13.9858C153.139 13.9858 151.724 15.3165 151.724 16.9805C151.724 18.5615 153.056 19.8922 154.719 19.8922C156.301 19.8922 157.629 18.5615 157.629 16.9805C157.629 15.3165 156.382 13.9858 154.802 13.9858ZM152.306 40.2764H157.047V21.9725H152.306V40.2764ZM181.423 13.9858C181.029 13.9842 180.639 14.0605 180.275 14.2104C179.911 14.3603 179.58 14.5808 179.302 14.8593C179.023 15.1377 178.803 15.4685 178.653 15.8325C178.503 16.1966 178.427 16.5868 178.428 16.9805C178.428 18.5615 179.76 19.8922 181.339 19.8922C183.004 19.8922 184.336 18.5615 184.336 16.9805C184.336 15.3165 183.005 13.9858 181.423 13.9858ZM196.067 21.9725H191.742C191.742 20.1425 191.906 18.1452 192.074 16.4812L187.166 17.6459C186.999 19.0608 186.999 20.2255 186.999 21.9725H185.169V25.3005H186.999V35.2014C186.999 36.8642 187.082 37.2817 187.333 38.0288C187.916 39.6941 189.829 40.6915 192.241 40.6915C193.573 40.6915 194.821 40.4437 196.151 39.9418L195.569 37.0314C194.736 37.2817 194.321 37.4465 193.819 37.4465C192.24 37.4465 191.742 36.7811 191.742 34.4518V25.3005H194.819L196.067 21.9725ZM197.064 24.1358L199.062 27.6298C201.059 26.2979 202.806 25.5495 204.384 25.5495C206.134 25.5495 206.549 26.2149 206.549 28.2122V29.0435C206.134 28.9605 205.799 28.9605 205.469 28.9605C199.561 28.9605 196.649 30.9578 196.649 35.2844C196.649 38.9445 198.894 40.9417 202.889 40.9417C204.469 40.9417 205.716 40.6072 206.633 39.9418C206.965 39.6941 207.383 39.3595 207.714 39.0275C208.212 39.9418 209.212 40.7745 210.293 41.1895L212.873 38.2791C211.458 37.2817 211.123 36.5321 211.123 34.5348V34.2028L211.206 28.0449C211.289 26.1318 211.123 25.5495 210.874 24.8012C210.209 22.7209 208.047 21.6392 204.967 21.6392C203.304 21.6392 201.807 21.8882 199.975 22.6366C198.727 23.2202 197.98 23.5535 197.064 24.1358ZM206.465 32.2897L206.382 36.1976C205.632 37.0302 204.719 37.4452 203.886 37.4452C202.639 37.4452 201.724 36.5309 201.724 35.1159C201.724 32.8708 202.889 32.2885 206.215 32.2885L206.465 32.2897ZM218.446 13.8198L213.538 14.9845C213.786 16.5655 213.786 18.0634 213.786 20.4758V34.121C213.786 36.6981 213.869 37.283 214.284 38.1961C214.867 39.7783 216.449 40.6915 218.529 40.6915C219.526 40.6915 220.524 40.5242 221.356 40.1934L220.524 37.3635C220.276 37.4465 220.192 37.4465 220.026 37.4465C219.611 37.4465 219.196 37.2817 219.028 36.9484C218.778 36.4504 218.694 36.034 218.694 32.8733V18.5615C218.694 16.0661 218.694 14.8185 218.446 13.8198ZM167.364 25.2175C169.194 25.2175 170.275 26.2149 170.275 27.8801C170.275 29.5441 169.194 30.5415 167.364 30.5415C165.701 30.5415 164.534 29.7944 164.534 27.8801C164.534 26.2149 165.534 25.2175 167.364 25.2175ZM183.754 21.9725V40.2751H178.927V25.3835H174.185C174.842 26.1784 175.195 27.1809 175.182 28.2122C175.182 31.3729 172.355 33.7022 168.445 33.7022C168.194 33.7022 168.113 33.7022 167.695 33.6217C166.53 34.204 165.865 34.6191 165.865 35.1172C165.865 35.3674 166.115 35.6152 166.615 35.6152H169.194C172.022 35.6152 173.437 36.1133 174.768 37.2805C175.849 38.2779 176.348 39.5255 176.348 41.1883C176.348 42.6862 175.85 43.8509 174.853 44.9326C173.27 46.6821 170.443 47.3449 167.613 47.3449C165.036 47.3449 162.373 46.8468 160.708 45.3501C159.711 44.4332 159.213 43.3528 159.213 42.1052C159.213 41.1053 159.463 40.6072 159.628 40.1921H164.037C163.87 40.6902 163.87 40.9417 163.87 41.4398C163.87 42.8548 165.037 43.6849 167.282 43.6849C168.447 43.6849 169.527 43.5201 170.277 43.0195C171.027 42.6045 171.442 41.9391 171.442 41.1895C171.442 39.5268 170.029 39.0275 168.115 39.0275L166.035 38.9445C163.87 38.9445 162.539 38.7772 161.625 38.4464C160.792 38.1118 160.293 37.2817 160.293 36.034C160.293 34.8694 160.628 33.7022 163.621 32.9563C160.958 32.291 159.711 30.5415 159.711 27.8801C159.711 24.1358 162.705 21.6405 167.448 21.6405C168.279 21.6405 169.111 21.8065 170.109 21.9738H183.754V21.9725Z" fill="#D0D0D0"/>
<path fill-rule="evenodd" clip-rule="evenodd" d="M77.4317 23.2204C75.7677 22.389 73.7705 21.4734 70.8588 21.4734C66.6164 21.4734 63.7878 23.8857 63.7878 27.4627C63.7878 28.6274 64.2041 29.9581 64.7851 30.7907C65.4505 31.5403 66.9485 32.3704 68.1961 32.6207L70.3595 33.0358C72.2725 33.3703 73.1881 34.0357 73.1881 35.2834C73.1881 36.448 72.1065 37.3611 70.6928 37.3611C68.6124 37.3611 66.1171 36.1135 64.6191 35.2834L62.9551 38.7761C65.6178 40.1911 68.1144 40.8564 70.3595 40.8564C75.0194 40.8564 78.1801 38.2768 78.1801 34.5337C78.1801 33.2861 77.8468 32.2887 77.1827 31.3718C76.5174 30.5392 75.7677 29.8751 73.5214 29.2927L71.2751 28.7934C69.6111 28.2941 69.0288 27.7948 69.0288 26.8804C69.0288 25.7987 69.9444 25.1334 71.3581 25.1334C72.69 25.1334 74.0207 25.4667 75.8508 26.4653L77.4317 23.2204ZM87.2471 21.6406C82.2564 21.6406 79.0115 25.4667 79.0115 31.207C79.0115 36.9473 82.2564 40.6916 87.2471 40.6916C90.0758 40.6916 91.9071 39.6943 93.2378 38.1963C94.8187 36.3663 95.5671 34.2042 95.5671 31.0423C95.5671 28.1293 94.9018 26.1333 93.4868 24.3863C91.9071 22.555 89.8268 21.6406 87.2471 21.6406ZM87.3314 25.2177C88.164 25.2177 88.9124 25.5497 89.4105 26.1333C89.9928 26.9659 90.3261 28.5456 90.3261 31.0423C90.3261 35.3676 89.4105 37.1989 87.4144 37.1989C86.4158 37.1989 85.3341 36.6983 84.9191 35.7009C84.5858 34.7865 84.3367 33.2056 84.3367 31.124C84.3367 29.2952 84.5028 27.9633 84.8361 27.0489C85.2524 25.883 86.1667 25.2177 87.3314 25.2177ZM111.374 13.986C110.981 13.9842 110.59 14.0604 110.226 14.2103C109.862 14.3601 109.531 14.5806 109.253 14.8591C108.974 15.1375 108.754 15.4684 108.604 15.8325C108.454 16.1967 108.378 16.5869 108.38 16.9807C108.38 18.5617 109.71 19.8924 111.291 19.8924C112.955 19.8924 114.286 18.5617 114.286 16.9807C114.286 15.3167 112.954 13.986 111.374 13.986ZM108.879 25.3837V40.2753H113.704V21.9727H102.722V19.3931C102.722 18.0624 103.554 17.314 104.718 17.314C105.135 17.314 105.883 17.397 106.382 17.6461L107.879 14.6514C107.048 14.2351 105.467 13.8188 103.886 13.8188C100.142 13.8188 98.0625 15.8978 98.0625 19.4761C98.0625 20.3074 98.2285 21.2231 98.2285 21.9714H96.4815V25.3824H98.0612V40.2741H102.803V25.3824L108.879 25.3837ZM116.2 24.136L118.281 27.63C120.192 26.2981 122.025 25.5497 123.52 25.5497C125.267 25.5497 125.685 26.215 125.685 28.2123V29.0437C125.267 28.9607 124.935 28.9607 124.605 28.9607C118.78 28.9607 115.785 30.958 115.785 35.2846C115.785 38.9446 118.03 40.9419 122.105 40.9419C123.603 40.9419 124.935 40.6074 125.768 39.942C126.183 39.6943 126.515 39.3597 126.933 39.0277C127.348 39.942 128.345 40.7747 129.512 41.1897L132.008 38.2793C130.593 37.2819 130.258 36.5323 130.258 34.535V34.203L130.425 28.0451C130.425 26.132 130.342 25.5497 130.093 24.8013C129.344 22.721 127.263 21.6394 124.186 21.6394C122.523 21.6394 120.941 21.8884 119.194 22.6368C117.863 23.2204 117.198 23.5537 116.2 24.136ZM125.601 32.2899L125.518 36.1977C124.852 37.0304 123.938 37.4454 123.022 37.4454C121.858 37.4454 120.942 36.531 120.942 35.1161C120.942 32.871 122.107 32.2887 125.435 32.2887L125.601 32.2899ZM35.0018 20.1427C38.2468 20.1427 40.8252 22.721 40.8252 25.966V32.705C40.8272 33.3662 41.0907 33.9997 41.5582 34.4673C42.0258 34.9348 42.6593 35.1984 43.3205 35.2003H49.5602C50.6575 35.2399 51.6964 35.7046 52.4571 36.4964C53.2179 37.2881 53.6408 38.3447 53.6365 39.4427V45.4346C53.6417 45.9824 53.5377 46.5257 53.3304 47.0327C53.1231 47.5398 52.8169 48.0005 52.4294 48.3877C52.042 48.775 51.5813 49.0812 51.0742 49.2883C50.567 49.4954 50.0237 49.5993 49.4759 49.5939H38.4116C37.7286 49.5972 37.0745 49.8701 36.5916 50.3532C36.1087 50.8363 35.8362 51.4905 35.8332 52.1736V57.3303C35.8332 59.3276 34.1692 60.9098 32.2562 60.9098H22.9388C22.468 60.9132 22.0011 60.8229 21.5654 60.6441C21.1298 60.4654 20.734 60.2018 20.4012 59.8687C20.0683 59.5356 19.805 59.1397 19.6266 58.7039C19.4481 58.2681 19.3581 57.8012 19.3618 57.3303V52.1736C19.3581 51.7027 19.4481 51.2358 19.6266 50.8C19.805 50.3642 20.0683 49.9682 20.4012 49.6351C20.734 49.302 21.1298 49.0385 21.5654 48.8597C22.0011 48.681 22.468 48.5907 22.9388 48.594H31.9241C33.3391 48.594 34.4195 47.5136 34.4195 46.0987V42.5217C34.4195 41.1067 33.3378 40.0263 31.9241 40.0263H20.1102C16.9482 40.0263 14.3699 37.3637 14.3699 34.2042V28.2966C14.3699 26.9659 13.2052 25.8013 11.8745 25.8013H5.05251C2.38987 25.8013 0.30957 23.7209 0.30957 21.0583V14.3193C0.30957 11.741 2.38987 9.57765 5.05251 9.57765H17.9469C19.3618 9.57765 20.5252 8.49599 20.5252 6.99802V3.17071C20.5252 1.42371 21.8572 0.0100098 23.6042 0.0100098H31.5908C33.3378 0.0100098 34.6685 1.42497 34.6685 3.17071V7.58036C34.6685 9.32736 33.3378 10.658 31.5908 10.658H24.5198C23.8367 10.6614 23.1825 10.9342 22.6994 11.4173C22.2163 11.9003 21.9435 12.5545 21.9402 13.2377V17.6461C21.9419 18.3075 22.2053 18.9413 22.6728 19.4092C23.1404 19.877 23.7741 20.1407 24.4356 20.1427H35.0018Z" fill="#D0D0D0"/>
</svg>
