<svg width="221" height="36" viewBox="0 0 221 36" fill="none" xmlns="http://www.w3.org/2000/svg">
<g clip-path="url(#clip0_1341_9197)">
<path d="M0.141228 27.3848H4.65342V0.012322H0.141113V27.3849L0.141228 27.3848ZM16.7765 18.7851C14.2393 18.7851 12.9728 19.6811 12.9728 21.4736C12.9728 22.7205 13.235 23.5371 13.7554 23.9246C14.2786 24.3131 15.3774 24.5078 17.0512 24.5078C19.7833 24.5078 21.1495 23.5647 21.1495 21.6772C21.1493 19.7497 19.6902 18.7851 16.7765 18.7851ZM13.7648 13.7571H9.16171C9.16171 11.4683 9.68618 9.9375 10.737 9.16349C11.7848 8.3919 13.8637 8.0049 16.9727 8.0049C20.3572 8.0049 22.6461 8.47718 23.839 9.42521C25.032 10.3712 25.6301 12.1773 25.6301 14.8422V27.385H21.1157L21.3336 24.7561L21.2158 24.7345C20.35 26.6438 18.3531 27.5956 15.2201 27.5956C10.6739 27.5956 8.39886 25.6221 8.39886 21.6769C8.39886 17.69 10.7268 15.6958 15.3802 15.6958C18.484 15.6958 20.3697 16.4283 21.0381 17.8916H21.116V14.7801C21.116 13.2943 20.8611 12.3062 20.3502 11.8214C19.8394 11.3361 18.7909 11.0948 17.2054 11.0948C14.9104 11.0946 13.7648 11.9827 13.7648 13.7571ZM30.2066 8.21742H34.7172L34.4411 10.9037L34.5402 10.9231C35.6132 8.91625 37.3024 7.91375 39.6071 7.91375C42.9082 7.91375 44.5579 10.0413 44.5579 14.2918L44.5696 15.6339H40.3211C40.3597 15.1142 40.3792 14.7728 40.3792 14.6144C40.3792 12.5712 39.6016 11.5467 38.0467 11.5467C35.8265 11.5467 34.7169 13.0651 34.7169 16.0951V27.385H30.2063V8.21719M62.7536 13.4867H58.3514C58.331 13.3657 58.3112 13.2446 58.2922 13.1234C58.1986 12.2064 57.9393 11.6303 57.515 11.4025C57.0885 11.1772 56.0567 11.0633 54.4185 11.0633C52.0706 11.0633 50.8982 11.8372 50.8982 13.3886C50.8982 14.4468 51.1045 15.0719 51.5166 15.2754C51.9292 15.4755 53.3278 15.6336 55.7131 15.7548C58.9202 15.9146 61.0102 16.3493 61.9785 17.0599C62.9478 17.7662 63.4326 19.2158 63.4326 21.41C63.4326 23.7471 62.7883 25.3674 61.4986 26.2711C60.2066 27.1738 57.8932 27.6259 54.5522 27.6259C51.3442 27.6259 49.1522 27.2178 47.973 26.404C46.7937 25.5904 46.2053 24.0671 46.2053 21.8364L46.2004 21.3594H50.8796C50.8224 21.6257 50.7889 21.8364 50.7775 21.9964C50.5943 23.6895 51.8731 24.5366 54.6123 24.5366C57.4459 24.5366 58.8614 23.6965 58.8614 22.011C58.8614 20.3948 57.9715 19.5841 56.1891 19.5841C52.169 19.5841 49.5175 19.1976 48.2425 18.4214C46.9658 17.6464 46.3273 16.0353 46.3273 13.5882C46.3273 11.3978 46.9092 9.91324 48.0776 9.13809C49.245 8.36397 51.4882 7.97547 54.8071 7.97547C57.9401 7.97547 60.0495 8.34799 61.1319 9.09648C62.2129 9.84635 62.7536 11.3083 62.7536 13.4866M79.1334 15.8175L79.1117 15.0546C79.1117 13.5268 78.8524 12.5344 78.3345 12.0808C77.8173 11.6248 76.6944 11.3976 74.9623 11.3976C73.2862 11.3976 72.1919 11.6714 71.6883 12.2205C71.1863 12.7709 70.9304 13.9674 70.9304 15.8172L79.1334 15.8175ZM79.0916 21.2357H83.6154L83.6225 21.9808C83.6225 25.7225 80.8688 27.5958 75.3671 27.5958C71.6281 27.5958 69.1869 26.9495 68.0314 25.6516C66.8763 24.357 66.302 21.6104 66.302 17.4164C66.302 13.687 66.9075 11.1823 68.1125 9.89922C69.316 8.61764 71.6672 7.97593 75.1685 7.97593C78.523 7.97593 80.7708 8.60097 81.9134 9.85278C83.0501 11.104 83.6224 13.5633 83.6224 17.2288L83.6151 18.6328H70.8926C70.8794 19.0613 70.8744 19.3397 70.8744 19.4742C70.8744 21.3546 71.1586 22.6093 71.7266 23.2343C72.2958 23.8611 73.4298 24.1751 75.1282 24.1751C76.7776 24.1751 77.8494 23.9899 78.3462 23.6192C78.846 23.2521 79.0916 22.4586 79.0916 21.2359M87.3565 8.21742H91.8291L91.6505 11.4449L91.7522 11.4654C92.6266 9.15981 94.5947 8.00455 97.6473 8.00455C102.092 8.00455 104.31 10.1137 104.31 14.3334V27.3848H99.8023V15.114L99.7023 13.7699C99.4924 12.3497 98.3923 11.6375 96.4043 11.6375C93.3806 11.6375 91.8691 13.0981 91.8691 16.0167V27.385H87.3565V8.21742ZM126.682 11.6373C125.009 11.6373 123.923 12.0009 123.426 12.731C122.93 13.459 122.685 15.0235 122.685 17.4248C122.685 20.2006 122.93 21.9916 123.426 22.7929C123.923 23.5935 125.037 23.9933 126.76 23.9933C128.568 23.9933 129.719 23.5994 130.225 22.8106C130.724 22.0245 130.976 20.2079 130.976 17.3655C130.976 15.0144 130.698 13.4739 130.147 12.7387C129.587 12.0045 128.432 11.6373 126.682 11.6373ZM135.522 0.012322V27.3848H131.126L131.285 24.2969L131.207 24.2765C130.327 26.5086 128.416 27.6263 125.465 27.6263C122.489 27.6263 120.518 26.9346 119.553 25.5522C118.591 24.169 118.11 21.3596 118.11 17.1235C118.11 13.7048 118.627 11.3287 119.661 9.99899C120.7 8.67074 122.54 8.00478 125.189 8.00478C128.257 8.00478 130.168 8.99074 130.931 10.9643L131.01 10.9438V0.012207H135.522M144.444 8.21742V27.3848H139.929V8.21708H144.444V8.21742ZM144.444 0.012207V3.82683H139.929V0.012322H144.444M156.818 11.6373C155.097 11.6373 153.986 11.9954 153.5 12.7092C153.008 13.4249 152.765 15.0488 152.765 17.5847C152.765 20.2802 153.008 22.0023 153.5 22.7508C153.986 23.4994 155.115 23.8712 156.877 23.8712C158.641 23.8712 159.783 23.4887 160.304 22.7205C160.831 21.9533 161.088 20.2551 161.088 17.6249C161.088 15.1012 160.831 13.4736 160.304 12.7385C159.783 12.0042 158.623 11.6373 156.818 11.6373ZM165.69 8.21742V27.7459C165.69 30.8724 165.073 33.0162 163.837 34.1798C162.592 35.339 160.311 35.9237 156.976 35.9237C153.752 35.9237 151.594 35.4843 150.506 34.6013C149.416 33.7238 148.873 31.9818 148.873 29.383H153.236C153.236 30.6181 153.466 31.4115 153.925 31.7604C154.386 32.1148 155.409 32.2893 156.992 32.2893C159.787 32.2893 161.181 31.1175 161.181 28.7756V24.4567L161.085 24.435C160.283 26.4821 158.448 27.5063 155.581 27.5063C152.736 27.5063 150.796 26.8035 149.754 25.3991C148.714 23.9968 148.191 21.3787 148.191 17.5448C148.191 13.9372 148.714 11.4449 149.754 10.0682C150.796 8.69488 152.685 8.00467 155.423 8.00467C158.413 8.00467 160.367 9.13292 161.302 11.3853H161.398L161.181 8.21719H165.69M174.602 8.21742V27.3848H170.093V8.21708H174.602V8.21742ZM174.602 0.012207V3.82683H170.093V0.012322H174.602M191.159 8.21742V11.6993H183.922V21.3209C183.922 23.1032 184.582 23.9933 185.9 23.9933C187.346 23.9933 188.069 22.9165 188.069 20.7586L188.092 19.9974H191.927L191.915 20.96C191.915 21.8442 191.892 22.5981 191.841 23.2305C191.589 26.1601 189.452 27.6264 185.427 27.6264C181.419 27.6264 179.414 25.746 179.414 21.985V11.6999H176.988V8.21811H179.414V3.91821H183.921V8.21811L191.159 8.21742ZM202.103 18.7851C199.567 18.7851 198.298 19.6811 198.298 21.4736C198.298 22.7205 198.558 23.5371 199.084 23.9246C199.608 24.3131 200.705 24.5078 202.378 24.5078C205.11 24.5078 206.474 23.5647 206.474 21.6772C206.474 19.7497 205.015 18.7851 202.103 18.7851ZM199.089 13.7571H194.488C194.488 11.4683 195.013 9.9375 196.063 9.16349C197.111 8.3919 199.19 8.0049 202.299 8.0049C205.684 8.0049 207.972 8.47718 209.165 9.42521C210.359 10.3712 210.957 12.1773 210.957 14.8422V27.385H206.445L206.661 24.7561L206.544 24.7345C205.678 26.6438 203.678 27.5956 200.546 27.5956C196.001 27.5956 193.729 25.6221 193.729 21.6769C193.729 17.69 196.052 15.6958 200.705 15.6958C203.811 15.6958 205.695 16.4283 206.366 17.8916H206.445V14.7801C206.445 13.2943 206.187 12.3062 205.678 11.8214C205.166 11.3361 204.118 11.0948 202.532 11.0948C200.238 11.0946 199.09 11.9827 199.089 13.7571ZM215.412 27.3848H219.923V0.012322H215.412V27.3849V27.3848Z" fill="#D0D0D0"/>
<path d="M0.141228 27.3848H4.65342V0.012322H0.141113V27.3849L0.141228 27.3848ZM16.7765 18.7851C14.2393 18.7851 12.9728 19.6811 12.9728 21.4736C12.9728 22.7205 13.235 23.5371 13.7554 23.9246C14.2786 24.3131 15.3774 24.5078 17.0512 24.5078C19.7833 24.5078 21.1495 23.5647 21.1495 21.6772C21.1493 19.7497 19.6902 18.7851 16.7765 18.7851ZM13.7648 13.7571H9.16171C9.16171 11.4683 9.68618 9.9375 10.737 9.16349C11.7848 8.3919 13.8637 8.0049 16.9727 8.0049C20.3572 8.0049 22.6461 8.47718 23.839 9.42521C25.032 10.3712 25.6301 12.1773 25.6301 14.8422V27.385H21.1157L21.3336 24.7561L21.2158 24.7345C20.35 26.6438 18.3531 27.5956 15.2201 27.5956C10.6739 27.5956 8.39886 25.6221 8.39886 21.6769C8.39886 17.69 10.7268 15.6958 15.3802 15.6958C18.484 15.6958 20.3697 16.4283 21.0381 17.8916H21.116V14.7801C21.116 13.2943 20.8611 12.3062 20.3502 11.8214C19.8394 11.3361 18.7909 11.0948 17.2054 11.0948C14.9104 11.0946 13.7648 11.9827 13.7648 13.7571ZM30.2066 8.21742H34.7172L34.4411 10.9037L34.5402 10.9231C35.6132 8.91625 37.3024 7.91375 39.6071 7.91375C42.9082 7.91375 44.5579 10.0413 44.5579 14.2918L44.5696 15.6339H40.3211C40.3597 15.1142 40.3792 14.7728 40.3792 14.6144C40.3792 12.5712 39.6016 11.5467 38.0467 11.5467C35.8265 11.5467 34.7169 13.0651 34.7169 16.0951V27.385H30.2063V8.21719M62.7536 13.4867H58.3514C58.331 13.3657 58.3112 13.2446 58.2922 13.1234C58.1986 12.2064 57.9393 11.6303 57.515 11.4025C57.0885 11.1772 56.0567 11.0633 54.4185 11.0633C52.0706 11.0633 50.8982 11.8372 50.8982 13.3886C50.8982 14.4468 51.1045 15.0719 51.5166 15.2754C51.9292 15.4755 53.3278 15.6336 55.7131 15.7548C58.9202 15.9146 61.0102 16.3493 61.9785 17.0599C62.9478 17.7662 63.4326 19.2158 63.4326 21.41C63.4326 23.7471 62.7883 25.3674 61.4986 26.2711C60.2066 27.1738 57.8932 27.6259 54.5522 27.6259C51.3442 27.6259 49.1522 27.2178 47.973 26.404C46.7937 25.5904 46.2053 24.0671 46.2053 21.8364L46.2004 21.3594H50.8796C50.8224 21.6257 50.7889 21.8364 50.7775 21.9964C50.5943 23.6895 51.8731 24.5366 54.6123 24.5366C57.4459 24.5366 58.8614 23.6965 58.8614 22.011C58.8614 20.3948 57.9715 19.5841 56.1891 19.5841C52.169 19.5841 49.5175 19.1976 48.2425 18.4214C46.9658 17.6464 46.3273 16.0353 46.3273 13.5882C46.3273 11.3978 46.9092 9.91324 48.0776 9.13809C49.245 8.36397 51.4882 7.97547 54.8071 7.97547C57.9401 7.97547 60.0495 8.34799 61.1319 9.09648C62.2129 9.84635 62.7536 11.3083 62.7536 13.4866M79.1334 15.8175L79.1117 15.0546C79.1117 13.5268 78.8524 12.5344 78.3345 12.0808C77.8173 11.6248 76.6944 11.3976 74.9623 11.3976C73.2862 11.3976 72.1919 11.6714 71.6883 12.2205C71.1863 12.7709 70.9304 13.9674 70.9304 15.8172L79.1334 15.8175ZM79.0916 21.2357H83.6154L83.6225 21.9808C83.6225 25.7225 80.8688 27.5958 75.3671 27.5958C71.6281 27.5958 69.1869 26.9495 68.0314 25.6516C66.8763 24.357 66.302 21.6104 66.302 17.4164C66.302 13.687 66.9075 11.1823 68.1125 9.89922C69.316 8.61764 71.6672 7.97593 75.1685 7.97593C78.523 7.97593 80.7708 8.60097 81.9134 9.85278C83.0501 11.104 83.6224 13.5633 83.6224 17.2288L83.6151 18.6328H70.8926C70.8794 19.0613 70.8744 19.3397 70.8744 19.4742C70.8744 21.3546 71.1586 22.6093 71.7266 23.2343C72.2958 23.8611 73.4298 24.1751 75.1282 24.1751C76.7776 24.1751 77.8494 23.9899 78.3462 23.6192C78.846 23.2521 79.0916 22.4586 79.0916 21.2359M87.3565 8.21742H91.8291L91.6505 11.4449L91.7522 11.4654C92.6266 9.15981 94.5947 8.00455 97.6473 8.00455C102.092 8.00455 104.31 10.1137 104.31 14.3334V27.3848H99.8023V15.114L99.7023 13.7699C99.4924 12.3497 98.3923 11.6375 96.4043 11.6375C93.3806 11.6375 91.8691 13.0981 91.8691 16.0167V27.385H87.3565V8.21742ZM126.682 11.6373C125.009 11.6373 123.923 12.0009 123.426 12.731C122.93 13.459 122.685 15.0235 122.685 17.4248C122.685 20.2006 122.93 21.9916 123.426 22.7929C123.923 23.5935 125.037 23.9933 126.76 23.9933C128.568 23.9933 129.719 23.5994 130.225 22.8106C130.724 22.0245 130.976 20.2079 130.976 17.3655C130.976 15.0144 130.698 13.4739 130.147 12.7387C129.587 12.0045 128.432 11.6373 126.682 11.6373ZM135.522 0.012322V27.3848H131.126L131.285 24.2969L131.207 24.2765C130.327 26.5086 128.416 27.6263 125.465 27.6263C122.489 27.6263 120.518 26.9346 119.553 25.5522C118.591 24.169 118.11 21.3596 118.11 17.1235C118.11 13.7048 118.627 11.3287 119.661 9.99899C120.7 8.67074 122.54 8.00478 125.189 8.00478C128.257 8.00478 130.168 8.99074 130.931 10.9643L131.01 10.9438V0.012207H135.522M144.444 8.21742V27.3848H139.929V8.21708H144.444V8.21742ZM144.444 0.012207V3.82683H139.929V0.012322H144.444M156.818 11.6373C155.097 11.6373 153.986 11.9954 153.5 12.7092C153.008 13.4249 152.765 15.0488 152.765 17.5847C152.765 20.2802 153.008 22.0023 153.5 22.7508C153.986 23.4994 155.115 23.8712 156.877 23.8712C158.641 23.8712 159.783 23.4887 160.304 22.7205C160.831 21.9533 161.088 20.2551 161.088 17.6249C161.088 15.1012 160.831 13.4736 160.304 12.7385C159.783 12.0042 158.623 11.6373 156.818 11.6373ZM165.69 8.21742V27.7459C165.69 30.8724 165.073 33.0162 163.837 34.1798C162.592 35.339 160.311 35.9237 156.976 35.9237C153.752 35.9237 151.594 35.4843 150.506 34.6013C149.416 33.7238 148.873 31.9818 148.873 29.383H153.236C153.236 30.6181 153.466 31.4115 153.925 31.7604C154.386 32.1148 155.409 32.2893 156.992 32.2893C159.787 32.2893 161.181 31.1175 161.181 28.7756V24.4567L161.085 24.435C160.283 26.4821 158.448 27.5063 155.581 27.5063C152.736 27.5063 150.796 26.8035 149.754 25.3991C148.714 23.9968 148.191 21.3787 148.191 17.5448C148.191 13.9372 148.714 11.4449 149.754 10.0682C150.796 8.69488 152.685 8.00467 155.423 8.00467C158.413 8.00467 160.367 9.13292 161.302 11.3853H161.398L161.181 8.21719H165.69M174.602 8.21742V27.3848H170.093V8.21708H174.602V8.21742ZM174.602 0.012207V3.82683H170.093V0.012322H174.602M191.159 8.21742V11.6993H183.922V21.3209C183.922 23.1032 184.582 23.9933 185.9 23.9933C187.346 23.9933 188.069 22.9165 188.069 20.7586L188.092 19.9974H191.927L191.915 20.96C191.915 21.8442 191.892 22.5981 191.841 23.2305C191.589 26.1601 189.452 27.6264 185.427 27.6264C181.419 27.6264 179.414 25.746 179.414 21.985V11.6999H176.988V8.21811H179.414V3.91821H183.921V8.21811L191.159 8.21742ZM202.103 18.7851C199.567 18.7851 198.298 19.6811 198.298 21.4736C198.298 22.7205 198.558 23.5371 199.084 23.9246C199.608 24.3131 200.705 24.5078 202.378 24.5078C205.11 24.5078 206.474 23.5647 206.474 21.6772C206.474 19.7497 205.015 18.7851 202.103 18.7851ZM199.089 13.7571H194.488C194.488 11.4683 195.013 9.9375 196.063 9.16349C197.111 8.3919 199.19 8.0049 202.299 8.0049C205.684 8.0049 207.972 8.47718 209.165 9.42521C210.359 10.3712 210.957 12.1773 210.957 14.8422V27.385H206.445L206.661 24.7561L206.544 24.7345C205.678 26.6438 203.678 27.5956 200.546 27.5956C196.001 27.5956 193.729 25.6221 193.729 21.6769C193.729 17.69 196.052 15.6958 200.705 15.6958C203.811 15.6958 205.695 16.4283 206.366 17.8916H206.445V14.7801C206.445 13.2943 206.187 12.3062 205.678 11.8214C205.166 11.3361 204.118 11.0948 202.532 11.0948C200.238 11.0946 199.09 11.9827 199.089 13.7571ZM215.412 27.3848H219.923V0.012322H215.412V27.3849V27.3848Z" fill="#D0D0D0"/>
</g>
<defs>
<clipPath id="clip0_1341_9197">
<rect width="220.047" height="35.9116" fill="white" transform="translate(0.00927734 0.0124512)"/>
</clipPath>
</defs>
</svg>
