<svg width="221" height="38" viewBox="0 0 221 38" fill="none" xmlns="http://www.w3.org/2000/svg">
<path fill-rule="evenodd" clip-rule="evenodd" d="M18.974 37.7006C24.0069 37.7006 28.7386 35.7387 32.2965 32.1808C35.8568 28.6229 37.8163 23.89 37.8163 18.8571C37.8163 13.8243 35.8556 9.09257 32.2989 5.53229C30.5531 3.77695 28.4765 2.38527 26.1893 1.4378C23.9021 0.490336 21.4497 0.0058965 18.974 0.0125181C8.58137 0.0125181 0.129395 8.46566 0.129395 18.8571C0.129395 23.89 2.09007 28.6229 5.64917 32.1808C7.39491 33.9362 9.47149 35.3279 11.7587 36.2754C14.0459 37.2229 16.4983 37.7073 18.974 37.7006Z" fill="white"/>
<path fill-rule="evenodd" clip-rule="evenodd" d="M18.9739 37.2374C23.8832 37.2374 28.4985 35.3261 31.9706 31.8552C33.6825 30.152 35.0396 28.1263 35.9637 25.8952C36.8877 23.6642 37.3602 21.2721 37.3539 18.8573C37.3539 13.948 35.4415 9.33032 31.9706 5.85944C30.2679 4.14715 28.2425 2.78958 26.0116 1.86532C23.7807 0.941069 21.3887 0.468484 18.9739 0.474918C8.83647 0.474918 0.590332 8.72106 0.590332 18.8573C0.590332 23.7667 2.50279 28.382 5.97485 31.8552C7.67813 33.5672 9.70404 34.9244 11.9353 35.8482C14.1666 36.7721 16.5589 37.2442 18.9739 37.2374ZM2.22756 18.855C2.22756 14.3796 3.97065 10.1748 7.13338 7.01208C8.68489 5.45265 10.5302 4.21634 12.5626 3.37467C14.595 2.53301 16.7741 2.10269 18.9739 2.10862C21.174 2.10258 23.3535 2.53283 25.3863 3.37449C27.4191 4.21616 29.2649 5.45252 30.8168 7.01208C32.3764 8.56392 33.6129 10.4096 34.4546 12.4424C35.2962 14.4753 35.7264 16.6548 35.7202 18.855C35.7202 28.0879 28.208 35.5989 18.9739 35.5989C16.774 35.6052 14.5947 35.1749 12.5622 34.333C10.5298 33.4911 8.68452 32.2543 7.13338 30.6943C5.5734 29.1433 4.33656 27.2983 3.49447 25.2661C2.65239 23.2338 2.22177 21.0547 2.22756 18.855Z" fill="#D0D0D0"/>
<path fill-rule="evenodd" clip-rule="evenodd" d="M18.9738 33.4794C27.0518 33.4794 33.6007 26.9328 33.6007 18.8525C33.6007 10.777 27.0518 4.22803 18.9738 4.22803C10.8971 4.22803 4.34814 10.777 4.34814 18.8525C4.34814 26.9317 10.8971 33.4794 18.9738 33.4794Z" fill="#D0D0D0"/>
<path fill-rule="evenodd" clip-rule="evenodd" d="M17.1382 12.881L18.9801 9.25723L20.8232 12.881H22.4557L18.9801 5.92749L15.5069 12.881H17.1382ZM17.1406 24.805L18.9825 28.4277L20.8255 24.805H22.4581L18.9825 31.7609L15.5092 24.805H17.1406ZM13.0087 20.6908L9.38492 18.8466L13.0087 17.0047V15.3733L6.05518 18.8466L13.0087 22.3233V20.6908ZM25.0162 17.0153L28.7435 18.8571L25.0162 20.699V22.3327L32.0745 18.8571L25.0162 15.3839V17.0153Z" fill="white"/>
<path fill-rule="evenodd" clip-rule="evenodd" d="M214.734 27.3293C214.497 27.2717 214.148 27.1341 213.943 26.9247C213.75 26.7224 213.62 26.4037 213.569 26.0543L212.072 13.654C212.072 13.654 211.847 11.9015 212.255 11.3063C212.492 10.957 212.875 10.8476 213.062 10.8135V10.4289H210.77L204.571 23.6502L198.291 10.4289H195.952V10.8135C196.232 10.8888 196.492 10.9864 196.695 11.1805C197.012 11.4816 197.16 11.8062 197.106 12.4307L195.518 25.7262C195.422 26.3943 195.273 26.6636 195.043 26.8659C194.749 27.1188 194.428 27.2423 194.06 27.3281V27.7257H196.991L197.984 16.4238H198.075C198.871 18.1328 200.24 21.0062 200.447 21.4861C200.719 22.1224 202.519 25.6121 203.068 26.6589C203.434 27.3411 203.661 27.801 203.866 27.801C204.07 27.801 204.184 27.5916 204.709 26.5236L209.678 16.1721H209.77L210.923 27.7269H214.736V27.3293H214.734ZM63.6754 27.7269H59.3365L57.3512 22.3035C57.3041 22.1883 57.2359 22.1424 57.123 22.1424L51.8008 22.1612C51.6879 22.1612 51.642 22.2071 51.5961 22.3423L49.5543 27.7269H46.4233V27.327C46.5633 27.3081 46.6997 27.3034 46.8962 27.2423C47.7677 26.9647 48.1476 26.0179 48.464 25.2298L54.4295 10.3195L55.3634 10.0984C55.9103 11.3498 59.8693 21.2814 61.316 24.7523C61.9747 26.3307 62.3699 26.7189 62.7851 27.0329C62.9991 27.1941 63.3767 27.3023 63.6754 27.327V27.7269ZM56.5761 20.6463C56.6878 20.6463 56.7113 20.5793 56.6878 20.511L54.6377 14.8795C54.6142 14.789 54.5907 14.6749 54.5225 14.6749C54.4531 14.6749 54.4084 14.7901 54.386 14.8795L52.2877 20.4875C52.2654 20.5793 52.2877 20.6463 52.3806 20.6463H56.5761ZM131.232 24.8135C131.232 25.4286 131.161 26.5683 130.931 26.7483C129.98 27.4857 127.959 28.035 125.551 28.0421C120.622 28.0585 116.253 25.398 116.253 19.1067C116.253 15.4594 117.925 12.9071 119.756 11.6533C121.689 10.3301 123.483 10.2148 125.172 10.1713C128.534 10.0831 130.729 10.9699 131.132 11.0605V14.6561H130.515C130.464 14.1915 130.202 13.521 129.886 13.0894C129.076 11.9838 127.058 11.0958 124.87 11.311C123.767 11.4204 122.405 11.5263 120.901 12.933C119.764 13.9951 119.13 15.3077 119.033 18.3081C118.872 23.2068 122.318 26.88 126.565 26.88C128.799 26.8788 130.633 25.4392 131.232 24.8135ZM171.964 24.8135C171.964 25.4286 171.893 26.5683 171.666 26.7483C170.714 27.4857 168.691 28.035 166.288 28.0421C161.354 28.0585 156.987 25.398 156.987 19.1067C156.987 15.4594 158.66 12.9071 160.491 11.6533C162.423 10.3301 164.215 10.2148 165.906 10.1713C169.266 10.0831 171.466 10.9699 171.867 11.0605V14.6561H171.252C171.196 14.1915 170.936 13.521 170.62 13.0894C169.81 11.9838 167.795 11.0958 165.602 11.311C164.502 11.4204 163.14 11.5263 161.635 12.933C160.498 13.9951 159.866 15.3077 159.765 18.3081C159.604 23.2068 163.05 26.88 167.297 26.88C169.533 26.8788 171.367 25.4392 171.964 24.8135ZM78.8539 19.6748H74.7632V20.0312C74.9832 20.077 75.4818 20.2652 75.77 20.544C75.9958 20.7651 76.2569 21.0956 76.2569 21.8166V25.7521C76.2569 26.1402 76.1758 26.4342 75.8676 26.5954C75.3748 26.8483 74.655 26.8483 74.1198 26.8483C69.7868 26.8483 66.2689 23.1751 66.4347 18.2751C66.5347 15.2735 67.1487 13.7339 68.3237 12.6895C69.7645 11.4134 71.2606 11.2781 72.3909 11.2781C74.7115 11.2781 76.7721 12.2614 77.5107 13.0565C78.0083 13.5916 78.1541 14.1856 78.2082 14.3902H78.781V11.0264C78.3717 10.937 76.1287 10.0502 72.699 10.1384C70.9736 10.1819 69.1458 10.2972 67.1745 11.6204C65.3033 12.8742 63.6002 15.4265 63.6002 19.0738C63.6002 25.3663 68.0567 28.008 73.0895 28.008C74.6903 28.008 77.2426 27.7574 78.5787 26.9835C78.8257 26.8247 78.8528 26.7789 78.8528 26.1637L78.8539 19.6748Z" fill="#D0D0D0"/>
<path fill-rule="evenodd" clip-rule="evenodd" d="M148.269 25.3461C148.269 24.3628 148.979 22.9456 150.671 22.9456C152.011 22.9456 153.077 23.8512 153.077 25.2285C153.077 26.6058 152.128 27.7514 150.633 27.7514C148.979 27.7514 148.269 26.4517 148.269 25.3461Z" fill="#D0D0D0"/>
<path fill-rule="evenodd" clip-rule="evenodd" d="M174.39 19.0726C174.39 15.1736 176.914 10.1372 183.616 10.1372C189.181 10.1372 192.642 13.4411 192.642 18.6633C192.642 23.8831 189.067 28.0068 183.396 28.0068C176.983 28.0068 174.39 23.1069 174.39 19.0726ZM189.515 19.5054C189.515 14.3997 186.633 11.231 182.971 11.231C180.4 11.231 177.474 12.6895 177.474 18.3669C177.474 23.108 180.043 26.8706 184.336 26.8706C185.894 26.8694 189.515 26.0932 189.515 19.5054ZM137.026 10.4301C136.93 11.0911 138.393 13.6281 138.393 13.6281L141.391 18.9138C141.618 18.3669 145.754 11.1405 146.072 10.4348H148.818V10.8135C148.656 10.8323 148.266 10.9817 148.051 11.1099C147.674 11.3346 147.393 11.5839 146.971 12.1449C146.217 13.0553 143.011 18.5257 142.599 19.5054C142.257 20.3276 142.257 21.0333 142.257 21.786V24.1842C142.257 24.1842 142.25 27.1976 142.661 27.7269H138.019V27.3434C138.316 27.2635 138.492 27.2152 138.754 26.9941C139.184 26.6377 139.386 26.0296 139.386 24.0443V21.786C139.386 20.5546 139.159 20.0535 138.86 19.3925C138.701 19.0267 135.589 13.9163 134.789 12.7283C134.226 11.8956 133.82 11.4639 133.406 11.1711C133.136 10.9817 132.855 10.8394 132.579 10.8123V10.4301H137.026ZM82.2168 10.4277V10.8123C82.7273 10.9441 82.9307 11.0511 83.1695 11.3052C83.4177 11.571 83.5565 11.8779 83.5565 12.7742V24.2736C83.5565 24.2736 83.5576 27.1588 83.1601 27.7245H93.8762V25.705C93.3399 26.1484 90.8099 26.1625 90.8099 26.1625H86.2911V19.5466H92.1707V17.7C91.6356 18.1422 89.1021 18.1575 89.1021 18.1575H86.2911V11.6968H91.1381C92.326 11.6968 92.6871 11.885 92.9741 12.299C93.2011 12.6248 93.3222 12.9259 93.4481 13.3235H93.9127V10.4289L82.2168 10.4277ZM110.835 10.4301V10.4336C111.244 10.9605 111.241 13.9245 111.241 13.9245V23.288H111.145C110.772 22.9246 107.816 19.6419 106.328 18.0928C103.133 14.7878 99.5159 10.7241 99.2537 10.4301H96.8743V10.8123C97.2436 10.8817 97.5929 11.0817 97.7834 11.2981C98.0104 11.5569 98.2492 11.985 98.2492 13.0224V24.1478C98.2492 26.1237 97.9904 26.5895 97.5576 26.9776C97.3459 27.1682 97.1142 27.2693 96.7625 27.3587V27.7257H100.24C99.8288 27.1976 99.8311 24.2595 99.8311 24.2595V15.0242L111.602 27.7163C111.843 27.9668 112.019 27.9645 112.26 27.9645C112.457 27.9645 112.802 27.7574 112.802 27.2564V13.7798C112.802 11.985 113.043 11.6309 113.264 11.3593C113.549 11.0111 113.946 10.8641 114.171 10.8123V10.4301H110.835ZM219.438 13.8492C219.277 14.0162 219.084 14.1484 218.869 14.2376C218.655 14.3269 218.425 14.3712 218.193 14.3679C217.704 14.3679 217.287 14.1938 216.944 13.8492C216.777 13.6878 216.646 13.494 216.557 13.2798C216.468 13.0656 216.424 12.8355 216.427 12.6036C216.427 12.1167 216.599 11.7003 216.944 11.3557C217.105 11.1883 217.299 11.0558 217.514 10.9666C217.729 10.8774 217.959 10.8333 218.192 10.837C218.679 10.837 219.095 11.0088 219.44 11.3534C219.784 11.698 219.955 12.1132 219.956 12.6013C219.959 12.8336 219.915 13.0641 219.826 13.2787C219.737 13.4933 219.605 13.6874 219.438 13.8492ZM219.595 11.1969C219.413 11.0093 219.195 10.861 218.953 10.7611C218.712 10.6611 218.453 10.6117 218.192 10.6159C217.645 10.6159 217.177 10.81 216.789 11.1993C216.601 11.3814 216.453 11.5999 216.353 11.8414C216.253 12.0829 216.204 12.3423 216.208 12.6036C216.208 13.1517 216.403 13.6187 216.791 14.0056C216.972 14.1941 217.19 14.343 217.432 14.443C217.673 14.543 217.933 14.5919 218.194 14.5867C218.743 14.5867 219.209 14.3938 219.597 14.0056C219.983 13.6175 220.176 13.1482 220.176 12.6013C220.176 12.0544 219.983 11.5863 219.595 11.1969Z" fill="#D0D0D0"/>
<path fill-rule="evenodd" clip-rule="evenodd" d="M217.655 11.6908H218.371C218.514 11.6908 218.757 11.7178 218.757 12.0482C218.757 12.3646 218.535 12.4151 218.323 12.4151H217.655V11.6908ZM217.655 12.6621H218.351C218.698 12.6621 218.732 12.8667 218.732 13.0419C218.732 13.123 218.744 13.4476 218.785 13.5769H219.137V13.5311C219.05 13.4793 219.033 13.4346 219.031 13.3159L219.012 12.929C218.998 12.6327 218.879 12.5774 218.757 12.528C218.852 12.4821 218.931 12.4087 218.984 12.3172C219.037 12.2258 219.061 12.1206 219.053 12.0153C219.053 11.5637 218.702 11.4426 218.35 11.4426H217.365V13.5758H217.654V12.6621H217.655Z" fill="#D0D0D0"/>
</svg>
