<svg width="43" height="43" viewBox="0 0 43 43" fill="none" xmlns="http://www.w3.org/2000/svg">
<rect opacity="0.01" x="0.152344" y="0.00878906" width="42.0089" height="42.0089" fill="#5C8AFF"/>
<path fill-rule="evenodd" clip-rule="evenodd" d="M9.16659 19.819C10.2518 16.7934 12.6719 14.5104 15.6546 13.6983C19.0153 12.5721 17.37 8.80177 14.3944 9.76884C7.39288 11.8254 3.21533 17.4197 3.21533 24.7278C3.21533 30.4446 6.31932 34.117 11.1387 34.117C15.958 34.117 18.9803 31.0689 18.9803 26.3315C18.9803 19.5497 12.854 17.9339 9.16659 19.819ZM28.4089 19.8187C29.4942 16.7931 31.9142 14.5101 34.897 13.698C38.2227 12.5841 36.6473 8.80147 33.6367 9.76854C26.6352 11.8373 22.4577 17.4194 22.4577 24.7398C22.4577 30.4443 25.5733 34.1167 30.381 34.1167C35.1887 34.1167 38.2227 31.0686 38.2227 26.3312C38.2227 19.5739 32.1314 17.9213 28.4089 19.8187Z" fill="#5C8AFF"/>
</svg>
