<svg width="65" height="67" viewBox="0 0 65 67" fill="none" xmlns="http://www.w3.org/2000/svg">
<path fill-rule="evenodd" clip-rule="evenodd" d="M33.3193 15.2061L33.3192 15.2066L33.3192 15.2068C33.1818 16.1455 33.034 17.1563 32.8652 18.1671C32.6946 19.1041 32.268 19.9559 31.8414 20.8077L31.8414 20.8077L31.8414 20.8078C30.4763 23.2781 29.2819 23.3633 27.7461 21.0634C25.2719 17.3153 24.4187 13.0561 23.9068 8.71169C23.8855 8.45613 23.8588 8.20058 23.8322 7.94502C23.7522 7.17837 23.6722 6.41172 23.7362 5.64507C23.8215 4.53767 23.9922 3.3451 24.5041 2.32289C25.3572 0.534032 27.4049 -0.317807 29.3672 0.108112C31.3295 0.448848 32.6946 1.89697 33.0359 4.02657C33.2175 5.90076 33.3562 7.77494 33.5129 9.89276V9.8928L33.513 9.89435C33.5771 10.76 33.6442 11.6664 33.7184 12.6301C33.589 13.3621 33.4597 14.2464 33.3193 15.2061ZM63.9651 32.0757C64.1506 31.9236 64.3344 31.7729 64.5181 31.6261C64.4755 31.5409 64.4541 31.4345 64.4328 31.328C64.4115 31.2215 64.3902 31.115 64.3475 31.0298C64.1825 30.9357 64.0175 30.8351 63.8507 30.7333L63.8496 30.7327L63.8495 30.7326C63.4129 30.4663 62.964 30.1924 62.4705 30.0076C56.4982 27.2817 50.0994 27.4521 43.7859 28.1336C43.5583 28.1336 43.3308 28.2093 43.1033 28.285C42.9895 28.3229 42.8758 28.3607 42.762 28.3891C40.7144 29.1558 39.4346 30.9447 39.5199 32.9039C39.6053 34.8631 40.9704 36.652 43.018 37.1631C43.7859 37.4186 44.639 37.4186 45.4069 37.4186C47.4545 37.3334 49.5022 37.1631 51.5498 36.9927C55.2185 36.652 58.6312 35.5446 61.788 33.6705C62.5913 33.2027 63.2895 32.6299 63.9651 32.0757ZM24.7599 46.1926C24.4187 48.6629 24.248 51.0481 24.0774 53.5184C23.9067 56.0739 23.9921 58.6294 24.7599 61.2701C25.2718 63.059 26.0397 64.6775 27.5754 65.8701C28.9405 66.8923 29.6231 66.8071 30.5616 65.3589C31.756 63.4849 32.6092 61.5257 32.8651 59.3109C33.2016 56.3992 33.4644 53.4506 33.7261 50.5137L33.7262 50.5131L33.7263 50.5125C33.8627 48.9819 33.9988 47.4545 34.1449 45.937C34.1449 45.5963 34.1449 45.1704 34.0596 44.7445C33.8036 42.7 32.2679 41.1667 30.3909 40.826C28.5139 40.4001 26.5516 41.3371 25.6131 43.126C25.1865 44.063 24.9306 45.1704 24.7599 46.1926ZM24.6614 36.4988C25.4093 36.232 26.1924 35.9528 26.5517 34.9482L25.2719 34.4371C18.3612 33.2446 11.4504 33.2446 4.45433 33.7557C3.43051 33.8409 2.40669 34.1816 1.55351 34.6927C-0.664756 36.1408 -0.49412 39.2074 1.9801 40.3148C2.9186 40.7407 4.11305 40.8259 5.13687 40.8259C6.81625 40.7461 8.42066 40.5166 10.0906 40.2777C10.2023 40.2617 10.3143 40.2457 10.4266 40.2296C15.1191 39.5482 19.8116 38.4408 24.2481 36.6519C24.3826 36.5982 24.5214 36.5487 24.6614 36.4988Z" fill="#FFA595"/>
</svg>
