<svg width="42" height="42" viewBox="0 0 42 42" fill="none" xmlns="http://www.w3.org/2000/svg">
<path d="M24.0276 6.14262L27.1076 12.3026C27.5276 13.1601 28.6476 13.9826 29.5926 14.1401L35.1751 15.0676C38.7451 15.6626 39.5851 18.2526 37.0126 20.8076L32.6726 25.1476C31.9376 25.8826 31.5351 27.3001 31.7626 28.3151L33.0051 33.6876C33.9851 37.9401 31.7276 39.5851 27.9651 37.3626L22.7326 34.2651C21.7876 33.7051 20.2301 33.7051 19.2676 34.2651L14.0351 37.3626C10.2901 39.5851 8.01508 37.9226 8.99508 33.6876L10.2376 28.3151C10.4651 27.3001 10.0626 25.8826 9.32759 25.1476L4.98758 20.8076C2.43258 18.2526 3.25509 15.6626 6.82509 15.0676L12.4076 14.1401C13.3351 13.9826 14.4551 13.1601 14.8751 12.3026L17.9551 6.14262C19.6351 2.80012 22.3651 2.80012 24.0276 6.14262Z" stroke="#0E1628" stroke-width="3" stroke-linecap="round" stroke-linejoin="round"/>
</svg>
