<svg width="222" height="63" viewBox="0 0 222 63" fill="none" xmlns="http://www.w3.org/2000/svg">
<g clip-path="url(#clip0_1341_9172)">
<path d="M37.8269 17.1542V17.6637C38.2437 18.4218 38.4005 19.2778 38.2764 20.1191C38.1524 20.9604 37.7535 21.7476 37.1321 22.377C34.7989 19.7024 31.9783 17.4182 28.7954 15.6255L27.9617 15.2434C22.4038 12.1861 17.5407 7.34537 16.846 3.65115C16.846 3.52376 16.707 3.26899 16.707 3.1416C19.0799 3.23887 21.402 3.8037 23.5154 4.79763C29.9069 7.34537 35.8816 12.5682 37.8269 17.1542Z" fill="#D0D0D0"/>
<path d="M25.3218 15.3707L26.1555 16.0076C28.9607 17.9432 31.3216 20.3675 33.1028 23.1413C31.6929 22.5925 30.1733 22.3204 28.6418 22.3423C27.1103 22.3643 25.6007 22.6798 24.2102 23.2687L23.6544 23.5235C19.2082 25.689 10.5935 24.5426 2.25672 19.4471L1.00621 18.5554C0.727942 17.3855 0.814986 16.1674 1.25735 15.0409C1.69972 13.9143 2.4795 12.9248 3.50724 12.186C8.23141 8.6192 17.8187 10.4026 25.3218 15.3707Z" fill="#D0D0D0"/>
<path d="M24.3495 26.9627L25.3221 26.7079C28.5079 26.3363 31.7427 26.8232 34.6315 28.1092C33.6589 30.2748 34.0758 33.5868 36.021 37.1537L36.4378 38.0454C39.7725 44.5421 39.3557 51.8032 33.9368 56.0069L32.8252 56.7712C28.6285 54.6628 25.0158 51.6993 22.2653 48.1089C14.9012 38.3002 16.7075 28.8735 24.3495 26.9627Z" fill="#D0D0D0"/>
<path d="M40.4672 40.7207C40.3085 40.3546 40.2147 39.9675 40.1894 39.5742C39.2167 36.3896 39.4946 33.8418 40.6062 32.1858C43.0841 35.1601 46.2063 37.6322 49.7766 39.4468L50.4714 39.7016C55.6124 42.122 60.8923 47.3448 64.0881 53.5868L64.5049 54.6059C64.1494 55.4757 63.4983 56.2177 62.6476 56.7223C61.797 57.2269 60.7919 57.4675 59.7808 57.4084C52.9724 57.5358 43.663 49.383 40.4672 40.7207Z" fill="#D0D0D0"/>
<path d="M52.4168 38.5547L51.5831 37.9178C48.6946 35.9902 46.241 33.5676 44.3579 30.7841C47.1368 31.5484 49.36 31.1663 50.3326 29.8924C50.4715 29.8924 50.4715 29.765 50.6105 29.6376C52.1389 27.7268 55.7515 28.3638 59.9199 31.1663L60.6146 31.6758C61.6935 33.267 62.403 35.0449 62.6988 36.8987C63.3935 41.612 58.9473 42.7585 52.4168 38.5547Z" fill="#D0D0D0"/>
<path d="M49.3595 26.9627H48.9426C46.7647 27.3867 44.4929 27.0697 42.5511 26.071C42.8528 23.7927 42.2619 21.4902 40.8837 19.5743L40.4669 19.0647C38.1048 15.2431 38.3827 12.568 41.1616 12.3132H41.5785C43.4849 13.552 45.2123 15.0073 46.7195 16.6444C50.8879 21.1029 52.2773 25.6889 49.3595 26.9627Z" fill="#D0D0D0"/>
<path d="M85.3466 24.1604V46.5805H81.0393V24.1604H73.2583V20.721H93.1276V24.1604H85.3466ZM165.38 46.5805L152.319 28.3642V46.5805H148.011V20.721H151.902L164.963 38.8099V20.721H169.27V46.5805H165.38ZM207.341 35.2431V43.0137H221.236V46.5805H203.034V20.721H221.097V24.1604H207.341V35.2431ZM112.163 35.1157C113.801 34.7135 115.242 33.8146 116.252 32.5654C117.261 31.3162 117.779 29.7905 117.721 28.2368C117.721 23.7782 114.386 20.721 108.967 20.721H97.9907V24.1604H108.69C109.301 24.1055 109.918 24.1712 110.5 24.3531C111.082 24.535 111.614 24.8288 112.061 25.2149C112.509 25.6011 112.861 26.0705 113.094 26.5917C113.328 27.1129 113.437 27.6738 113.414 28.2368C113.437 28.7998 113.328 29.3607 113.094 29.8819C112.861 30.4031 112.509 30.8725 112.061 31.2586C111.614 31.6447 111.082 31.9386 110.5 32.1205C109.918 32.3024 109.301 32.3681 108.69 32.3132H97.9907V46.5805H102.298V35.6252H107.717L113.553 46.5805H118.555L112.163 35.1157ZM193.864 23.1413C192.876 22.305 191.716 21.6597 190.45 21.2438C189.185 20.828 187.841 20.6502 186.499 20.721H176.634V46.5805H186.499C187.841 46.6513 189.185 46.4735 190.45 46.0576C191.716 45.6418 192.876 44.9964 193.864 44.1602C196.92 41.3576 196.781 37.1539 196.781 33.4597C196.781 29.7654 196.92 25.9438 193.864 23.1413ZM190.946 41.3576C190.312 41.9367 189.549 42.3842 188.71 42.6699C187.871 42.9556 186.975 43.0728 186.083 43.0137H180.386V24.1604H186.083C187.895 24.1504 189.641 24.7904 190.946 25.9438C192.474 27.4725 192.474 29.8928 192.474 33.4597C192.474 37.0265 192.474 39.829 190.946 41.3576Z" fill="#D0D0D0"/>
<path d="M213.594 31.8035H217.207C217.455 31.7859 217.705 31.8157 217.941 31.891C218.176 31.9663 218.392 32.0855 218.575 32.2411C218.758 32.3967 218.903 32.5852 219.003 32.7949C219.102 33.0046 219.153 33.2309 219.152 33.4595C219.152 33.9325 218.947 34.3861 218.582 34.7206C218.217 35.055 217.723 35.2429 217.207 35.2429H213.594C213.078 35.2429 212.583 35.055 212.219 34.7206C211.854 34.3861 211.649 33.9325 211.649 33.4595C211.648 33.2309 211.699 33.0046 211.798 32.7949C211.898 32.5852 212.043 32.3967 212.226 32.2411C212.409 32.0855 212.625 31.9663 212.86 31.891C213.096 31.8157 213.346 31.7859 213.594 31.8035Z" fill="#D0D0D0"/>
<path d="M128.281 35.2431V43.0137H142.037V46.5805H123.974V20.7209H142.037V24.1604H128.281V35.2431Z" fill="#D0D0D0"/>
<path d="M134.117 31.8037C133.916 31.8037 133.717 31.84 133.532 31.9104C133.346 31.9808 133.178 32.084 133.036 32.2141C132.894 32.3442 132.782 32.4987 132.705 32.6687C132.628 32.8387 132.588 33.021 132.588 33.205V33.8419C132.588 34.2135 132.749 34.57 133.036 34.8327C133.323 35.0955 133.711 35.2432 134.117 35.2432H138.563C138.968 35.2432 139.357 35.0955 139.644 34.8327C139.93 34.57 140.091 34.2135 140.091 33.8419V33.205C140.091 33.021 140.052 32.8387 139.975 32.6687C139.898 32.4987 139.786 32.3442 139.644 32.2141C139.502 32.084 139.333 31.9808 139.148 31.9104C138.963 31.84 138.764 31.8037 138.563 31.8037H134.117Z" fill="#D0D0D0"/>
</g>
<defs>
<clipPath id="clip0_1341_9172">
<rect width="221.047" height="62.0131" fill="white" transform="translate(0.189453 0.00976562)"/>
</clipPath>
</defs>
</svg>
