<svg width="222" height="38" viewBox="0 0 222 38" fill="none" xmlns="http://www.w3.org/2000/svg">
<g clip-path="url(#clip0_1341_9193)">
<path d="M17.9359 10.859L24.1982 0.0124512L35.0448 6.27474L28.7825 17.1213L17.9359 10.859ZM0.128906 21.1247L6.39119 10.2781L17.2378 16.5404L10.9755 27.3869L0.128906 21.1247ZM17.9515 31.4165L24.2138 20.5696L35.0604 26.8318L28.7977 37.6788L17.9515 31.4165ZM79.9455 29.4331C79.9455 30.7573 80.9048 30.8024 81.3148 30.8024C82.0004 30.8052 82.6853 30.76 83.3646 30.6671V35.0948C81.8996 35.4476 80.3988 35.6306 78.8918 35.64C74.7922 35.64 74.3289 33.4508 74.1444 32.5366C72.9145 33.7255 69.8561 35.8696 62.78 35.8696C56.4788 35.8696 52.9203 33.0408 52.9203 28.2934C52.9203 21.6314 59.7668 21.0369 63.7845 20.672C72.8038 19.8029 73.7795 19.4831 73.7795 17.6137C73.7795 14.83 70.5859 14.1412 66.933 14.1412C62.78 14.1412 60.5416 15.4654 60.3161 18.1589H54.1666C55.0644 11.8167 59.7709 9.85295 66.9535 9.85295C79.597 9.85295 79.9619 14.83 79.9619 17.9785L79.9455 29.4331ZM73.6483 22.9064C71.8199 23.6853 69.8602 23.9108 65.3833 24.4151C60.64 24.9603 59.4962 26.0098 59.4962 28.0638C59.4962 31.2616 62.4193 31.8519 64.5634 31.8519C67.9416 31.8519 73.6483 30.5769 73.6483 25.235V22.9064ZM88.3949 10.7672H94.6962V14.4159H94.7864C96.8362 11.8167 100.034 10.1276 104.326 10.1276C109.529 10.1276 114.576 11.9971 114.576 18.5238V34.9554H108.299V20.5327C108.299 17.9293 107.43 14.9653 102.227 14.9653C98.9476 14.9653 94.6962 16.7896 94.6962 21.9348V34.9554H88.3949V10.7672ZM135.919 9.85295C146.738 9.85295 150.891 16.1952 150.891 22.8613C150.891 29.5274 146.738 35.8696 135.919 35.8696C125.1 35.8696 120.947 29.5315 120.947 22.8613C120.947 16.1911 125.1 9.85295 135.919 9.85295ZM135.919 31.032C142.035 31.032 144.315 27.0594 144.315 22.8613C144.315 18.6632 142.035 14.6906 135.919 14.6906C129.802 14.6906 127.518 18.6632 127.518 22.8613C127.518 27.0594 129.802 31.032 135.919 31.032ZM159.197 15.3301H154.179V10.7672H159.197V3.29344H165.498V10.7672H172.057V15.3301H165.498V26.3747C165.498 29.1625 165.633 30.6671 167.777 30.6671C169.331 30.6671 170.791 30.622 172.287 30.5769V35.1399C170.685 35.3842 169.066 35.5062 167.445 35.5047C159.779 35.5047 159.184 32.7662 159.184 28.2032L159.197 15.3301ZM178.285 1.81755H184.582V6.92987H178.285V1.81755ZM178.285 10.7672H184.582V34.9554H178.285V10.7672ZM206.085 9.85295C216.904 9.85295 221.057 16.1952 221.057 22.8613C221.057 29.5274 216.904 35.8696 206.085 35.8696C195.266 35.8696 191.113 29.5315 191.113 22.8613C191.113 16.1911 195.274 9.85295 206.085 9.85295ZM206.085 31.032C212.202 31.032 214.485 27.0594 214.485 22.8613C214.485 18.6632 212.202 14.6906 206.085 14.6906C199.968 14.6906 197.685 18.6632 197.685 22.8613C197.685 27.0594 199.968 31.032 206.085 31.032Z" fill="#D0D0D0"/>
</g>
<defs>
<clipPath id="clip0_1341_9193">
<rect width="221.047" height="37.6664" fill="white" transform="translate(0.0693359 0.0124512)"/>
</clipPath>
</defs>
</svg>
