<svg width="21" height="21" viewBox="0 0 21 21" fill="none" xmlns="http://www.w3.org/2000/svg">
<path d="M15.0968 12.0038C14.881 12.213 14.7818 12.5155 14.831 12.8121L15.5718 16.9121C15.6343 17.2596 15.4876 17.6113 15.1968 17.8121C14.9118 18.0205 14.5326 18.0455 14.2218 17.8788L10.531 15.9538C10.4026 15.8855 10.2601 15.8488 10.1143 15.8446H9.88845C9.81012 15.8563 9.73345 15.8813 9.66345 15.9196L5.97178 17.8538C5.78928 17.9455 5.58262 17.978 5.38012 17.9455C4.88678 17.8521 4.55762 17.3821 4.63845 16.8863L5.38012 12.7863C5.42928 12.4871 5.33012 12.183 5.11428 11.9705L2.10512 9.05381C1.85345 8.80964 1.76595 8.44298 1.88095 8.11214C1.99262 7.78214 2.27762 7.54131 2.62178 7.48714L6.76345 6.88631C7.07845 6.85381 7.35512 6.66214 7.49678 6.37881L9.32178 2.63714C9.36512 2.55381 9.42095 2.47714 9.48845 2.41214L9.56345 2.35381C9.60262 2.31048 9.64762 2.27464 9.69762 2.24548L9.78845 2.21214L9.93012 2.15381H10.281C10.5943 2.18631 10.8701 2.37381 11.0143 2.65381L12.8635 6.37881C12.9968 6.65131 13.256 6.84048 13.5551 6.88631L17.6968 7.48714C18.0468 7.53714 18.3393 7.77881 18.4551 8.11214C18.5643 8.44631 18.4701 8.81297 18.2135 9.05381L15.0968 12.0038Z" fill="#FFB200"/>
</svg>
