<svg width="228" height="130" viewBox="0 0 228 130" fill="none" xmlns="http://www.w3.org/2000/svg">
<path fill-rule="evenodd" clip-rule="evenodd" d="M73.6774 53.5479C59.6739 60.143 44.3709 68.6935 33.0972 76.2414C26.1299 80.921 13.0149 90.6325 9.06103 94.0934C6.48826 96.2954 6.21115 97.6759 8.49975 96.1897C9.25134 95.7188 12.0343 94.2247 14.6413 92.9194C17.2483 91.6142 24.8118 87.1908 31.3459 83.163C45.897 74.1128 49.2486 72.1574 58.3695 67.2568C81.5004 54.97 98.7683 47.9697 118.996 42.683C135.778 38.2963 143.62 37.345 161.873 37.428C178.642 37.5351 193.591 41.3145 207.153 49.0847C212.62 52.1403 216.332 53.8682 217.091 53.5767C218.174 53.1603 216.947 51.2658 213.987 48.5818C211.805 46.6296 209.278 45.2347 203.425 42.6308C185.143 34.5515 168.481 31.9765 144.424 33.4566C126.016 34.5858 95.6373 43.2277 73.6774 53.5479Z" fill="#FD8363"/>
<path fill-rule="evenodd" clip-rule="evenodd" d="M175.208 19.5632C175.493 20.3031 185.132 24.667 193.478 27.769C198.497 29.6619 204.289 32.1073 206.368 33.31C210.223 35.4079 221.387 42.765 223.806 44.6868C226.719 47.0857 226.515 44.6162 223.432 40.6446C221.175 37.6899 217.849 35.0251 212.565 31.9599C203.907 26.9153 199.037 25.0865 184.399 21.3088C175.96 19.0924 174.964 18.9291 175.208 19.5632Z" fill="#FD8363"/>
</svg>
