<svg width="155" height="161" viewBox="0 0 155 161" fill="none" xmlns="http://www.w3.org/2000/svg">
<path fill-rule="evenodd" clip-rule="evenodd" d="M114.608 23.6609C102.558 28.5407 97.6919 33.6279 96.6104 39.0386C95.5248 44.4499 98.1881 49.9405 100.855 55.4305C102.72 59.2156 104.622 63.078 105.428 66.7792C106.27 70.641 105.943 74.4364 103.293 78.0956C102.653 78.9446 101.531 79.7858 99.9644 80.4468C97.8545 81.4424 94.9091 82.3191 91.4049 83.0336C78.1419 85.94 56.8192 87.6114 44.2862 91.5685C41.3986 92.4362 38.997 93.4769 37.294 94.6585C35.8175 95.7214 34.8854 96.8654 34.8103 98.2084C34.7482 99.2997 35.2508 100.469 36.343 101.879C38.2024 104.251 41.6534 106.872 47.0802 110.017C51.8307 112.768 57.0281 114.868 61.8632 117.523C69.4301 121.664 77.1256 126.035 83.4927 131.279C83.8985 131.631 83.9516 132.205 83.617 132.59C83.2938 133.057 82.6901 133.068 82.2843 132.716C76.0066 127.541 68.4127 123.238 60.9535 119.163C56.1198 116.591 50.8978 114.413 46.1363 111.663C40.4313 108.395 36.8172 105.549 34.8559 103.027C33.4145 101.256 32.8418 99.5978 32.9172 98.0884C33.0018 96.5776 33.7624 95.1278 35.1531 93.9119C36.9919 92.2931 39.9765 90.9108 43.7219 89.7425C56.3005 85.7783 77.6992 84.0959 91.0098 81.182C94.352 80.4928 97.1616 79.637 99.1829 78.7385C100.383 78.2179 101.284 77.6608 101.762 76.9205C104.061 73.8154 104.308 70.5325 103.574 67.153C102.801 63.613 100.95 59.9089 99.1447 56.1978C96.2997 50.4028 93.5856 44.4206 94.7548 38.6634C95.927 32.9057 100.946 27.1287 113.909 21.9396C114.387 21.6984 114.94 21.9445 115.132 22.4137C115.323 22.883 115.098 23.5009 114.608 23.6609Z" fill="#92E1B1"/>
<path fill-rule="evenodd" clip-rule="evenodd" d="M114.304 27.4253C114.161 27.3645 113.78 27.2573 113.474 27.222C111.971 26.9578 109.681 26.8173 109.006 26.7565C102.981 25.8684 96.3203 25.4127 90.1618 26.3759C89.6455 26.4567 89.1647 26.1154 89.0906 25.6278C89.004 25.059 89.3606 24.587 89.8769 24.5063C96.2136 23.5151 103.075 24.0228 109.254 24.8035C109.951 24.9441 112.274 25.0799 113.799 25.3406C114.346 25.4215 114.802 25.517 115.098 25.637C115.346 25.7647 115.524 25.903 115.645 26.0504C115.944 26.3364 116.141 26.8053 116.2 27.2953C116.269 27.8669 116.182 28.5459 115.964 29.2456C115.555 30.7239 114.669 32.5264 113.97 33.9669C113.566 34.7789 113.226 35.4978 113.154 35.9251C112.537 39.5992 114.356 43.2247 118.803 45.5242C119.269 45.7843 119.446 46.3394 119.203 46.7934C118.96 47.2474 118.386 47.4202 117.933 47.2416C112.588 44.4167 110.554 40.0755 111.29 35.634C111.462 34.5256 112.956 31.9626 113.822 29.7473C114.059 29.0446 114.248 28.432 114.309 27.9234C114.323 27.7547 114.338 27.6692 114.317 27.5061C114.319 27.5058 114.31 27.4244 114.304 27.4253Z" fill="#92E1B1"/>
</svg>
