<svg width="20" height="20" viewBox="0 0 20 20" fill="none" xmlns="http://www.w3.org/2000/svg">
<path fill-rule="evenodd" clip-rule="evenodd" d="M16.1867 3.3291C17.8764 3.3291 19.2361 4.69881 19.2361 6.38846V9.82773C16.7766 11.2674 13.5273 12.1372 9.98805 12.1372C6.4488 12.1372 3.20948 11.2674 0.75 9.82773V6.37846C0.75 4.68881 2.11971 3.3291 3.80935 3.3291H16.1867Z" stroke="#77829D" stroke-width="1.5" stroke-linecap="round" stroke-linejoin="round"/>
<path d="M13.4927 3.32472V2.9588C13.4927 1.73906 12.5029 0.749268 11.2831 0.749268H8.70367C7.48393 0.749268 6.49414 1.73906 6.49414 2.9588V3.32472" stroke="#77829D" stroke-width="1.5" stroke-linecap="round" stroke-linejoin="round"/>
<path d="M0.775391 13.4797L0.964351 15.9882C1.09232 17.6788 2.50103 18.9856 4.19567 18.9856H15.7922C17.4869 18.9856 18.8956 17.6788 19.0235 15.9882L19.2125 13.4797" stroke="#77829D" stroke-width="1.5" stroke-linecap="round" stroke-linejoin="round"/>
</svg>
