<svg width="223" height="234" viewBox="0 0 223 234" fill="none" xmlns="http://www.w3.org/2000/svg">
<g opacity="0.72">
<path d="M116.616 89.0082C118.086 86.3459 118.535 82.5948 118.227 79.8431C117.748 75.9398 111.09 72.7987 110.193 82.8719C109.517 90.5858 106.544 92.5742 102.056 88.3145C97.5522 84.0119 92.613 85.9303 96.0849 90.6031C100.363 96.4419 113.008 95.4456 116.616 89.0082Z" fill="#8BC53F"/>
<path d="M70.4212 108.448C79.3085 111.177 86.4489 104.443 84.475 95.157C83.2282 89.2492 76.7966 91.6055 76.4963 98.0686C76.1185 106.209 73.2225 106.521 68.8308 98.8789C67.3863 96.3409 63.9824 95.9132 62.9353 98.1325C61.5299 101.111 65.7809 107.008 70.4212 108.448Z" fill="#8BC53F"/>
<path d="M95.7564 119.295C103.075 122.927 113.271 115.241 112.413 106.768C111.961 102.128 105.41 104.963 103.674 110.535C102.788 113.473 101.884 115.01 101.912 114.952C101.593 115.551 100.804 115.785 100.232 115.409C99.6601 115.032 98.2728 113.734 97.1897 112.474C94.8174 109.784 90.728 109.068 89.736 111.17C89.0195 112.689 92.8054 117.831 95.7564 119.295Z" fill="#8BC53F"/>
<path d="M98.8374 133.423C99.423 128.701 95.5065 126.711 92.3941 130.205C91.6337 131.06 90.9515 132.809 90.5094 134.956C88.9206 142.561 88.1228 143.042 83.9544 138.861C81.7518 136.644 80.9496 136.301 79.1874 136.933C75.6632 138.198 79.8687 144.645 84.9785 145.771C92.4267 147.464 97.6507 142.824 98.8374 133.423Z" fill="#8BC53F"/>
<path d="M116.492 150.714C113.735 151.412 113.198 151.945 111.563 155.636C109.448 160.422 105.681 159.251 102.762 152.876C101.819 150.788 100.062 151.031 99.2764 153.302C96.3288 162.122 111.928 167.197 117.786 159.321C120.756 155.296 119.952 149.812 116.492 150.714Z" fill="#8BC53F"/>
<path d="M140.908 65.446C140.498 66.4664 139.884 68.6758 139.591 70.4301C138.362 77.9544 137.315 78.2815 131.133 73.2228C125.628 68.6975 121.967 70.9332 126.217 76.1515C131.775 82.9866 143.697 82.0067 146.674 74.486C150.827 64.0208 143.139 60.0365 140.908 65.446Z" fill="#8BC53F"/>
<path d="M135.907 93.8261C135.325 94.9082 134.532 96.8904 134.187 98.2271C132.37 105.331 130.933 105.653 125.783 100.224C122.571 96.8167 116.92 97.2919 120.185 103.009C126.215 113.459 144.88 106.664 142.443 93.5182C141.833 90.1957 137.806 90.3307 135.907 93.8261Z" fill="#8BC53F"/>
<path d="M127.839 118.795C127.275 119.386 125.844 121.888 124.699 124.24C121.043 131.762 118.593 132.641 114.307 127.726C112.335 125.475 111.825 125.27 110.148 125.871C106.71 127.105 109.926 133.228 114.603 134.364C124.159 136.659 136.233 126.504 133.38 118.553C132.72 116.849 129.517 116.98 127.839 118.795Z" fill="#8BC53F"/>
</g>
</svg>
