<svg width="115" height="119" viewBox="0 0 115 119" fill="none" xmlns="http://www.w3.org/2000/svg">
<g opacity="0.5">
<path d="M61.622 61.7278C62.9396 63.2465 63.4033 65.3394 62.5356 67.2564C62.1867 67.8398 61.8378 68.4186 61.4888 69.002C59.1199 69.0252 56.7555 69.0483 54.3866 69.0715C51.0902 67.5203 49.993 62.1908 50.3051 58.982C51.1774 50.05 61.2134 45.2576 68.8804 49.6564C81.7857 57.065 78.9806 75.7021 65.9559 80.8881C59.1521 83.5969 50.6128 84.1479 44.3736 79.7629C38.7817 75.8318 35.8985 69.0344 35.3798 62.3529C34.8931 56.0556 36.298 48.7257 39.3556 43.1601C44.2863 34.1726 54.8135 34.1633 63.5273 36.3488C65.7539 36.9091 67.4113 34.3624 64.6658 33.6725C56.3837 31.5981 47.0134 31.2277 39.902 36.7795C33.2633 41.9655 30.9448 52.4485 31.0229 60.5331C31.1882 78.3738 46.2743 88.6856 62.9672 84.8424C69.8904 83.2496 76.6897 79.8139 79.8346 73.0443C82.9794 66.2794 81.9418 57.8568 77.1717 52.1383C68.2652 41.4561 46.6278 43.3221 45.9575 59.7228C45.6591 66.9785 51.43 73.6138 58.8445 73.211C65.2443 72.8637 70.0281 65.7423 65.3361 60.3387C64.1929 59.0283 60.1207 60.0007 61.622 61.7278Z" fill="#299D3B"/>
<path d="M34.1304 102.073C32.6843 106.735 31.2335 111.398 29.7873 116.061C29.1079 118.251 33.3178 118.862 33.9238 116.913C35.37 112.25 36.8208 107.587 38.2669 102.925C38.9418 100.734 34.7318 100.123 34.1304 102.073Z" fill="#299D3B"/>
<path d="M59.3626 104.308C59.8676 108.753 60.9419 113.032 62.6497 117.167C63.3843 118.954 67.6172 118.375 66.7862 116.361C65.184 112.481 64.1281 108.49 63.6552 104.308C63.4211 102.271 59.1376 102.331 59.3626 104.308Z" fill="#299D3B"/>
<path d="M79.5678 95.1358C83.3232 98.4326 87.3174 101.396 91.5825 103.994C93.0562 104.892 96.8024 103.387 94.6125 102.054C90.6 99.6087 86.8078 96.8537 83.2681 93.7513C82.5014 93.0799 81.2894 92.8484 80.3345 93.2605C79.6871 93.543 78.7597 94.4274 79.5678 95.1358Z" fill="#299D3B"/>
<path d="M96.0268 75.2345C101.063 77.8506 106.251 80.0593 111.645 81.8096C113.463 82.4023 116.48 80.2908 113.808 79.4203C108.726 77.7673 103.804 75.7438 99.0568 73.2759C98.2121 72.836 96.8348 72.5952 96.0268 73.2759C95.3886 73.8176 95.0856 74.7483 96.0268 75.2345Z" fill="#299D3B"/>
<path d="M18.4246 76.2299C13.2138 78.4988 7.81479 80.2259 2.26426 81.4113C-0.527076 82.0086 1.29555 84.1756 3.40282 83.7265C9.62823 82.3976 15.6149 80.4713 21.4547 77.9293C22.3958 77.5218 22.0469 76.7115 21.4547 76.2299C20.6742 75.5909 19.2464 75.8734 18.4246 76.2299Z" fill="#299D3B"/>
<path d="M3.67868 40.2295C8.67829 40.5258 13.6779 40.8222 18.6729 41.1186C21.3357 41.276 21.3036 38.2245 18.6729 38.0671C13.6733 37.7708 8.6737 37.4745 3.67868 37.1781C1.0113 37.0207 1.04803 40.0721 3.67868 40.2295Z" fill="#299D3B"/>
<path d="M26.2199 6.27006C28.3823 9.84468 30.5492 13.4193 32.7116 16.9985C33.6527 18.5543 37.8719 17.9339 36.8481 16.2392C34.6857 12.6646 32.5188 9.08993 30.3564 5.51068C29.4106 3.95488 25.1915 4.57535 26.2199 6.27006Z" fill="#299D3B"/>
<path d="M63.306 14.9985C63.9855 10.6645 64.9312 6.39995 66.1203 2.18171C66.7309 0.0239735 62.5209 -0.527046 61.9838 1.36213C60.7167 5.84893 59.7342 10.3913 59.0134 14.9985C58.7104 16.971 62.9846 17.059 63.306 14.9985Z" fill="#299D3B"/>
<path d="M82.8962 27.1437C87.2164 24.4396 91.3667 21.5086 95.3884 18.3739C96.2194 17.7256 95.2185 16.869 94.6171 16.6236C93.653 16.23 92.4823 16.4615 91.6834 17.082C87.8867 20.0408 83.9384 22.7819 79.8616 25.3332C77.7222 26.6714 81.5189 28.0049 82.8962 27.1437Z" fill="#299D3B"/>
<path d="M93.1755 45.3226C98.5378 45.0679 103.68 43.9427 108.615 41.7896C111.191 40.6644 108.193 38.7382 106.453 39.4976C102.201 41.3544 97.8079 42.4518 93.1801 42.6694C90.5862 42.7898 90.5311 45.4476 93.1755 45.3226Z" fill="#299D3B"/>
</g>
</svg>
