<svg width="88" height="93" viewBox="0 0 88 93" fill="none" xmlns="http://www.w3.org/2000/svg">
<path fill-rule="evenodd" clip-rule="evenodd" d="M63.1915 1.4227C63.0239 1.1855 62.941 1.03781 62.8581 0.890147L62.858 0.890043C63.5113 0.442018 63.9782 0.396344 64.4545 1.02012C64.8197 1.46633 65.0651 2.02572 65.2823 2.55526C65.4327 2.93622 65.5274 3.32675 65.6215 3.71468L65.6215 3.71486L65.6215 3.71496L65.6216 3.71504L65.6216 3.7151C65.68 3.95588 65.7381 4.19565 65.8091 4.4315C66.0426 5.39791 66.0717 6.38793 65.6655 7.3372C65.008 8.91984 63.3943 9.37122 62.0261 8.4035C60.7143 7.49548 59.8762 6.3092 59.8959 4.65129C59.8445 2.43864 60.8937 1.39023 63.1915 1.4227ZM7.72963 59.9031C6.50504 58.0082 4.36034 57.7179 2.59451 59.3873C2.50472 59.4721 2.35507 59.6136 2.20372 59.8132C-0.462546 63.4078 0.585927 67.3347 2.56563 70.2682L2.62207 70.3279C3.21469 70.9548 3.82612 70.9421 4.56923 70.4092C4.71887 70.2677 4.95489 70.1577 5.15927 70.1341C6.50013 70.0536 7.33815 69.2614 7.86575 68.1408C8.63962 66.5613 8.9235 64.8232 8.74218 63.0726C8.6002 61.9631 8.34193 60.8506 7.72963 59.9031ZM36.7162 27.5474C36.6306 27.6439 36.5337 27.7531 36.4 27.8796C35.6851 28.4423 35.1943 29.302 35.0173 30.3738C34.6436 32.1968 34.6471 34.059 35.1474 35.8473C35.3064 36.3753 35.5236 36.9048 35.8306 37.3495C36.5276 38.3865 37.5777 38.2982 38.2498 37.2106C38.3163 37.1017 38.3806 36.9916 38.4448 36.8819L38.4448 36.8818L38.4449 36.8818L38.4449 36.8817L38.445 36.8816L38.445 36.8815L38.445 36.8815L38.4451 36.8814L38.4451 36.8813L38.4452 36.8813L38.4452 36.8812L38.4453 36.8811L38.4453 36.881C38.8531 36.1835 39.2536 35.4984 40.1422 35.1955C40.4663 35.0587 40.7391 34.6878 40.9238 34.3436C41.1401 33.913 41.3283 33.4525 41.43 32.9606C41.9619 30.7054 41.0545 28.9062 39.5589 27.3241C38.8251 26.548 37.7468 26.6063 36.9105 27.3404C36.8444 27.4029 36.7839 27.4712 36.7162 27.5474ZM23.7587 53.0575C23.7346 53.1025 23.7093 53.1486 23.6835 53.1956C23.5778 53.3882 23.4639 53.5956 23.3876 53.8041C23.1029 54.582 22.4863 54.7691 21.8621 54.2287C21.6346 54.048 21.4388 53.7809 21.3293 53.5452C20.5015 52.0101 19.8216 50.3916 19.5522 48.6677C19.4761 48.2875 19.4299 47.8789 19.4701 47.5017C19.4804 47.1528 19.5505 46.7474 19.6753 46.4598C19.86 46.1156 20.0747 45.7431 20.3723 45.5183C20.5035 45.422 20.634 45.3248 20.7643 45.2278L20.7643 45.2278C21.4315 44.7311 22.0948 44.2373 22.8359 43.8677C23.2797 43.6177 23.8843 43.8376 24.311 44.1691C24.6231 44.4393 24.9635 44.7394 25.1858 45.0945C26.218 46.606 26.2668 49.8951 24.9764 51.228C24.8567 51.3412 24.7872 51.5074 24.7176 51.6737C24.6828 51.7568 24.6481 51.8399 24.607 51.9164C24.3907 52.3471 24.1743 52.7777 23.9298 53.1785C23.9181 53.1661 23.8964 53.1535 23.8711 53.1387L23.871 53.1387C23.8351 53.1177 23.7918 53.0925 23.7587 53.0575ZM57.9 32.9365C56.9696 30.9331 54.8967 30.1792 53.0599 31.2938C51.8559 30.6797 50.9717 31.0633 50.7596 32.3378C50.6561 32.8879 50.7254 33.5007 50.8246 34.0853C51.1736 36.0732 52.623 37.2467 54.1042 38.3339C54.5027 38.6355 54.9978 38.6197 55.4399 38.4278C55.5579 38.3728 55.6689 38.3103 55.7798 38.2478C55.8908 38.1853 56.0017 38.1228 56.1197 38.0678C58.1293 37.016 58.8287 34.9981 57.9 32.9365ZM19.2648 74.3235C17.6844 72.6518 17.2098 69.9914 18.0538 68.0064C18.1786 67.7188 18.2171 67.3998 18.2274 67.0509C18.3898 65.4841 19.7195 64.7924 21.0613 65.6721C21.4315 65.9439 21.742 66.2722 21.9925 66.6572C23.0777 68.3447 23.5447 70.2775 23.5148 72.2843C23.5028 72.6913 23.431 73.1549 23.3027 73.5588C22.7281 75.2892 20.9383 75.794 19.5188 74.5922L19.2648 74.3235ZM48.9837 16.5501C48.1902 17.8091 48.4023 20.4915 49.6175 21.717C50.6616 22.8215 52.0837 22.9469 52.985 21.9818C53.3254 21.6224 53.6406 21.2364 53.9559 20.8505C54.1135 20.6575 54.2711 20.4645 54.4319 20.2749C54.5711 20.1433 54.6414 19.9749 54.7094 19.8122C54.7292 19.7649 54.7487 19.7182 54.7697 19.6729C55.3657 18.205 54.803 15.5713 53.6707 14.4936C52.766 13.5964 51.5149 13.592 50.6153 14.499C49.9868 15.0931 49.4712 15.8067 48.9837 16.5501ZM35.8874 46.3425C35.9698 46.403 36.0551 46.4636 36.1413 46.5248C36.4425 46.7387 36.7552 46.9607 36.9966 47.216C37.307 47.5444 37.649 47.7863 38.139 47.9449C38.5427 48.0721 38.9129 48.3439 39.2251 48.6142C40.6395 49.9904 40.6105 52.9574 39.1439 54.3438C38.1563 55.2775 36.641 55.3533 35.5002 54.5662C34.102 53.6268 33.2648 51.4222 33.7214 49.7469C33.8864 49.0821 34.2507 48.5681 35.0101 48.4721C35.6232 48.4013 35.6865 48.2284 35.6172 47.6155L35.5633 46.4793C35.7096 46.4542 35.8276 46.3991 35.8874 46.3425ZM86.2417 17.1856C86.0758 17.983 85.9209 18.7276 85.1873 19.2944C84.2124 18.8028 83.3684 18.8092 82.6766 19.5763C82.5569 19.6895 82.2944 19.7115 82.1199 19.7068C81.364 19.6866 80.9732 20.1125 80.6936 20.7161C79.9129 22.5282 80.9425 25.1162 82.7828 25.8638C84.3639 26.5171 86.0178 25.6886 86.3581 24.0102C86.4581 23.5764 86.4718 23.1112 86.4273 22.6445C86.388 22.0034 86.4615 21.4816 86.7993 20.8797C87.5347 19.6192 87.5757 18.2237 86.9454 16.8975C86.8751 16.7851 86.7808 16.6955 86.6638 16.5842L86.6637 16.5841C86.5958 16.5196 86.5203 16.4478 86.4375 16.3602C86.3556 16.6381 86.298 16.9149 86.2417 17.1855L86.2417 17.1856ZM56.6654 48.7472C56.7644 48.5971 56.8634 48.447 56.9549 48.3039C56.8985 48.2442 56.842 48.1845 56.7873 48.0667C55.4413 48.3216 54.4288 49.1091 53.7251 50.2832L53.6877 50.3417C53.4302 50.7458 53.2105 51.0907 52.6793 51.2153C52.0045 51.4009 51.6103 51.9431 51.4154 52.6362C50.9006 54.31 51.9089 56.6355 53.5165 57.3769C54.0613 57.6533 54.6411 57.7271 55.1165 57.3907C55.8878 56.8876 56.5762 56.2369 56.7216 55.2515C56.9037 54.0053 56.7651 52.7796 55.9502 51.7976C55.5585 51.2634 55.514 50.7966 55.762 50.2796C55.9467 49.9354 56.1613 49.563 56.3759 49.1905L56.3759 49.1905L56.3759 49.1905L56.376 49.1904L56.376 49.1904L56.376 49.1904C56.4675 49.0474 56.5664 48.8973 56.6654 48.7472ZM41.7064 71.0836C41.5662 71.1332 41.4338 71.183 41.305 71.2315C41.0826 71.3152 40.8708 71.3948 40.6477 71.4626C40.7362 71.9159 40.8177 72.3618 40.8992 72.8076C40.9806 73.2535 41.0621 73.6995 41.1506 74.1528C41.3011 74.9715 41.1908 75.7542 40.4195 76.2572C39.6482 76.7603 38.7742 76.795 38.0054 76.2216C37.5787 75.8901 37.1836 75.4722 36.8766 75.0275C36.2079 74.0204 35.8632 72.8764 35.8991 71.6554C35.9504 69.911 36.9347 69.0936 38.6142 69.3714C38.7587 69.4043 38.9331 69.409 39.1076 69.4137C40.5947 69.3081 41.0513 69.6113 41.7064 71.0836ZM26.2641 85.3344L26.264 85.3343L26.2639 85.334C26.2354 85.2242 26.205 85.1072 26.1674 84.9826C26.0953 84.9887 26.0208 84.9969 25.9436 85.0054C25.7398 85.0279 25.5165 85.0525 25.2636 85.0457C23.9278 84.9517 23.2762 85.3416 22.8316 86.6099C22.3202 88.1673 22.3639 89.6524 23.2832 91.0445C23.7013 91.6667 24.2093 92.204 25.02 92.3421C26.7576 92.6215 28.6466 90.7227 28.0283 88.9895C27.8393 88.4898 27.6221 87.9602 27.3749 87.459C27.2306 87.1806 27.0621 86.9096 26.8906 86.6339C26.735 86.3836 26.577 86.1295 26.4325 85.8626C26.3619 85.7104 26.3161 85.5346 26.2641 85.3344ZM64.6963 14.5854C65.6122 14.1154 66.7068 14.4938 67.0899 15.3188C67.3918 15.9379 67.7236 16.5287 68.1152 17.0629C68.9815 18.279 69.2047 19.5943 68.8148 20.9804C68.4565 22.2801 67.1918 22.7409 65.9578 22.155C65.2121 21.7859 64.7059 21.1904 64.3775 20.4833C63.6677 18.8931 63.7155 17.265 64.5741 15.7751C64.8486 15.346 64.9751 15.0002 64.6963 14.5854ZM73.7611 35.8054C73.2472 34.4823 72.3091 33.7298 70.7091 33.716C70.58 33.1598 70.2713 32.7732 69.7479 32.7592C69.1083 32.7421 68.7192 33.1099 68.4131 33.6254C68.3216 33.7684 68.2583 33.9413 68.2249 34.0859C67.7119 35.7015 68.3781 37.7851 69.6864 38.8094C70.6528 39.5918 71.844 39.6528 72.6769 39.0351C73.7176 38.2774 74.1656 36.8928 73.7611 35.8054Z" fill="#F1554C"/>
</svg>
