<svg width="56" height="56" viewBox="0 0 56 56" fill="none" xmlns="http://www.w3.org/2000/svg">
<g clip-path="url(#clip0_1341_10374)">
<path d="M27.9988 21.8735C25.0675 21.8735 22.6826 24.2554 22.6826 27.1834C22.6826 30.1113 25.0675 32.4932 27.9988 32.4932C30.9302 32.4932 33.3151 30.1113 33.3151 27.1834C33.3151 24.2554 30.9302 21.8735 27.9988 21.8735ZM27.9988 30.8542C25.972 30.8542 24.3232 29.2072 24.3232 27.1834C24.3232 25.1591 25.972 23.512 27.9988 23.512C30.0257 23.512 31.6744 25.1591 31.6744 27.1834C31.6744 29.2072 30.0257 30.8542 27.9988 30.8542Z" fill="#5C8AFF"/>
<path d="M37.676 19.8913L35.3001 17.5184C35.0113 17.23 34.5537 17.1975 34.2273 17.4427L32.4376 18.786C31.9159 18.5104 31.3699 18.2849 30.8059 18.111L30.4915 15.8974C30.4342 15.4932 30.0877 15.1929 29.6793 15.1929H26.3194C25.9105 15.1929 25.5645 15.4932 25.5068 15.8974L25.1923 18.111C24.6284 18.2849 24.0828 18.5104 23.5611 18.786L21.7714 17.4427C21.4445 17.1975 20.9874 17.23 20.6981 17.5184L18.3226 19.8913C18.0338 20.1801 18.0013 20.6368 18.2466 20.9628L19.5916 22.7509C19.316 23.2717 19.0895 23.8168 18.9156 24.3799L16.6991 24.6944C16.2945 24.7516 15.9941 25.0977 15.9941 25.5057V28.8613C15.9941 29.2693 16.2945 29.6154 16.6991 29.6727L18.9156 29.9871C19.0895 30.5502 19.3156 31.0954 19.5916 31.6162L18.2466 33.4042C18.0013 33.7302 18.0338 34.187 18.3226 34.4758L20.6981 36.8487C20.9874 37.1371 21.4445 37.1691 21.7714 36.9243L23.5611 35.5811C24.0828 35.8562 24.6284 36.0822 25.1923 36.2561L25.5068 38.4697C25.5645 38.8738 25.9105 39.1738 26.3194 39.1738H29.6793C30.0877 39.1738 30.4338 38.8738 30.4915 38.4697L30.8059 36.2561C31.3699 36.0822 31.9159 35.8562 32.4376 35.5811L34.2273 36.9243C34.5537 37.1696 35.0113 37.1371 35.3001 36.8487L37.676 34.4758C37.9648 34.187 37.9969 33.7302 37.7516 33.4042L36.4067 31.6162C36.6827 31.0954 36.9087 30.5502 37.0826 29.9871L39.2991 29.6727C39.7037 29.6154 40.0045 29.2693 40.0045 28.8613V25.5057C40.0045 25.0977 39.7037 24.7516 39.2991 24.6944L37.0826 24.3799C36.9087 23.8168 36.6827 23.2717 36.4067 22.7509L37.7516 20.9628C37.9969 20.6368 37.9648 20.1801 37.676 19.8913ZM38.3639 26.2167V28.15L36.3204 28.4401C35.9884 28.4871 35.7184 28.731 35.6385 29.0566C35.4488 29.8325 35.142 30.572 34.7272 31.2543C34.5529 31.5406 34.5708 31.9037 34.7725 32.1716L36.0123 33.8199L34.6434 35.1867L32.9934 33.9485C32.7251 33.7473 32.3615 33.7289 32.0748 33.9033C31.3917 34.3173 30.6512 34.6236 29.8741 34.8137C29.5485 34.8932 29.3041 35.1628 29.2567 35.4943L28.967 37.5353H27.0312L26.7411 35.4943C26.6941 35.1628 26.4493 34.8932 26.1237 34.8137C25.3466 34.6236 24.6066 34.3173 23.9234 33.9033C23.6367 33.7289 23.2731 33.7473 23.0048 33.9485L21.3548 35.1867L19.9859 33.8195L21.2258 32.1716C21.427 31.9037 21.4449 31.5406 21.2711 31.2543C20.8562 30.572 20.5494 29.8325 20.3593 29.0562C20.2798 28.731 20.0098 28.4866 19.6779 28.4396L17.6343 28.15V26.2167L19.6779 25.927C20.0098 25.88 20.2798 25.6356 20.3593 25.3105C20.5494 24.5342 20.8562 23.795 21.2711 23.1127C21.4449 22.8261 21.427 22.4629 21.2258 22.1954L19.9859 20.5471L21.3548 19.1799L23.0048 20.4185C23.2731 20.6193 23.6367 20.6377 23.9234 20.4638C24.6066 20.0494 25.3466 19.743 26.1237 19.5533C26.4493 19.4735 26.6937 19.2043 26.7411 18.8723L27.0312 16.8314H28.967L29.2567 18.8723C29.3041 19.2039 29.5485 19.4735 29.8741 19.5533C30.6512 19.743 31.3917 20.0494 32.0748 20.4638C32.3615 20.6377 32.7251 20.6193 32.9934 20.4185L34.6434 19.1799L36.0123 20.5471L34.7725 22.1954C34.5708 22.4629 34.5529 22.8265 34.7272 23.1127C35.142 23.795 35.4484 24.5342 35.6385 25.3101C35.718 25.6356 35.988 25.88 36.3199 25.927L38.3639 26.2167Z" fill="#5C8AFF"/>
<path d="M27.999 6.44373C28.4523 6.44373 28.8193 6.07715 28.8193 5.62469V0.819458C28.8193 0.366577 28.4523 0 27.999 0C27.5461 0 27.1787 0.366577 27.1787 0.819458V5.62469C27.1787 6.07715 27.5461 6.44373 27.999 6.44373Z" fill="#5C8AFF"/>
<path d="M52.5524 24.5234H47.7412C47.2879 24.5234 46.9209 24.89 46.9209 25.3425C46.9209 25.7953 47.2879 26.1619 47.7412 26.1619H52.5524C53.0053 26.1619 53.3727 25.7953 53.3727 25.3425C53.3727 24.89 53.0053 24.5234 52.5524 24.5234Z" fill="#5C8AFF"/>
<path d="M8.25653 24.5234H3.44531C2.99243 24.5234 2.625 24.89 2.625 25.3425C2.625 25.7953 2.99243 26.1619 3.44531 26.1619H8.25653C8.70941 26.1619 9.07684 25.7953 9.07684 25.3425C9.07684 24.89 8.70984 24.5234 8.25653 24.5234Z" fill="#5C8AFF"/>
<path d="M13.4586 11.9789C13.7747 12.2946 14.3028 12.2946 14.6185 11.9789C14.939 11.6589 14.939 11.1402 14.6185 10.8202L11.2168 7.4223C10.8964 7.10272 10.3768 7.10272 10.0564 7.4223C9.7364 7.74231 9.7364 8.26099 10.0564 8.58142L13.4586 11.9789Z" fill="#5C8AFF"/>
<path d="M9.91597 17.387L8.25356 16.7363C7.83144 16.5714 7.35591 16.779 7.19057 17.2003C7.02522 17.6216 7.23329 18.0971 7.65499 18.262L9.31783 18.9127C9.73439 19.0755 10.2176 18.8644 10.3808 18.4487C10.5462 18.027 10.3381 17.5519 9.91597 17.387Z" fill="#5C8AFF"/>
<path d="M20.0328 7.28231C20.196 7.69802 20.6792 7.90908 21.0958 7.7463C21.5175 7.58138 21.7255 7.10586 21.5606 6.6846L20.8898 4.97561C20.7249 4.55392 20.249 4.34628 19.8269 4.51119C19.4052 4.67654 19.1971 5.15164 19.3624 5.5729L20.0328 7.28231Z" fill="#5C8AFF"/>
<path d="M34.9011 7.74662C35.3176 7.9094 35.8009 7.69834 35.9641 7.28263L36.6348 5.57365C36.7998 5.15195 36.5921 4.67686 36.17 4.51151C35.7483 4.34702 35.2724 4.55424 35.107 4.9755L34.4367 6.68491C34.2713 7.10618 34.4794 7.58128 34.9011 7.74662Z" fill="#5C8AFF"/>
<path d="M41.9582 12.219C42.168 12.219 42.3782 12.1391 42.5384 11.9789L45.9402 8.58142C46.2606 8.26099 46.2606 7.74231 45.9402 7.4223C45.6197 7.10272 45.1006 7.10272 44.7802 7.4223L41.378 10.8202C41.0576 11.1402 41.0576 11.6589 41.378 11.9789C41.5382 12.1391 41.7484 12.219 41.9582 12.219Z" fill="#5C8AFF"/>
<path d="M48.8066 17.2003C48.6413 16.7786 48.1653 16.5714 47.7436 16.7364L46.0808 17.387C45.6591 17.552 45.451 18.0271 45.6164 18.4488C45.7796 18.8645 46.2628 19.0755 46.6793 18.9127L48.3422 18.262C48.7639 18.0971 48.9719 17.6216 48.8066 17.2003Z" fill="#5C8AFF"/>
<path d="M28.1491 8.43862C24.7316 8.40957 21.3965 9.38283 18.5109 11.252C18.1306 11.4986 18.0225 12.0057 18.269 12.3855C18.5151 12.7649 19.0236 12.873 19.4034 12.6269C21.9818 10.9572 24.952 10.0767 28.0034 10.0767C28.0474 10.0767 28.0919 10.0767 28.1359 10.0771C32.3596 10.1126 36.3249 11.7818 39.3015 14.7785C42.2798 17.7765 43.92 21.7537 43.92 25.9775C43.92 31.1429 41.392 36.0054 37.1572 38.985C35.7601 39.9677 34.8466 41.4733 34.6172 43.1195H31.811C31.3577 43.1195 30.9907 43.4865 30.9907 43.9389C30.9907 44.3914 31.3577 44.7584 31.811 44.7584H34.5604V48.9599C34.5604 49.9981 33.7144 50.8428 32.6749 50.8428H23.3242C22.2847 50.8428 21.4388 49.9981 21.4388 48.9599V44.7584H28.5298C28.9831 44.7584 29.3501 44.3914 29.3501 43.9389C29.3501 43.4865 28.9831 43.1195 28.5298 43.1195H21.3807C21.1542 41.4711 20.254 39.9737 18.8736 39.0072C14.6191 36.0293 12.0791 31.1587 12.0791 25.9779C12.0791 21.6632 13.8103 17.6133 16.9544 14.5743C17.28 14.2594 17.2885 13.7407 16.9732 13.4156C16.6583 13.0905 16.1392 13.0819 15.8132 13.3968C12.3474 16.7473 10.4385 21.2154 10.4385 25.9779C10.4385 31.6923 13.2399 37.065 17.9319 40.3492C19.1005 41.167 19.7982 42.5089 19.7982 43.9389V48.9599C19.7982 50.6629 21.015 52.0874 22.6257 52.4116C23.5169 54.5786 25.613 56.0001 27.9996 56.0001C30.3862 56.0001 32.4822 54.5786 33.373 52.4116C34.9838 52.0874 36.2006 50.6629 36.2006 48.9599V43.9411C36.2006 43.9402 36.201 43.9398 36.201 43.9389C36.201 42.5132 36.9115 41.1623 38.1022 40.3244C42.772 37.0385 45.5602 31.6753 45.5602 25.9779C45.5602 21.3188 43.7513 16.9318 40.4662 13.6245C37.1828 10.3194 32.8087 8.4775 28.1491 8.43862ZM27.9996 54.3616C26.5568 54.3616 25.2618 53.6383 24.5068 52.4813H31.4923C30.7374 53.6383 29.4424 54.3616 27.9996 54.3616Z" fill="#5C8AFF"/>
</g>
<defs>
<clipPath id="clip0_1341_10374">
<rect width="56" height="56" fill="white"/>
</clipPath>
</defs>
</svg>
