<svg width="125" height="200" viewBox="0 0 125 200" fill="none" xmlns="http://www.w3.org/2000/svg">
<path d="M122.875 104.479C99.3811 108.574 74.7416 102.297 56.2665 87.2367C37.7542 72.1489 27.1385 48.3801 27.1758 24.713C27.1851 15.6715 27.7624 1.41576 40.2033 2.25705C51.6012 3.02438 55.5774 15.9581 58.4176 24.9719C65.7834 48.3247 67.3013 73.3046 63.6044 97.4524C59.414 124.799 48.2489 150.768 31.1241 172.595C29.2244 175.018 25.8349 171.615 27.7252 169.221C54.4134 135.375 65.8579 90.3153 59.1905 47.8902C57.6354 37.9888 55.2143 28.0505 51.5733 18.6854C49.5339 13.4342 46.1909 6.67616 39.6073 6.43579C31.8691 6.15844 31.6735 15.4404 31.3569 21.126C30.1649 42.6483 38.3595 64.3924 53.5288 79.8038C71.1192 97.6743 97.407 105.875 122.158 101.927C123.834 101.668 124.57 104.183 122.875 104.479Z" fill="#FD8363"/>
<path d="M124.215 105.144C98.9232 111.579 71.1268 105.634 51.2177 88.679C32.333 72.5928 19.9759 45.7084 23.4214 20.7933C24.1291 15.6623 25.7028 10.4389 28.9527 6.28793C31.4111 3.15389 35.8715 -0.7105 40.2389 0.112302C45.2394 1.04604 49.495 7.79488 52.1396 11.687C55.5664 16.7255 58.1645 22.291 60.0828 28.0506C68.417 53.1137 64.8878 81.6159 58.807 106.762C51.3388 137.631 37.2404 167.594 17.0706 192.315C15.6365 194.072 12.517 191.714 13.8859 189.874C29.0552 169.545 41.3563 147.727 49.5881 123.717C57.3916 100.938 62.4294 76.0781 60.9767 51.9395C60.2969 40.6977 57.9782 29.2986 52.7449 19.2216C50.3983 14.7008 47.3905 9.53292 43.4608 6.18625C35.5363 -0.544084 29.5021 9.67161 27.6211 16.254C21.2796 38.3495 32.4075 65.0397 47.5674 81.0889C66.7502 101.391 96.5393 109.563 123.637 103.027C125.006 102.694 125.593 104.793 124.215 105.144Z" fill="#FD8363"/>
<path d="M28.8866 191.585C24.5006 186.01 19.5559 181.23 14.304 176.479C15.3935 176.34 16.483 176.201 17.5725 176.063C13.2517 183.699 8.72607 191.234 4.20043 198.768C3.53928 197.631 2.88745 196.494 2.22629 195.357C11.5849 194.654 20.7293 192.888 29.6967 190.133C29.3615 191.381 29.0356 192.63 28.7003 193.878C25.497 190.965 22.1819 188.192 18.7086 185.594C19.7888 184.771 20.8596 183.949 21.9398 183.135C22.4799 185.945 23.169 188.691 24.0164 191.437C24.6124 193.369 21.8188 195.181 20.4406 193.508C17.8053 190.3 16.1571 186.916 15.3842 182.83C15.0396 181.009 17.3397 179.197 18.8017 180.851C21.1669 183.533 32.8069 193.452 23.5601 194.932C15.2259 196.263 12.7209 187.184 13.8756 180.907C14.2947 178.651 17.7401 179.271 17.7867 181.434C17.8146 182.747 17.8426 184.069 17.8705 185.381C16.5296 185.381 15.1886 185.381 13.8477 185.381C14.2202 182.534 14.5181 179.696 14.7044 176.83C14.8627 174.352 18.3081 174.408 18.5502 176.83C19.2207 183.579 15.6729 189.126 11.8456 194.386C10.7096 193.517 9.57346 192.648 8.44671 191.779C11.1844 189.32 13.9222 186.861 16.6599 184.402C18.783 182.497 21.4556 185.317 19.7422 187.462C17.4328 190.346 14.9093 192.833 12.0039 195.107C11.2962 193.905 10.5885 192.703 9.89009 191.502C11.7525 191.206 13.2983 190.679 14.9279 189.736C15.2911 191.076 15.6542 192.417 16.0267 193.757C12.9724 193.702 10.3371 194.192 7.52483 195.264C5.47619 196.05 3.89314 193.064 5.42031 191.668C7.03128 190.189 8.65159 188.728 10.2719 187.258C11.259 188.238 12.246 189.218 13.2424 190.207C11.0727 192.01 9.052 193.924 7.1151 195.967C5.27132 197.908 2.36597 194.996 4.1725 193.046C8.53983 188.349 11.9667 183.135 14.6113 177.311C15.589 175.166 19.3138 176.691 18.4758 178.928C17.1721 182.414 15.5145 185.585 13.2796 188.58C12.1622 187.72 11.0448 186.87 9.92735 186.01C12.4509 182.913 15.1886 177.643 19.4628 176.95C21.1949 176.673 22.6196 177.93 22.2471 179.714C21.6884 182.358 20.2544 184.189 17.917 185.529C15.3749 186.99 13.0748 183.079 15.617 181.628C16.9858 180.999 17.7401 179.964 17.8891 178.522C18.6154 179.465 19.3418 180.417 20.0681 181.36C17.7215 181.526 14.276 187.388 12.9444 189.005C11.4266 190.845 8.13942 188.377 9.5921 186.435C11.6128 183.745 13.2052 180.962 14.3878 177.81C15.6728 178.346 16.9672 178.892 18.2523 179.428C15.44 185.557 11.7152 191.03 7.09649 195.958C6.11872 194.987 5.13165 194.007 4.15388 193.036C6.1001 191.002 8.13943 189.098 10.2626 187.249C12.274 185.492 15.1979 188.321 13.2331 190.198C11.6501 191.705 10.067 193.203 8.47464 194.7C7.77624 193.499 7.06855 192.306 6.37015 191.104C9.55486 189.884 12.6278 189.366 16.0267 189.431C18.1685 189.468 18.9972 192.352 17.1255 193.452C15.1421 194.608 13.3169 195.301 11.0541 195.662C9.19169 195.958 7.03128 193.554 8.94024 192.056C11.8456 189.773 14.3692 187.277 16.6786 184.402C17.7029 185.418 18.7272 186.435 19.7608 187.462C17.0231 189.911 14.276 192.371 11.5383 194.821C9.82489 196.355 6.56569 194.257 8.13943 192.213C11.6594 187.637 15.1793 182.867 14.7416 176.821C16.0267 176.821 17.3024 176.821 18.5875 176.821C18.4292 179.677 18.215 182.525 17.917 185.372C17.647 187.868 13.9315 187.998 13.8942 185.372C13.8756 184.059 13.8663 182.737 13.8477 181.425C15.1514 181.6 16.455 181.776 17.7587 181.952C17.349 184.032 17.3304 186.075 18.4944 187.933C18.811 188.442 22.275 192.371 23.318 190.642C23.318 191.372 23.318 192.093 23.318 192.824C21.8746 189.597 18.215 186.426 15.9429 183.727C17.079 183.07 18.2243 182.405 19.3604 181.748C19.9936 185.058 21.3066 187.905 23.4949 190.503C22.303 191.197 21.1111 191.881 19.9191 192.574C19.0345 189.847 18.3174 187.11 17.7308 184.309C17.3862 182.645 19.2766 180.62 20.9621 181.85C24.78 184.623 28.4303 187.573 31.9316 190.734C33.2353 191.918 32.481 193.998 30.9352 194.479C21.586 197.372 12.0225 199.166 2.26355 199.924C0.503578 200.063 -0.539364 197.908 0.289406 196.512C4.79642 188.978 9.31274 181.434 14.0153 174.019C14.7416 172.864 16.2781 172.679 17.2838 173.603C22.5172 178.448 27.0987 184.078 31.3636 189.764C32.36 191.104 29.9668 192.962 28.8866 191.585Z" fill="#FD8363"/>
</svg>
