<svg width="56" height="56" viewBox="0 0 56 56" fill="none" xmlns="http://www.w3.org/2000/svg">
<path d="M32.2334 1.86667H40.134V1.04528e-08H31.734C31.5804 -2.2978e-05 31.4292 0.0378727 31.2937 0.110325C31.1582 0.182777 31.0427 0.287545 30.9575 0.415333L29.0908 3.21533L30.6439 4.25133L32.2334 1.86667Z" fill="#5C8AFF"/>
<path d="M23.7679 54.1332H15.8672V55.9999H24.2672C24.4208 55.9999 24.5721 55.962 24.7075 55.8895C24.843 55.8171 24.9585 55.7123 25.0437 55.5845L26.9104 52.7845L25.3573 51.7485L23.7679 54.1332Z" fill="#5C8AFF"/>
<path d="M38.2667 20.5333C35.0189 20.5291 31.8338 21.4274 29.0668 23.128L28.5824 22.4495C28.7867 22.0218 28.9677 21.5834 29.1247 21.1363L32.8207 20.5203C33.0384 20.4838 33.2362 20.3714 33.3789 20.2029C33.5216 20.0344 33.5999 19.8208 33.6 19.6V14C33.5999 13.7792 33.5216 13.5656 33.3789 13.3971C33.2362 13.2286 33.0384 13.1162 32.8207 13.0797L29.1247 12.4637C28.9677 12.0166 28.7867 11.5782 28.5824 11.1505L30.7589 8.1032C30.8872 7.9234 30.9476 7.70394 30.9293 7.48383C30.911 7.26372 30.8153 7.05723 30.6591 6.90107L26.6989 2.94093C26.5428 2.78474 26.3363 2.68899 26.1162 2.6707C25.8961 2.65242 25.6766 2.71278 25.4968 2.84107L22.4495 5.0176C22.0217 4.81491 21.5833 4.63545 21.1363 4.48L20.5203 0.784C20.4848 0.565382 20.3728 0.366489 20.2042 0.222865C20.0356 0.0792416 19.8215 0.000247408 19.6 0H14C13.7792 6.48181e-05 13.5656 0.0783997 13.3971 0.221086C13.2286 0.363772 13.1162 0.56157 13.0797 0.779333L12.4637 4.47533C12.0166 4.63231 11.5782 4.81333 11.1505 5.0176L8.1032 2.84107C7.9234 2.71278 7.70394 2.65242 7.48383 2.6707C7.26372 2.68899 7.05723 2.78474 6.90107 2.94093L2.94093 6.90107C2.78474 7.05723 2.68899 7.26372 2.6707 7.48383C2.65242 7.70394 2.71278 7.9234 2.84107 8.1032L5.02787 11.1645C4.82523 11.5862 4.64668 12.019 4.49307 12.4609L0.779333 13.0797C0.56157 13.1162 0.363772 13.2286 0.221086 13.3971C0.0783997 13.5656 6.48181e-05 13.7792 0 14V19.6C6.48181e-05 19.8208 0.0783997 20.0344 0.221086 20.2029C0.363772 20.3714 0.56157 20.4838 0.779333 20.5203L4.49213 21.1391C4.64503 21.5832 4.82041 22.0194 5.0176 22.4457L2.84107 25.4968C2.71278 25.6766 2.65242 25.8961 2.6707 26.1162C2.68899 26.3363 2.78474 26.5428 2.94093 26.6989L6.90107 30.6591C7.05723 30.8153 7.26372 30.911 7.48383 30.9293C7.70394 30.9476 7.9234 30.8872 8.1032 30.7589L11.1505 28.5824C11.5782 28.7867 12.0166 28.9677 12.4637 29.1247L13.0797 32.8207C13.1162 33.0384 13.2286 33.2362 13.3971 33.3789C13.5656 33.5216 13.7792 33.5999 14 33.6H19.6C19.8208 33.5999 20.0344 33.5216 20.2029 33.3789C20.3714 33.2362 20.4838 33.0384 20.5203 32.8207L21.1363 29.1247C21.5834 28.9677 22.0218 28.7867 22.4495 28.5824L23.128 29.0668C21.4274 31.8338 20.5291 35.0189 20.5333 38.2667C20.5333 41.774 21.5734 45.2025 23.5219 48.1188C25.4705 51.035 28.2401 53.3079 31.4804 54.6501C34.7207 55.9923 38.2863 56.3435 41.7263 55.6592C45.1662 54.975 48.326 53.2861 50.806 50.806C53.2861 48.326 54.975 45.1662 55.6592 41.7263C56.3435 38.2863 55.9923 34.7207 54.6501 31.4804C53.3079 28.2401 51.035 25.4705 48.1188 23.5219C45.2025 21.5734 41.774 20.5333 38.2667 20.5333ZM22.0901 26.6719C21.4355 27.0219 20.7477 27.3058 20.0368 27.5193C19.8696 27.5693 19.7197 27.6651 19.6043 27.7959C19.4888 27.9268 19.4123 28.0874 19.3835 28.2595L18.8095 31.7333H14.7905L14.2119 28.2595C14.183 28.0874 14.1066 27.9268 13.9911 27.7959C13.8756 27.6651 13.7257 27.5693 13.5585 27.5193C12.8476 27.3058 12.1598 27.0219 11.5052 26.6719C11.3517 26.5894 11.1783 26.5516 11.0044 26.5627C10.8306 26.5737 10.6633 26.6332 10.5215 26.7344L7.65613 28.7803L4.81973 25.9392L6.8656 23.0739C6.96679 22.9321 7.02627 22.7648 7.03732 22.5909C7.04838 22.4171 7.01055 22.2436 6.92813 22.0901C6.5787 21.4189 6.29038 20.7177 6.06667 19.9948C6.01076 19.8383 5.91406 19.6995 5.78657 19.5928C5.65908 19.4862 5.50542 19.4155 5.34147 19.3881L1.86667 18.8095V14.7905L5.34053 14.2119C5.50448 14.1845 5.65814 14.1138 5.78564 14.0072C5.91313 13.9005 6.00983 13.7617 6.06573 13.6052C6.30607 12.8718 6.60154 12.1576 6.9496 11.4688C7.0209 11.3184 7.05071 11.1518 7.03594 10.986C7.02117 10.8203 6.96236 10.6615 6.8656 10.5261L4.81973 7.6608L7.6608 4.81973L10.5261 6.8656C10.6679 6.96679 10.8352 7.02627 11.0091 7.03732C11.1829 7.04838 11.3564 7.01055 11.5099 6.92813C12.1644 6.57811 12.8523 6.29422 13.5632 6.08067C13.7304 6.03071 13.8802 5.93488 13.9957 5.80405C14.1112 5.67323 14.1877 5.51264 14.2165 5.34053L14.7905 1.86667H18.8095L19.3881 5.34053C19.417 5.51264 19.4934 5.67323 19.6089 5.80405C19.7244 5.93488 19.8743 6.03071 20.0415 6.08067C20.7524 6.29422 21.4402 6.57811 22.0948 6.92813C22.2483 7.01055 22.4217 7.04838 22.5956 7.03732C22.7694 7.02627 22.9367 6.96679 23.0785 6.8656L25.9439 4.81973L28.7849 7.6608L26.7391 10.5261C26.6379 10.6679 26.5784 10.8352 26.5673 11.0091C26.5563 11.1829 26.5941 11.3564 26.6765 11.5099C27.0266 12.1644 27.3104 12.8523 27.524 13.5632C27.5739 13.7304 27.6698 13.8802 27.8006 13.9957C27.9314 14.1112 28.092 14.1877 28.2641 14.2165L31.738 14.7952V18.8141L28.2641 19.3928C28.092 19.4216 27.9314 19.4981 27.8006 19.6136C27.6698 19.7291 27.5739 19.8789 27.524 20.0461C27.3104 20.757 27.0266 21.4449 26.6765 22.0995C26.5941 22.2529 26.5563 22.4264 26.5673 22.6003C26.5784 22.7741 26.6379 22.9414 26.7391 23.0832L28.7849 25.9485L25.9439 28.7896L23.0785 26.7437C22.9371 26.6402 22.7695 26.5785 22.5947 26.5658C22.4199 26.5531 22.245 26.5898 22.0901 26.6719ZM39.2 54.0857V51.3333H37.3333V54.0857C33.461 53.8541 29.8079 52.2114 27.0649 49.4684C24.3219 46.7254 22.6792 43.0723 22.4476 39.2H25.2V37.3333H22.4345C22.5777 34.7956 23.3376 32.331 24.6484 30.1532L25.4968 30.7589C25.6766 30.8872 25.8961 30.9476 26.1162 30.9293C26.3363 30.911 26.5428 30.8153 26.6989 30.6591L30.6591 26.6989C30.8153 26.5428 30.911 26.3363 30.9293 26.1162C30.9476 25.8961 30.8872 25.6766 30.7589 25.4968L30.1532 24.6484C32.331 23.3376 34.7956 22.5777 37.3333 22.4345V25.2H39.2V22.4476C43.0723 22.6792 46.7254 24.3219 49.4684 27.0649C52.2114 29.8079 53.8541 33.461 54.0857 37.3333H51.3333V39.2H54.0857C53.8541 43.0723 52.2114 46.7254 49.4684 49.4684C46.7254 52.2114 43.0723 53.8541 39.2 54.0857Z" fill="#5C8AFF"/>
<path d="M39.1997 27.0664H37.333V38.2664C37.333 38.5139 37.4313 38.7513 37.6064 38.9264C37.7814 39.1014 38.0188 39.1997 38.2663 39.1997H45.733V37.3331H39.1997V27.0664Z" fill="#5C8AFF"/>
<path d="M21.4656 13.9996H17.7323V8.39956C17.7322 8.18647 17.6591 7.97983 17.5253 7.814C17.3915 7.64817 17.2049 7.53312 16.9967 7.48798C16.7884 7.44284 16.571 7.47032 16.3805 7.56586C16.19 7.6614 16.038 7.81925 15.9496 8.01316L11.283 18.2798C11.2183 18.422 11.1904 18.5781 11.2017 18.7338C11.213 18.8896 11.2632 19.04 11.3477 19.1713C11.4322 19.3026 11.5483 19.4107 11.6854 19.4855C11.8225 19.5603 11.9761 19.5995 12.1323 19.5996H15.8656V25.1996C15.8655 25.4128 15.9384 25.6197 16.0722 25.7858C16.206 25.9519 16.3927 26.0671 16.6011 26.1124C16.6662 26.1261 16.7325 26.1329 16.799 26.1329C16.9781 26.1328 17.1534 26.0812 17.304 25.9843C17.4546 25.8873 17.5741 25.749 17.6483 25.586L22.315 15.3193C22.3796 15.1771 22.4076 15.021 22.3962 14.8653C22.3849 14.7095 22.3347 14.5591 22.2502 14.4278C22.1657 14.2965 22.0496 14.1885 21.9125 14.1136C21.7754 14.0388 21.6218 13.9996 21.4656 13.9996ZM17.7323 20.8904V18.6662C17.7323 18.4187 17.634 18.1813 17.4589 18.0063C17.2839 17.8312 17.0465 17.7329 16.799 17.7329H13.5818L15.8656 12.7088V14.9329C15.8656 15.1804 15.964 15.4178 16.139 15.5929C16.314 15.7679 16.5514 15.8662 16.799 15.8662H20.0162L17.7323 20.8904Z" fill="#5C8AFF"/>
<path d="M17.7339 3.7334H15.8672V5.60006H17.7339V3.7334Z" fill="#5C8AFF"/>
<path d="M8.2213 6.90126L6.90137 8.22119L8.2213 9.54112L9.54123 8.22119L8.2213 6.90126Z" fill="#5C8AFF"/>
<path d="M5.60006 15.8667H3.7334V17.7334H5.60006V15.8667Z" fill="#5C8AFF"/>
<path d="M8.22032 24.059L6.90039 25.3789L8.22032 26.6988L9.54026 25.3789L8.22032 24.059Z" fill="#5C8AFF"/>
<path d="M17.7339 28H15.8672V29.8667H17.7339V28Z" fill="#5C8AFF"/>
<path d="M25.3795 24.0595L24.0596 25.3794L25.3795 26.6993L26.6994 25.3794L25.3795 24.0595Z" fill="#5C8AFF"/>
<path d="M29.8667 15.8667H28V17.7334H29.8667V15.8667Z" fill="#5C8AFF"/>
<path d="M25.3795 6.90175L24.0596 8.22168L25.3795 9.54161L26.6994 8.22168L25.3795 6.90175Z" fill="#5C8AFF"/>
<path d="M47.6005 4.66699C46.8621 4.66699 46.1403 4.88595 45.5264 5.29617C44.9124 5.7064 44.4339 6.28946 44.1514 6.97164C43.8688 7.65382 43.7949 8.40447 43.9389 9.12866C44.083 9.85286 44.4385 10.5181 44.9607 11.0402C45.4828 11.5623 46.148 11.9179 46.8722 12.0619C47.5964 12.206 48.347 12.132 49.0292 11.8495C49.7114 11.5669 50.2945 11.0884 50.7047 10.4745C51.1149 9.86051 51.3339 9.13871 51.3339 8.40032C51.3339 7.41018 50.9405 6.4606 50.2404 5.76046C49.5403 5.06032 48.5907 4.66699 47.6005 4.66699ZM47.6005 10.267C47.2313 10.267 46.8704 10.1575 46.5635 9.9524C46.2565 9.74729 46.0172 9.45576 45.8759 9.11467C45.7347 8.77358 45.6977 8.39825 45.7697 8.03616C45.8417 7.67406 46.0195 7.34145 46.2806 7.08039C46.5416 6.81933 46.8743 6.64155 47.2364 6.56953C47.5984 6.4975 47.9738 6.53447 48.3149 6.67575C48.656 6.81703 48.9475 7.05629 49.1526 7.36326C49.3577 7.67023 49.4672 8.03113 49.4672 8.40032C49.4672 8.8954 49.2705 9.37019 48.9205 9.72026C48.5704 10.0703 48.0956 10.267 47.6005 10.267Z" fill="#5C8AFF"/>
<path d="M55.2937 5.628L54.6693 5.47213L55.0006 4.92053C55.1077 4.74195 55.152 4.53267 55.1265 4.326C55.1009 4.11933 55.007 3.92714 54.8597 3.78L52.2202 1.14053C52.0731 0.993172 51.8809 0.899252 51.6742 0.873714C51.4675 0.848176 51.2582 0.892488 51.0797 0.9996L50.5281 1.33093L50.3722 0.706533C50.3216 0.504703 50.2051 0.325555 50.0411 0.197545C49.877 0.0695353 49.6749 5.46974e-06 49.4669 0H45.7335C45.5255 5.46974e-06 45.3234 0.0695353 45.1593 0.197545C44.9953 0.325555 44.8788 0.504703 44.8282 0.706533L44.6723 1.33093L44.1207 0.9996C43.9421 0.892488 43.7329 0.848176 43.5262 0.873714C43.3195 0.899252 43.1273 0.993172 42.9802 1.14053L40.3407 3.78C40.1934 3.92714 40.0994 4.11933 40.0739 4.326C40.0484 4.53267 40.0927 4.74195 40.1998 4.92053L40.5311 5.47213L39.9067 5.628C39.7049 5.67856 39.5257 5.79511 39.3977 5.95914C39.2697 6.12317 39.2002 6.32526 39.2002 6.53333V10.2667C39.2002 10.4747 39.2697 10.6768 39.3977 10.8409C39.5257 11.0049 39.7049 11.1214 39.9067 11.172L40.5311 11.3279L40.1998 11.8795C40.0927 12.058 40.0484 12.2673 40.0739 12.474C40.0994 12.6807 40.1934 12.8729 40.3407 13.02L42.9802 15.6595C43.1273 15.8068 43.3195 15.9007 43.5262 15.9263C43.7329 15.9518 43.9421 15.9075 44.1207 15.8004L44.6723 15.4691L44.8282 16.0935C44.8788 16.2953 44.9953 16.4744 45.1593 16.6025C45.3234 16.7305 45.5255 16.8 45.7335 16.8H49.4669C49.6749 16.8 49.877 16.7305 50.0411 16.6025C50.2051 16.4744 50.3216 16.2953 50.3722 16.0935L50.5281 15.4691L51.0797 15.8004C51.2582 15.9075 51.4675 15.9518 51.6742 15.9263C51.8809 15.9007 52.0731 15.8068 52.2202 15.6595L54.8597 13.02C55.007 12.8729 55.1009 12.6807 55.1265 12.474C55.152 12.2673 55.1077 12.058 55.0006 11.8795L54.6693 11.3279L55.2937 11.172C55.4955 11.1214 55.6746 11.0049 55.8026 10.8409C55.9307 10.6768 56.0002 10.4747 56.0002 10.2667V6.53333C56.0002 6.32526 55.9307 6.12317 55.8026 5.95914C55.6746 5.79511 55.4955 5.67856 55.2937 5.628ZM54.1335 9.53773L52.9939 9.81773C52.8525 9.85319 52.7213 9.92129 52.611 10.0166C52.5006 10.1119 52.4141 10.2317 52.3584 10.3664C52.3027 10.5012 52.2793 10.6471 52.2901 10.7925C52.301 10.9379 52.3458 11.0787 52.4209 11.2037L53.0247 12.2108L51.4157 13.8199L50.4086 13.216C50.2836 13.1409 50.1428 13.0961 49.9974 13.0853C49.852 13.0744 49.706 13.0978 49.5713 13.1535C49.4365 13.2092 49.3167 13.2957 49.2214 13.4061C49.1262 13.5165 49.058 13.6476 49.0226 13.7891L48.7379 14.9333H46.4625L46.1825 13.7937C46.147 13.6523 46.0789 13.5211 45.9836 13.4108C45.8883 13.3004 45.7685 13.2139 45.6338 13.1582C45.499 13.1025 45.3531 13.0791 45.2077 13.09C45.0623 13.1008 44.9214 13.1456 44.7965 13.2207L43.7894 13.8245L42.1803 12.2155L42.7842 11.2084C42.8593 11.0834 42.9041 10.9426 42.9149 10.7972C42.9258 10.6518 42.9024 10.5058 42.8467 10.3711C42.791 10.2363 42.7045 10.1165 42.5941 10.0212C42.4837 9.92596 42.3526 9.85786 42.2111 9.8224L41.0669 9.53773V7.26227L42.2065 6.98226C42.3479 6.94681 42.4791 6.87871 42.5894 6.78342C42.6998 6.68814 42.7863 6.56832 42.842 6.43357C42.8977 6.29883 42.9211 6.1529 42.9102 6.0075C42.8994 5.86209 42.8546 5.72125 42.7795 5.59627L42.1757 4.5892L43.7847 2.98013L44.7918 3.584C44.9168 3.65909 45.0577 3.70382 45.2032 3.71462C45.3487 3.72541 45.4946 3.70196 45.6294 3.64615C45.7642 3.59034 45.884 3.50373 45.9792 3.39325C46.0744 3.28277 46.1425 3.15151 46.1778 3.01L46.4578 1.87133H48.7333L49.0133 3.01C49.0486 3.15151 49.1166 3.28277 49.2119 3.39325C49.3071 3.50373 49.4269 3.59034 49.5617 3.64615C49.6964 3.70196 49.8424 3.72541 49.9878 3.71462C50.1333 3.70382 50.2742 3.65909 50.3993 3.584L51.4063 2.98013L53.0154 4.5892L52.4115 5.59627C52.3364 5.72125 52.2917 5.86209 52.2808 6.0075C52.27 6.1529 52.2933 6.29883 52.349 6.43357C52.4048 6.56832 52.4913 6.68814 52.6016 6.78342C52.712 6.87871 52.8432 6.94681 52.9846 6.98226L54.1242 7.26227L54.1335 9.53773Z" fill="#5C8AFF"/>
<path d="M8.40033 43.8667C7.66194 43.8667 6.94014 44.0857 6.3262 44.4959C5.71225 44.9061 5.23374 45.4892 4.95118 46.1713C4.66861 46.8535 4.59468 47.6042 4.73873 48.3284C4.88278 49.0526 5.23835 49.7178 5.76046 50.2399C6.28258 50.762 6.94779 51.1176 7.67199 51.2616C8.39619 51.4057 9.14683 51.3317 9.82901 51.0492C10.5112 50.7666 11.0943 50.2881 11.5045 49.6742C11.9147 49.0602 12.1337 48.3384 12.1337 47.6C12.1337 46.6099 11.7403 45.6603 11.0402 44.9602C10.3401 44.26 9.39047 43.8667 8.40033 43.8667ZM8.40033 49.4667C8.03113 49.4667 7.67023 49.3572 7.36326 49.1521C7.05629 48.947 6.81703 48.6555 6.67575 48.3144C6.53447 47.9733 6.4975 47.598 6.56953 47.2359C6.64155 46.8738 6.81934 46.5412 7.08039 46.2801C7.34145 46.019 7.67406 45.8413 8.03616 45.7692C8.39826 45.6972 8.77358 45.7342 9.11467 45.8755C9.45576 46.0167 9.74729 46.256 9.9524 46.563C10.1575 46.8699 10.267 47.2308 10.267 47.6C10.267 48.0951 10.0703 48.5699 9.72026 48.92C9.37019 49.27 8.8954 49.4667 8.40033 49.4667Z" fill="#5C8AFF"/>
<path d="M15.8004 51.0792L15.4691 50.5276L16.0935 50.3717C16.2953 50.3211 16.4744 50.2046 16.6025 50.0406C16.7305 49.8765 16.8 49.6744 16.8 49.4664V45.733C16.8 45.525 16.7305 45.3229 16.6025 45.1588C16.4744 44.9948 16.2953 44.8783 16.0935 44.8277L15.4691 44.6718L15.8004 44.1202C15.9075 43.9417 15.9518 43.7324 15.9263 43.5257C15.9007 43.319 15.8068 43.1268 15.6595 42.9797L13.02 40.3402C12.8729 40.1929 12.6807 40.099 12.474 40.0734C12.2673 40.0479 12.058 40.0922 11.8795 40.1993L11.3279 40.5306L11.172 39.9062C11.1214 39.7044 11.0049 39.5253 10.8409 39.3973C10.6768 39.2692 10.4747 39.1997 10.2667 39.1997H6.53333C6.32526 39.1997 6.12317 39.2692 5.95914 39.3973C5.79511 39.5253 5.67856 39.7044 5.628 39.9062L5.47213 40.5306L4.92053 40.1993C4.74195 40.0922 4.53267 40.0479 4.326 40.0734C4.11933 40.099 3.92714 40.1929 3.78 40.3402L1.14053 42.9797C0.993172 43.1268 0.899252 43.319 0.873714 43.5257C0.848176 43.7324 0.892488 43.9417 0.9996 44.1202L1.33093 44.6718L0.706533 44.8277C0.504703 44.8783 0.325555 44.9948 0.197545 45.1588C0.0695353 45.3229 5.46974e-06 45.525 0 45.733V49.4664C5.46974e-06 49.6744 0.0695353 49.8765 0.197545 50.0406C0.325555 50.2046 0.504703 50.3211 0.706533 50.3717L1.33093 50.5276L0.9996 51.0792C0.892488 51.2578 0.848176 51.467 0.873714 51.6737C0.899252 51.8804 0.993172 52.0726 1.14053 52.2197L3.78 54.8592C3.92714 55.0065 4.11933 55.1005 4.326 55.126C4.53267 55.1515 4.74195 55.1072 4.92053 55.0001L5.47213 54.6688L5.628 55.2932C5.67856 55.495 5.79511 55.6741 5.95914 55.8022C6.12317 55.9302 6.32526 55.9997 6.53333 55.9997H10.2667C10.4747 55.9997 10.6768 55.9302 10.8409 55.8022C11.0049 55.6741 11.1214 55.495 11.172 55.2932L11.3279 54.6688L11.8795 55.0001C12.058 55.1072 12.2673 55.1515 12.474 55.126C12.6807 55.1005 12.8729 55.0065 13.02 54.8592L15.6595 52.2197C15.8068 52.0726 15.9007 51.8804 15.9263 51.6737C15.9518 51.467 15.9075 51.2578 15.8004 51.0792ZM14.9333 48.7374L13.7937 49.0174C13.6523 49.0529 13.5211 49.121 13.4108 49.2163C13.3004 49.3116 13.2139 49.4314 13.1582 49.5661C13.1025 49.7009 13.0791 49.8468 13.09 49.9922C13.1008 50.1376 13.1456 50.2785 13.2207 50.4034L13.8245 51.4105L12.2155 53.0196L11.2084 52.4157C11.0834 52.3406 10.9426 52.2958 10.7972 52.285C10.6518 52.2741 10.5058 52.2975 10.3711 52.3532C10.2363 52.4089 10.1165 52.4954 10.0212 52.6058C9.92596 52.7162 9.85786 52.8473 9.8224 52.9888L9.53773 54.133H7.26227L6.98226 52.9934C6.94681 52.852 6.87871 52.7208 6.78342 52.6105C6.68814 52.5001 6.56832 52.4136 6.43357 52.3579C6.29883 52.3022 6.1529 52.2788 6.0075 52.2897C5.86209 52.3005 5.72125 52.3453 5.59627 52.4204L4.5892 53.0242L2.97547 51.4152L3.57933 50.4081C3.65443 50.2831 3.69919 50.1423 3.71004 49.9969C3.72089 49.8515 3.69753 49.7055 3.64181 49.5708C3.5861 49.4361 3.49959 49.3162 3.38922 49.221C3.27886 49.1257 3.1477 49.0576 3.00627 49.0221L1.86667 48.7374V46.462L3.00627 46.182C3.1477 46.1465 3.27886 46.0784 3.38922 45.9831C3.49959 45.8878 3.5861 45.768 3.64181 45.6333C3.69753 45.4985 3.72089 45.3526 3.71004 45.2072C3.69919 45.0618 3.65443 44.921 3.57933 44.796L2.97547 43.7889L4.58453 42.1798L5.5916 42.7837C5.71665 42.8588 5.85755 42.9035 6.00301 42.9143C6.14847 42.9251 6.29444 42.9017 6.4292 42.8459C6.56396 42.7901 6.68376 42.7034 6.779 42.593C6.87424 42.4825 6.94226 42.3512 6.9776 42.2097L7.2576 41.071H9.53306L9.81306 42.2097C9.84841 42.3512 9.91643 42.4825 10.0117 42.593C10.1069 42.7034 10.2267 42.7901 10.3615 42.8459C10.4962 42.9017 10.6422 42.9251 10.7877 42.9143C10.9331 42.9035 11.074 42.8588 11.1991 42.7837L12.2061 42.1798L13.8152 43.7889L13.2113 44.796C13.1362 44.921 13.0915 45.0618 13.0806 45.2072C13.0698 45.3526 13.0931 45.4985 13.1488 45.6333C13.2046 45.768 13.2911 45.8878 13.4014 45.9831C13.5118 46.0784 13.643 46.1465 13.7844 46.182L14.924 46.462L14.9333 48.7374Z" fill="#5C8AFF"/>
</svg>
