<svg width="180" height="119" viewBox="0 0 180 119" fill="none" xmlns="http://www.w3.org/2000/svg">
<path fill-rule="evenodd" clip-rule="evenodd" d="M129.782 113.21C145.853 113.64 162.277 112.779 177.643 118.886C178.559 119.247 179.566 118.722 179.897 117.704C180.222 116.686 179.75 115.566 178.834 115.198C163.108 108.95 146.311 109.733 129.867 109.295C128.895 109.263 128.084 110.125 128.063 111.205C128.035 112.286 128.81 113.178 129.782 113.21Z" fill="#299D3B"/>
<path fill-rule="evenodd" clip-rule="evenodd" d="M128.339 87.2787C133.348 82.1562 138.815 78.3188 145.424 76.4168C146.368 76.1459 146.932 75.077 146.692 74.0309C146.446 72.9848 145.48 72.3561 144.543 72.627C137.357 74.6942 131.403 78.83 125.957 84.3965C125.238 85.1278 125.189 86.3673 125.851 87.1629C126.507 87.9576 127.627 88.01 128.339 87.2787Z" fill="#299D3B"/>
<path fill-rule="evenodd" clip-rule="evenodd" d="M114.403 31.3538C116.699 22.6036 121.223 15.7586 128.156 10.8154C128.973 10.2321 129.212 9.01998 128.684 8.11091C128.163 7.20183 127.071 6.93715 126.253 7.52049C118.581 12.9937 113.564 20.5686 111.021 30.2568C110.746 31.2935 111.288 32.3819 112.218 32.6841C113.156 32.9871 114.135 32.3905 114.403 31.3538Z" fill="#299D3B"/>
<path fill-rule="evenodd" clip-rule="evenodd" d="M35.2454 19.4786C33.8786 21.2662 32.6526 23.1924 31.6099 25.2431C31.1448 26.1561 30.3276 28.0964 30.2007 29.7603C30.0598 31.533 30.6023 33.0286 31.9973 33.8163C33.8503 34.8609 35.3299 34.752 36.4713 34.1201C37.5704 33.5133 38.4299 32.3208 38.9724 30.7219C40.0081 27.6658 39.8531 22.9951 39.3106 20.3298C40.769 18.6573 42.3684 17.1405 44.0805 15.7922C56.833 5.75008 75.539 9.45295 89.9331 24.468C94.9707 29.7251 97.3944 40.7655 98.6555 52.6775C100.621 71.2246 99.501 91.94 99.346 98.0091C99.3107 99.5078 99.4376 100.397 99.508 100.575C99.8391 101.449 100.424 101.676 100.833 101.762C101.424 101.879 101.896 101.754 102.277 101.535C102.791 101.234 103.214 100.705 103.411 99.8883C103.517 99.4373 103.545 98.8093 103.531 98.1398C103.517 97.6755 103.432 97.1681 103.517 96.8353C104.066 94.704 104.729 92.6227 105.377 90.5266C107.54 83.4803 110.337 76.8772 113.444 70.2819C123.315 49.3254 132.862 27.1826 149.045 11.2163C149.771 10.4998 149.842 9.26111 149.193 8.45305C148.552 7.64498 147.439 7.57136 146.706 8.2886C130.199 24.5705 120.391 47.0946 110.323 68.4661C107.681 74.0763 105.257 79.6945 103.242 85.571C103.446 75.1757 103.369 60.7863 101.657 48.0546C100.135 36.7315 97.2393 26.7246 92.3426 21.6139C76.5746 5.16517 56.0086 1.59701 42.0443 12.5983C40.5506 13.776 39.1275 15.0711 37.8029 16.4758C30.4967 1.81393 14.8555 -4.0626 1.03206 2.95004C0.144319 3.3987 -0.243181 4.5607 0.158417 5.54338C0.56706 6.52606 1.60977 6.95986 2.49751 6.5112C14.9541 0.192304 29.0805 5.83152 35.2454 19.4786ZM36.267 24.3873C35.6963 25.2831 35.1679 26.2117 34.6747 27.1717C34.414 27.6869 33.963 28.6774 33.7728 29.6468C33.7305 29.8739 33.7235 30.2293 33.7235 30.3938C34.2097 30.66 34.5901 30.7884 34.9001 30.6154C35.2876 30.4024 35.4849 29.9013 35.6752 29.3414C36.1543 27.9367 36.3092 26.0747 36.267 24.3873Z" fill="#299D3B"/>
</svg>
