<svg width="56" height="56" viewBox="0 0 56 56" fill="none" xmlns="http://www.w3.org/2000/svg">
<g clip-path="url(#clip0_1341_10436)">
<path d="M44.3217 47.2764H41.0541C40.6008 47.2764 40.2334 47.6438 40.2334 48.0967C40.2334 48.55 40.6008 48.917 41.0541 48.917H44.3217C44.7746 48.917 45.142 48.55 45.142 48.0967C45.142 47.6438 44.7746 47.2764 44.3217 47.2764Z" fill="#5C8AFF"/>
<path d="M30.0559 47.2412L27.4232 44.9371C27.0822 44.6393 26.564 44.6734 26.2654 45.0144C25.9671 45.3553 26.0017 45.8736 26.3427 46.1722L28.9754 48.4759C29.1309 48.6118 29.3236 48.6789 29.5154 48.6789C29.7436 48.6789 29.9709 48.584 30.1332 48.3986C30.4314 48.0577 30.3968 47.5398 30.0559 47.2412Z" fill="#5C8AFF"/>
<path d="M19.0078 47.2764H15.7402C15.2869 47.2764 14.9199 47.6438 14.9199 48.0967C14.9199 48.55 15.2869 48.917 15.7402 48.917H19.0078C19.4611 48.917 19.8286 48.55 19.8286 48.0967C19.8286 47.6438 19.4611 47.2764 19.0078 47.2764Z" fill="#5C8AFF"/>
<path d="M4.74241 47.2412L2.10972 44.9371C1.76877 44.6393 1.25052 44.6734 0.951878 45.0144C0.653661 45.3553 0.688268 45.8736 1.02921 46.1722L3.6619 48.4759C3.81742 48.6118 4.01011 48.6789 4.20194 48.6789C4.43009 48.6789 4.65739 48.584 4.81931 48.3986C5.11796 48.0577 5.08335 47.5398 4.74241 47.2412Z" fill="#5C8AFF"/>
<path d="M55.7715 9.01738C55.5797 8.75548 55.2845 8.58159 54.9623 8.54143L43.6185 7.1187C43.1507 7.05974 42.6931 7.28404 42.4526 7.68865C42.2116 8.09367 42.233 8.60295 42.5077 8.98576L45.1237 12.6336L33.0963 19.7724L26.4509 8.16716C26.2223 7.76811 25.831 7.49724 25.3768 7.42418C24.9226 7.35112 24.4659 7.48485 24.1237 7.79204L12.3569 18.3446C12.0194 18.6475 11.9912 19.1658 12.2937 19.5033C12.5962 19.8404 13.1144 19.8686 13.4524 19.5661L25.1038 9.11693L31.979 21.123C32.1175 21.3652 32.3426 21.5378 32.6126 21.6088C32.8822 21.6801 33.1629 21.6408 33.4035 21.4981L46.502 13.7235C46.7579 13.5718 46.9395 13.318 47.0002 13.0271C47.0613 12.7361 46.9972 12.4307 46.8237 12.1893L44.4478 8.87596L54.2796 10.109L52.4595 19.972L50.0738 16.6095C49.7529 16.1575 49.1496 16.0272 48.6711 16.3066L44.4055 18.7941C44.2555 18.8466 44.109 18.9124 43.968 18.994L42.2291 19.998C42.0685 20.0907 41.9219 20.1993 41.7899 20.3198L40.2198 21.2353C40.1065 21.2524 39.9933 21.2776 39.881 21.3122C39.8169 21.3315 39.7558 21.3588 39.6985 21.393L30.7567 26.7438L24.6206 17.0304C24.1809 16.3348 23.2829 16.1195 22.5754 16.5408L14.5726 21.3105C14.5709 21.3114 14.5692 21.3114 14.5675 21.3122C14.5038 21.3315 14.4427 21.3588 14.3855 21.393L5.45816 26.7353L11.1491 21.6314C11.4866 21.3289 11.5148 20.8102 11.2123 20.4731C10.9098 20.1356 10.3911 20.1074 10.0536 20.4103L0.37521 29.0898C-0.0580181 29.4782 -0.124668 30.1246 0.220119 30.5929C0.439724 30.8915 0.77853 31.0522 1.12417 31.0522C1.32113 31.0522 1.52023 31.0005 1.70138 30.8924L2.18802 30.6023C2.46273 31.0013 2.83871 31.3269 3.29031 31.5444C4.07687 31.9242 4.97879 31.9216 5.76364 31.5375L9.4371 29.741L7.52603 39.0759C7.4974 39.2181 7.42007 39.348 7.30984 39.4424C6.96463 39.736 6.92276 40.2538 7.21628 40.5986C7.37863 40.7895 7.60934 40.8874 7.84134 40.8874C8.02933 40.8874 8.21817 40.8233 8.37241 40.6921C8.76163 40.3614 9.03165 39.9039 9.13333 39.4057L9.60672 37.1114C10.0703 37.8629 10.7018 38.5187 11.4772 39.0216L10.768 40.7712C10.6637 40.9822 10.4283 41.1271 10.0276 41.3608C9.97629 41.3911 9.92374 41.4214 9.87118 41.4526L5.20266 44.1272L4.77371 43.7734L5.81747 42.8796C6.16141 42.5848 6.20157 42.067 5.90677 41.7231C5.61239 41.3787 5.09457 41.3386 4.75021 41.6334L3.29458 42.8801C3.02755 43.1074 2.87588 43.4393 2.8793 43.7901C2.88186 44.1409 3.03909 44.4698 3.30868 44.6916L4.35415 45.5546C4.58615 45.7452 4.87539 45.843 5.16592 45.843C5.38382 45.843 5.60299 45.7879 5.79996 45.6764L10.6924 42.8736C10.6958 42.8715 10.6992 42.8694 10.7026 42.8672C10.7539 42.8369 10.8047 42.8074 10.8547 42.7784C11.364 42.4806 11.9416 42.1439 12.2642 41.4454C12.2697 41.4334 12.2749 41.4214 12.2796 41.4095L12.9093 39.8564L14.7033 40.8874C15.0665 41.0959 15.2767 41.5005 15.2391 41.9179L14.9234 45.3884C14.899 45.6567 14.9892 45.9246 15.1707 46.1237C15.3528 46.3224 15.6112 46.4365 15.8804 46.4365H17.847C18.2961 46.4365 18.681 46.131 18.7827 45.6948L19.9986 40.5059C20.2063 39.862 20.1238 39.1652 19.7701 38.5867C19.7602 38.5709 19.75 38.5555 19.7393 38.5401L15.7262 32.8778L17.9273 26.9322C17.9286 26.9284 17.9299 26.925 17.9312 26.9211C18.1102 26.4161 18.2046 25.8966 18.2187 25.3792C18.3396 25.3967 18.461 25.4065 18.5819 25.4065C19.0202 25.4065 19.4526 25.2916 19.8423 25.0665L21.5811 24.0624C22.7885 23.3652 23.2038 21.8155 22.5066 20.6081L22.1092 19.9198C21.9306 19.6105 21.6922 19.349 21.4124 19.1444L23.303 18.0177L29.3485 27.5872L27.4481 28.7245C27.1452 28.9057 26.9922 29.2603 27.0683 29.6051C27.2567 30.4583 27.8164 31.1654 28.6034 31.5448C29.3899 31.9246 30.2918 31.9221 31.0767 31.538L38.3288 27.991C38.7355 27.7919 38.9043 27.3005 38.7052 26.8938C38.5061 26.4866 38.0147 26.3183 37.6076 26.5174L30.3559 30.0644C30.0257 30.2259 29.6467 30.2267 29.3156 30.0669C29.1596 29.9918 29.0246 29.8858 28.9174 29.7568L30.9156 28.5609L40.6876 22.8619C40.8572 22.8909 41.014 22.9794 41.1268 23.1212L41.1614 23.1644C41.2024 23.2622 41.249 23.3583 41.3033 23.4523L41.7006 24.1406C41.701 24.1415 41.7015 24.1423 41.7023 24.1432C41.9518 24.8524 41.9587 25.633 41.6993 26.3683L39.5738 32.11L36.4339 31.7469L36.031 31.6999L36.0516 31.5973C36.1404 31.153 35.8525 30.7206 35.4081 30.6318C34.9638 30.5438 34.5314 30.8309 34.4425 31.2752L32.8395 39.0733C32.8096 39.2177 32.7327 39.3489 32.6203 39.4441L28.6072 42.8801C28.3406 43.1078 28.1894 43.4393 28.1924 43.7905C28.1953 44.1409 28.3521 44.4698 28.6217 44.6916L29.6651 45.5525C29.8971 45.7443 30.1867 45.843 30.4786 45.843C30.6964 45.843 30.9156 45.7879 31.1134 45.676L36.0054 42.8732C36.0088 42.8711 36.0122 42.8694 36.0157 42.8672C36.0669 42.8369 36.1173 42.8074 36.1673 42.7784C36.677 42.4806 37.2547 42.1439 37.5772 41.4449C37.5828 41.4334 37.5879 41.4214 37.5926 41.4095L38.2224 39.8564L40.0164 40.887C40.3796 41.0959 40.5898 41.5005 40.5517 41.9179L40.2364 45.3884C40.2121 45.6567 40.3022 45.9246 40.4838 46.1233C40.6654 46.3224 40.9243 46.4365 41.1935 46.4365H43.1601C43.6083 46.4365 43.9932 46.1314 44.0957 45.6948L45.3121 40.5059C45.5193 39.862 45.4369 39.1652 45.0831 38.5862C45.0733 38.5709 45.063 38.555 45.0523 38.5401L41.0392 32.8778L43.2404 26.9322C43.2417 26.9284 43.243 26.925 43.2442 26.9211C43.4233 26.4161 43.5181 25.8962 43.5318 25.3792C43.6527 25.3967 43.774 25.4065 43.8949 25.4065C44.3333 25.4065 44.7657 25.2916 45.1553 25.0665L46.8942 24.0624C48.1016 23.3652 48.5169 21.8155 47.8196 20.6081L47.4223 19.9198C47.2749 19.6648 47.086 19.4435 46.8677 19.2576L49.0411 17.9904L51.7447 21.8002C52.0207 22.1898 52.501 22.3744 52.9671 22.2718C53.4332 22.1689 53.7908 21.7993 53.8775 21.3293L55.9805 9.93297C56.0394 9.61339 55.9634 9.27971 55.7715 9.01738ZM18.4328 40.0154C18.4238 40.0414 18.4161 40.0679 18.4101 40.0953L17.3083 44.7954H16.6247L16.8729 42.0662C16.9686 41.013 16.438 39.9914 15.5207 39.4647L12.5804 37.7749C10.9901 36.861 10.1421 35.1029 10.3924 33.3144L11.0183 33.3867L14.3492 33.7725L18.3819 39.4617C18.4776 39.6304 18.4964 39.8308 18.4328 40.0154ZM16.3867 26.3683L14.2607 32.1096L10.9739 31.7298L10.718 31.6999L11.2918 28.8339L13.0157 27.9905C13.4225 27.7914 13.5912 27.3001 13.3921 26.8934C13.193 26.4862 12.7017 26.3179 12.2945 26.517L10.2138 27.5347C10.2091 27.5368 10.2049 27.5389 10.2006 27.5411L5.04287 30.064C4.71304 30.2255 4.33407 30.2263 4.00296 30.0665C3.84701 29.9913 3.71243 29.8858 3.60519 29.7576L15.1861 22.855C15.4245 22.8315 15.6604 22.9277 15.8142 23.1208L15.8484 23.1639C15.8894 23.2613 15.9359 23.3579 15.9902 23.4519L16.3875 24.1406C16.3884 24.1415 16.3888 24.1423 16.3893 24.1432C16.6392 24.8524 16.6456 25.633 16.3867 26.3683ZM20.7608 22.6414L19.0219 23.6454C18.8164 23.7642 18.5772 23.7958 18.3482 23.7339C18.1512 23.6813 17.9825 23.5651 17.8637 23.4032C17.7218 23.0494 17.5398 22.7085 17.3155 22.3885C17.2296 22.0181 17.3903 21.6186 17.7364 21.4191L19.4753 20.415C19.6124 20.336 19.7641 20.2954 19.9179 20.2954C19.9952 20.2954 20.0725 20.3057 20.1494 20.3262C20.3785 20.3877 20.5699 20.5347 20.6886 20.7397L21.086 21.428C21.3308 21.8523 21.1847 22.3966 20.7608 22.6414ZM36.0815 40.7712C35.9768 40.9827 35.7418 41.1271 35.3406 41.3612C35.2893 41.3911 35.2372 41.4214 35.1847 41.4526L30.5161 44.1272L30.0872 43.7734L33.6859 40.6921C34.0725 40.3632 34.343 39.9064 34.4468 39.4057L34.9198 37.1118C35.3833 37.8633 36.0152 38.5187 36.7907 39.0216L36.0815 40.7712ZM43.7463 40.0154C43.7373 40.0414 43.7296 40.0679 43.7232 40.0953L42.6213 44.7954H41.9377L42.186 42.0662C42.2817 41.013 41.751 39.9914 40.8341 39.4647L37.8938 37.7749C36.3036 36.861 35.4551 35.1029 35.7055 33.3144L36.4942 33.4054L39.6622 33.7725L43.695 39.4617C43.7907 39.6304 43.8095 39.8308 43.7463 40.0154ZM45.2309 20.2954C45.3083 20.2954 45.386 20.3057 45.4625 20.3262C45.6915 20.3877 45.8829 20.5347 46.0017 20.7397L46.399 21.428C46.6438 21.8523 46.4981 22.3966 46.0739 22.6414L44.335 23.6454C44.1299 23.7642 43.8902 23.7958 43.6612 23.7339C43.4643 23.6813 43.2955 23.5651 43.1767 23.4032C43.0349 23.0494 42.8529 22.7085 42.629 22.3889C42.5666 22.1202 42.6346 21.8373 42.8076 21.6254L45.0541 20.3155C45.1122 20.3035 45.1716 20.2954 45.2309 20.2954Z" fill="#5C8AFF"/>
</g>
<defs>
<clipPath id="clip0_1341_10436">
<rect width="56" height="56" fill="white"/>
</clipPath>
</defs>
</svg>
