<svg width="176" height="153" viewBox="0 0 176 153" fill="none" xmlns="http://www.w3.org/2000/svg">
<g opacity="0.62">
<path fill-rule="evenodd" clip-rule="evenodd" d="M134.077 67.8518L133.961 67.8559C133.469 67.8528 132.969 67.8383 132.634 67.8709C128.069 68.3229 123.008 67.1485 118.639 65.9027C108.185 62.9165 97.5723 60.4921 86.9276 58.2728C83.9451 57.6508 80.8891 57.3948 77.8763 56.9683C76.9846 56.843 76.095 56.7331 75.2035 56.6204C74.8147 56.5756 74.0343 56.2796 73.6149 56.2091C73.3132 56.1548 73.0783 56.1904 72.9395 56.2357C72.5907 56.3589 72.4099 56.595 72.3358 56.8806C72.285 57.0648 72.25 57.37 72.5162 57.7469C75.3272 61.7014 80.8743 65.6105 87.256 69.2932C96.6296 74.7022 107.798 79.6556 114.34 83.7036C116.06 84.769 119.937 86.3358 123.083 88.0699C124.48 88.8361 125.739 89.6127 126.513 90.4026C125.641 90.2129 124.576 89.8756 123.949 89.7878C121.239 89.4107 118.596 88.6163 115.917 88.0815C107.768 86.452 82.1871 86.5058 73.84 87.1464C67.0879 87.662 28.9545 94.2484 9.66971 105.854C9.25545 106.103 9.12115 106.639 9.37051 107.053C9.61986 107.468 10.1587 107.6 10.5701 107.352C29.6238 95.886 67.3022 89.3986 73.9729 88.8884C82.2281 88.2563 107.519 88.183 115.57 89.7949C118.286 90.3388 120.963 91.1345 123.707 91.5178C124.697 91.6557 126.703 92.318 127.604 92.2792C128.113 92.2577 128.451 92.0523 128.636 91.8218C128.86 91.5382 129.015 91.1115 128.719 90.4956C128.233 89.4887 127.034 88.4317 125.463 87.4381C122.188 85.3719 117.259 83.4552 115.259 82.2187C108.708 78.1641 97.5214 73.1975 88.1292 67.7801C82.8967 64.7589 78.2215 61.6143 75.2906 58.3943C76.0721 58.4897 76.85 58.592 77.6318 58.7C80.6085 59.1176 83.6227 59.3686 86.5692 59.9817C97.1721 62.1959 107.747 64.6085 118.157 67.5819C122.73 68.8869 128.031 70.0818 132.805 69.6122C133.478 69.5449 134.828 69.6497 135.416 69.4541C135.793 69.3285 136.027 69.1018 136.147 68.8648C136.3 68.5757 136.36 68.2022 136.091 67.7419C134.997 65.8547 132.366 63.2186 129.017 60.3355C121.409 53.7897 110.084 45.8671 105.587 42.4331C102.567 40.1264 99.4361 37.9306 96.4907 35.5293C96.3439 35.41 93.7388 32.9042 92.4999 31.7092C93.5003 31.427 94.9876 31.2451 96.7101 31.0954C102.765 30.5748 111.623 30.7748 114.311 30.8013C119.467 30.8499 124.609 31.0315 129.766 30.9598C137.905 30.8469 146.029 30.4676 154.17 30.4429C154.652 30.4443 155.042 30.0498 155.041 29.5698C155.04 29.085 154.646 28.695 154.166 28.6966C146.019 28.7175 137.887 29.0979 129.74 29.2119C124.6 29.2842 119.471 29.1023 114.328 29.0535C111.615 29.0275 102.673 28.8301 96.5617 29.3557C93.7604 29.5951 91.5263 30.032 90.5941 30.6328C90.3374 30.8026 89.9219 31.2956 90.3721 32.017C90.9492 32.9397 95.1767 36.7145 95.3846 36.885C98.3457 39.2966 101.492 41.5029 104.525 43.8219C109.007 47.2455 120.294 55.1389 127.874 61.6619C130.603 64.0091 132.852 66.162 134.077 67.8518Z" fill="#299D3B"/>
</g>
</svg>
