<svg width="56" height="56" viewBox="0 0 56 56" fill="none" xmlns="http://www.w3.org/2000/svg">
<path fill-rule="evenodd" clip-rule="evenodd" d="M9.35872 50.6072V35.9139C9.35872 35.4206 9.56368 34.9714 9.89408 34.6476C10.2245 34.3228 10.6803 34.1213 11.1821 34.1213C11.6838 34.1213 12.1408 34.3228 12.4701 34.6476C12.8005 34.9725 13.0054 35.4206 13.0054 35.9139V50.6072C13.0054 51.5388 13.5218 52.1312 14.1837 52.3866C14.4558 52.4923 14.7549 52.5441 15.0584 52.5441C15.3608 52.5441 15.661 52.4912 15.9331 52.3866C16.5939 52.1312 17.1114 51.5388 17.1114 50.6072V31.6845H5.25504V32.8209V50.6083C5.25504 51.5399 5.77136 52.1323 6.43328 52.3877C6.70544 52.4934 7.00448 52.5452 7.308 52.5452C7.6104 52.5452 7.91056 52.4923 8.18272 52.3877C8.8424 52.1312 9.35872 51.5388 9.35872 50.6072ZM10.8842 35.9139V50.6072C10.8842 52.2556 9.94112 53.3149 8.73488 53.7807C8.28128 53.9568 7.79184 54.0438 7.30688 54.0438C6.82192 54.0438 6.33248 53.9557 5.87888 53.7807C4.67264 53.3138 3.7296 52.2556 3.7296 50.6072V33.5707H3.50784C2.54352 33.5707 1.66768 33.1842 1.03152 32.5588C0.396482 31.9345 0.00224224 31.0723 0.00112224 30.122C2.23506e-06 28.3327 0.00560224 26.114 0.00896224 24.3643C0.0100822 24.056 0.0100822 23.8468 0.0100822 21.9077C0.0100822 18.9732 0.565602 17.2687 1.84464 16.2369C3.00496 15.301 4.66256 15.0191 6.9832 14.9299L7.45024 13.352C7.24752 13.2144 7.0504 13.0602 6.86112 12.8906C5.83408 11.9679 5.05792 10.5772 4.80816 8.54233C4.76448 8.18336 4.7432 7.83871 4.7432 7.50838C4.7432 5.65189 5.39056 4.16318 6.39296 3.09179C7.39872 2.016 8.75728 1.37075 10.1763 1.20228C10.4272 1.17255 10.677 1.15713 10.9234 1.15713C11.4598 1.15713 11.8306 1.25073 12.2013 1.34432C12.7646 1.48636 13.3246 1.62841 15.0237 1.11088C15.2656 1.03711 15.5064 1.0261 15.7394 1.07345C16.0754 1.14061 16.371 1.3223 16.6096 1.59978C16.8034 1.82441 16.9602 2.1162 17.0688 2.46195C17.2693 3.0973 17.313 3.95727 17.1102 4.92956C17.1013 4.9725 17.0934 5.01545 17.0845 5.05949C17.0811 5.08812 17.0766 5.11675 17.0699 5.14648C16.9198 6.0516 16.9747 7.05031 17.0139 7.75943C17.0296 8.04903 17.0442 8.29788 17.0442 8.45314C17.0442 10.0586 16.3834 11.4977 15.3899 12.5603C15.1323 12.8356 14.8523 13.0855 14.5544 13.3069L14.8904 14.9244C18.8619 15.0081 23.5962 14.985 27.8768 14.964C28.887 14.9596 29.8704 14.9541 30.8269 14.9508C32.2347 14.9464 33.1453 15.715 33.5507 16.7005C33.7019 17.0683 33.7781 17.4691 33.7792 17.8721C33.7803 18.2729 33.7053 18.6737 33.5552 19.0437C33.1542 20.0281 32.2482 20.7956 30.8347 20.7956H21.14C18.6256 20.7956 18.6267 21.0841 18.6357 23.4889L18.6368 23.7807C18.6402 25.2044 18.6458 27.6621 18.6446 29.7102C18.6446 30.8873 18.6413 31.9301 18.6357 32.5643V50.6061C18.6357 52.2545 17.6926 53.3138 16.4864 53.7796C16.0328 53.9557 15.5434 54.0427 15.0584 54.0427C14.5734 54.0427 14.084 53.9546 13.6304 53.7796C12.4242 53.3127 11.4811 52.2545 11.4811 50.6061V35.9139C11.4811 35.8346 11.4475 35.7609 11.3926 35.708C11.3378 35.6541 11.2638 35.621 11.1832 35.621C11.1026 35.621 11.0275 35.6541 10.9738 35.708C10.9189 35.7609 10.8842 35.8346 10.8842 35.9139ZM3.7296 32.071H3.50784C2.96016 32.071 2.464 31.8519 2.10448 31.4984C1.74496 31.145 1.52208 30.6583 1.52096 30.122C1.51984 28.3327 1.52432 26.114 1.5288 24.3643C1.53216 22.5607 1.53552 22.815 1.53552 21.9077C1.53552 19.4643 1.9208 18.1077 2.81008 17.3909C3.67696 16.6917 5.12512 16.4858 7.22064 16.4164L8.98128 18.4744L7.94976 19.9884C7.71568 20.3309 7.80976 20.7956 8.15808 21.0257L8.176 21.0378L8.95216 21.5168L7.93856 27.4584C7.90272 27.6709 7.96096 27.8769 8.08416 28.0354L9.688 30.1859H5.25504V21.2878C5.25504 20.8737 4.91344 20.5379 4.49232 20.5379C4.0712 20.5379 3.7296 20.8737 3.7296 21.2878V30.9358V32.071ZM12.2058 30.1848H17.1248V29.7113C17.1259 27.6621 17.1203 25.2044 17.117 23.7818L17.1158 23.49C17.1024 19.7462 17.1002 19.2969 21.14 19.2969H30.8347C31.5235 19.2969 31.9581 18.9424 32.1429 18.4876C32.2213 18.2949 32.2605 18.0835 32.2605 17.8732C32.2605 17.664 32.219 17.4537 32.1395 17.2588C31.9514 16.8007 31.5146 16.4439 30.828 16.4462C29.8917 16.4495 28.9005 16.4539 27.8835 16.4594C23.4965 16.4814 18.6346 16.5045 14.6048 16.4142L12.9506 18.3478L14.0571 19.973C14.065 19.984 14.0728 19.9951 14.0795 20.0061C14.3035 20.3551 14.1971 20.8165 13.841 21.0367L13.0648 21.5157L14.0728 27.4232C14.1165 27.6313 14.0694 27.8559 13.9261 28.0365L12.2058 30.1848ZM11.6491 17.5484L13.4467 15.4463L13.1634 14.081C12.591 14.3034 11.993 14.4267 11.396 14.4355C10.5638 14.4476 9.67792 14.3375 8.83008 14.0413L8.40336 15.4805L10.1718 17.5473H11.6491V17.5484ZM15.4493 6.59996C15.0102 6.72548 14.5096 6.78715 13.9754 6.79706C12.7613 6.82018 11.3434 6.59115 10.192 6.28834C10.0408 6.2487 9.89408 6.20686 9.75184 6.16501C9.51216 6.87193 9.11568 7.44561 8.56128 7.88826C7.98784 8.34523 7.26208 8.64363 6.38288 8.78347C6.62704 10.1929 7.18032 11.1553 7.88592 11.7895C8.13344 12.012 8.40224 12.1969 8.68448 12.3478C8.6968 12.3533 8.708 12.3599 8.72032 12.3665C9.55248 12.8026 10.4989 12.9545 11.377 12.9413C12.0243 12.9325 12.6829 12.7211 13.281 12.3555C13.2955 12.3456 13.3101 12.3368 13.3258 12.328C13.6651 12.1144 13.9843 11.8512 14.2688 11.5473C15.0192 10.7446 15.5187 9.66106 15.5187 8.45424C15.5187 8.26705 15.5075 8.06775 15.4952 7.83651C15.475 7.47975 15.4515 7.05692 15.4493 6.59996ZM6.27312 7.28485C6.82304 7.18245 7.26656 6.99636 7.60256 6.72879C8.05952 6.36432 8.34176 5.81816 8.4504 5.08922C8.45824 5.03196 8.47392 4.97471 8.4952 4.91855C8.64864 4.53316 9.08992 4.34377 9.4808 4.49352C9.78768 4.61244 10.1651 4.73136 10.5851 4.84257C11.6278 5.11675 12.8923 5.32486 13.9451 5.30504C14.7851 5.28852 15.447 5.15419 15.5803 4.82165C15.5826 4.81615 15.5848 4.80844 15.5882 4.80073C15.5982 4.74457 15.6094 4.68952 15.6206 4.63336C15.7685 3.92094 15.7472 3.32193 15.615 2.9035C15.568 2.75485 15.5109 2.64254 15.4482 2.56876C15.4414 2.56106 15.4392 2.55555 15.4392 2.55225C13.3605 3.18098 12.5944 2.98829 11.8261 2.79339C11.5606 2.72622 11.2941 2.65905 10.9234 2.65905C10.7296 2.65905 10.5403 2.67007 10.3544 2.69209C9.28592 2.81872 8.2656 3.30211 7.51296 4.10702C6.79616 4.8712 6.32016 5.94039 6.27312 7.28485ZM10.4205 19.0481L9.6488 20.1811L10.192 20.5159C10.4597 20.6811 10.5862 20.9828 10.537 21.2712L9.49312 27.3935L10.9446 29.3391L12.5194 27.3714L11.4789 21.2724C11.4251 20.953 11.5853 20.6469 11.8563 20.4972L12.3682 20.1811L11.5965 19.0481H10.4205ZM38.7542 16.9009C41.8723 16.9009 44.7944 17.7356 47.3032 19.189C49.896 20.6921 52.043 22.8591 53.5058 25.4533C53.7096 25.8145 53.5774 26.2692 53.2112 26.4696L53.2078 26.4718L53.209 26.4729L39.1216 34.1301C38.7531 34.3294 38.2906 34.1962 38.0878 33.8339C38.0195 33.7117 37.9893 33.5795 37.9938 33.4496L37.5379 17.6783C37.5267 17.2654 37.8571 16.9218 38.2771 16.9108H38.2838C38.3533 16.9086 38.4294 16.9075 38.5146 16.9064H38.5179C38.7184 16.9031 38.7027 16.9009 38.7542 16.9009ZM46.5293 20.4784C44.3397 19.2089 41.7973 18.4601 39.0802 18.4039L39.4789 32.2252L51.791 25.5337C50.4806 23.4592 48.6718 21.7205 46.5293 20.4784ZM53.9146 27.8791C53.909 27.8669 53.9022 27.8548 53.8955 27.8427C53.6928 27.4805 53.2302 27.3483 52.8618 27.5465L38.7744 35.2037V35.2048C38.6154 35.2907 38.4866 35.4327 38.4227 35.6144C38.285 36.0042 38.4944 36.4303 38.8909 36.5658L54.0904 41.7785C54.4869 41.9139 54.9203 41.708 55.0581 41.3182C55.3661 40.4505 55.6024 39.552 55.7603 38.6304C55.916 37.7242 55.9966 36.7981 55.9966 35.86C55.9966 34.4373 55.8107 33.0488 55.4613 31.7176C55.1074 30.361 54.5832 29.0738 53.9146 27.8791ZM53.9918 32.0864C53.7309 31.091 53.368 30.1353 52.9155 29.229L40.9987 35.7058L53.8552 40.1147C54.0232 39.552 54.1587 38.975 54.2606 38.3848C54.4006 37.57 54.4734 36.7265 54.4734 35.86C54.4734 34.5485 54.3054 33.2844 53.9918 32.0864ZM52.4339 42.9313C52.5717 42.5415 52.3622 42.1154 51.9658 41.98L37.2613 36.9369L36.82 21.6357C36.8088 21.2228 36.4594 20.898 36.0394 20.909C31.4877 21.0334 27.3885 22.9306 24.4294 25.9235C21.4771 28.9097 19.6594 32.9827 19.6594 37.472C19.6594 42.0482 21.5466 46.1917 24.5963 49.1912C27.6472 52.1906 31.8606 54.0449 36.5165 54.0449C40.1453 54.0449 43.5098 52.9152 46.2627 50.9926C49.0896 49.0194 51.2702 46.2105 52.4339 42.9313ZM45.3813 49.7737C47.7512 48.1198 49.6216 45.8207 50.7293 43.1383L36.2656 38.1778C35.9766 38.0787 35.765 37.8111 35.756 37.4929L35.3214 22.4417C31.4866 22.7324 28.0459 24.4105 25.5192 26.9662C22.8368 29.6794 21.1837 33.3857 21.1837 37.472C21.1837 41.6342 22.8995 45.4022 25.6738 48.1308C28.448 50.8583 32.2818 52.5452 36.5154 52.5452C39.8227 52.5452 42.8814 51.519 45.3813 49.7737Z" fill="#5C8AFF"/>
</svg>
