<svg width="32" height="33" viewBox="0 0 32 33" fill="none" xmlns="http://www.w3.org/2000/svg">
<path d="M19.224 7.94619C18.5893 7.83055 18.0064 8.23005 17.8855 8.84114C17.7647 9.45223 18.171 10.0489 18.7885 10.1684C20.6475 10.5259 22.0829 11.9452 22.4468 13.785V13.7863C22.5503 14.316 23.0231 14.701 23.5675 14.701C23.6405 14.701 23.7136 14.6944 23.7879 14.6813C24.4054 14.5591 24.8117 13.9638 24.6909 13.3514C24.1478 10.6034 22.0033 8.48106 19.224 7.94619Z" fill="#5C8AFF"/>
<path d="M19.1415 3.36687C18.844 3.32482 18.5452 3.41156 18.3076 3.59817C18.0632 3.78741 17.9105 4.06075 17.8773 4.36695C17.807 4.98593 18.2598 5.54576 18.8865 5.61541C23.2087 6.09114 26.5682 9.41204 27.0542 13.6883C27.1193 14.2613 27.6066 14.6937 28.1882 14.6937C28.232 14.6937 28.2745 14.691 28.3184 14.6858C28.6224 14.6529 28.8933 14.5044 29.0845 14.2679C29.2744 14.0313 29.3607 13.737 29.3262 13.436C28.7207 8.1005 24.5339 3.95956 19.1415 3.36687Z" fill="#5C8AFF"/>
<path fill-rule="evenodd" clip-rule="evenodd" d="M14.7093 17.7858C20.0281 23.0302 21.2347 16.963 24.6212 20.3007C27.886 23.5199 29.7625 24.1649 25.626 28.2436C25.1078 28.6543 21.8158 33.5953 10.2465 22.1877C-1.32431 10.7786 3.68244 7.5283 4.09895 7.0174C8.24548 2.9274 8.88814 4.78893 12.153 8.00815C15.5395 11.3473 9.39054 12.5413 14.7093 17.7858Z" fill="#5C8AFF"/>
</svg>
