<svg width="155" height="148" viewBox="0 0 155 148" fill="none" xmlns="http://www.w3.org/2000/svg">
<path fill-rule="evenodd" clip-rule="evenodd" d="M135.839 107.468C130.199 95.7573 124.813 91.2277 119.345 90.4946C113.876 89.7575 108.568 92.7658 103.261 95.7782C99.6041 97.8806 95.872 100.026 92.2307 101.066C88.4315 102.154 84.6238 102.069 80.8034 99.6599C79.9154 99.075 79.0043 98.0095 78.2447 96.4889C77.1164 94.4474 76.0533 91.5648 75.1164 88.1141C71.3683 75.0669 68.3372 53.8993 63.5876 41.6476C62.5373 38.822 61.3453 36.4924 60.0575 34.8688C58.9026 33.4637 57.7015 32.6068 56.3568 32.6177C55.264 32.6255 54.1293 33.2018 52.7923 34.3817C50.545 36.3885 48.15 39.9994 45.3594 45.6151C42.918 50.5307 41.1554 55.8507 38.8157 60.8446C35.1677 68.6592 31.2992 76.6168 26.4742 83.3049C26.1484 83.7323 25.5793 83.822 25.1737 83.5127C24.6875 83.2201 24.6374 82.6185 24.9631 82.1911C29.7249 75.5967 33.5328 67.7448 37.1215 60.0418C39.3785 55.0546 41.2179 49.7051 43.6568 44.7785C46.5523 38.8774 49.1606 35.0895 51.5515 32.9713C53.2267 31.42 54.8446 30.7425 56.3554 30.7213C57.8682 30.709 59.3634 31.3752 60.6655 32.685C62.3982 34.4161 63.9683 37.3056 65.3734 40.9678C70.133 53.2645 73.18 74.5073 76.9385 87.6015C77.8399 90.8921 78.8734 93.6407 79.8991 95.5999C80.4952 96.7642 81.1087 97.6277 81.878 98.0573C85.123 100.152 88.4143 100.188 91.7393 99.2397C95.2218 98.2428 98.7992 96.1591 102.387 94.1204C107.986 90.9113 113.782 87.8208 119.601 88.6191C125.42 89.4205 131.505 94.0587 137.511 106.661C137.783 107.122 137.572 107.69 137.117 107.911C136.661 108.132 136.03 107.947 135.839 107.468Z" fill="#299D3B"/>
<path fill-rule="evenodd" clip-rule="evenodd" d="M132.064 107.406C132.115 107.259 132.198 106.873 132.213 106.565C132.381 105.049 132.375 102.755 132.392 102.077C132.893 96.0094 132.922 89.3342 131.567 83.2512C131.453 82.7412 131.763 82.2397 132.245 82.1346C132.807 82.0118 133.3 82.3374 133.414 82.8474C134.808 89.1064 134.74 95.9843 134.357 102.2C134.261 102.904 134.274 105.231 134.111 106.769C134.066 107.319 133.999 107.781 133.899 108.084C133.787 108.339 133.661 108.526 133.521 108.656C133.255 108.973 132.8 109.199 132.315 109.289C131.749 109.395 131.066 109.351 130.354 109.179C128.852 108.865 126.997 108.096 125.515 107.491C124.679 107.14 123.94 106.846 123.509 106.802C119.804 106.421 116.303 108.468 114.293 113.053C114.064 113.533 113.521 113.746 113.053 113.533C112.584 113.319 112.375 112.758 112.524 112.294C115.001 106.781 119.202 104.473 123.681 104.924C124.798 105.024 127.45 106.351 129.716 107.073C130.432 107.265 131.056 107.415 131.567 107.443C131.736 107.446 131.822 107.456 131.984 107.424C131.984 107.426 132.065 107.412 132.064 107.406Z" fill="#299D3B"/>
</svg>
