<svg width="32" height="35" viewBox="0 0 32 35" fill="none" xmlns="http://www.w3.org/2000/svg">
<path d="M11.1744 32.2172V27.0903C11.1744 25.7816 12.2479 24.7206 13.5721 24.7206H18.4128C19.0487 24.7206 19.6586 24.9703 20.1083 25.4147C20.5579 25.8591 20.8106 26.4618 20.8106 27.0903V32.2172C20.8065 32.7613 21.0224 33.2845 21.4103 33.6707C21.7982 34.0568 22.326 34.274 22.8765 34.274H26.1791C27.7215 34.2779 29.2021 33.6751 30.2942 32.5986C31.3863 31.5221 32 30.0604 32 28.536V13.9302C32 12.6988 31.4477 11.5308 30.492 10.7408L19.2573 1.87298C17.303 0.318156 14.5029 0.368358 12.607 1.99221L1.62865 10.7408C0.627774 11.5075 0.0295618 12.679 0 13.9302V28.5211C0 31.6983 2.60612 34.274 5.82092 34.274H9.04807C10.1915 34.274 11.1208 33.3622 11.1291 32.2321L11.1744 32.2172Z" fill="#5C8AFF"/>
</svg>
