<svg width="56" height="56" viewBox="0 0 56 56" fill="none" xmlns="http://www.w3.org/2000/svg">
<g clip-path="url(#clip0_1341_10450)">
<path d="M9.9248 19.7676C9.32111 19.7676 8.83105 20.2572 8.83105 20.8609C8.83105 21.4646 9.32111 21.9546 9.9248 21.9546C10.5285 21.9546 11.0186 21.4646 11.0186 20.8609C11.0186 20.2572 10.5285 19.7676 9.9248 19.7676Z" fill="#5C8AFF"/>
<path d="M40.5694 32.8362C40.3647 32.6312 40.0862 32.5158 39.7961 32.5158C39.785 32.5179 39.3645 32.4944 39.0228 32.8362L38.2499 33.6091L35.7368 31.0965C41.2825 23.3228 40.4391 12.5993 33.6096 5.77022C25.9166 -1.92277 13.4641 -1.92405 5.77022 5.77022C-1.92277 13.4628 -1.92405 25.9157 5.77022 33.6095C12.5827 40.4224 23.3018 41.2966 31.0961 35.7368L33.6091 38.2499L32.8362 39.0228C32.4094 39.4496 32.409 40.1426 32.8362 40.5698L46.6636 54.3959C48.8003 56.5338 52.2588 56.5351 54.3959 54.3963C56.5338 52.2601 56.5347 48.8011 54.3959 46.664L40.5694 32.8362ZM35.1558 36.7032L32.814 34.3615C33.0862 34.1175 33.3523 33.8672 33.6096 33.6095C33.8672 33.3523 34.1175 33.0862 34.3615 32.8144L36.7032 35.1562L35.1558 36.7032ZM7.31685 32.0629C0.478355 25.2248 0.4775 14.1558 7.31685 7.31685C14.1549 0.478355 25.224 0.4775 32.0629 7.31685C38.886 14.1395 38.9206 25.2061 32.0629 32.0629C25.1279 38.9988 14.0618 38.8083 7.31685 32.0629ZM39.7961 35.1562L42.8889 38.2494L38.2494 42.8889L35.1562 39.7961L39.7961 35.1562ZM52.8493 52.8497C51.5675 54.1327 49.4933 54.1331 48.2107 52.8497L39.7961 44.4355L44.4355 39.7961L52.8497 48.2111C54.1323 49.4924 54.1336 51.5667 52.8493 52.8497Z" fill="#5C8AFF"/>
<path d="M30.5173 8.8641C24.5363 2.88309 14.8468 2.87967 8.86318 8.86325C2.89456 14.8331 2.89456 24.547 8.86318 30.5173C14.8476 36.5013 24.5316 36.5018 30.5164 30.5173C36.4863 24.547 36.4868 14.8336 30.5173 8.8641ZM28.9698 28.9703C23.8407 34.0994 15.5402 34.1006 10.4098 28.9707C5.29397 23.8532 5.29397 15.527 10.4098 10.4094C15.5363 5.28335 23.8424 5.28207 28.9706 10.4107C34.0873 15.5274 34.0869 23.8532 28.9698 28.9703Z" fill="#5C8AFF"/>
<path d="M19.6905 8.75488C16.7673 8.75488 14.021 9.89221 11.9574 11.9571C10.7611 13.1534 9.88055 14.5667 9.34051 16.1586C9.14654 16.7303 9.45245 17.3515 10.0245 17.5455C10.5975 17.7399 11.2178 17.4322 11.4118 16.8614C11.8429 15.5904 12.547 14.4607 13.504 13.5033C15.1549 11.852 17.3518 10.9424 19.6905 10.9424C20.2947 10.9424 20.7843 10.4528 20.7843 9.84863C20.7843 9.24451 20.2947 8.75488 19.6905 8.75488Z" fill="#5C8AFF"/>
</g>
<defs>
<clipPath id="clip0_1341_10450">
<rect width="56" height="56" fill="white"/>
</clipPath>
</defs>
</svg>
