<svg width="101" height="100" viewBox="0 0 101 100" fill="none" xmlns="http://www.w3.org/2000/svg">
<g clip-path="url(#clip0_1341_10722)">
<path d="M2.37902 0C1.08137 0 0 1.04439 0 2.39339C0 3.74239 1.08137 4.78677 2.37902 4.78677C3.67666 4.78677 4.75803 3.74239 4.75803 2.39339C4.75803 1.04439 3.67666 0 2.37902 0Z" fill="#FD8363"/>
<path d="M21.6271 0C20.3294 0 19.248 1.04439 19.248 2.39339C19.248 3.74238 20.3294 4.74326 21.6271 4.74326C22.9247 4.74326 24.0061 3.69887 24.0061 2.34987C24.0061 1.00087 22.9247 0 21.6271 0Z" fill="#FD8363"/>
<path d="M40.8751 0C39.5775 0 38.4961 1.04439 38.4961 2.39339C38.4961 3.74239 39.5775 4.78677 40.8751 4.78677C42.1728 4.78677 43.2541 3.74239 43.2541 2.39339C43.2541 1.04439 42.1728 0 40.8751 0Z" fill="#FD8363"/>
<path d="M60.1241 0C58.8265 0 57.7451 1.04439 57.7451 2.39339C57.7451 3.74239 58.8265 4.78677 60.1241 4.78677C61.4218 4.78677 62.5031 3.74239 62.5031 2.39339C62.5031 1.04439 61.4218 0 60.1241 0Z" fill="#FD8363"/>
<path d="M79.3722 0C78.0745 0 76.9932 1.04439 76.9932 2.39339C76.9932 3.74239 78.0745 4.78677 79.3722 4.78677C80.6698 4.78677 81.7512 3.74239 81.7512 2.39339C81.7512 1.04439 80.6698 0 79.3722 0Z" fill="#FD8363"/>
<path d="M98.6212 4.74326C99.9188 4.74326 101 3.69887 101 2.34987C101 1.00087 99.9188 0 98.6212 0C97.3236 0 96.2422 1.04439 96.2422 2.39339C96.2422 3.74238 97.3236 4.74326 98.6212 4.74326Z" fill="#FD8363"/>
<path d="M2.37902 19.0601C1.08137 19.0601 0 20.1044 0 21.4099C0 22.7154 1.08137 23.8033 2.37902 23.8033C3.67666 23.8033 4.75803 22.7589 4.75803 21.4099C4.71478 20.1044 3.67666 19.0601 2.37902 19.0601Z" fill="#FD8363"/>
<path d="M21.6271 19.0601C20.3294 19.0601 19.248 20.1044 19.248 21.4534C19.248 22.7589 20.3294 23.8468 21.6271 23.8468C22.9247 23.8468 24.0061 22.8024 24.0061 21.4534C23.9628 20.1044 22.9247 19.0601 21.6271 19.0601Z" fill="#FD8363"/>
<path d="M40.8751 19.0601C39.5775 19.0601 38.4961 20.1044 38.4961 21.4534C38.4961 22.7589 39.5775 23.8468 40.8751 23.8468C42.1728 23.8468 43.2541 22.8024 43.2541 21.4534C43.2541 20.1044 42.1728 19.0601 40.8751 19.0601Z" fill="#FD8363"/>
<path d="M60.1241 19.0601C58.8265 19.0601 57.7451 20.1044 57.7451 21.4534C57.7451 22.7589 58.8265 23.8468 60.1241 23.8468C61.4218 23.8468 62.5031 22.8024 62.5031 21.4534C62.5031 20.1044 61.4218 19.0601 60.1241 19.0601Z" fill="#FD8363"/>
<path d="M79.3722 19.0601C78.0745 19.0601 76.9932 20.1044 76.9932 21.4534C76.9932 22.7589 78.0745 23.8468 79.3722 23.8468C80.6698 23.8468 81.7512 22.8024 81.7512 21.4534C81.7512 20.1044 80.6698 19.0601 79.3722 19.0601Z" fill="#FD8363"/>
<path d="M98.6212 19.0601C97.3236 19.0601 96.2422 20.1044 96.2422 21.4534C96.2422 22.7589 97.3236 23.8468 98.6212 23.8468C99.9188 23.8468 101 22.8024 101 21.4534C101 20.1044 99.9188 19.0601 98.6212 19.0601Z" fill="#FD8363"/>
<path d="M2.37901 38.0767C1.08137 38.0767 0 39.1646 0 40.47C0 41.7755 1.08137 42.8634 2.37901 42.8634C3.67666 42.8634 4.71478 41.7755 4.71478 40.47C4.71478 39.1646 3.67666 38.0767 2.37901 38.0767Z" fill="#FD8363"/>
<path d="M21.6271 38.0767C20.3294 38.0767 19.248 39.1646 19.248 40.47C19.248 41.7755 20.3294 42.8634 21.6271 42.8634C22.9247 42.8634 23.9628 41.7755 23.9628 40.47C23.9628 39.1646 22.9247 38.0767 21.6271 38.0767Z" fill="#FD8363"/>
<path d="M40.8751 38.0767C39.5775 38.0767 38.4961 39.1646 38.4961 40.47C38.4961 41.7755 39.5775 42.8634 40.8751 42.8634C42.1728 42.8634 43.2541 41.7755 43.2541 40.47C43.2541 39.1646 42.1728 38.0767 40.8751 38.0767Z" fill="#FD8363"/>
<path d="M60.1241 38.0767C58.8265 38.0767 57.7451 39.121 57.7451 40.47C57.7451 41.7755 58.8265 42.8634 60.1241 42.8634C61.4218 42.8634 62.5031 41.819 62.5031 40.47C62.5031 39.1646 61.4218 38.0767 60.1241 38.0767Z" fill="#FD8363"/>
<path d="M79.3722 38.0767C78.0745 38.0767 76.9932 39.121 76.9932 40.47C76.9932 41.7755 78.0745 42.8634 79.3722 42.8634C80.6698 42.8634 81.7512 41.819 81.7512 40.47C81.7512 39.1646 80.6698 38.0767 79.3722 38.0767Z" fill="#FD8363"/>
<path d="M98.6212 38.0767C97.3236 38.0767 96.2422 39.121 96.2422 40.47C96.2422 41.7755 97.3236 42.8634 98.6212 42.8634C99.9188 42.8634 101 41.819 101 40.47C101 39.1646 99.9188 38.0767 98.6212 38.0767Z" fill="#FD8363"/>
<path d="M2.37902 57.1367C1.08137 57.1367 0 58.1811 0 59.5301C0 60.8356 1.08137 61.9235 2.37902 61.9235C3.67666 61.9235 4.75803 60.8791 4.75803 59.5301C4.71478 58.2246 3.67666 57.1367 2.37902 57.1367Z" fill="#FD8363"/>
<path d="M21.6271 57.1367C20.3294 57.1367 19.248 58.1811 19.248 59.5301C19.248 60.8356 20.3294 61.9235 21.6271 61.9235C22.9247 61.9235 24.0061 60.8791 24.0061 59.5301C23.9628 58.2246 22.9247 57.1367 21.6271 57.1367Z" fill="#FD8363"/>
<path d="M40.8751 57.1367C39.5775 57.1367 38.4961 58.1811 38.4961 59.5301C38.4961 60.8356 39.5775 61.9235 40.8751 61.9235C42.1728 61.9235 43.2541 60.8791 43.2541 59.5301C43.2541 58.2246 42.1728 57.1367 40.8751 57.1367Z" fill="#FD8363"/>
<path d="M60.1241 57.1367C58.8265 57.1367 57.7451 58.1811 57.7451 59.5301C57.7451 60.8356 58.8265 61.9235 60.1241 61.9235C61.4218 61.9235 62.5031 60.8791 62.5031 59.5301C62.5031 58.2246 61.4218 57.1367 60.1241 57.1367Z" fill="#FD8363"/>
<path d="M79.3722 57.1367C78.0745 57.1367 76.9932 58.1811 76.9932 59.5301C76.9932 60.8356 78.0745 61.9235 79.3722 61.9235C80.6698 61.9235 81.7512 60.8791 81.7512 59.5301C81.7512 58.2246 80.6698 57.1367 79.3722 57.1367Z" fill="#FD8363"/>
<path d="M98.6212 57.1367C97.3236 57.1367 96.2422 58.1811 96.2422 59.5301C96.2422 60.8356 97.3236 61.9235 98.6212 61.9235C99.9188 61.9235 101 60.8791 101 59.5301C101 58.2246 99.9188 57.1367 98.6212 57.1367Z" fill="#FD8363"/>
<path d="M2.37902 76.1968C1.08137 76.1968 0 77.2412 0 78.5902C0 79.8956 1.08137 80.9836 2.37902 80.9836C3.67666 80.9836 4.75803 79.9392 4.75803 78.5902C4.71478 77.2412 3.67666 76.1968 2.37902 76.1968Z" fill="#FD8363"/>
<path d="M21.6271 76.1968C20.3294 76.1968 19.248 77.2412 19.248 78.5902C19.248 79.8956 20.3294 80.9836 21.6271 80.9836C22.9247 80.9836 24.0061 79.9392 24.0061 78.5902C23.9628 77.2412 22.9247 76.1968 21.6271 76.1968Z" fill="#FD8363"/>
<path d="M40.8751 76.1968C39.5775 76.1968 38.4961 77.2412 38.4961 78.5902C38.4961 79.8956 39.5775 80.9836 40.8751 80.9836C42.1728 80.9836 43.2541 79.9392 43.2541 78.5902C43.2541 77.2412 42.1728 76.1968 40.8751 76.1968Z" fill="#FD8363"/>
<path d="M60.1241 76.1968C58.8265 76.1968 57.7451 77.2412 57.7451 78.5902C57.7451 79.8956 58.8265 80.9836 60.1241 80.9836C61.4218 80.9836 62.5031 79.9392 62.5031 78.5902C62.5031 77.2412 61.4218 76.1968 60.1241 76.1968Z" fill="#FD8363"/>
<path d="M79.3722 76.1968C78.0745 76.1968 76.9932 77.2412 76.9932 78.5902C76.9932 79.8956 78.0745 80.9836 79.3722 80.9836C80.6698 80.9836 81.7512 79.9392 81.7512 78.5902C81.7512 77.2412 80.6698 76.1968 79.3722 76.1968Z" fill="#FD8363"/>
<path d="M98.6212 76.1968C97.3236 76.1968 96.2422 77.2412 96.2422 78.5902C96.2422 79.8956 97.3236 80.9836 98.6212 80.9836C99.9188 80.9836 101 79.9392 101 78.5902C101 77.2412 99.9188 76.1968 98.6212 76.1968Z" fill="#FD8363"/>
<path d="M2.37902 95.2134C1.08137 95.2134 0 96.2578 0 97.6068C0 98.9123 1.08137 100 2.37902 100C3.67666 100 4.75803 98.9558 4.75803 97.6068C4.71478 96.3013 3.67666 95.2134 2.37902 95.2134Z" fill="#FD8363"/>
<path d="M21.6271 95.2134C20.3294 95.2134 19.248 96.2578 19.248 97.6068C19.248 98.9123 20.3294 100 21.6271 100C22.9247 100 24.0061 98.9558 24.0061 97.6068C23.9628 96.3013 22.9247 95.2134 21.6271 95.2134Z" fill="#FD8363"/>
<path d="M40.8751 95.2134C39.5775 95.2134 38.4961 96.2578 38.4961 97.6068C38.4961 98.9123 39.5775 100 40.8751 100C42.1728 100 43.2541 98.9558 43.2541 97.6068C43.2541 96.3013 42.1728 95.2134 40.8751 95.2134Z" fill="#FD8363"/>
<path d="M60.1241 95.2134C58.8265 95.2134 57.7451 96.2578 57.7451 97.6068C57.7451 98.9123 58.8265 100 60.1241 100C61.4218 100 62.5031 98.9558 62.5031 97.6068C62.5031 96.3013 61.4218 95.2134 60.1241 95.2134Z" fill="#FD8363"/>
<path d="M79.3722 95.2134C78.0745 95.2134 76.9932 96.2578 76.9932 97.6068C76.9932 98.9123 78.0745 100 79.3722 100C80.6698 100 81.7512 98.9558 81.7512 97.6068C81.7512 96.3013 80.6698 95.2134 79.3722 95.2134Z" fill="#FD8363"/>
<path d="M98.6212 95.2134C97.3236 95.2134 96.2422 96.2578 96.2422 97.6068C96.2422 98.9123 97.3236 100 98.6212 100C99.9188 100 101 98.9558 101 97.6068C101 96.3013 99.9188 95.2134 98.6212 95.2134Z" fill="#FD8363"/>
</g>
<defs>
<clipPath id="clip0_1341_10722">
<rect width="101" height="100" fill="white"/>
</clipPath>
</defs>
</svg>
