<svg width="32" height="32" viewBox="0 0 32 32" fill="none" xmlns="http://www.w3.org/2000/svg">
<path d="M29.3327 12V20C29.3327 23.3333 28.666 25.6667 27.1727 27.1734L18.666 18.6667L28.9727 8.36002C29.2127 9.41335 29.3327 10.6133 29.3327 12Z" stroke="white" stroke-width="2" stroke-linecap="round" stroke-linejoin="round"/>
<path d="M28.9727 8.36L8.35933 28.9733C4.346 28.0533 2.66602 25.28 2.66602 20V12C2.66602 5.33332 5.33268 2.66666 11.9993 2.66666H19.9993C25.2793 2.66666 28.0527 4.34666 28.9727 8.36Z" stroke="white" stroke-width="2" stroke-linecap="round" stroke-linejoin="round"/>
<path d="M27.1727 27.1733C25.6661 28.6667 23.3327 29.3333 19.9994 29.3333H11.9994C10.6127 29.3333 9.41271 29.2133 8.35938 28.9733L18.6661 18.6667L27.1727 27.1733Z" stroke="white" stroke-width="2" stroke-linecap="round" stroke-linejoin="round"/>
<path d="M8.32035 10.64C9.22702 6.73332 15.0937 6.73332 16.0004 10.64C16.5204 12.9333 15.0803 14.88 13.8137 16.08C12.8937 16.96 11.4404 16.96 10.507 16.08C9.24037 14.88 7.78702 12.9333 8.32035 10.64Z" stroke="white" stroke-width="2"/>
<path d="M12.1261 11.6H12.1381" stroke="white" stroke-width="2" stroke-linecap="round" stroke-linejoin="round"/>
</svg>
