<svg width="20" height="20" viewBox="0 0 20 20" fill="none" xmlns="http://www.w3.org/2000/svg">
<path d="M2.88906 1.01569C1.51417 1.01569 0.615234 1.91851 0.615234 3.10515C0.615234 4.26558 1.48739 5.19415 2.8363 5.19415H2.8624C4.26418 5.19415 5.13657 4.26558 5.13657 3.10515C5.11036 1.91851 4.26418 1.01569 2.88906 1.01569Z" fill="#5C8AFF"/>
<path d="M0.853516 6.84485H4.87291V18.9373H0.853516V6.84485Z" fill="#5C8AFF"/>
<path d="M14.7375 6.56158C12.5692 6.56158 11.1152 8.59909 11.1152 8.59909V6.8454H7.0957V18.9379H11.115V12.185C11.115 11.8235 11.1412 11.4625 11.2474 11.204C11.538 10.4821 12.1992 9.73424 13.3096 9.73424C14.764 9.73424 15.3457 10.8432 15.3457 12.4688V18.9379H19.3648V12.0043C19.3648 8.28999 17.3818 6.56158 14.7375 6.56158Z" fill="#5C8AFF"/>
</svg>
