<svg width="20" height="20" viewBox="0 0 20 20" fill="none" xmlns="http://www.w3.org/2000/svg">
<g clip-path="url(#clip0_1341_13714)">
<path d="M8.61654 13.2284C8.09154 15.9815 7.45013 18.6214 5.55013 20.0003C4.9638 15.8386 6.41146 12.7132 7.08334 9.3952C5.93724 7.46552 7.22123 3.5827 9.6388 4.53973C12.6134 5.7163 7.06302 11.7128 10.7892 12.4616C14.6798 13.2433 16.2677 5.71122 13.8556 3.262C10.3697 -0.275109 3.70873 3.18114 4.52787 8.2452C4.72708 9.4831 6.00638 9.85888 5.03919 11.5671C2.80794 11.0725 2.14232 9.31317 2.22787 6.96747C2.36576 3.12763 5.67787 0.439344 9.00013 0.0674693C13.2013 -0.402843 17.1443 1.60966 17.6888 5.562C18.3021 10.0225 15.7923 14.8534 11.3001 14.5061C10.0822 14.4116 9.57123 13.8081 8.61654 13.2284Z" fill="#5C8AFF"/>
</g>
<defs>
<clipPath id="clip0_1341_13714">
<rect width="20" height="20" fill="white"/>
</clipPath>
</defs>
</svg>
