<svg width="91" height="91" viewBox="0 0 91 91" fill="none" xmlns="http://www.w3.org/2000/svg">
<g clip-path="url(#clip0_1341_13673)">
<path fill-rule="evenodd" clip-rule="evenodd" d="M3.37152 51.5297C24.9926 29.472 55.8955 33.6429 81.0116 47.7898C81.4435 48.032 81.9921 47.8798 82.2342 47.4479C82.4764 47.0161 82.3242 46.4676 81.8923 46.2254C56.0736 31.6809 24.3154 27.5983 2.08898 50.2743C1.742 50.6268 1.74814 51.195 2.10254 51.5433C2.4551 51.8903 3.0232 51.8841 3.37152 51.5297Z" fill="#B0EFC9"/>
<path fill-rule="evenodd" clip-rule="evenodd" d="M75.3434 46.7417C73.7661 46.7435 71.7866 46.7238 71.5619 46.7281C65.4726 46.845 59.7278 47.9003 53.9383 49.8316C53.4682 49.9878 53.214 50.4978 53.3702 50.9678C53.5263 51.4379 54.0363 51.6922 54.5063 51.536C60.1198 49.6614 65.691 48.6364 71.5978 48.5237C71.9421 48.5169 76.3919 48.564 77.2924 48.5059C77.6619 48.4838 77.864 48.3565 77.9089 48.3219C78.154 48.1474 78.2405 47.9329 78.2744 47.7557C78.3112 47.5554 78.2913 47.2099 78.0273 46.8491C77.7496 46.4726 76.9854 45.8365 76.8054 45.6603C74.0978 42.9949 70.8437 40.2561 68.3536 37.1156C65.9788 34.121 64.297 30.757 64.6047 26.6993C64.6426 26.2054 64.2703 25.7739 63.7764 25.736C63.2824 25.6981 62.8509 26.0704 62.813 26.5643C62.4699 31.1009 64.292 34.8841 66.9456 38.2308C69.4213 41.3524 72.6283 44.0905 75.3434 46.7417Z" fill="#B0EFC9"/>
</g>
<defs>
<clipPath id="clip0_1341_13673">
<rect width="65" height="65" fill="white" transform="translate(52.5098 91) rotate(-143.885)"/>
</clipPath>
</defs>
</svg>
