<svg width="24" height="24" viewBox="0 0 24 24" fill="none" xmlns="http://www.w3.org/2000/svg">
<mask id="mask0_1341_13704" style="mask-type:luminance" maskUnits="userSpaceOnUse" x="14" y="2" width="9" height="9">
<path fill-rule="evenodd" clip-rule="evenodd" d="M14.3535 2.00027H22.8925V10.5331H14.3535V2.00027Z" fill="white"/>
</mask>
<g mask="url(#mask0_1341_13704)">
<path fill-rule="evenodd" clip-rule="evenodd" d="M22.1422 10.5331C21.7652 10.5331 21.4412 10.2501 21.3982 9.86709C21.0192 6.49109 18.3972 3.87109 15.0202 3.49609C14.6092 3.45009 14.3122 3.08009 14.3582 2.66809C14.4032 2.25709 14.7702 1.95409 15.1862 2.00609C19.2642 2.45909 22.4312 5.62209 22.8882 9.69909C22.9342 10.1111 22.6382 10.4821 22.2272 10.5281C22.1992 10.5311 22.1702 10.5331 22.1422 10.5331Z" fill="#77829D"/>
</g>
<path fill-rule="evenodd" clip-rule="evenodd" d="M18.6024 10.5439C18.2504 10.5439 17.9374 10.2959 17.8674 9.93789C17.5794 8.45789 16.4384 7.31689 14.9604 7.02989C14.5534 6.95089 14.2884 6.55789 14.3674 6.15089C14.4464 5.74389 14.8464 5.47789 15.2464 5.55789C17.3274 5.96189 18.9344 7.56789 19.3394 9.64989C19.4184 10.0579 19.1534 10.4509 18.7474 10.5299C18.6984 10.5389 18.6504 10.5439 18.6024 10.5439Z" fill="#77829D"/>
<mask id="mask1_1341_13704" style="mask-type:luminance" maskUnits="userSpaceOnUse" x="2" y="1" width="21" height="22">
<path fill-rule="evenodd" clip-rule="evenodd" d="M2 1.99989H22.5002V22.5004H2V1.99989Z" fill="white"/>
</mask>
<g mask="url(#mask1_1341_13704)">
<path fill-rule="evenodd" clip-rule="evenodd" d="M4.35908 5.06139C4.36108 5.06139 4.31108 5.11339 4.24808 5.17539C4.00608 5.41039 3.50508 5.89939 3.50008 6.92239C3.49208 8.35339 4.43308 11.0104 8.96408 15.5404C13.4731 20.0484 16.1261 21.0004 17.5611 21.0004H17.5821C18.6051 20.9944 19.0931 20.4934 19.3281 20.2524C19.3991 20.1794 19.4571 20.1244 19.4981 20.0914C20.4951 19.0884 21.0051 18.3434 21.0001 17.8644C20.9941 17.3764 20.3871 16.8004 19.5481 16.0014C19.2811 15.7484 18.9911 15.4714 18.6851 15.1654C17.8911 14.3744 17.5001 14.5094 16.6351 14.8134C15.4401 15.2324 13.8031 15.8064 11.2521 13.2534C8.70008 10.7024 9.27208 9.06539 9.68908 7.86939C9.99108 7.00539 10.1291 6.61239 9.33608 5.81839C9.02608 5.50839 8.74708 5.21439 8.49008 4.94439C7.69608 4.11039 7.12308 3.50739 6.63808 3.50039H6.63008C6.15108 3.50039 5.40708 4.01239 4.35408 5.06539C4.35708 5.06239 4.35808 5.06139 4.35908 5.06139ZM17.5611 22.5004C15.0691 22.5004 11.8201 20.5164 7.90408 16.6014C3.97208 12.6704 1.98508 9.41139 2.00008 6.91439C2.00908 5.26439 2.87408 4.41939 3.19908 4.10239C3.21608 4.08139 3.27408 4.02439 3.29408 4.00439C4.72908 2.56939 5.71508 1.97939 6.65708 2.00039C7.77408 2.01539 8.57008 2.85239 9.57708 3.91139C9.82608 4.17239 10.0951 4.45739 10.3961 4.75739C11.8551 6.21739 11.4401 7.40839 11.1051 8.36439C10.7411 9.40739 10.4261 10.3074 12.3121 12.1934C14.1981 14.0794 15.0971 13.7644 16.1391 13.3974C17.0961 13.0634 18.2841 12.6454 19.7461 14.1054C20.0431 14.4024 20.3231 14.6684 20.5831 14.9154C21.6461 15.9274 22.4861 16.7264 22.5001 17.8464C22.5111 18.8004 21.9311 19.7744 20.4991 21.2064L19.8651 20.7764L20.4021 21.2994C20.0851 21.6244 19.2421 22.4904 17.5911 22.5004H17.5611Z" fill="#77829D"/>
</g>
</svg>
