<svg width="20" height="20" viewBox="0 0 20 20" fill="none" xmlns="http://www.w3.org/2000/svg">
<path d="M6.51589 17.5085C13.5917 17.5085 17.4612 11.6464 17.4612 6.56319C17.4612 6.3967 17.4578 6.2309 17.4503 6.06601C18.2014 5.52296 18.8541 4.84529 19.3692 4.07394C18.68 4.38044 17.9381 4.58649 17.1601 4.67971C17.9543 4.20328 18.564 3.44993 18.8516 2.55188C18.1084 2.99254 17.2852 3.31268 16.4089 3.48559C15.7069 2.73787 14.7074 2.27026 13.6008 2.27026C11.4765 2.27026 9.75367 3.99299 9.75367 6.11657C9.75367 6.4186 9.7875 6.71214 9.85343 6.99376C6.65624 6.83288 3.82104 5.30223 1.92391 2.97453C1.59368 3.54293 1.4031 4.20339 1.4031 4.90812C1.4031 6.24259 2.08226 7.421 3.11493 8.11013C2.48382 8.09076 1.891 7.9175 1.37272 7.62912C1.37214 7.64528 1.37214 7.66099 1.37214 7.67819C1.37214 9.54126 2.69813 11.0968 4.45857 11.4493C4.13522 11.5372 3.79501 11.5846 3.44413 11.5846C3.19669 11.5846 2.95543 11.5603 2.72106 11.5152C3.21079 13.0437 4.63103 14.1559 6.31476 14.1871C4.99807 15.2191 3.33945 15.8338 1.5368 15.8338C1.22675 15.8338 0.92025 15.8161 0.619141 15.7805C2.32168 16.8718 4.34333 17.5086 6.516 17.5086" fill="#fff"/>
</svg>
