<svg width="130" height="115" viewBox="0 0 130 115" fill="none" xmlns="http://www.w3.org/2000/svg">
<path d="M64.3286 73.911C65.0463 71.519 65.2995 69.6532 66.1416 68.1186C67.6885 65.2895 69.6672 62.705 71.3113 59.9353C74.1936 55.0914 76.8608 50.1161 79.8125 45.3146C81.4813 42.5981 83.2522 39.8391 85.489 37.6125C88.1124 35.0025 91.8109 34.9075 94.3971 36.6492C97.2525 38.5743 98.2388 42.2644 96.4685 46.0054C95.3379 48.4026 93.9404 50.8465 92.086 52.6968C86.1882 58.5769 80.058 64.2294 73.9319 69.8748C72.3639 71.3187 70.5848 72.6241 68.7052 73.6108C67.726 74.1373 66.3003 73.8192 64.3286 73.911Z" fill="#343E61"/>
<path d="M25.9853 70.0953C25.3669 70.3276 24.6165 70.8699 23.9602 70.774C23.2832 70.6654 22.3882 70.0712 22.1406 69.4624C21.5399 67.9806 21.1563 66.3929 20.8675 64.8061C19.1847 55.5157 17.5175 46.2157 15.9534 36.9025C15.6484 35.077 15.5522 33.1122 15.8776 31.3001C16.4975 27.8667 19.469 25.3264 22.5279 25.1553C25.5463 24.988 28.5753 27.3623 29.6128 30.7502C29.8509 31.515 30.0524 32.3243 30.0795 33.1223C30.4493 44.7653 29.8587 56.3267 27.0072 67.6889C26.8212 68.4616 26.3887 69.1695 25.9853 70.0953Z" fill="#343E61"/>
<path d="M113.233 83.6058C112.174 84.3409 110.565 85.931 108.634 86.7052C101.63 89.5275 94.5242 92.0965 87.4373 94.6964C86.4427 95.0609 85.3219 95.1483 84.2517 95.1999C82.8981 95.2784 81.317 95.1991 81.0228 93.5899C80.8649 92.7405 81.5518 91.6162 82.1037 90.7906C82.5257 90.1621 83.3363 89.7708 84.0093 89.3242C90.5433 85.0239 97.0457 80.6661 103.657 76.4891C105.438 75.3664 107.501 74.5485 109.547 74.0541C111.432 73.6045 113.329 74.1342 114.441 76.0428C115.466 77.8126 115.536 79.6181 114.549 81.4362C114.289 81.9251 113.988 82.3704 113.233 83.6058Z" fill="#343E61"/>
</svg>
