<svg width="92" height="92" viewBox="0 0 92 92" fill="none" xmlns="http://www.w3.org/2000/svg">
<g clip-path="url(#clip0_1341_13681)">
<path fill-rule="evenodd" clip-rule="evenodd" d="M3.48691 45.0756C27.5961 64.3824 57.7763 56.5373 81.0155 39.4817C81.4152 39.1895 81.9781 39.2749 82.2703 39.6746C82.5624 40.0743 82.4771 40.6371 82.0774 40.9293C58.1883 58.4638 27.1485 66.3239 2.36411 46.4757C1.97737 46.1672 1.91536 45.6025 2.22545 45.2142C2.53388 44.8274 3.09863 44.7655 3.48691 45.0756Z" fill="#B0EFC9"/>
<path fill-rule="evenodd" clip-rule="evenodd" d="M81.1095 40.5257C79.5434 40.713 77.5805 40.9699 77.3569 40.9925C71.2975 41.6064 65.4676 41.2474 59.4884 40.0239C59.003 39.9252 58.6894 39.4494 58.7881 38.964C58.8868 38.4786 59.3626 38.1651 59.848 38.2638C65.6457 39.452 71.2996 39.8017 77.1773 39.2055C77.5199 39.171 81.932 38.5909 82.833 38.5406C83.2024 38.5183 83.4184 38.6204 83.4671 38.6494C83.7313 38.7933 83.8429 38.9959 83.8978 39.1677C83.9583 39.3622 83.98 39.7075 83.7612 40.0974C83.5306 40.5045 82.8481 41.2276 82.6906 41.4241C80.322 44.3948 77.4196 47.504 75.324 50.9203C73.3253 54.178 72.0588 57.7193 72.8507 61.7108C72.9475 62.1967 72.6297 62.6696 72.1438 62.7665C71.658 62.8633 71.185 62.5455 71.0881 62.0597C70.2037 57.5969 71.5591 53.6226 73.7924 49.9819C75.8761 46.5861 78.7318 43.4833 81.1095 40.5257Z" fill="#B0EFC9"/>
</g>
<defs>
<clipPath id="clip0_1341_13681">
<rect width="65" height="65" fill="white" transform="matrix(-0.731354 0.681998 0.681998 0.731354 47.5371 0)"/>
</clipPath>
</defs>
</svg>
