<svg width="20" height="20" viewBox="0 0 20 20" fill="none" xmlns="http://www.w3.org/2000/svg">
<path fill-rule="evenodd" clip-rule="evenodd" d="M7.40078 19.748C7.40078 19.8871 7.51367 20 7.65273 20H11.2438C11.3828 20 11.4953 19.8871 11.4953 19.748V9.92109H14.0988C14.2293 9.92109 14.3383 9.8207 14.3496 9.69063L14.6 6.72969C14.6121 6.58281 14.4965 6.45664 14.3488 6.45664H11.4953V4.35625C11.4953 3.86367 11.8945 3.46445 12.3867 3.46445H14.393C14.5324 3.46445 14.6449 3.35156 14.6449 3.2125V0.251953C14.6449 0.112891 14.5324 0 14.393 0H11.0031C9.01367 0 7.40078 1.6125 7.40078 3.60195V6.45664H5.60547C5.46641 6.45664 5.35352 6.56953 5.35352 6.70859V9.66914C5.35352 9.80859 5.46641 9.92109 5.60547 9.92109H7.40078V19.748Z" fill="#fff"/>
</svg>
