<svg width="294" height="41" viewBox="0 0 294 41" fill="none" xmlns="http://www.w3.org/2000/svg">
<path fill-rule="evenodd" clip-rule="evenodd" d="M139.191 0.883786C120.996 1.72081 86.0616 9.41523 53.2001 19.8232C50.5502 20.6626 47.0591 21.769 45.4422 22.282C23.6388 29.2 11.9127 33.5625 3.70482 37.8105C0.501533 39.4685 0.226331 39.6695 0.311096 40.2889C0.434897 41.1929 0.956067 41.0533 6.89995 38.5238C13.0506 35.9064 18.5635 34.0059 33.6828 29.2907C84.2147 13.5315 107.817 7.75421 134.291 4.66406C139.479 4.05844 147.765 4.16391 147.765 4.83545C147.765 5.73248 142.568 8.79169 130.534 14.9777C115.731 22.5881 106.718 27.6365 105.92 28.7661C104.556 30.6962 106.056 32.089 109.302 31.9064C111.157 31.8021 111.578 31.7232 120.082 29.8865C144.496 24.6133 160.1 21.9369 181.247 19.3952C213.451 15.5245 233.969 14.0966 272.545 13.0412C286.407 12.6621 287.124 12.6092 289.682 11.7791C290.668 11.4591 291.846 11.1464 292.3 11.084C293.363 10.9382 293.35 10.7516 292.267 10.614C291.795 10.554 290.711 10.2676 289.858 9.97759C287.754 9.26244 286.359 9.22508 274.342 9.56178C234.057 10.6904 212.86 12.1337 182.145 15.8394C165.991 17.7883 158.793 18.8473 147.03 21.0054C138.989 22.4806 117.763 26.7756 114.79 27.529C113.168 27.94 120.21 24.0622 132.579 17.7334C148.225 9.72759 151.34 7.55324 151.355 4.62823C151.371 1.32985 148.527 0.454459 139.191 0.883786Z" fill="#3AC4E5"/>
</svg>
