<svg width="167" height="235" viewBox="0 0 167 235" fill="none" xmlns="http://www.w3.org/2000/svg">
<path fill-rule="evenodd" clip-rule="evenodd" d="M123.797 172.886C116.484 154.711 108.838 147.365 100.693 145.723C92.5477 144.075 84.2717 148.079 75.9967 152.088C70.2913 154.891 64.4694 157.751 58.8935 158.957C53.0757 160.22 47.3613 159.718 41.8588 155.716C40.5823 154.749 39.3188 153.056 38.328 150.693C36.8349 147.51 35.5235 143.068 34.4578 137.784C30.1201 117.784 27.6659 85.6363 21.744 66.7344C20.4459 62.3795 18.8858 58.7568 17.1115 56.1872C15.5152 53.9592 13.7952 52.5516 11.7731 52.4355C10.13 52.3397 8.36729 53.0949 6.24088 54.7386C2.66414 57.5366 -1.29387 62.7336 -6.04543 70.9081C-10.2026 78.0636 -13.3798 85.8945 -17.392 93.1779C-23.6504 104.576 -30.2543 116.168 -38.1699 125.756C-38.7019 126.367 -39.5661 126.446 -40.1451 125.941C-40.8467 125.452 -40.8623 124.542 -40.3303 123.931C-32.5191 114.478 -26.0167 103.039 -19.8585 91.8031C-15.9713 84.5216 -12.6757 76.6539 -8.52114 69.4816C-3.5837 60.8881 0.712483 55.4457 4.51608 52.4942C7.18774 50.3251 9.68655 49.4652 11.9593 49.582C14.2341 49.7126 16.4151 50.8623 18.242 52.9613C20.6743 55.7367 22.7472 60.2388 24.4953 65.8875C30.4279 84.858 32.8985 117.12 37.2473 137.192C38.2753 142.232 39.5557 146.469 40.9028 149.518C41.6831 151.329 42.5194 152.689 43.6329 153.411C48.3019 156.882 53.2449 157.261 58.3362 156.161C63.6692 155.004 69.2525 152.222 74.8463 149.508C83.5812 145.231 92.5975 141.152 101.264 142.926C109.931 144.705 118.615 152.283 126.391 171.836C126.753 172.558 126.381 173.391 125.674 173.679C124.966 173.967 124.037 173.626 123.797 172.886Z" fill="#FD8363"/>
<path fill-rule="evenodd" clip-rule="evenodd" d="M125.412 172.906C125.504 172.69 125.667 172.117 125.721 171.655C126.123 169.391 126.342 165.938 126.435 164.921C127.79 155.84 128.496 145.8 127.064 136.514C126.944 135.735 127.459 135.011 128.193 134.9C129.05 134.771 129.76 135.309 129.88 136.088C131.354 145.643 130.569 155.985 129.375 165.298C129.161 166.348 128.95 169.851 128.553 172.149C128.43 172.973 128.285 173.661 128.103 174.107C127.91 174.48 127.701 174.748 127.479 174.931C127.047 175.381 126.341 175.676 125.603 175.764C124.742 175.867 123.719 175.735 122.666 175.405C120.441 174.785 117.73 173.445 115.562 172.388C114.341 171.778 113.259 171.264 112.616 171.154C107.085 170.216 101.62 172.951 98.1444 179.651C97.7515 180.352 96.9151 180.619 96.2321 180.251C95.5491 179.884 95.2906 179.018 95.5609 178.335C99.8305 170.284 106.374 167.227 113.06 168.346C114.729 168.606 118.584 170.864 121.917 172.174C122.975 172.533 123.896 172.82 124.662 172.912C124.916 172.934 125.045 172.957 125.291 172.926C125.291 172.929 125.414 172.915 125.412 172.906Z" fill="#FD8363"/>
</svg>
